<svg preserveAspectRatio="none" width="100%" height="100%" overflow="visible" style="display: block;" viewBox="0 0 18.75 18.75" fill="none" xmlns="http://www.w3.org/2000/svg">
<path id="Vector" d="M3.125 0C2.2965 0.000992411 1.50222 0.330551 0.916387 0.916387C0.330551 1.50222 0.000992411 2.2965 0 3.125V13.125C0.00125798 13.8544 0.257629 14.5604 0.724695 15.1207C1.19176 15.6809 1.8401 16.0601 2.55737 16.1926C2.68986 16.9099 3.06909 17.5582 3.62934 18.0253C4.1896 18.4924 4.89559 18.7487 5.625 18.75H15.625C16.4535 18.749 17.2478 18.4194 17.8336 17.8336C18.4194 17.2478 18.749 16.4535 18.75 15.625V5.625C18.7487 4.89559 18.4924 4.1896 18.0253 3.62934C17.5582 3.06909 16.9099 2.68986 16.1926 2.55737C16.0601 1.8401 15.6809 1.19176 15.1207 0.724695C14.5604 0.257629 13.8544 0.00125798 13.125 0H3.125ZM3.125 1.25H13.125C13.5115 1.25155 13.888 1.37248 14.2031 1.59623C14.5182 1.81999 14.7564 2.13564 14.8853 2.5H5.625C4.7965 2.50099 4.00222 2.83055 3.41639 3.41639C2.83055 4.00222 2.50099 4.7965 2.5 5.625V14.8853C2.13564 14.7564 1.81999 14.5182 1.59623 14.2031C1.37248 13.888 1.25155 13.5115 1.25 13.125V3.125C1.25 2.62772 1.44754 2.15081 1.79917 1.79917C2.15081 1.44754 2.62772 1.25 3.125 1.25ZM5.625 3.75H15.625C16.1223 3.75 16.5992 3.94754 16.9508 4.29917C17.3025 4.65081 17.5 5.12772 17.5 5.625V15.625C17.5 16.1223 17.3025 16.5992 16.9508 16.9508C16.5992 17.3025 16.1223 17.5 15.625 17.5H5.625C5.12772 17.5 4.65081 17.3025 4.29917 16.9508C3.94754 16.5992 3.75 16.1223 3.75 15.625V5.625C3.75 5.12772 3.94754 4.65081 4.29917 4.29917C4.65081 3.94754 5.12772 3.75 5.625 3.75ZM10.6067 6.25C10.4441 6.25476 10.2898 6.32271 10.1765 6.43941C10.0633 6.55611 9.99993 6.71236 10 6.875V10H6.875C6.70924 10 6.55027 10.0658 6.43306 10.1831C6.31585 10.3003 6.25 10.4592 6.25 10.625C6.25 10.7908 6.31585 10.9497 6.43306 11.0669C6.55027 11.1842 6.70924 11.25 6.875 11.25H10V14.375C10 14.5408 10.0658 14.6997 10.1831 14.8169C10.3003 14.9342 10.4592 15 10.625 15C10.7908 15 10.9497 14.9342 11.0669 14.8169C11.1842 14.6997 11.25 14.5408 11.25 14.375V11.25H14.375C14.5408 11.25 14.6997 11.1842 14.8169 11.0669C14.9342 10.9497 15 10.7908 15 10.625C15 10.4592 14.9342 10.3003 14.8169 10.1831C14.6997 10.0658 14.5408 10 14.375 10H11.25V6.875C11.25 6.79136 11.2333 6.70856 11.2007 6.63152C11.1682 6.55447 11.1205 6.48474 11.0605 6.42646C11.0005 6.36817 10.9294 6.32253 10.8515 6.29221C10.7735 6.2619 10.6903 6.24755 10.6067 6.25Z" fill="var(--fill-0, black)"/>
</svg>
