<svg preserveAspectRatio="none" width="100%" height="100%" overflow="visible" style="display: block;" viewBox="0 0 17.3333 17.3333" fill="none" xmlns="http://www.w3.org/2000/svg">
<path id="Vector" d="M0.666667 8H7.33333C7.51014 8 7.67971 7.92976 7.80474 7.80474C7.92976 7.67971 8 7.51014 8 7.33333V0.666667C8 0.489856 7.92976 0.320286 7.80474 0.195262C7.67971 0.0702379 7.51014 0 7.33333 0H0.666667C0.489856 0 0.320286 0.0702379 0.195262 0.195262C0.0702379 0.320286 0 0.489856 0 0.666667V7.33333C0 7.51014 0.0702379 7.67971 0.195262 7.80474C0.320286 7.92976 0.489856 8 0.666667 8ZM1.33333 1.33333H6.66667V6.66667H1.33333V1.33333ZM10 8H16.6667C16.8435 8 17.013 7.92976 17.1381 7.80474C17.2631 7.67971 17.3333 7.51014 17.3333 7.33333V0.666667C17.3333 0.489856 17.2631 0.320286 17.1381 0.195262C17.013 0.0702379 16.8435 0 16.6667 0H10C9.82319 0 9.65362 0.0702379 9.5286 0.195262C9.40357 0.320286 9.33333 0.489856 9.33333 0.666667V7.33333C9.33333 7.51014 9.40357 7.67971 9.5286 7.80474C9.65362 7.92976 9.82319 8 10 8ZM10.6667 1.33333H16V6.66667H10.6667V1.33333ZM0 16.6667C0 16.8435 0.0702379 17.013 0.195262 17.1381C0.320286 17.2631 0.489856 17.3333 0.666667 17.3333H7.33333C7.51014 17.3333 7.67971 17.2631 7.80474 17.1381C7.92976 17.013 8 16.8435 8 16.6667V10C8 9.82319 7.92976 9.65362 7.80474 9.5286C7.67971 9.40357 7.51014 9.33333 7.33333 9.33333H0.666667C0.489856 9.33333 0.320286 9.40357 0.195262 9.5286C0.0702379 9.65362 0 9.82319 0 10V16.6667ZM1.33333 10.6667H6.66667V16H1.33333V10.6667ZM10 14H12.6667V16.6667C12.6667 16.8435 12.7369 17.013 12.8619 17.1381C12.987 17.2631 13.1565 17.3333 13.3333 17.3333C13.5101 17.3333 13.6797 17.2631 13.8047 17.1381C13.9298 17.013 14 16.8435 14 16.6667V14H16.6667C16.8435 14 17.013 13.9298 17.1381 13.8047C17.2631 13.6797 17.3333 13.5101 17.3333 13.3333C17.3333 13.1565 17.2631 12.987 17.1381 12.8619C17.013 12.7369 16.8435 12.6667 16.6667 12.6667H14V10C14 9.82319 13.9298 9.65362 13.8047 9.5286C13.6797 9.40357 13.5101 9.33333 13.3333 9.33333C13.1565 9.33333 12.987 9.40357 12.8619 9.5286C12.7369 9.65362 12.6667 9.82319 12.6667 10V12.6667H10C9.82319 12.6667 9.65362 12.7369 9.5286 12.8619C9.40357 12.987 9.33333 13.1565 9.33333 13.3333C9.33333 13.5101 9.40357 13.6797 9.5286 13.8047C9.65362 13.9298 9.82319 14 10 14Z" fill="var(--fill-0, black)"/>
</svg>
