<svg preserveAspectRatio="none" width="100%" height="100%" overflow="visible" style="display: block;" viewBox="0 0 20 20" fill="none" xmlns="http://www.w3.org/2000/svg">
<g id="alert" clip-path="url(#clip0_0_9)">
<path id="Vector" d="M9.9375 1.375C9.81562 1.39375 9.70937 1.46719 9.65 1.575L0.0499976 18.2C-0.0218774 18.325 -0.0218774 18.4781 0.05156 18.6016C0.123435 18.725 0.256248 18.8016 0.399998 18.8H19.6C19.7437 18.8016 19.8766 18.725 19.9484 18.6016C20.0219 18.4781 20.0219 18.325 19.95 18.2L10.35 1.575C10.2687 1.42813 10.1031 1.34844 9.9375 1.375ZM10 2.575L18.9 18H1.1L10 2.575ZM9.5375 7.5625C9.45156 7.5625 9.4 7.61406 9.4 7.7V13.4875C9.4 13.5734 9.45156 13.6375 9.5375 13.6375H10.4625C10.5484 13.6375 10.6 13.5734 10.6 13.4875V7.7C10.6 7.61406 10.5484 7.5625 10.4625 7.5625H9.5375ZM9.45 14.7875C9.39687 14.8078 9.375 14.8609 9.375 14.925V15.975C9.375 16.0609 9.42656 16.1125 9.5125 16.1125H10.4875C10.5734 16.1125 10.625 16.0609 10.625 15.975V14.925C10.625 14.8391 10.5734 14.7875 10.4875 14.7875H9.5125C9.49062 14.7875 9.46719 14.7812 9.45 14.7875Z" fill="var(--fill-0, black)"/>
</g>
<defs>
<clipPath id="clip0_0_9">
<rect width="20" height="20" fill="white"/>
</clipPath>
</defs>
</svg>
