<svg preserveAspectRatio="none" width="100%" height="100%" overflow="visible" style="display: block;" viewBox="0 0 20 20" fill="none" xmlns="http://www.w3.org/2000/svg">
<g id="arrow-down">
<path id="Vector" d="M9.96251 3.18751C9.94532 3.19063 9.92813 3.19532 9.91251 3.20001C9.72657 3.2422 9.59532 3.40938 9.60001 3.60001V15.4125L5.92501 11.7375C5.85001 11.6578 5.74688 11.6141 5.63751 11.6125C5.47501 11.6141 5.3297 11.7125 5.26876 11.8641C5.20938 12.0141 5.24532 12.1875 5.36251 12.3L9.71251 16.6625L10 16.9375L10.2875 16.6625L14.6375 12.3C14.7563 12.2031 14.8109 12.0484 14.7766 11.8984C14.7422 11.75 14.625 11.6328 14.4766 11.5984C14.3266 11.5641 14.1719 11.6188 14.075 11.7375L10.4 15.4125V3.60001C10.4047 3.48438 10.3578 3.37345 10.275 3.29532C10.1906 3.21563 10.0766 3.17657 9.96251 3.18751Z" fill="var(--fill-0, black)"/>
</g>
</svg>
