<svg preserveAspectRatio="none" width="100%" height="100%" overflow="visible" style="display: block;" viewBox="0 0 20 20" fill="none" xmlns="http://www.w3.org/2000/svg">
<g id="arrow-right">
<path id="Vector" d="M11.9375 5.2375C11.7875 5.26406 11.6672 5.37343 11.625 5.51875C11.5828 5.66562 11.6266 5.82187 11.7375 5.925L15.4125 9.59999H3.59999C3.58749 9.59999 3.57499 9.59999 3.56249 9.59999C3.34218 9.61093 3.1703 9.79843 3.18124 10.0187C3.19218 10.2391 3.37968 10.4109 3.59999 10.4H15.4125L11.7375 14.075C11.6187 14.1719 11.5641 14.3266 11.5984 14.4766C11.6328 14.625 11.75 14.7422 11.8984 14.7766C12.0484 14.8109 12.2031 14.7562 12.3 14.6375L16.6625 10.2875L16.9375 9.99999L16.6625 9.71249L12.3 5.3625C12.2172 5.27343 12.0969 5.22812 11.975 5.2375C11.9625 5.2375 11.95 5.2375 11.9375 5.2375Z" fill="var(--fill-0, black)"/>
</g>
</svg>
