<svg preserveAspectRatio="none" width="100%" height="100%" overflow="visible" style="display: block;" viewBox="0 0 20 20" fill="none" xmlns="http://www.w3.org/2000/svg">
<g id="arrow-up">
<path id="Vector" d="M10 3.0625L9.71251 3.3375L5.36251 7.7C5.24376 7.79688 5.18907 7.95156 5.22345 8.10156C5.25782 8.25 5.37501 8.36719 5.52345 8.40156C5.67345 8.43594 5.82813 8.38125 5.92501 8.2625L9.60001 4.5875V16.4C9.59845 16.5438 9.67345 16.6781 9.79845 16.7516C9.92345 16.8234 10.0766 16.8234 10.2016 16.7516C10.3266 16.6781 10.4016 16.5438 10.4 16.4V4.5875L14.075 8.2625C14.1719 8.38125 14.3266 8.43594 14.4766 8.40156C14.625 8.36719 14.7422 8.25 14.7766 8.10156C14.8109 7.95156 14.7563 7.79688 14.6375 7.7L10.2875 3.3375L10 3.0625Z" fill="var(--fill-0, black)"/>
</g>
</svg>
