<svg preserveAspectRatio="none" width="100%" height="100%" overflow="visible" style="display: block;" viewBox="0 0 20 20" fill="none" xmlns="http://www.w3.org/2000/svg">
<g id="arrow-left">
<path id="Vector" d="M7.925 5.2375C7.8375 5.25313 7.75938 5.29688 7.7 5.3625L3.3375 9.7125L3.0625 10L3.3375 10.2875L7.7 14.6375C7.79688 14.7562 7.95156 14.8109 8.10156 14.7766C8.25 14.7422 8.36719 14.625 8.40156 14.4766C8.43594 14.3266 8.38125 14.1719 8.2625 14.075L4.5875 10.4H16.4C16.5438 10.4016 16.6781 10.3266 16.7516 10.2016C16.8234 10.0766 16.8234 9.92344 16.7516 9.79844C16.6781 9.67344 16.5438 9.59844 16.4 9.6H4.5875L8.2625 5.925C8.39219 5.80469 8.42656 5.61406 8.34844 5.45625C8.27188 5.29688 8.09844 5.20938 7.925 5.2375Z" fill="var(--fill-0, black)"/>
</g>
</svg>
