<svg preserveAspectRatio="none" width="100%" height="100%" overflow="visible" style="display: block;" viewBox="0 0 20 20" fill="none" xmlns="http://www.w3.org/2000/svg">
<g id="avatar">
<path id="Vector" d="M10 1.2C7.78594 1.2 6 2.98594 6 5.2V7.6C6 8.89531 6.63438 10.0578 7.6 10.7875V12.6C7.6 12.6422 7.59219 12.6781 7.4875 12.775C7.38281 12.8719 7.19688 13.0016 6.95 13.125C6.45781 13.3719 5.74688 13.625 5.025 13.975C4.30313 14.325 3.55469 14.7703 2.975 15.4125C2.39531 16.0547 2 16.9156 2 18V18.4H18V18C18 16.9062 17.6047 16.0422 17.025 15.4C16.4453 14.7578 15.6969 14.3203 14.975 13.975C14.2531 13.6297 13.5406 13.3687 13.05 13.125C12.8047 13.0031 12.6156 12.8844 12.5125 12.7875C12.4094 12.6906 12.4 12.65 12.4 12.6V10.7875C13.3656 10.0578 14 8.89531 14 7.6V5.2C14 2.98594 12.2141 1.2 10 1.2ZM10 2C11.7859 2 13.2 3.41406 13.2 5.2V7.6C13.2 8.70312 12.6234 9.69687 11.775 10.2625L11.6 10.3875V12.6C11.6 12.9094 11.7594 13.1828 11.9625 13.375C12.1656 13.5672 12.4203 13.7109 12.7 13.85C13.2594 14.1281 13.9469 14.375 14.625 14.7C15.3031 15.025 15.9547 15.4172 16.425 15.9375C16.8156 16.3687 17.0422 16.9219 17.125 17.6H2.875C2.95781 16.9297 3.18594 16.3828 3.575 15.95C4.04531 15.4281 4.69688 15.0297 5.375 14.7C6.05313 14.3703 6.74219 14.1156 7.3 13.8375C7.57813 13.6984 7.83594 13.5516 8.0375 13.3625C8.23906 13.1734 8.4 12.9078 8.4 12.6V10.3875L8.225 10.2625C7.37656 9.69687 6.8 8.70312 6.8 7.6V5.2C6.8 3.41406 8.21406 2 10 2Z" fill="var(--fill-0, black)"/>
</g>
</svg>
