<svg preserveAspectRatio="none" width="100%" height="100%" overflow="visible" style="display: block;" viewBox="0 0 20 20" fill="none" xmlns="http://www.w3.org/2000/svg">
<g id="bell">
<path id="Vector" d="M10 0C9.12031 0 8.4 0.720312 8.4 1.6C8.4 1.80625 8.44062 2.00625 8.5125 2.1875C6.2625 2.77188 4.8 4.72656 4.8 7.2C4.8 10.3328 4.03125 11.7594 3.3 12.5625C2.93438 12.9641 2.57344 13.2078 2.2625 13.4375C2.10625 13.5516 1.96406 13.6656 1.8375 13.8125C1.71094 13.9594 1.6 14.1688 1.6 14.4C1.6 14.95 1.9375 15.4172 2.4125 15.725C2.8875 16.0328 3.51094 16.2313 4.2625 16.3875C5.2375 16.5891 6.44062 16.6953 7.7625 16.75C7.6625 17.0156 7.6 17.3016 7.6 17.6C7.6 18.9203 8.67969 20 10 20C11.3203 20 12.4 18.9203 12.4 17.6C12.4 17.3 12.3391 17.0141 12.2375 16.75C13.5594 16.6953 14.7625 16.5891 15.7375 16.3875C16.4891 16.2313 17.1125 16.0328 17.5875 15.725C18.0625 15.4172 18.4 14.95 18.4 14.4C18.4 14.1688 18.2891 13.9594 18.1625 13.8125C18.0359 13.6656 17.8937 13.5516 17.7375 13.4375C17.4266 13.2078 17.0656 12.9641 16.7 12.5625C15.9687 11.7594 15.2 10.3328 15.2 7.2C15.2 4.72813 13.7344 2.775 11.4875 2.1875C11.5594 2.00625 11.6 1.80625 11.6 1.6C11.6 0.720312 10.8797 0 10 0ZM10 0.8C10.4469 0.8 10.8 1.15313 10.8 1.6C10.8 2.04688 10.4469 2.4 10 2.4C9.55312 2.4 9.2 2.04688 9.2 1.6C9.2 1.15313 9.55312 0.8 10 0.8ZM10.9375 2.875C13.0703 3.25469 14.4 4.90313 14.4 7.2C14.4 10.4672 15.2312 12.1453 16.1 13.1C16.5344 13.5766 16.9734 13.875 17.2625 14.0875C17.4062 14.1938 17.5141 14.2828 17.5625 14.3375C17.6109 14.3922 17.6 14.3875 17.6 14.4C17.6 14.65 17.4844 14.8328 17.15 15.05C16.8156 15.2672 16.2719 15.4688 15.575 15.6125C14.1812 15.9016 12.1969 16 10 16C7.80312 16 5.81875 15.9016 4.425 15.6125C3.72812 15.4688 3.18438 15.2672 2.85 15.05C2.51563 14.8328 2.4 14.65 2.4 14.4C2.4 14.3875 2.38906 14.3922 2.4375 14.3375C2.48594 14.2828 2.59375 14.1938 2.7375 14.0875C3.02656 13.875 3.46562 13.5766 3.9 13.1C4.76875 12.1453 5.6 10.4672 5.6 7.2C5.6 4.90469 6.93125 3.26875 9.0625 2.8875C9.32812 3.08281 9.64844 3.2 10 3.2C10.3547 3.2 10.6719 3.07344 10.9375 2.875ZM8.625 16.775C9.07344 16.7844 9.52969 16.8 10 16.8C10.4703 16.8 10.9266 16.7844 11.375 16.775C11.5172 17.0156 11.6 17.3 11.6 17.6C11.6 18.4891 10.8891 19.2 10 19.2C9.11094 19.2 8.4 18.4891 8.4 17.6C8.4 17.2969 8.47969 17.0156 8.625 16.775Z" fill="var(--fill-0, black)"/>
</g>
</svg>
