<svg preserveAspectRatio="none" width="100%" height="100%" overflow="visible" style="display: block;" viewBox="0 0 20 20" fill="none" xmlns="http://www.w3.org/2000/svg">
<g id="blocked" clip-path="url(#clip0_0_9)">
<path id="Vector" d="M10 0.8C4.93066 0.8 0.8 4.93066 0.8 10C0.8 15.0693 4.93066 19.2 10 19.2C15.0693 19.2 19.2 15.0693 19.2 10C19.2 4.93066 15.0693 0.8 10 0.8ZM10 1.6C14.6355 1.6 18.4 5.36454 18.4 10C18.4 14.6355 14.6355 18.4 10 18.4C5.36454 18.4 1.6 14.6355 1.6 10C1.6 5.36454 5.36454 1.6 10 1.6ZM10 2.4C8.20947 2.4 6.56066 3.02811 5.26094 4.06797L4.9125 4.34688L15.6531 15.0875L15.932 14.7391C16.9719 13.4393 17.6 11.7905 17.6 10C17.6 5.81304 14.187 2.4 10 2.4ZM10 3.2C13.753 3.2 16.8 6.24696 16.8 10C16.8 11.4387 16.2993 12.7369 15.5336 13.8367L6.16328 4.46641C7.2631 3.70072 8.56125 3.2 10 3.2ZM4.34688 4.9125L4.06797 5.26094C3.02811 6.56066 2.4 8.20947 2.4 10C2.4 14.187 5.81304 17.6 10 17.6C11.7905 17.6 13.4393 16.9719 14.7391 15.932L15.0875 15.6531L4.34688 4.9125ZM4.46641 6.16328L13.8367 15.5336C12.7369 16.2993 11.4387 16.8 10 16.8C6.24696 16.8 3.2 13.753 3.2 10C3.2 8.56125 3.70072 7.2631 4.46641 6.16328Z" fill="var(--fill-0, black)"/>
</g>
<defs>
<clipPath id="clip0_0_9">
<rect width="20" height="20" fill="white"/>
</clipPath>
</defs>
</svg>
