<svg preserveAspectRatio="none" width="100%" height="100%" overflow="visible" style="display: block;" viewBox="0 0 20 20" fill="none" xmlns="http://www.w3.org/2000/svg">
<g id="bucket" clip-path="url(#clip0_0_9)">
<path id="Vector" d="M9.075 1.2C8.975 1.2 8.87969 1.24531 8.8 1.325L8.5125 1.6C6.75313 1.62813 5.28281 1.89531 4.2125 2.3875C3.12344 2.88906 2.4 3.68437 2.4 4.675C2.4 5.4375 2.73906 6.09687 3.2625 6.5875C3.3 6.62344 3.34688 6.65312 3.3875 6.6875L1.275 8.8C0.954688 9.12031 0.8 9.55937 0.8 10C0.8 10.4406 0.954688 10.8797 1.275 11.2L7.6 17.525C7.92031 17.8453 8.32031 18 8.8 18C9.24063 18 9.67969 17.8453 10 17.525L17.2 10.3125C17.5859 10.7453 18 11.3203 18 11.875C18 12.7687 17.6 14.4219 17.6 15.6C17.6 16.2578 18.1422 16.8 18.8 16.8C19.4578 16.8 20 16.2578 20 15.6V11.325C20 9.54375 18.5797 8.09844 17 6.9875C15.4891 5.92344 13.7906 5.15781 12.775 4.7375L9.3625 1.325C9.28281 1.24531 9.175 1.2 9.075 1.2ZM9.0375 2.1625L12.125 5.2375C12.1453 5.27031 12.1703 5.3 12.2 5.325L16.6 9.725L9.4 16.925C9.07969 17.2453 8.48281 17.2453 8.1625 16.925L1.8375 10.6C1.67813 10.4406 1.6 10.2406 1.6 10C1.6 9.75937 1.67813 9.5625 1.8375 9.3625L4.05 7.15C4.42344 7.36562 4.83281 7.55156 5.275 7.7C6.62656 8.15469 8.23594 8.33125 9.7 8.375C9.83438 8.62656 10.0938 8.8 10.4 8.8C10.8422 8.8 11.2 8.44219 11.2 8C11.2 7.55781 10.8422 7.2 10.4 7.2C10.1141 7.2 9.86719 7.35 9.725 7.575C8.31094 7.52969 6.75781 7.35312 5.525 6.9375C4.80938 6.69687 4.21406 6.375 3.8125 6C3.41094 5.625 3.2 5.2125 3.2 4.675C3.2 4.06562 3.61875 3.54062 4.55 3.1125C5.30625 2.76406 6.37969 2.525 7.675 2.4375L4.475 5.6C4.675 5.75937 4.95938 5.87969 5.2 6L9.0375 2.1625ZM14.4125 6.375C15.1109 6.73437 15.8609 7.15312 16.55 7.6375C18.0406 8.68594 19.2 9.98594 19.2 11.325V15.6C19.2 15.8219 19.0219 16 18.8 16C18.5781 16 18.4 15.8219 18.4 15.6C18.4 14.6187 18.8 12.9812 18.8 11.875C18.8 10.7344 17.9359 9.88594 17.4875 9.4375H17.475L14.4125 6.375Z" fill="var(--fill-0, black)"/>
</g>
<defs>
<clipPath id="clip0_0_9">
<rect width="20" height="20" fill="white"/>
</clipPath>
</defs>
</svg>
