<svg preserveAspectRatio="none" width="100%" height="100%" overflow="visible" style="display: block;" viewBox="0 0 20 20" fill="none" xmlns="http://www.w3.org/2000/svg">
<g id="calendar" clip-path="url(#clip0_0_9)">
<path id="Vector" d="M4.8 0C4.3625 0 4 0.3625 4 0.8V1.6H1.6C1.39063 1.6 1.17813 1.67656 1.02813 1.82813C0.876563 1.97813 0.8 2.19063 0.8 2.4V18.4C0.8 18.6094 0.876563 18.8219 1.02813 18.9734C1.17813 19.1234 1.39063 19.2 1.6 19.2H18.4C18.6094 19.2 18.8219 19.1234 18.9734 18.9734C19.1234 18.8219 19.2 18.6094 19.2 18.4V2.4C19.2 2.19063 19.1234 1.97813 18.9734 1.82813C18.8219 1.67656 18.6094 1.6 18.4 1.6H16V0.8C16 0.3625 15.6375 0 15.2 0H14.4C13.9625 0 13.6 0.3625 13.6 0.8V1.6H6.4V0.8C6.4 0.3625 6.0375 0 5.6 0H4.8ZM4.8 0.8H5.6V3.2H4.8V0.8ZM14.4 0.8H15.2V3.2H14.4V0.8ZM1.6 2.4H4V3.2C4 3.6375 4.3625 4 4.8 4H5.6C6.0375 4 6.4 3.6375 6.4 3.2V2.4H13.6V3.2C13.6 3.6375 13.9625 4 14.4 4H15.2C15.6375 4 16 3.6375 16 3.2V2.4H18.4V5.2H1.6V2.4ZM1.6 6H18.4V18.4H1.6V6ZM4 7.6V16.8H16V7.6H4ZM4.8 8.4H6.8V10.4H4.8V8.4ZM7.6 8.4H9.6V10.4H7.6V8.4ZM10.4 8.4H12.4V10.4H10.4V8.4ZM13.2 8.4H15.2V10.4H13.2V8.4ZM4.8 11.2H6.8V13.2H4.8V11.2ZM7.6 11.2H9.6V13.2H7.6V11.2ZM10.4 11.2H12.4V13.2H10.4V11.2ZM13.2 11.2H15.2V13.2H13.2V11.2ZM4.8 14H6.8V16H4.8V14ZM7.6 14H9.6V16H7.6V14ZM10.4 14H12.4V16H10.4V14ZM13.2 14H15.2V16H13.2V14Z" fill="var(--fill-0, black)"/>
</g>
<defs>
<clipPath id="clip0_0_9">
<rect width="20" height="20" fill="white"/>
</clipPath>
</defs>
</svg>
