<svg preserveAspectRatio="none" width="100%" height="100%" overflow="visible" style="display: block;" viewBox="0 0 20 20" fill="none" xmlns="http://www.w3.org/2000/svg">
<g id="camera">
<path id="Vector" d="M6.8 2C6.47188 2 6.24063 2.2 6.075 2.3875C5.90938 2.575 5.775 2.7875 5.65 2.9875C5.525 3.1875 5.41094 3.375 5.3125 3.4875C5.23906 3.57188 5.19063 3.59531 5.1875 3.6H1.2C0.542188 3.6 0 4.14219 0 4.8V15.6C0 16.2578 0.542188 16.8 1.2 16.8H18.8C19.4578 16.8 20 16.2578 20 15.6V4.8C20 4.14219 19.4578 3.6 18.8 3.6H14.8125C14.8141 3.60156 14.8094 3.6 14.8 3.6C14.7875 3.59063 14.7516 3.56094 14.6875 3.4875C14.5891 3.375 14.475 3.1875 14.35 2.9875C14.225 2.7875 14.0906 2.575 13.925 2.3875C13.7594 2.2 13.5281 2 13.2 2H6.8ZM6.8 2.8H13.2C13.175 2.8 13.2266 2.8 13.325 2.9125C13.4234 3.025 13.5375 3.2125 13.6625 3.4125C13.7875 3.6125 13.925 3.825 14.0875 4.0125C14.25 4.2 14.4719 4.4 14.8 4.4H18.8C19.025 4.4 19.2 4.575 19.2 4.8V15.6C19.2 15.825 19.025 16 18.8 16H1.2C0.975 16 0.8 15.825 0.8 15.6V4.8C0.8 4.575 0.975 4.4 1.2 4.4H5.2C5.52813 4.4 5.75 4.2 5.9125 4.0125C6.075 3.825 6.2125 3.6125 6.3375 3.4125C6.4625 3.2125 6.57656 3.025 6.675 2.9125C6.77344 2.8 6.825 2.8 6.8 2.8ZM10 4.4C7.13281 4.4 4.8 6.73281 4.8 9.6C4.8 12.4672 7.13281 14.8 10 14.8C12.8672 14.8 15.2 12.4672 15.2 9.6C15.2 6.73281 12.8672 4.4 10 4.4ZM10 5.2C12.4344 5.2 14.4 7.16562 14.4 9.6C14.4 12.0344 12.4344 14 10 14C7.56563 14 5.6 12.0344 5.6 9.6C5.6 7.16562 7.56563 5.2 10 5.2ZM3.2 5.6C2.75781 5.6 2.4 5.95781 2.4 6.4C2.4 6.84219 2.75781 7.2 3.2 7.2H3.6C4.04219 7.2 4.4 6.84219 4.4 6.4C4.4 5.95781 4.04219 5.6 3.6 5.6H3.2ZM10 6C8.01719 6 6.4 7.61719 6.4 9.6C6.4 11.5828 8.01719 13.2 10 13.2C11.9828 13.2 13.6 11.5828 13.6 9.6C13.6 7.61719 11.9828 6 10 6ZM10 6.8C11.5516 6.8 12.8 8.04844 12.8 9.6C12.8 11.1516 11.5516 12.4 10 12.4C8.44844 12.4 7.2 11.1516 7.2 9.6C7.2 8.04844 8.44844 6.8 10 6.8Z" fill="var(--fill-0, black)"/>
</g>
</svg>
