<svg preserveAspectRatio="none" width="100%" height="100%" overflow="visible" style="display: block;" viewBox="0 0 16 16" fill="none" xmlns="http://www.w3.org/2000/svg">
<path id="Vector" d="M8 0.5C12.1419 0.5 15.5 3.85814 15.5 8C15.5 12.1419 12.1419 15.5 8 15.5C3.85814 15.5 0.5 12.1419 0.5 8C0.5 3.85814 3.85814 0.5 8 0.5ZM11.4922 4.50879C11.0366 4.05201 10.2975 4.05311 9.8418 4.50879L8.70605 5.64453C8.44931 5.90127 8.19477 6.15484 8 6.34961C7.80523 6.15479 7.5507 5.90132 7.29395 5.64453C6.75864 5.10915 6.20836 4.55861 6.15625 4.50684C5.70062 4.05246 4.96376 4.05337 4.50879 4.50781C4.05201 4.96343 4.05311 5.70252 4.50879 6.1582V6.15918H4.50977L4.51074 6.16016V6.16113L4.5127 6.16309H4.51367L4.5166 6.16602L4.51758 6.16797L4.51855 6.16895L4.52051 6.16992L4.52246 6.17188L4.52344 6.17383L4.52539 6.1748L4.53125 6.18066L4.53223 6.18262L4.53418 6.18359L4.53516 6.18555L4.53711 6.1875L4.53906 6.18848L4.54102 6.19043L4.54199 6.19238L4.55566 6.20605C4.55636 6.20675 4.55789 6.2073 4.55859 6.20801L4.5625 6.21191C4.56323 6.21265 4.56371 6.2141 4.56445 6.21484C4.56519 6.21558 4.56663 6.21604 4.56738 6.2168L4.56934 6.21875C4.5701 6.21951 4.57052 6.22091 4.57129 6.22168C4.57207 6.22246 4.57342 6.22284 4.57422 6.22363C4.575 6.22442 4.57537 6.22576 4.57617 6.22656C4.57696 6.22735 4.5783 6.22772 4.5791 6.22852C4.5799 6.22932 4.58024 6.23063 4.58105 6.23145C4.58186 6.23225 4.58316 6.23258 4.58398 6.2334L4.58691 6.23633C4.58767 6.23709 4.5881 6.23849 4.58887 6.23926C4.58968 6.24007 4.59098 6.24039 4.5918 6.24121L4.59473 6.24414C4.59554 6.24495 4.59586 6.24625 4.59668 6.24707L4.59961 6.25C4.60042 6.25081 4.60172 6.25113 4.60254 6.25195L4.62598 6.27539C4.627 6.27642 4.62787 6.27826 4.62891 6.2793L4.63184 6.28223C4.63288 6.28327 4.63468 6.2841 4.63574 6.28516L4.63867 6.28809C4.63974 6.28916 4.64052 6.29091 4.6416 6.29199C4.64266 6.29305 4.64444 6.29386 4.64551 6.29492L4.64844 6.29785C4.64953 6.29894 4.65027 6.30066 4.65137 6.30176C4.65248 6.30287 4.65415 6.30356 4.65527 6.30469C4.65639 6.30581 4.65707 6.30746 4.6582 6.30859C4.65932 6.30971 4.66098 6.31039 4.66211 6.31152C4.66324 6.31266 4.6639 6.31429 4.66504 6.31543C4.66617 6.31656 4.6678 6.31721 4.66895 6.31836C4.67006 6.31947 4.67075 6.32114 4.67188 6.32227C4.67295 6.32334 4.67469 6.32411 4.67578 6.3252L4.67969 6.3291C4.68082 6.33024 4.68147 6.33186 4.68262 6.33301L4.68652 6.33691C4.68766 6.33805 4.68929 6.3387 4.69043 6.33984L4.69824 6.34766C4.69938 6.34879 4.70003 6.35042 4.70117 6.35156L4.73242 6.38281C4.73376 6.38415 4.73596 6.38537 4.7373 6.38672L4.74512 6.39453C4.74649 6.3959 4.74765 6.39804 4.74902 6.39941L4.75293 6.40332C4.75432 6.40471 4.75642 6.40583 4.75781 6.40723L4.76172 6.41113C4.76312 6.41254 4.76421 6.4146 4.76562 6.41602C4.76704 6.41743 4.76909 6.4185 4.77051 6.41992L4.77441 6.42383C4.7758 6.42521 4.77693 6.42732 4.77832 6.42871C4.77973 6.43012 4.78178 6.4312 4.7832 6.43262C4.78463 6.43405 4.78567 6.43606 4.78711 6.4375C4.78855 6.43894 4.79054 6.43996 4.79199 6.44141C4.79343 6.44285 4.79445 6.44484 4.7959 6.44629C4.79733 6.44772 4.79934 6.44875 4.80078 6.4502L4.81445 6.46387C4.81591 6.46533 4.81689 6.46728 4.81836 6.46875C4.81979 6.47018 4.8218 6.47122 4.82324 6.47266L4.83301 6.48242C4.83446 6.48387 4.83546 6.48585 4.83691 6.4873C4.83838 6.48877 4.84033 6.48974 4.8418 6.49121L4.85645 6.50586C4.85791 6.50732 4.85888 6.50927 4.86035 6.51074L4.9043 6.55469C4.90596 6.55635 4.90849 6.5579 4.91016 6.55957L4.9248 6.57422C4.92649 6.57591 4.92799 6.57838 4.92969 6.58008L4.93457 6.58496C4.93627 6.58666 4.93872 6.58813 4.94043 6.58984L4.94531 6.59473C4.94703 6.59644 4.94847 6.59886 4.9502 6.60059L4.95508 6.60547C4.95681 6.6072 4.9592 6.60862 4.96094 6.61035C4.96267 6.61209 4.96408 6.61447 4.96582 6.61621C4.96751 6.61791 4.96998 6.61939 4.97168 6.62109L4.97656 6.62598C4.97832 6.62773 4.97968 6.63007 4.98145 6.63184C4.98321 6.6336 4.98554 6.63495 4.9873 6.63672C4.98905 6.63846 4.99044 6.64083 4.99219 6.64258C4.99392 6.64431 4.99631 6.64572 4.99805 6.64746L5.00879 6.6582C5.01052 6.65994 5.01193 6.66232 5.01367 6.66406C5.01542 6.66581 5.01778 6.66719 5.01953 6.66895C5.02129 6.67071 5.02264 6.67304 5.02441 6.6748C5.0262 6.67659 5.02848 6.67789 5.03027 6.67969C5.03206 6.68147 5.03336 6.68375 5.03516 6.68555C5.03691 6.6873 5.03925 6.68867 5.04102 6.69043L5.04688 6.69629C5.04865 6.69807 5.04997 6.70036 5.05176 6.70215C5.05355 6.70394 5.05582 6.70524 5.05762 6.70703L5.06348 6.71289C5.06526 6.71468 5.06657 6.71696 5.06836 6.71875C5.07015 6.72054 5.07243 6.72184 5.07422 6.72363L5.08594 6.73535C5.08771 6.73712 5.08904 6.73944 5.09082 6.74121C5.09261 6.743 5.09489 6.7443 5.09668 6.74609L5.1084 6.75781C5.11019 6.7596 5.11149 6.76188 5.11328 6.76367L5.125 6.77539C5.12679 6.77718 5.12907 6.77848 5.13086 6.78027L5.16602 6.81543C5.1678 6.81722 5.16911 6.8195 5.1709 6.82129L5.2002 6.85059C5.20216 6.85255 5.20506 6.85448 5.20703 6.85645L5.24219 6.8916C5.24418 6.89359 5.24605 6.89644 5.24805 6.89844L5.25977 6.91016C5.26177 6.91216 5.2646 6.91401 5.2666 6.91602L5.28418 6.93359C5.28619 6.93561 5.28802 6.93841 5.29004 6.94043L5.2959 6.94629C5.29792 6.94831 5.30071 6.95013 5.30273 6.95215L5.30859 6.95801C5.31062 6.96003 5.31242 6.96281 5.31445 6.96484L5.32031 6.9707C5.32234 6.97273 5.32511 6.97453 5.32715 6.97656L5.33301 6.98242C5.33505 6.98446 5.33683 6.98722 5.33887 6.98926L5.34473 6.99512C5.34677 6.99716 5.34952 6.99893 5.35156 7.00098L5.35742 7.00684C5.35947 7.00888 5.36123 7.01162 5.36328 7.01367C5.36531 7.0157 5.36808 7.0175 5.37012 7.01953L5.37598 7.02539C5.37803 7.02744 5.37978 7.03017 5.38184 7.03223C5.38385 7.03424 5.38666 7.03607 5.38867 7.03809L5.39453 7.04395C5.39659 7.04601 5.39833 7.04872 5.40039 7.05078C5.40241 7.0528 5.40521 7.05462 5.40723 7.05664L5.41309 7.0625C5.41515 7.06457 5.41688 7.06727 5.41895 7.06934C5.42098 7.07137 5.42375 7.07316 5.42578 7.0752L5.43164 7.08105C5.43371 7.08313 5.43543 7.08582 5.4375 7.08789C5.43957 7.08996 5.44227 7.09168 5.44434 7.09375L5.4502 7.09961C5.45224 7.10165 5.45401 7.1044 5.45605 7.10645C5.45813 7.10852 5.46081 7.11023 5.46289 7.1123C5.46497 7.11438 5.46667 7.11706 5.46875 7.11914C5.47079 7.12118 5.47354 7.12296 5.47559 7.125L5.48145 7.13086C5.4835 7.13292 5.48525 7.13564 5.4873 7.1377C5.48939 7.13978 5.49205 7.14147 5.49414 7.14355C5.49622 7.14564 5.49792 7.14831 5.5 7.15039C5.50205 7.15244 5.50478 7.1542 5.50684 7.15625L5.5127 7.16211C5.51474 7.16415 5.51651 7.1669 5.51855 7.16895C5.52063 7.17102 5.52332 7.17273 5.52539 7.1748C5.52748 7.17689 5.52916 7.17955 5.53125 7.18164C5.53333 7.18372 5.536 7.18542 5.53809 7.1875C5.54015 7.18956 5.54188 7.19228 5.54395 7.19434C5.54598 7.19637 5.54874 7.19816 5.55078 7.2002L5.55664 7.20605C5.5587 7.20811 5.56045 7.21084 5.5625 7.21289C5.56458 7.21497 5.56726 7.21667 5.56934 7.21875C5.57143 7.22084 5.5731 7.22349 5.5752 7.22559C5.57728 7.22768 5.57994 7.22936 5.58203 7.23145C5.5841 7.23351 5.58582 7.23621 5.58789 7.23828C5.58994 7.24033 5.59268 7.24209 5.59473 7.24414L5.60059 7.25C5.60263 7.25204 5.6044 7.25479 5.60645 7.25684C5.60851 7.2589 5.61122 7.26063 5.61328 7.2627C5.61537 7.26478 5.61706 7.26745 5.61914 7.26953C5.62124 7.27163 5.62388 7.2733 5.62598 7.27539C5.62806 7.27747 5.62975 7.28014 5.63184 7.28223C5.6339 7.28429 5.63661 7.28602 5.63867 7.28809L5.65723 7.30664C5.6593 7.30871 5.66101 7.3114 5.66309 7.31348C5.66518 7.31557 5.66783 7.31724 5.66992 7.31934C5.67201 7.32142 5.6737 7.32409 5.67578 7.32617C5.67784 7.32823 5.68056 7.32997 5.68262 7.33203L5.68848 7.33789C5.69051 7.33992 5.6923 7.34269 5.69434 7.34473C5.6964 7.34679 5.69911 7.34853 5.70117 7.35059C5.70326 7.35267 5.70494 7.35534 5.70703 7.35742C5.70912 7.35951 5.71178 7.3612 5.71387 7.36328L5.73242 7.38184C5.7345 7.38392 5.7362 7.38659 5.73828 7.38867C5.74036 7.39075 5.74304 7.39245 5.74512 7.39453L5.75098 7.40039C5.753 7.40241 5.75481 7.4052 5.75684 7.40723C5.7589 7.40929 5.76161 7.41103 5.76367 7.41309C5.76575 7.41516 5.76746 7.41785 5.76953 7.41992C5.77158 7.42197 5.77432 7.42374 5.77637 7.42578L5.78223 7.43164C5.78429 7.43371 5.78602 7.43641 5.78809 7.43848C5.79015 7.44055 5.79286 7.44227 5.79492 7.44434L5.80078 7.4502C5.80283 7.45225 5.80459 7.45498 5.80664 7.45703C5.8087 7.45909 5.81142 7.46083 5.81348 7.46289L5.81934 7.46875C5.82138 7.4708 5.82315 7.47354 5.8252 7.47559C5.82725 7.47764 5.82998 7.47939 5.83203 7.48145L5.83789 7.4873C5.83994 7.48936 5.8417 7.49209 5.84375 7.49414C5.84579 7.49618 5.84855 7.49797 5.85059 7.5L5.8623 7.51172C5.86432 7.51373 5.86615 7.51654 5.86816 7.51855C5.8702 7.52059 5.87296 7.52238 5.875 7.52441L5.88086 7.53027C5.88289 7.53231 5.88469 7.53508 5.88672 7.53711L5.89258 7.54297C5.89461 7.545 5.89739 7.5468 5.89941 7.54883L5.91113 7.56055C5.91315 7.56257 5.91497 7.56537 5.91699 7.56738L5.92285 7.57324C5.92487 7.57526 5.92768 7.57709 5.92969 7.5791L5.94141 7.59082C5.94341 7.59283 5.94526 7.59565 5.94727 7.59766L5.95898 7.60938C5.96098 7.61137 5.96383 7.61324 5.96582 7.61523L6.01855 7.66797C6.02051 7.66993 6.02246 7.67285 6.02441 7.6748C6.02621 7.6766 6.02848 7.6779 6.03027 7.67969L6.07715 7.72656C6.07894 7.72835 6.08024 7.73063 6.08203 7.73242L6.09375 7.74414C6.09554 7.74593 6.09782 7.74724 6.09961 7.74902L6.11133 7.76074C6.11312 7.76253 6.11442 7.76481 6.11621 7.7666C6.118 7.76839 6.12029 7.7697 6.12207 7.77148L6.13379 7.7832C6.13557 7.78499 6.13689 7.78728 6.13867 7.78906C6.14046 7.79086 6.14274 7.79216 6.14453 7.79395L6.15039 7.7998C6.15218 7.8016 6.15349 7.80388 6.15527 7.80566C6.15706 7.80745 6.15935 7.80876 6.16113 7.81055L6.16699 7.81641C6.16875 7.81817 6.17012 7.82051 6.17188 7.82227C6.17367 7.82406 6.17595 7.82536 6.17773 7.82715C6.17953 7.82894 6.18083 7.83122 6.18262 7.83301C6.18439 7.83478 6.18671 7.83613 6.18848 7.83789C6.19023 7.83964 6.19161 7.842 6.19336 7.84375C6.1951 7.84549 6.19749 7.8469 6.19922 7.84863L6.20996 7.85938C6.2117 7.86111 6.21311 7.8635 6.21484 7.86523C6.21659 7.86698 6.21896 7.86837 6.2207 7.87012C6.22247 7.87188 6.22383 7.87422 6.22559 7.87598C6.22735 7.87774 6.22969 7.8791 6.23145 7.88086L6.23633 7.88574C6.23802 7.88744 6.23952 7.88991 6.24121 7.8916C6.24295 7.89334 6.24534 7.89475 6.24707 7.89648C6.24881 7.89822 6.25022 7.90061 6.25195 7.90234L6.25684 7.90723C6.25856 7.90895 6.26098 7.91039 6.2627 7.91211L6.26758 7.91699C6.26929 7.9187 6.27076 7.92115 6.27246 7.92285L6.27734 7.92773C6.27904 7.92943 6.28151 7.93093 6.2832 7.93262L6.29297 7.94238C6.29464 7.94406 6.29618 7.94657 6.29785 7.94824L6.31738 7.96777C6.31902 7.96941 6.32161 7.97102 6.32324 7.97266L6.32812 7.97754C6.32959 7.97901 6.33057 7.98096 6.33203 7.98242L6.34961 8C6.15479 8.19477 5.90132 8.4493 5.64453 8.70605C5.10915 9.24136 4.55861 9.79066 4.50684 9.84277C4.05214 10.2982 4.05369 11.0351 4.50781 11.4902V11.4912C4.96343 11.948 5.70252 11.9469 6.1582 11.4912L8 9.64941C8.19484 9.8443 8.44909 10.0985 8.70605 10.3555C9.24022 10.8897 9.78866 11.4384 9.84277 11.4922C10.2983 11.9475 11.0349 11.946 11.4902 11.4912L11.4912 11.4922C11.948 11.0366 11.9469 10.2975 11.4912 9.8418L9.64941 8C9.8443 7.80516 10.0985 7.55091 10.3555 7.29395C10.8909 6.75864 11.4404 6.20836 11.4922 6.15625C11.9472 5.70049 11.9463 4.96388 11.4912 4.50879H11.4922Z" stroke="var(--stroke-0, black)"/>
</svg>
