<svg preserveAspectRatio="none" width="100%" height="100%" overflow="visible" style="display: block;" viewBox="0 0 16 16" fill="none" xmlns="http://www.w3.org/2000/svg">
<path id="Vector" d="M8 0.5C12.1419 0.5 15.5 3.85814 15.5 8C15.5 12.1419 12.1419 15.5 8 15.5C3.85814 15.5 0.5 12.1419 0.5 8C0.5 3.85814 3.85814 0.5 8 0.5ZM12.8252 5.1748C12.3693 4.71888 11.6307 4.71888 11.1748 5.1748L6.95898 9.38965L5.48242 7.91309C5.02647 7.4574 4.28885 7.45724 3.83301 7.91309C3.3772 8.36894 3.37734 9.10656 3.83301 9.5625L6.13379 11.8633V11.8643C6.35318 12.0848 6.65151 12.207 6.95996 12.207C7.26918 12.207 7.56603 12.0843 7.78516 11.8652L12.8252 6.8252C13.2811 6.36927 13.2811 5.63073 12.8252 5.1748Z" stroke="var(--stroke-0, black)"/>
</svg>
