<svg preserveAspectRatio="none" width="100%" height="100%" overflow="visible" style="display: block;" viewBox="0 0 20 20" fill="none" xmlns="http://www.w3.org/2000/svg">
<g id="check">
<path id="Vector" d="M17.15 3.45C17.1375 3.45313 17.125 3.45781 17.1125 3.4625C17.0078 3.48906 16.9172 3.55625 16.8625 3.65L8.6875 16.325L3.0625 11.25C2.96406 11.125 2.8 11.0703 2.64531 11.1109C2.49063 11.1516 2.37656 11.2812 2.35313 11.4391C2.32969 11.5969 2.40156 11.7531 2.5375 11.8375L8.5 17.2375C8.5875 17.3141 8.70469 17.3484 8.82031 17.3312C8.93594 17.3141 9.0375 17.2484 9.1 17.15L17.5375 4.075C17.6297 3.94375 17.6344 3.77031 17.55 3.63438C17.4656 3.49844 17.3078 3.42656 17.15 3.45Z" fill="var(--fill-0, black)"/>
</g>
</svg>
