<svg preserveAspectRatio="none" width="100%" height="100%" overflow="visible" style="display: block;" viewBox="0 0 9.60584 16.8113" fill="none" xmlns="http://www.w3.org/2000/svg">
<path id="Vector" d="M0.39379 4.87911e-05C0.28784 0.00170496 0.186875 0.045329 0.113055 0.121347C0.0392341 0.197364 -0.00141091 0.299565 4.00036e-05 0.405518V16.4055C-0.000709615 16.4585 0.00908272 16.5111 0.0288482 16.5603C0.0486137 16.6095 0.0779582 16.6543 0.115176 16.692C0.152394 16.7298 0.196743 16.7598 0.245645 16.7802C0.294548 16.8007 0.34703 16.8112 0.40004 16.8112C0.45305 16.8112 0.505532 16.8007 0.554435 16.7802C0.603337 16.7598 0.647686 16.7298 0.684904 16.692C0.722122 16.6543 0.751466 16.6095 0.771232 16.5603C0.790997 16.5111 0.80079 16.4585 0.80004 16.4055V8.41177V0.405518C0.800773 0.352002 0.79076 0.298883 0.770593 0.249307C0.750427 0.199731 0.720518 0.154705 0.682636 0.116897C0.644755 0.0790885 0.599672 0.0492657 0.550057 0.0291948C0.500442 0.0091239 0.447304 -0.000787053 0.39379 4.87911e-05V4.87911e-05ZM0.80004 8.41177C0.801697 8.51568 0.843725 8.61486 0.917227 8.68833L8.91723 16.6883C8.95409 16.7267 8.99823 16.7574 9.04708 16.7785C9.09594 16.7996 9.14851 16.8108 9.20173 16.8113C9.25494 16.8118 9.30773 16.8018 9.357 16.7816C9.40628 16.7615 9.45104 16.7318 9.48867 16.6941C9.5263 16.6565 9.55604 16.6118 9.57616 16.5625C9.59628 16.5132 9.60636 16.4604 9.60582 16.4072C9.60528 16.354 9.59412 16.3014 9.57301 16.2526C9.55189 16.2037 9.52124 16.1596 9.48285 16.1227L1.76567 8.40552L9.48285 0.68833C9.54065 0.632145 9.58013 0.559809 9.59612 0.480801C9.6121 0.401793 9.60384 0.319799 9.57243 0.245565C9.54101 0.171331 9.4879 0.108319 9.42006 0.0647873C9.35221 0.0212557 9.2728 -0.000764853 9.19223 0.00161129C9.08831 0.00470775 8.98968 0.0481394 8.91723 0.122705L0.917227 8.1227C0.879331 8.16058 0.849431 8.20569 0.8293 8.25534C0.80917 8.305 0.799219 8.35819 0.80004 8.41177V8.41177Z" fill="var(--fill-0, black)"/>
</svg>
