<svg preserveAspectRatio="none" width="100%" height="100%" overflow="visible" style="display: block;" viewBox="0 0 20 20" fill="none" xmlns="http://www.w3.org/2000/svg">
<g id="chevron-up">
<path id="Vector" d="M9.99375 5.60001C9.88906 5.60157 9.79063 5.64376 9.71719 5.7172L1.71719 13.7172C1.6125 13.8172 1.57031 13.9672 1.60781 14.1063C1.64375 14.2469 1.75313 14.3563 1.89375 14.3922C2.03281 14.4297 2.18281 14.3875 2.28281 14.2828L10 6.56563L17.7172 14.2828C17.8172 14.3875 17.9672 14.4297 18.1063 14.3922C18.2469 14.3563 18.3563 14.2469 18.3922 14.1063C18.4297 13.9672 18.3875 13.8172 18.2828 13.7172L10.2828 5.7172C10.2063 5.64063 10.1016 5.59845 9.99375 5.60001Z" fill="var(--fill-0, black)"/>
</g>
</svg>
