<svg preserveAspectRatio="none" width="100%" height="100%" overflow="visible" style="display: block;" viewBox="0 0 20 20" fill="none" xmlns="http://www.w3.org/2000/svg">
<g id="circle" clip-path="url(#clip0_0_9)">
<path id="Vector" d="M10 0.8C4.92372 0.8 0.8 4.92372 0.8 10C0.8 15.0763 4.92372 19.2 10 19.2C15.0763 19.2 19.2 15.0763 19.2 10C19.2 4.92372 15.0763 0.8 10 0.8ZM10 1.6C10.2709 1.6 10.5381 1.61408 10.8023 1.63906C10.8023 1.63932 10.8023 1.63958 10.8023 1.63984C10.8122 1.73848 10.8584 1.82993 10.9318 1.89648C11.0053 1.96302 11.1009 1.99991 11.2 2C11.2799 1.99993 11.358 1.97593 11.4241 1.93109C11.4902 1.88626 11.5414 1.82264 11.5711 1.74844C12.5954 1.9418 13.5488 2.32639 14.4047 2.85469C14.4179 2.95023 14.4651 3.0378 14.5378 3.10125C14.6104 3.16471 14.7035 3.19978 14.8 3.2C14.8346 3.19976 14.869 3.19503 14.9023 3.18594C15.1656 3.37558 15.4163 3.58026 15.6555 3.79844C15.6194 3.85952 15.6003 3.92908 15.6 4C15.6 4.10609 15.6421 4.20783 15.7172 4.28284C15.7922 4.35786 15.8939 4.4 16 4.4C16.0709 4.39971 16.1405 4.38056 16.2016 4.34453C16.4196 4.58353 16.6245 4.83377 16.8141 5.09688C16.8049 5.13049 16.8002 5.16516 16.8 5.2C16.8 5.29659 16.835 5.3899 16.8985 5.4627C16.962 5.53551 17.0496 5.58289 17.1453 5.59609C17.6734 6.45186 18.0582 7.40485 18.2516 8.42891C18.1774 8.45856 18.1137 8.50976 18.0689 8.5759C18.0241 8.64204 18.0001 8.72009 18 8.8C18.0001 8.89937 18.0372 8.99514 18.1041 9.06865C18.171 9.14216 18.2628 9.18815 18.3617 9.19766C18.3867 9.46188 18.4 9.72917 18.4 10C18.4 10.2709 18.3859 10.5381 18.3609 10.8023C18.3607 10.8023 18.3604 10.8023 18.3602 10.8023C18.2615 10.8122 18.1701 10.8584 18.1035 10.9318C18.037 11.0053 18.0001 11.1009 18 11.2C18.0001 11.2799 18.0241 11.358 18.0689 11.4241C18.1137 11.4902 18.1774 11.5414 18.2516 11.5711C18.0582 12.5954 17.6736 13.5488 17.1453 14.4047C17.0498 14.4179 16.9622 14.4651 16.8987 14.5378C16.8353 14.6104 16.8002 14.7035 16.8 14.8C16.8002 14.8346 16.805 14.869 16.8141 14.9023C16.6244 15.1656 16.4197 15.4163 16.2016 15.6555C16.1405 15.6194 16.0709 15.6003 16 15.6C15.8939 15.6 15.7922 15.6421 15.7172 15.7172C15.6421 15.7922 15.6 15.8939 15.6 16C15.6003 16.0709 15.6194 16.1405 15.6555 16.2016C15.4165 16.4196 15.1662 16.6245 14.9031 16.8141C14.8695 16.8049 14.8348 16.8002 14.8 16.8C14.7034 16.8 14.6101 16.835 14.5373 16.8985C14.4645 16.962 14.4171 17.0496 14.4039 17.1453C13.5481 17.6734 12.5951 18.0582 11.5711 18.2516C11.5414 18.1774 11.4902 18.1137 11.4241 18.0689C11.358 18.0241 11.2799 18.0001 11.2 18C11.1006 18.0001 11.0049 18.0372 10.9314 18.1041C10.8578 18.171 10.8119 18.2628 10.8023 18.3617C10.5381 18.3867 10.2708 18.4 10 18.4C9.72915 18.4 9.4619 18.3859 9.19766 18.3609C9.19766 18.3607 9.19766 18.3604 9.19766 18.3602C9.18778 18.2615 9.14164 18.1701 9.06816 18.1035C8.99469 18.037 8.89913 18.0001 8.8 18C8.72009 18.0001 8.64204 18.0241 8.5759 18.0689C8.50976 18.1137 8.45856 18.1774 8.42891 18.2516C7.40463 18.0582 6.45123 17.6736 5.59531 17.1453C5.58213 17.0498 5.53486 16.9622 5.46222 16.8987C5.38958 16.8353 5.29645 16.8002 5.2 16.8C5.16542 16.8002 5.13102 16.805 5.09766 16.8141C4.83437 16.6244 4.58368 16.4197 4.34453 16.2016C4.38056 16.1405 4.39971 16.0709 4.4 16C4.4 15.8939 4.35786 15.7922 4.28284 15.7172C4.20783 15.6421 4.10609 15.6 4 15.6C3.92908 15.6003 3.85952 15.6194 3.79844 15.6555C3.5804 15.4165 3.37548 15.1662 3.18594 14.9031C3.1951 14.8695 3.19982 14.8348 3.2 14.8C3.19996 14.7034 3.16498 14.6101 3.10151 14.5373C3.03804 14.4645 2.95037 14.4171 2.85469 14.4039C2.32658 13.5481 1.94176 12.5951 1.74844 11.5711C1.82264 11.5414 1.88626 11.4902 1.93109 11.4241C1.97593 11.358 1.99993 11.2799 2 11.2C1.99987 11.1006 1.96276 11.0049 1.8959 10.9314C1.82903 10.8578 1.7372 10.8119 1.63828 10.8023C1.6133 10.5381 1.6 10.2708 1.6 10C1.6 9.72915 1.61408 9.4619 1.63906 9.19766C1.63932 9.19766 1.63958 9.19766 1.63984 9.19766C1.73848 9.18778 1.82993 9.14164 1.89648 9.06816C1.96302 8.99469 1.99991 8.89913 2 8.8C1.99993 8.72009 1.97593 8.64204 1.93109 8.5759C1.88626 8.50976 1.82264 8.45856 1.74844 8.42891C1.9418 7.40463 2.32639 6.45123 2.85469 5.59531C2.95023 5.58213 3.0378 5.53486 3.10125 5.46222C3.16471 5.38958 3.19978 5.29645 3.2 5.2C3.19976 5.16542 3.19503 5.13102 3.18594 5.09766C3.37558 4.83437 3.58026 4.58368 3.79844 4.34453C3.85952 4.38056 3.92908 4.39971 4 4.4C4.10609 4.4 4.20783 4.35786 4.28284 4.28284C4.35786 4.20783 4.4 4.10609 4.4 4C4.39971 3.92908 4.38056 3.85952 4.34453 3.79844C4.58353 3.5804 4.83377 3.37548 5.09688 3.18594C5.13049 3.1951 5.16516 3.19982 5.2 3.2C5.29659 3.19996 5.3899 3.16498 5.4627 3.10151C5.53551 3.03804 5.58289 2.95037 5.59609 2.85469C6.45186 2.32658 7.40485 1.94176 8.42891 1.74844C8.45856 1.82264 8.50976 1.88626 8.5759 1.93109C8.64204 1.97593 8.72009 1.99993 8.8 2C8.89937 1.99987 8.99514 1.96276 9.06865 1.8959C9.14216 1.82903 9.18815 1.7372 9.19766 1.63828C9.46188 1.6133 9.72917 1.6 10 1.6ZM7.6 2.4C7.49391 2.4 7.39217 2.44214 7.31716 2.51716C7.24214 2.59217 7.2 2.69391 7.2 2.8C7.2 2.90609 7.24214 3.00783 7.31716 3.08284C7.39217 3.15786 7.49391 3.2 7.6 3.2C7.70609 3.2 7.80783 3.15786 7.88284 3.08284C7.95786 3.00783 8 2.90609 8 2.8C8 2.69391 7.95786 2.59217 7.88284 2.51716C7.80783 2.44214 7.70609 2.4 7.6 2.4ZM10 2.4C9.89391 2.4 9.79217 2.44214 9.71716 2.51716C9.64214 2.59217 9.6 2.69391 9.6 2.8C9.6 2.90609 9.64214 3.00783 9.71716 3.08284C9.79217 3.15786 9.89391 3.2 10 3.2C10.1061 3.2 10.2078 3.15786 10.2828 3.08284C10.3579 3.00783 10.4 2.90609 10.4 2.8C10.4 2.69391 10.3579 2.59217 10.2828 2.51716C10.2078 2.44214 10.1061 2.4 10 2.4ZM12.4 2.4C12.2939 2.4 12.1922 2.44214 12.1172 2.51716C12.0421 2.59217 12 2.69391 12 2.8C12 2.90609 12.0421 3.00783 12.1172 3.08284C12.1922 3.15786 12.2939 3.2 12.4 3.2C12.5061 3.2 12.6078 3.15786 12.6828 3.08284C12.7579 3.00783 12.8 2.90609 12.8 2.8C12.8 2.69391 12.7579 2.59217 12.6828 2.51716C12.6078 2.44214 12.5061 2.4 12.4 2.4ZM6.4 3.6C6.29391 3.6 6.19217 3.64214 6.11716 3.71716C6.04214 3.79217 6 3.89391 6 4C6 4.10609 6.04214 4.20783 6.11716 4.28284C6.19217 4.35786 6.29391 4.4 6.4 4.4C6.50609 4.4 6.60783 4.35786 6.68284 4.28284C6.75786 4.20783 6.8 4.10609 6.8 4C6.8 3.89391 6.75786 3.79217 6.68284 3.71716C6.60783 3.64214 6.50609 3.6 6.4 3.6ZM8.8 3.6C8.69391 3.6 8.59217 3.64214 8.51716 3.71716C8.44214 3.79217 8.4 3.89391 8.4 4C8.4 4.10609 8.44214 4.20783 8.51716 4.28284C8.59217 4.35786 8.69391 4.4 8.8 4.4C8.90609 4.4 9.00783 4.35786 9.08284 4.28284C9.15786 4.20783 9.2 4.10609 9.2 4C9.2 3.89391 9.15786 3.79217 9.08284 3.71716C9.00783 3.64214 8.90609 3.6 8.8 3.6ZM11.2 3.6C11.0939 3.6 10.9922 3.64214 10.9172 3.71716C10.8421 3.79217 10.8 3.89391 10.8 4C10.8 4.10609 10.8421 4.20783 10.9172 4.28284C10.9922 4.35786 11.0939 4.4 11.2 4.4C11.3061 4.4 11.4078 4.35786 11.4828 4.28284C11.5579 4.20783 11.6 4.10609 11.6 4C11.6 3.89391 11.5579 3.79217 11.4828 3.71716C11.4078 3.64214 11.3061 3.6 11.2 3.6ZM13.6 3.6C13.4939 3.6 13.3922 3.64214 13.3172 3.71716C13.2421 3.79217 13.2 3.89391 13.2 4C13.2 4.10609 13.2421 4.20783 13.3172 4.28284C13.3922 4.35786 13.4939 4.4 13.6 4.4C13.7061 4.4 13.8078 4.35786 13.8828 4.28284C13.9579 4.20783 14 4.10609 14 4C14 3.89391 13.9579 3.79217 13.8828 3.71716C13.8078 3.64214 13.7061 3.6 13.6 3.6ZM5.2 4.8C5.09391 4.8 4.99217 4.84214 4.91716 4.91716C4.84214 4.99217 4.8 5.09391 4.8 5.2C4.8 5.30609 4.84214 5.40783 4.91716 5.48284C4.99217 5.55786 5.09391 5.6 5.2 5.6C5.30609 5.6 5.40783 5.55786 5.48284 5.48284C5.55786 5.40783 5.6 5.30609 5.6 5.2C5.6 5.09391 5.55786 4.99217 5.48284 4.91716C5.40783 4.84214 5.30609 4.8 5.2 4.8ZM7.6 4.8C7.49391 4.8 7.39217 4.84214 7.31716 4.91716C7.24214 4.99217 7.2 5.09391 7.2 5.2C7.2 5.30609 7.24214 5.40783 7.31716 5.48284C7.39217 5.55786 7.49391 5.6 7.6 5.6C7.70609 5.6 7.80783 5.55786 7.88284 5.48284C7.95786 5.40783 8 5.30609 8 5.2C8 5.09391 7.95786 4.99217 7.88284 4.91716C7.80783 4.84214 7.70609 4.8 7.6 4.8ZM10 4.8C9.89391 4.8 9.79217 4.84214 9.71716 4.91716C9.64214 4.99217 9.6 5.09391 9.6 5.2C9.6 5.30609 9.64214 5.40783 9.71716 5.48284C9.79217 5.55786 9.89391 5.6 10 5.6C10.1061 5.6 10.2078 5.55786 10.2828 5.48284C10.3579 5.40783 10.4 5.30609 10.4 5.2C10.4 5.09391 10.3579 4.99217 10.2828 4.91716C10.2078 4.84214 10.1061 4.8 10 4.8ZM12.4 4.8C12.2939 4.8 12.1922 4.84214 12.1172 4.91716C12.0421 4.99217 12 5.09391 12 5.2C12 5.30609 12.0421 5.40783 12.1172 5.48284C12.1922 5.55786 12.2939 5.6 12.4 5.6C12.5061 5.6 12.6078 5.55786 12.6828 5.48284C12.7579 5.40783 12.8 5.30609 12.8 5.2C12.8 5.09391 12.7579 4.99217 12.6828 4.91716C12.6078 4.84214 12.5061 4.8 12.4 4.8ZM14.8 4.8C14.6939 4.8 14.5922 4.84214 14.5172 4.91716C14.4421 4.99217 14.4 5.09391 14.4 5.2C14.4 5.30609 14.4421 5.40783 14.5172 5.48284C14.5922 5.55786 14.6939 5.6 14.8 5.6C14.9061 5.6 15.0078 5.55786 15.0828 5.48284C15.1579 5.40783 15.2 5.30609 15.2 5.2C15.2 5.09391 15.1579 4.99217 15.0828 4.91716C15.0078 4.84214 14.9061 4.8 14.8 4.8ZM4 6C3.89391 6 3.79217 6.04214 3.71716 6.11716C3.64214 6.19217 3.6 6.29391 3.6 6.4C3.6 6.50609 3.64214 6.60783 3.71716 6.68284C3.79217 6.75786 3.89391 6.8 4 6.8C4.10609 6.8 4.20783 6.75786 4.28284 6.68284C4.35786 6.60783 4.4 6.50609 4.4 6.4C4.4 6.29391 4.35786 6.19217 4.28284 6.11716C4.20783 6.04214 4.10609 6 4 6ZM6.4 6C6.29391 6 6.19217 6.04214 6.11716 6.11716C6.04214 6.19217 6 6.29391 6 6.4C6 6.50609 6.04214 6.60783 6.11716 6.68284C6.19217 6.75786 6.29391 6.8 6.4 6.8C6.50609 6.8 6.60783 6.75786 6.68284 6.68284C6.75786 6.60783 6.8 6.50609 6.8 6.4C6.8 6.29391 6.75786 6.19217 6.68284 6.11716C6.60783 6.04214 6.50609 6 6.4 6ZM8.8 6C8.69391 6 8.59217 6.04214 8.51716 6.11716C8.44214 6.19217 8.4 6.29391 8.4 6.4C8.4 6.50609 8.44214 6.60783 8.51716 6.68284C8.59217 6.75786 8.69391 6.8 8.8 6.8C8.90609 6.8 9.00783 6.75786 9.08284 6.68284C9.15786 6.60783 9.2 6.50609 9.2 6.4C9.2 6.29391 9.15786 6.19217 9.08284 6.11716C9.00783 6.04214 8.90609 6 8.8 6ZM11.2 6C11.0939 6 10.9922 6.04214 10.9172 6.11716C10.8421 6.19217 10.8 6.29391 10.8 6.4C10.8 6.50609 10.8421 6.60783 10.9172 6.68284C10.9922 6.75786 11.0939 6.8 11.2 6.8C11.3061 6.8 11.4078 6.75786 11.4828 6.68284C11.5579 6.60783 11.6 6.50609 11.6 6.4C11.6 6.29391 11.5579 6.19217 11.4828 6.11716C11.4078 6.04214 11.3061 6 11.2 6ZM13.6 6C13.4939 6 13.3922 6.04214 13.3172 6.11716C13.2421 6.19217 13.2 6.29391 13.2 6.4C13.2 6.50609 13.2421 6.60783 13.3172 6.68284C13.3922 6.75786 13.4939 6.8 13.6 6.8C13.7061 6.8 13.8078 6.75786 13.8828 6.68284C13.9579 6.60783 14 6.50609 14 6.4C14 6.29391 13.9579 6.19217 13.8828 6.11716C13.8078 6.04214 13.7061 6 13.6 6ZM16 6C15.8939 6 15.7922 6.04214 15.7172 6.11716C15.6421 6.19217 15.6 6.29391 15.6 6.4C15.6 6.50609 15.6421 6.60783 15.7172 6.68284C15.7922 6.75786 15.8939 6.8 16 6.8C16.1061 6.8 16.2078 6.75786 16.2828 6.68284C16.3579 6.60783 16.4 6.50609 16.4 6.4C16.4 6.29391 16.3579 6.19217 16.2828 6.11716C16.2078 6.04214 16.1061 6 16 6ZM2.8 7.2C2.69391 7.2 2.59217 7.24214 2.51716 7.31716C2.44214 7.39217 2.4 7.49391 2.4 7.6C2.4 7.70609 2.44214 7.80783 2.51716 7.88284C2.59217 7.95786 2.69391 8 2.8 8C2.90609 8 3.00783 7.95786 3.08284 7.88284C3.15786 7.80783 3.2 7.70609 3.2 7.6C3.2 7.49391 3.15786 7.39217 3.08284 7.31716C3.00783 7.24214 2.90609 7.2 2.8 7.2ZM5.2 7.2C5.09391 7.2 4.99217 7.24214 4.91716 7.31716C4.84214 7.39217 4.8 7.49391 4.8 7.6C4.8 7.70609 4.84214 7.80783 4.91716 7.88284C4.99217 7.95786 5.09391 8 5.2 8C5.30609 8 5.40783 7.95786 5.48284 7.88284C5.55786 7.80783 5.6 7.70609 5.6 7.6C5.6 7.49391 5.55786 7.39217 5.48284 7.31716C5.40783 7.24214 5.30609 7.2 5.2 7.2ZM7.6 7.2C7.49391 7.2 7.39217 7.24214 7.31716 7.31716C7.24214 7.39217 7.2 7.49391 7.2 7.6C7.2 7.70609 7.24214 7.80783 7.31716 7.88284C7.39217 7.95786 7.49391 8 7.6 8C7.70609 8 7.80783 7.95786 7.88284 7.88284C7.95786 7.80783 8 7.70609 8 7.6C8 7.49391 7.95786 7.39217 7.88284 7.31716C7.80783 7.24214 7.70609 7.2 7.6 7.2ZM10 7.2C9.89391 7.2 9.79217 7.24214 9.71716 7.31716C9.64214 7.39217 9.6 7.49391 9.6 7.6C9.6 7.70609 9.64214 7.80783 9.71716 7.88284C9.79217 7.95786 9.89391 8 10 8C10.1061 8 10.2078 7.95786 10.2828 7.88284C10.3579 7.80783 10.4 7.70609 10.4 7.6C10.4 7.49391 10.3579 7.39217 10.2828 7.31716C10.2078 7.24214 10.1061 7.2 10 7.2ZM12.4 7.2C12.2939 7.2 12.1922 7.24214 12.1172 7.31716C12.0421 7.39217 12 7.49391 12 7.6C12 7.70609 12.0421 7.80783 12.1172 7.88284C12.1922 7.95786 12.2939 8 12.4 8C12.5061 8 12.6078 7.95786 12.6828 7.88284C12.7579 7.80783 12.8 7.70609 12.8 7.6C12.8 7.49391 12.7579 7.39217 12.6828 7.31716C12.6078 7.24214 12.5061 7.2 12.4 7.2ZM14.8 7.2C14.6939 7.2 14.5922 7.24214 14.5172 7.31716C14.4421 7.39217 14.4 7.49391 14.4 7.6C14.4 7.70609 14.4421 7.80783 14.5172 7.88284C14.5922 7.95786 14.6939 8 14.8 8C14.9061 8 15.0078 7.95786 15.0828 7.88284C15.1579 7.80783 15.2 7.70609 15.2 7.6C15.2 7.49391 15.1579 7.39217 15.0828 7.31716C15.0078 7.24214 14.9061 7.2 14.8 7.2ZM17.2 7.2C17.0939 7.2 16.9922 7.24214 16.9172 7.31716C16.8421 7.39217 16.8 7.49391 16.8 7.6C16.8 7.70609 16.8421 7.80783 16.9172 7.88284C16.9922 7.95786 17.0939 8 17.2 8C17.3061 8 17.4078 7.95786 17.4828 7.88284C17.5579 7.80783 17.6 7.70609 17.6 7.6C17.6 7.49391 17.5579 7.39217 17.4828 7.31716C17.4078 7.24214 17.3061 7.2 17.2 7.2ZM4 8.4C3.89391 8.4 3.79217 8.44214 3.71716 8.51716C3.64214 8.59217 3.6 8.69391 3.6 8.8C3.6 8.90609 3.64214 9.00783 3.71716 9.08284C3.79217 9.15786 3.89391 9.2 4 9.2C4.10609 9.2 4.20783 9.15786 4.28284 9.08284C4.35786 9.00783 4.4 8.90609 4.4 8.8C4.4 8.69391 4.35786 8.59217 4.28284 8.51716C4.20783 8.44214 4.10609 8.4 4 8.4ZM6.4 8.4C6.29391 8.4 6.19217 8.44214 6.11716 8.51716C6.04214 8.59217 6 8.69391 6 8.8C6 8.90609 6.04214 9.00783 6.11716 9.08284C6.19217 9.15786 6.29391 9.2 6.4 9.2C6.50609 9.2 6.60783 9.15786 6.68284 9.08284C6.75786 9.00783 6.8 8.90609 6.8 8.8C6.8 8.69391 6.75786 8.59217 6.68284 8.51716C6.60783 8.44214 6.50609 8.4 6.4 8.4ZM8.8 8.4C8.69391 8.4 8.59217 8.44214 8.51716 8.51716C8.44214 8.59217 8.4 8.69391 8.4 8.8C8.4 8.90609 8.44214 9.00783 8.51716 9.08284C8.59217 9.15786 8.69391 9.2 8.8 9.2C8.90609 9.2 9.00783 9.15786 9.08284 9.08284C9.15786 9.00783 9.2 8.90609 9.2 8.8C9.2 8.69391 9.15786 8.59217 9.08284 8.51716C9.00783 8.44214 8.90609 8.4 8.8 8.4ZM11.2 8.4C11.0939 8.4 10.9922 8.44214 10.9172 8.51716C10.8421 8.59217 10.8 8.69391 10.8 8.8C10.8 8.90609 10.8421 9.00783 10.9172 9.08284C10.9922 9.15786 11.0939 9.2 11.2 9.2C11.3061 9.2 11.4078 9.15786 11.4828 9.08284C11.5579 9.00783 11.6 8.90609 11.6 8.8C11.6 8.69391 11.5579 8.59217 11.4828 8.51716C11.4078 8.44214 11.3061 8.4 11.2 8.4ZM13.6 8.4C13.4939 8.4 13.3922 8.44214 13.3172 8.51716C13.2421 8.59217 13.2 8.69391 13.2 8.8C13.2 8.90609 13.2421 9.00783 13.3172 9.08284C13.3922 9.15786 13.4939 9.2 13.6 9.2C13.7061 9.2 13.8078 9.15786 13.8828 9.08284C13.9579 9.00783 14 8.90609 14 8.8C14 8.69391 13.9579 8.59217 13.8828 8.51716C13.8078 8.44214 13.7061 8.4 13.6 8.4ZM16 8.4C15.8939 8.4 15.7922 8.44214 15.7172 8.51716C15.6421 8.59217 15.6 8.69391 15.6 8.8C15.6 8.90609 15.6421 9.00783 15.7172 9.08284C15.7922 9.15786 15.8939 9.2 16 9.2C16.1061 9.2 16.2078 9.15786 16.2828 9.08284C16.3579 9.00783 16.4 8.90609 16.4 8.8C16.4 8.69391 16.3579 8.59217 16.2828 8.51716C16.2078 8.44214 16.1061 8.4 16 8.4ZM2.8 9.6C2.69391 9.6 2.59217 9.64214 2.51716 9.71716C2.44214 9.79217 2.4 9.89391 2.4 10C2.4 10.1061 2.44214 10.2078 2.51716 10.2828C2.59217 10.3579 2.69391 10.4 2.8 10.4C2.90609 10.4 3.00783 10.3579 3.08284 10.2828C3.15786 10.2078 3.2 10.1061 3.2 10C3.2 9.89391 3.15786 9.79217 3.08284 9.71716C3.00783 9.64214 2.90609 9.6 2.8 9.6ZM5.2 9.6C5.09391 9.6 4.99217 9.64214 4.91716 9.71716C4.84214 9.79217 4.8 9.89391 4.8 10C4.8 10.1061 4.84214 10.2078 4.91716 10.2828C4.99217 10.3579 5.09391 10.4 5.2 10.4C5.30609 10.4 5.40783 10.3579 5.48284 10.2828C5.55786 10.2078 5.6 10.1061 5.6 10C5.6 9.89391 5.55786 9.79217 5.48284 9.71716C5.40783 9.64214 5.30609 9.6 5.2 9.6ZM7.6 9.6C7.49391 9.6 7.39217 9.64214 7.31716 9.71716C7.24214 9.79217 7.2 9.89391 7.2 10C7.2 10.1061 7.24214 10.2078 7.31716 10.2828C7.39217 10.3579 7.49391 10.4 7.6 10.4C7.70609 10.4 7.80783 10.3579 7.88284 10.2828C7.95786 10.2078 8 10.1061 8 10C8 9.89391 7.95786 9.79217 7.88284 9.71716C7.80783 9.64214 7.70609 9.6 7.6 9.6ZM10 9.6C9.89391 9.6 9.79217 9.64214 9.71716 9.71716C9.64214 9.79217 9.6 9.89391 9.6 10C9.6 10.1061 9.64214 10.2078 9.71716 10.2828C9.79217 10.3579 9.89391 10.4 10 10.4C10.1061 10.4 10.2078 10.3579 10.2828 10.2828C10.3579 10.2078 10.4 10.1061 10.4 10C10.4 9.89391 10.3579 9.79217 10.2828 9.71716C10.2078 9.64214 10.1061 9.6 10 9.6ZM12.4 9.6C12.2939 9.6 12.1922 9.64214 12.1172 9.71716C12.0421 9.79217 12 9.89391 12 10C12 10.1061 12.0421 10.2078 12.1172 10.2828C12.1922 10.3579 12.2939 10.4 12.4 10.4C12.5061 10.4 12.6078 10.3579 12.6828 10.2828C12.7579 10.2078 12.8 10.1061 12.8 10C12.8 9.89391 12.7579 9.79217 12.6828 9.71716C12.6078 9.64214 12.5061 9.6 12.4 9.6ZM14.8 9.6C14.6939 9.6 14.5922 9.64214 14.5172 9.71716C14.4421 9.79217 14.4 9.89391 14.4 10C14.4 10.1061 14.4421 10.2078 14.5172 10.2828C14.5922 10.3579 14.6939 10.4 14.8 10.4C14.9061 10.4 15.0078 10.3579 15.0828 10.2828C15.1579 10.2078 15.2 10.1061 15.2 10C15.2 9.89391 15.1579 9.79217 15.0828 9.71716C15.0078 9.64214 14.9061 9.6 14.8 9.6ZM17.2 9.6C17.0939 9.6 16.9922 9.64214 16.9172 9.71716C16.8421 9.79217 16.8 9.89391 16.8 10C16.8 10.1061 16.8421 10.2078 16.9172 10.2828C16.9922 10.3579 17.0939 10.4 17.2 10.4C17.3061 10.4 17.4078 10.3579 17.4828 10.2828C17.5579 10.2078 17.6 10.1061 17.6 10C17.6 9.89391 17.5579 9.79217 17.4828 9.71716C17.4078 9.64214 17.3061 9.6 17.2 9.6ZM4 10.8C3.89391 10.8 3.79217 10.8421 3.71716 10.9172C3.64214 10.9922 3.6 11.0939 3.6 11.2C3.6 11.3061 3.64214 11.4078 3.71716 11.4828C3.79217 11.5579 3.89391 11.6 4 11.6C4.10609 11.6 4.20783 11.5579 4.28284 11.4828C4.35786 11.4078 4.4 11.3061 4.4 11.2C4.4 11.0939 4.35786 10.9922 4.28284 10.9172C4.20783 10.8421 4.10609 10.8 4 10.8ZM6.4 10.8C6.29391 10.8 6.19217 10.8421 6.11716 10.9172C6.04214 10.9922 6 11.0939 6 11.2C6 11.3061 6.04214 11.4078 6.11716 11.4828C6.19217 11.5579 6.29391 11.6 6.4 11.6C6.50609 11.6 6.60783 11.5579 6.68284 11.4828C6.75786 11.4078 6.8 11.3061 6.8 11.2C6.8 11.0939 6.75786 10.9922 6.68284 10.9172C6.60783 10.8421 6.50609 10.8 6.4 10.8ZM8.8 10.8C8.69391 10.8 8.59217 10.8421 8.51716 10.9172C8.44214 10.9922 8.4 11.0939 8.4 11.2C8.4 11.3061 8.44214 11.4078 8.51716 11.4828C8.59217 11.5579 8.69391 11.6 8.8 11.6C8.90609 11.6 9.00783 11.5579 9.08284 11.4828C9.15786 11.4078 9.2 11.3061 9.2 11.2C9.2 11.0939 9.15786 10.9922 9.08284 10.9172C9.00783 10.8421 8.90609 10.8 8.8 10.8ZM11.2 10.8C11.0939 10.8 10.9922 10.8421 10.9172 10.9172C10.8421 10.9922 10.8 11.0939 10.8 11.2C10.8 11.3061 10.8421 11.4078 10.9172 11.4828C10.9922 11.5579 11.0939 11.6 11.2 11.6C11.3061 11.6 11.4078 11.5579 11.4828 11.4828C11.5579 11.4078 11.6 11.3061 11.6 11.2C11.6 11.0939 11.5579 10.9922 11.4828 10.9172C11.4078 10.8421 11.3061 10.8 11.2 10.8ZM13.6 10.8C13.4939 10.8 13.3922 10.8421 13.3172 10.9172C13.2421 10.9922 13.2 11.0939 13.2 11.2C13.2 11.3061 13.2421 11.4078 13.3172 11.4828C13.3922 11.5579 13.4939 11.6 13.6 11.6C13.7061 11.6 13.8078 11.5579 13.8828 11.4828C13.9579 11.4078 14 11.3061 14 11.2C14 11.0939 13.9579 10.9922 13.8828 10.9172C13.8078 10.8421 13.7061 10.8 13.6 10.8ZM16 10.8C15.8939 10.8 15.7922 10.8421 15.7172 10.9172C15.6421 10.9922 15.6 11.0939 15.6 11.2C15.6 11.3061 15.6421 11.4078 15.7172 11.4828C15.7922 11.5579 15.8939 11.6 16 11.6C16.1061 11.6 16.2078 11.5579 16.2828 11.4828C16.3579 11.4078 16.4 11.3061 16.4 11.2C16.4 11.0939 16.3579 10.9922 16.2828 10.9172C16.2078 10.8421 16.1061 10.8 16 10.8ZM2.8 12C2.69391 12 2.59217 12.0421 2.51716 12.1172C2.44214 12.1922 2.4 12.2939 2.4 12.4C2.4 12.5061 2.44214 12.6078 2.51716 12.6828C2.59217 12.7579 2.69391 12.8 2.8 12.8C2.90609 12.8 3.00783 12.7579 3.08284 12.6828C3.15786 12.6078 3.2 12.5061 3.2 12.4C3.2 12.2939 3.15786 12.1922 3.08284 12.1172C3.00783 12.0421 2.90609 12 2.8 12ZM5.2 12C5.09391 12 4.99217 12.0421 4.91716 12.1172C4.84214 12.1922 4.8 12.2939 4.8 12.4C4.8 12.5061 4.84214 12.6078 4.91716 12.6828C4.99217 12.7579 5.09391 12.8 5.2 12.8C5.30609 12.8 5.40783 12.7579 5.48284 12.6828C5.55786 12.6078 5.6 12.5061 5.6 12.4C5.6 12.2939 5.55786 12.1922 5.48284 12.1172C5.40783 12.0421 5.30609 12 5.2 12ZM7.6 12C7.49391 12 7.39217 12.0421 7.31716 12.1172C7.24214 12.1922 7.2 12.2939 7.2 12.4C7.2 12.5061 7.24214 12.6078 7.31716 12.6828C7.39217 12.7579 7.49391 12.8 7.6 12.8C7.70609 12.8 7.80783 12.7579 7.88284 12.6828C7.95786 12.6078 8 12.5061 8 12.4C8 12.2939 7.95786 12.1922 7.88284 12.1172C7.80783 12.0421 7.70609 12 7.6 12ZM10 12C9.89391 12 9.79217 12.0421 9.71716 12.1172C9.64214 12.1922 9.6 12.2939 9.6 12.4C9.6 12.5061 9.64214 12.6078 9.71716 12.6828C9.79217 12.7579 9.89391 12.8 10 12.8C10.1061 12.8 10.2078 12.7579 10.2828 12.6828C10.3579 12.6078 10.4 12.5061 10.4 12.4C10.4 12.2939 10.3579 12.1922 10.2828 12.1172C10.2078 12.0421 10.1061 12 10 12ZM12.4 12C12.2939 12 12.1922 12.0421 12.1172 12.1172C12.0421 12.1922 12 12.2939 12 12.4C12 12.5061 12.0421 12.6078 12.1172 12.6828C12.1922 12.7579 12.2939 12.8 12.4 12.8C12.5061 12.8 12.6078 12.7579 12.6828 12.6828C12.7579 12.6078 12.8 12.5061 12.8 12.4C12.8 12.2939 12.7579 12.1922 12.6828 12.1172C12.6078 12.0421 12.5061 12 12.4 12ZM14.8 12C14.6939 12 14.5922 12.0421 14.5172 12.1172C14.4421 12.1922 14.4 12.2939 14.4 12.4C14.4 12.5061 14.4421 12.6078 14.5172 12.6828C14.5922 12.7579 14.6939 12.8 14.8 12.8C14.9061 12.8 15.0078 12.7579 15.0828 12.6828C15.1579 12.6078 15.2 12.5061 15.2 12.4C15.2 12.2939 15.1579 12.1922 15.0828 12.1172C15.0078 12.0421 14.9061 12 14.8 12ZM17.2 12C17.0939 12 16.9922 12.0421 16.9172 12.1172C16.8421 12.1922 16.8 12.2939 16.8 12.4C16.8 12.5061 16.8421 12.6078 16.9172 12.6828C16.9922 12.7579 17.0939 12.8 17.2 12.8C17.3061 12.8 17.4078 12.7579 17.4828 12.6828C17.5579 12.6078 17.6 12.5061 17.6 12.4C17.6 12.2939 17.5579 12.1922 17.4828 12.1172C17.4078 12.0421 17.3061 12 17.2 12ZM4 13.2C3.89391 13.2 3.79217 13.2421 3.71716 13.3172C3.64214 13.3922 3.6 13.4939 3.6 13.6C3.6 13.7061 3.64214 13.8078 3.71716 13.8828C3.79217 13.9579 3.89391 14 4 14C4.10609 14 4.20783 13.9579 4.28284 13.8828C4.35786 13.8078 4.4 13.7061 4.4 13.6C4.4 13.4939 4.35786 13.3922 4.28284 13.3172C4.20783 13.2421 4.10609 13.2 4 13.2ZM6.4 13.2C6.29391 13.2 6.19217 13.2421 6.11716 13.3172C6.04214 13.3922 6 13.4939 6 13.6C6 13.7061 6.04214 13.8078 6.11716 13.8828C6.19217 13.9579 6.29391 14 6.4 14C6.50609 14 6.60783 13.9579 6.68284 13.8828C6.75786 13.8078 6.8 13.7061 6.8 13.6C6.8 13.4939 6.75786 13.3922 6.68284 13.3172C6.60783 13.2421 6.50609 13.2 6.4 13.2ZM8.8 13.2C8.69391 13.2 8.59217 13.2421 8.51716 13.3172C8.44214 13.3922 8.4 13.4939 8.4 13.6C8.4 13.7061 8.44214 13.8078 8.51716 13.8828C8.59217 13.9579 8.69391 14 8.8 14C8.90609 14 9.00783 13.9579 9.08284 13.8828C9.15786 13.8078 9.2 13.7061 9.2 13.6C9.2 13.4939 9.15786 13.3922 9.08284 13.3172C9.00783 13.2421 8.90609 13.2 8.8 13.2ZM11.2 13.2C11.0939 13.2 10.9922 13.2421 10.9172 13.3172C10.8421 13.3922 10.8 13.4939 10.8 13.6C10.8 13.7061 10.8421 13.8078 10.9172 13.8828C10.9922 13.9579 11.0939 14 11.2 14C11.3061 14 11.4078 13.9579 11.4828 13.8828C11.5579 13.8078 11.6 13.7061 11.6 13.6C11.6 13.4939 11.5579 13.3922 11.4828 13.3172C11.4078 13.2421 11.3061 13.2 11.2 13.2ZM13.6 13.2C13.4939 13.2 13.3922 13.2421 13.3172 13.3172C13.2421 13.3922 13.2 13.4939 13.2 13.6C13.2 13.7061 13.2421 13.8078 13.3172 13.8828C13.3922 13.9579 13.4939 14 13.6 14C13.7061 14 13.8078 13.9579 13.8828 13.8828C13.9579 13.8078 14 13.7061 14 13.6C14 13.4939 13.9579 13.3922 13.8828 13.3172C13.8078 13.2421 13.7061 13.2 13.6 13.2ZM16 13.2C15.8939 13.2 15.7922 13.2421 15.7172 13.3172C15.6421 13.3922 15.6 13.4939 15.6 13.6C15.6 13.7061 15.6421 13.8078 15.7172 13.8828C15.7922 13.9579 15.8939 14 16 14C16.1061 14 16.2078 13.9579 16.2828 13.8828C16.3579 13.8078 16.4 13.7061 16.4 13.6C16.4 13.4939 16.3579 13.3922 16.2828 13.3172C16.2078 13.2421 16.1061 13.2 16 13.2ZM5.2 14.4C5.09391 14.4 4.99217 14.4421 4.91716 14.5172C4.84214 14.5922 4.8 14.6939 4.8 14.8C4.8 14.9061 4.84214 15.0078 4.91716 15.0828C4.99217 15.1579 5.09391 15.2 5.2 15.2C5.30609 15.2 5.40783 15.1579 5.48284 15.0828C5.55786 15.0078 5.6 14.9061 5.6 14.8C5.6 14.6939 5.55786 14.5922 5.48284 14.5172C5.40783 14.4421 5.30609 14.4 5.2 14.4ZM7.6 14.4C7.49391 14.4 7.39217 14.4421 7.31716 14.5172C7.24214 14.5922 7.2 14.6939 7.2 14.8C7.2 14.9061 7.24214 15.0078 7.31716 15.0828C7.39217 15.1579 7.49391 15.2 7.6 15.2C7.70609 15.2 7.80783 15.1579 7.88284 15.0828C7.95786 15.0078 8 14.9061 8 14.8C8 14.6939 7.95786 14.5922 7.88284 14.5172C7.80783 14.4421 7.70609 14.4 7.6 14.4ZM10 14.4C9.89391 14.4 9.79217 14.4421 9.71716 14.5172C9.64214 14.5922 9.6 14.6939 9.6 14.8C9.6 14.9061 9.64214 15.0078 9.71716 15.0828C9.79217 15.1579 9.89391 15.2 10 15.2C10.1061 15.2 10.2078 15.1579 10.2828 15.0828C10.3579 15.0078 10.4 14.9061 10.4 14.8C10.4 14.6939 10.3579 14.5922 10.2828 14.5172C10.2078 14.4421 10.1061 14.4 10 14.4ZM12.4 14.4C12.2939 14.4 12.1922 14.4421 12.1172 14.5172C12.0421 14.5922 12 14.6939 12 14.8C12 14.9061 12.0421 15.0078 12.1172 15.0828C12.1922 15.1579 12.2939 15.2 12.4 15.2C12.5061 15.2 12.6078 15.1579 12.6828 15.0828C12.7579 15.0078 12.8 14.9061 12.8 14.8C12.8 14.6939 12.7579 14.5922 12.6828 14.5172C12.6078 14.4421 12.5061 14.4 12.4 14.4ZM14.8 14.4C14.6939 14.4 14.5922 14.4421 14.5172 14.5172C14.4421 14.5922 14.4 14.6939 14.4 14.8C14.4 14.9061 14.4421 15.0078 14.5172 15.0828C14.5922 15.1579 14.6939 15.2 14.8 15.2C14.9061 15.2 15.0078 15.1579 15.0828 15.0828C15.1579 15.0078 15.2 14.9061 15.2 14.8C15.2 14.6939 15.1579 14.5922 15.0828 14.5172C15.0078 14.4421 14.9061 14.4 14.8 14.4ZM6.4 15.6C6.29391 15.6 6.19217 15.6421 6.11716 15.7172C6.04214 15.7922 6 15.8939 6 16C6 16.1061 6.04214 16.2078 6.11716 16.2828C6.19217 16.3579 6.29391 16.4 6.4 16.4C6.50609 16.4 6.60783 16.3579 6.68284 16.2828C6.75786 16.2078 6.8 16.1061 6.8 16C6.8 15.8939 6.75786 15.7922 6.68284 15.7172C6.60783 15.6421 6.50609 15.6 6.4 15.6ZM8.8 15.6C8.69391 15.6 8.59217 15.6421 8.51716 15.7172C8.44214 15.7922 8.4 15.8939 8.4 16C8.4 16.1061 8.44214 16.2078 8.51716 16.2828C8.59217 16.3579 8.69391 16.4 8.8 16.4C8.90609 16.4 9.00783 16.3579 9.08284 16.2828C9.15786 16.2078 9.2 16.1061 9.2 16C9.2 15.8939 9.15786 15.7922 9.08284 15.7172C9.00783 15.6421 8.90609 15.6 8.8 15.6ZM11.2 15.6C11.0939 15.6 10.9922 15.6421 10.9172 15.7172C10.8421 15.7922 10.8 15.8939 10.8 16C10.8 16.1061 10.8421 16.2078 10.9172 16.2828C10.9922 16.3579 11.0939 16.4 11.2 16.4C11.3061 16.4 11.4078 16.3579 11.4828 16.2828C11.5579 16.2078 11.6 16.1061 11.6 16C11.6 15.8939 11.5579 15.7922 11.4828 15.7172C11.4078 15.6421 11.3061 15.6 11.2 15.6ZM13.6 15.6C13.4939 15.6 13.3922 15.6421 13.3172 15.7172C13.2421 15.7922 13.2 15.8939 13.2 16C13.2 16.1061 13.2421 16.2078 13.3172 16.2828C13.3922 16.3579 13.4939 16.4 13.6 16.4C13.7061 16.4 13.8078 16.3579 13.8828 16.2828C13.9579 16.2078 14 16.1061 14 16C14 15.8939 13.9579 15.7922 13.8828 15.7172C13.8078 15.6421 13.7061 15.6 13.6 15.6ZM7.6 16.8C7.49391 16.8 7.39217 16.8421 7.31716 16.9172C7.24214 16.9922 7.2 17.0939 7.2 17.2C7.2 17.3061 7.24214 17.4078 7.31716 17.4828C7.39217 17.5579 7.49391 17.6 7.6 17.6C7.70609 17.6 7.80783 17.5579 7.88284 17.4828C7.95786 17.4078 8 17.3061 8 17.2C8 17.0939 7.95786 16.9922 7.88284 16.9172C7.80783 16.8421 7.70609 16.8 7.6 16.8ZM10 16.8C9.89391 16.8 9.79217 16.8421 9.71716 16.9172C9.64214 16.9922 9.6 17.0939 9.6 17.2C9.6 17.3061 9.64214 17.4078 9.71716 17.4828C9.79217 17.5579 9.89391 17.6 10 17.6C10.1061 17.6 10.2078 17.5579 10.2828 17.4828C10.3579 17.4078 10.4 17.3061 10.4 17.2C10.4 17.0939 10.3579 16.9922 10.2828 16.9172C10.2078 16.8421 10.1061 16.8 10 16.8ZM12.4 16.8C12.2939 16.8 12.1922 16.8421 12.1172 16.9172C12.0421 16.9922 12 17.0939 12 17.2C12 17.3061 12.0421 17.4078 12.1172 17.4828C12.1922 17.5579 12.2939 17.6 12.4 17.6C12.5061 17.6 12.6078 17.5579 12.6828 17.4828C12.7579 17.4078 12.8 17.3061 12.8 17.2C12.8 17.0939 12.7579 16.9922 12.6828 16.9172C12.6078 16.8421 12.5061 16.8 12.4 16.8Z" fill="var(--fill-0, black)"/>
</g>
<defs>
<clipPath id="clip0_0_9">
<rect width="20" height="20" fill="white"/>
</clipPath>
</defs>
</svg>
