<svg preserveAspectRatio="none" width="100%" height="100%" overflow="visible" style="display: block;" viewBox="0 0 20 20" fill="none" xmlns="http://www.w3.org/2000/svg">
<g id="cloud">
<path id="Vector" d="M11.6 3.4125C9.51406 3.4125 7.74844 4.66094 6.9 6.425C6.44844 6.11406 5.925 5.8875 5.3375 5.8875C3.84688 5.8875 2.65781 7.06719 2.575 8.5375C1.08438 9.075 0 10.4656 0 12.1375C0 14.2687 1.73125 16 3.8625 16H16.4375C18.4 16 20 14.4 20 12.4375C20 10.6172 18.6031 9.17031 16.8375 8.9625C16.8438 8.86562 16.8625 8.775 16.8625 8.675C16.8625 5.775 14.5 3.4125 11.6 3.4125ZM11.6 4.2125C14.0688 4.2125 16.0625 6.20781 16.0625 8.675C16.0625 8.85781 16.0484 9.0375 16.025 9.225L15.9625 9.675H16.4375C17.9672 9.675 19.2 10.9078 19.2 12.4375C19.2 13.9672 17.9672 15.2 16.4375 15.2H3.8625C2.1625 15.2 0.8 13.8359 0.8 12.1375C0.8 10.7234 1.75313 9.53281 3.05 9.175L3.35 9.1L3.3375 8.775C3.33594 8.71875 3.3375 8.69062 3.3375 8.6875C3.3375 7.57656 4.22656 6.6875 5.3375 6.6875C5.89375 6.6875 6.4 6.91094 6.7625 7.275L7.2 7.725L7.4125 7.1375C8.04219 5.4375 9.67656 4.2125 11.6 4.2125Z" fill="var(--fill-0, black)"/>
</g>
</svg>
