<svg preserveAspectRatio="none" width="100%" height="100%" overflow="visible" style="display: block;" viewBox="0 0 20 19.9756" fill="none" xmlns="http://www.w3.org/2000/svg">
<path id="Union" d="M14.2402 8.45605C17.4183 8.45607 20 11.0377 20 14.2158C19.9999 17.3938 17.4183 19.9756 14.2402 19.9756C11.0622 19.9756 8.48056 17.3938 8.48047 14.2158C8.48047 11.0377 11.0621 8.45605 14.2402 8.45605ZM14.2402 9.27246C11.5115 9.27246 9.29785 11.4871 9.29785 14.2158C9.29794 16.9445 11.5115 19.1582 14.2402 19.1582C16.9689 19.1582 19.1825 16.9445 19.1826 14.2158C19.1826 11.4871 16.969 9.27247 14.2402 9.27246ZM11.8096 12.6328C12.2199 12.347 12.6509 12.2497 13.0762 12.374C13.4669 12.4883 13.7711 12.7675 14.0059 13.042C14.2445 13.3212 14.4636 13.6595 14.6602 13.9629C14.8653 14.2794 15.048 14.5623 15.2373 14.7881C15.4303 15.0183 15.5829 15.1306 15.7012 15.1699C15.7842 15.1974 15.9038 15.2088 16.1123 15.0732C16.3421 14.9238 16.6483 14.6125 17.0342 14.0293L17.4512 14.3057L17.8682 14.5811C17.4514 15.2109 17.0545 15.6527 16.6572 15.9111C16.2388 16.1832 15.8062 16.2576 15.3877 16.1191C15.0044 15.9922 14.7048 15.7086 14.4717 15.4307C14.2348 15.1482 14.0162 14.8092 13.8203 14.5068C13.6156 14.191 13.4328 13.9119 13.2451 13.6924C13.0535 13.4683 12.9057 13.3664 12.7949 13.334C12.7186 13.3118 12.597 13.3026 12.3809 13.4531C12.1459 13.6169 11.837 13.9475 11.4502 14.5508L11.0293 14.2803L10.6084 14.0107C11.024 13.3625 11.4176 12.9059 11.8096 12.6328ZM15 0V7.83496C14.7549 7.80228 14.5013 7.78613 14.248 7.78613C10.6943 7.78629 7.81836 10.662 7.81836 14.2158C7.81837 14.4772 7.83451 14.739 7.86719 14.9922H0V0H15ZM0.817383 0.817383V14.1748H6.99316C7.0095 10.2206 10.2206 7.00143 14.1748 6.96875V0.817383H0.817383Z" fill="var(--fill-0, black)"/>
</svg>
