<svg preserveAspectRatio="none" width="100%" height="100%" overflow="visible" style="display: block;" viewBox="0 0 20 19.9756" fill="none" xmlns="http://www.w3.org/2000/svg">
<path id="Union" d="M14.2402 8.45605C17.4183 8.45607 20 11.0377 20 14.2158C19.9999 17.3938 17.4183 19.9756 14.2402 19.9756C11.0622 19.9756 8.48056 17.3938 8.48047 14.2158C8.48047 11.0377 11.0621 8.45605 14.2402 8.45605ZM14.2402 9.27246C11.5115 9.27246 9.29785 11.4871 9.29785 14.2158C9.29794 16.9445 11.5115 19.1582 14.2402 19.1582C16.9689 19.1582 19.1825 16.9445 19.1826 14.2158C19.1826 11.4871 16.969 9.27247 14.2402 9.27246ZM14.542 17.3203C14.5419 17.451 14.4035 17.5576 14.2402 17.5576C14.0769 17.5576 13.9376 17.451 13.9375 17.3203V14.1172C14.0192 14.1744 14.1259 14.207 14.2402 14.207C14.3545 14.207 14.4603 14.1743 14.542 14.1172V17.3203ZM11.748 17.3125C11.7477 17.443 11.6094 17.5488 11.4463 17.5488C11.2831 17.5488 11.1439 17.443 11.1436 17.3125V15.1064C11.2253 15.1636 11.3319 15.1963 11.4463 15.1963C11.5604 15.1963 11.6664 15.1634 11.748 15.1064V17.3125ZM17.3369 17.3037C17.3369 17.4344 17.2057 17.541 17.0342 17.541C16.8708 17.541 16.7324 17.4344 16.7324 17.3037V16.3721C16.8141 16.4292 16.9199 16.4619 17.0342 16.4619C17.1486 16.4619 17.2552 16.4293 17.3369 16.3721V17.3037ZM17.0342 10.8906C17.1975 10.8906 17.3367 11.021 17.3369 11.1924V14.5264H17.3525C17.3933 14.5508 17.4342 14.5671 17.4668 14.5996C17.6138 14.7221 17.7118 14.8936 17.7119 15.0977C17.7119 15.3019 17.6139 15.4741 17.4668 15.5967C17.3444 15.6945 17.2052 15.7598 17.042 15.7598C16.8788 15.7597 16.7315 15.6946 16.6172 15.5967C16.4702 15.4741 16.3721 15.3019 16.3721 15.0977C16.3722 14.8937 16.4703 14.7221 16.6172 14.5996C16.6499 14.5669 16.7324 14.5264 16.7324 14.5264V11.1924C16.7326 11.0292 16.8628 10.8907 17.0342 10.8906ZM15 0V7.83496C14.7549 7.80228 14.5013 7.78613 14.248 7.78613C10.6943 7.78629 7.81836 10.662 7.81836 14.2158C7.81837 14.4772 7.83451 14.739 7.86719 14.9922H0V0H15ZM11.4463 10.8818C11.6096 10.8819 11.748 11.0131 11.748 11.1846V13.2598H11.7646C11.8054 13.2842 11.8463 13.3005 11.8789 13.333C12.026 13.4556 12.124 13.6278 12.124 13.832C12.1239 14.0361 12.0259 14.2076 11.8789 14.3301C11.7564 14.428 11.6174 14.4932 11.4541 14.4932C11.2908 14.4931 11.1436 14.4281 11.0293 14.3301C10.8824 14.2076 10.7843 14.0361 10.7842 13.832C10.7842 13.6278 10.8822 13.4556 11.0293 13.333C11.0611 13.3013 11.139 13.2621 11.1436 13.2598V11.1846C11.1436 11.0212 11.2829 10.8818 11.4463 10.8818ZM0.817383 0.817383V14.1748H6.99316C7.0095 10.2206 10.2206 7.00143 14.1748 6.96875V0.817383H0.817383ZM14.2402 10.8818C14.4036 10.8819 14.542 11.0131 14.542 11.1846V12.2627H14.5586C14.5994 12.2872 14.6402 12.3042 14.6729 12.3369C14.8199 12.4595 14.918 12.6307 14.918 12.835C14.918 13.0392 14.8199 13.2105 14.6729 13.333C14.5503 13.431 14.4114 13.4971 14.248 13.4971C14.0847 13.497 13.9376 13.431 13.8232 13.333C13.6763 13.2105 13.5781 13.0391 13.5781 12.835C13.5781 12.6308 13.6763 12.4594 13.8232 12.3369C13.8552 12.3049 13.9341 12.2644 13.9375 12.2627V11.1846C13.9375 11.0212 14.0768 10.8818 14.2402 10.8818Z" fill="var(--fill-0, black)"/>
</svg>
