<svg preserveAspectRatio="none" width="100%" height="100%" overflow="visible" style="display: block;" viewBox="0 0 20 19.9756" fill="none" xmlns="http://www.w3.org/2000/svg">
<path id="Union" d="M14.2402 8.45605C17.4183 8.45607 20 11.0377 20 14.2158C19.9999 17.3938 17.4183 19.9756 14.2402 19.9756C11.0622 19.9756 8.48056 17.3938 8.48047 14.2158C8.48047 11.0377 11.0621 8.45605 14.2402 8.45605ZM14.2402 9.27246C11.5115 9.27246 9.29785 11.4871 9.29785 14.2158C9.29794 16.9445 11.5115 19.1582 14.2402 19.1582C16.9689 19.1582 19.1825 16.9445 19.1826 14.2158C19.1826 11.4871 16.969 9.27247 14.2402 9.27246ZM17.0791 11.4375C17.1431 11.4385 17.2069 11.4631 17.2549 11.4951C17.3937 11.5932 17.4262 11.7732 17.3281 11.9121L13.8809 16.9932L11.1846 14.4854H11.1768C11.0624 14.371 11.0624 14.1831 11.1768 14.0605C11.2911 13.9463 11.479 13.9462 11.6016 14.0605L13.7822 16.0869L16.8379 11.5771C16.8943 11.4886 16.9827 11.4389 17.0791 11.4375ZM15 0V7.83496C14.7549 7.80228 14.5013 7.78613 14.248 7.78613C10.6943 7.78629 7.81836 10.662 7.81836 14.2158C7.81837 14.4772 7.83451 14.739 7.86719 14.9922H0V0H15ZM0.817383 0.817383V14.1748H6.99316C7.0095 10.2206 10.2206 7.00143 14.1748 6.96875V0.817383H0.817383Z" fill="var(--fill-0, black)"/>
</svg>
