<svg preserveAspectRatio="none" width="100%" height="100%" overflow="visible" style="display: block;" viewBox="0 0 20 20" fill="none" xmlns="http://www.w3.org/2000/svg">
<g id="monitor">
<path id="Vector" d="M1.6 2C1.15938 2 0.8 2.35938 0.8 2.8V14.4C0.8 14.8406 1.15938 15.2 1.6 15.2H7.6V16.4H6.4C5.73906 16.4 5.2 16.9391 5.2 17.6V18.4H14.8V17.6C14.8 16.9391 14.2609 16.4 13.6 16.4H12.4V15.2H18.4C18.8406 15.2 19.2 14.8406 19.2 14.4V2.8C19.2 2.35938 18.8406 2 18.4 2H1.6ZM1.6 2.8H18.4V14.4H1.6V12.8H18.4V12H1.6V2.8ZM16.4 13.2V14H17.2V13.2H16.4ZM8.4 15.2H11.6V16.4H8.4V15.2ZM6.4 17.2H13.6C13.8203 17.2 14 17.3797 14 17.6H6C6 17.3797 6.17969 17.2 6.4 17.2Z" fill="var(--fill-0, black)"/>
</g>
</svg>
