<svg preserveAspectRatio="none" width="100%" height="100%" overflow="visible" style="display: block;" viewBox="0 0 20 20" fill="none" xmlns="http://www.w3.org/2000/svg">
<g id="confetti">
<path id="Vector" d="M12.6 0.634375L12.3172 0.917187L11.0344 2.2L12.6 3.76563L14.1656 2.2L12.6 0.634375ZM7.6 1.6C7.49392 1.60001 7.39218 1.64216 7.31717 1.71717C7.24216 1.79218 7.20001 1.89392 7.2 2V4C7.20001 4.10608 7.24216 4.20782 7.31717 4.28283C7.39218 4.35784 7.49392 4.39999 7.6 4.4H8C8.47818 4.4 8.58217 4.54379 8.68437 4.77344C8.78658 5.00309 8.8 5.3482 8.8 5.6C8.8 5.92655 8.76041 6.26991 8.70469 6.6C8.35307 6.47614 8.01567 6.40221 7.70312 6.4C7.34991 6.39748 6.99867 6.49664 6.74766 6.74766C6.64057 6.85474 6.56881 6.98265 6.51328 7.11797L6.50625 7.11563L2.11016 18.2594L13.6516 14.3078L13.6492 14.3008C13.7974 14.2449 13.9366 14.168 14.0523 14.0523C14.3515 13.7532 14.4327 13.3218 14.3883 12.8906C14.3603 12.6188 14.2816 12.3316 14.168 12.0336C14.4838 12.0145 14.8197 12 15.2 12C15.7702 12 16.3097 12.069 16.6602 12.1906C16.8354 12.2515 16.9588 12.326 17.0187 12.3828C17.0787 12.4397 17.082 12.4561 17.082 12.5V12.8C17.082 12.9061 17.1242 13.0078 17.1992 13.0828C17.2742 13.1578 17.3759 13.2 17.482 13.2H19.2C19.2535 13.2 19.3065 13.1893 19.3558 13.1685C19.4051 13.1476 19.4498 13.1171 19.4871 13.0787C19.5244 13.0403 19.5536 12.9948 19.573 12.9449C19.5924 12.8951 19.6016 12.8418 19.6 12.7883C19.6 12.7883 19.5882 12.2954 19.5883 12.2898C19.5883 12.2896 19.5883 12.2893 19.5883 12.2891C19.5956 11.381 19.0236 10.6772 18.318 10.2445C17.6123 9.81182 16.7559 9.6 15.9914 9.6C14.7263 9.6 13.7852 9.92821 13.1555 10.2531C12.9569 9.98345 12.7381 9.71169 12.4992 9.44141C12.6419 9.39588 12.7867 9.3535 12.9266 9.31563C13.2084 9.23932 13.4748 9.1768 13.682 9.13047C13.8893 9.08414 14.0037 9.06427 14.1078 9.03516C14.4307 8.94466 14.8715 8.83403 15.2664 8.57031C15.6613 8.30659 16 7.83227 16 7.2C16 7.02692 15.9161 6.93062 15.8609 6.8H16C16.8551 6.8 17.6 6.10952 17.6 5.2V4.65C17.6 4.65 17.603 4.5955 17.6406 4.53438C17.6782 4.47325 17.7083 4.4 18 4.4H18.4C18.5061 4.39999 18.6078 4.35784 18.6828 4.28283C18.7578 4.20782 18.8 4.10608 18.8 4V2.40078C18.8 2.2947 18.7578 2.19296 18.6828 2.11795C18.6078 2.04294 18.5061 2.00079 18.4 2.00078H17.7516C16.6884 1.99989 16.0317 2.49201 15.6805 2.96016C15.42 3.30712 15.3398 3.7359 15.2781 4.10391C15.2511 4.26532 15.2565 4.28273 15.2445 4.4H15.2C14.5111 4.4 13.9713 4.64972 13.643 5.04375C13.3146 5.43778 13.2 5.93333 13.2 6.4V6.94297C12.5444 7.15911 11.7936 7.51009 11.1477 8.12109C10.7669 7.7973 10.3885 7.50796 10.0172 7.26641C10.4272 6.54349 10.8 5.56813 10.8 4.4C10.8 3.71111 10.5717 3.01549 10.0937 2.48281C9.61582 1.95014 8.88347 1.6 7.97031 1.6H7.96953H7.96406H7.6ZM12.6 1.76562L13.0344 2.2L12.6 2.63438L12.1656 2.2L12.6 1.76562ZM4.2 2.23438L3.91719 2.51719L2.63437 3.8L4.2 5.36562L5.76562 3.8L4.2 2.23438ZM8 2.40547C8.69764 2.41345 9.17424 2.65586 9.49844 3.01719C9.82801 3.38451 10 3.88889 10 4.4C10 5.23282 9.75747 5.91228 9.475 6.49766C9.51989 6.19108 9.6 5.91998 9.6 5.6C9.6 5.3482 9.61342 4.89289 9.41562 4.44844C9.21783 4.00399 8.72182 3.6 8 3.6V2.40547ZM17.7508 2.80078C17.751 2.80078 17.7513 2.80078 17.7516 2.80078H18V3.6C17.4917 3.6 17.1218 3.85175 16.9594 4.11562C16.797 4.3795 16.8 4.65 16.8 4.65V5.2C16.8 5.69048 16.4449 6 16 6H15.2C15.1271 6.00001 15.0556 6.01992 14.9932 6.05759C14.9309 6.09527 14.88 6.14927 14.846 6.21376C14.8121 6.27825 14.7964 6.35079 14.8007 6.42354C14.805 6.4963 14.829 6.56649 14.8703 6.62656C14.8704 6.62676 14.9015 6.66609 14.9039 6.66875C14.9063 6.67143 14.9079 6.67333 14.9094 6.675C14.9124 6.67832 14.9159 6.68178 14.9203 6.68672C14.9291 6.69659 14.9418 6.7113 14.957 6.72969C14.9876 6.76646 15.0281 6.81863 15.0672 6.87813C15.1454 6.99711 15.2 7.14639 15.2 7.2C15.2 7.58293 15.0643 7.74281 14.8219 7.90469C14.5795 8.06657 14.2201 8.17295 13.8922 8.26484C13.9055 8.26112 13.7209 8.3022 13.507 8.35C13.2932 8.3978 13.0164 8.46295 12.718 8.54375C12.2597 8.66782 11.8036 8.86695 11.3805 9.07891C12.0503 8.2454 12.9701 7.79208 13.7078 7.58516C13.7919 7.56162 13.8659 7.51125 13.9187 7.44171C13.9714 7.37217 14 7.28728 14 7.2V6.4C14 6.06667 14.0854 5.76222 14.257 5.55625C14.4287 5.35028 14.6889 5.2 15.2 5.2H15.6C15.7024 5.19993 15.8009 5.16061 15.8751 5.09012C15.9494 5.01963 15.9938 4.92334 15.9992 4.82109C15.9992 4.82109 16.0138 4.55483 16.0672 4.23594C16.1206 3.91705 16.2404 3.54528 16.3195 3.43984C16.3198 3.43984 16.3201 3.43984 16.3203 3.43984C16.5691 3.10811 16.9118 2.80008 17.7508 2.80078ZM4.2 3.36563L4.63438 3.8L4.2 4.23438L3.76562 3.8L4.2 3.36563ZM18.2 6.8L17.2 7.8L18.2 8.8L19.1992 7.8L18.2 6.8ZM2.6 7.2L1.6 8.2L2.6 9.2L3.59922 8.2L2.6 7.2ZM7.69687 7.2C7.90655 7.20148 8.19622 7.2781 8.52891 7.4125C8.41453 7.84923 8.30432 8.17125 8.27031 8.27422C8.24288 8.35741 8.24351 8.4473 8.27211 8.53009C8.30071 8.61288 8.35569 8.684 8.42861 8.73253C8.50153 8.78106 8.58837 8.80431 8.67578 8.79871C8.7632 8.79312 8.84636 8.75899 8.9125 8.70156C8.96859 8.65271 9.06685 8.5611 9.24531 8.35781C9.34065 8.24921 9.45184 8.11181 9.56875 7.95469C9.90934 8.16844 10.2648 8.42756 10.6203 8.72422C10.5685 8.79495 10.5145 8.86162 10.4656 8.9375L9.66406 10.1836C9.61441 10.2613 9.59316 10.3538 9.60389 10.4455C9.61462 10.5371 9.65669 10.6222 9.72296 10.6863C9.78924 10.7505 9.87565 10.7898 9.96756 10.7975C10.0595 10.8053 10.1513 10.781 10.2273 10.7289L11.4305 9.89844C11.5011 9.8497 11.5934 9.7993 11.6977 9.74922C11.9846 10.0582 12.2459 10.3697 12.4742 10.6758C12.3463 10.7741 12.2464 10.8609 12.2273 10.8797C12.2271 10.8799 12.2268 10.8802 12.2266 10.8805L11.3187 11.7773C11.2534 11.8419 11.2123 11.9271 11.2023 12.0184C11.1923 12.1098 11.2141 12.2018 11.264 12.2789C11.3138 12.3561 11.3888 12.4138 11.4761 12.4422C11.5635 12.4707 11.658 12.4682 11.7437 12.4352C11.7438 12.4351 12.2688 12.2358 13.3336 12.107C13.4804 12.442 13.5692 12.742 13.593 12.9727C13.6225 13.2595 13.5655 13.4079 13.4867 13.4867C13.4559 13.5175 13.4118 13.5432 13.3562 13.5633L13.3156 13.5773C13.2446 13.5959 13.1549 13.6047 13.0359 13.5977C12.7863 13.5828 12.4427 13.4891 12.0539 13.3125C11.2762 12.9593 10.3197 12.2839 9.41797 11.382C8.51624 10.4801 7.84072 9.52381 7.4875 8.74609C7.31089 8.35724 7.21724 8.01288 7.20234 7.76328C7.19494 7.63924 7.20475 7.54547 7.225 7.47344C7.22736 7.46505 7.23095 7.45937 7.23359 7.45156C7.25392 7.3915 7.28088 7.34568 7.31328 7.31328C7.37907 7.2475 7.48689 7.19851 7.69687 7.2ZM6.67344 8.87188C6.70122 8.94011 6.72701 9.00781 6.75859 9.07734C7.16717 9.97693 7.89327 10.9884 8.85234 11.9477C9.81144 12.907 10.823 13.6329 11.7227 14.0414C11.7589 14.0579 11.7938 14.0705 11.8297 14.0859L3.48984 16.9414L6.67344 8.87188ZM15.9914 10.4C16.6006 10.4 17.3477 10.5879 17.9 10.9266C18.4523 11.2652 18.7929 11.7045 18.7883 12.282C18.7879 12.3128 18.7897 12.3512 18.7906 12.4H17.8375C17.8066 12.1724 17.7241 11.949 17.5695 11.8023C17.3891 11.6312 17.1672 11.5203 16.9219 11.4352C16.4313 11.2648 15.8298 11.2 15.2 11.2C14.1705 11.2 13.4662 11.3055 12.8555 11.4055C12.9472 11.3179 13.9337 10.4 15.9914 10.4ZM15.4 15.0344L15.1172 15.3172L13.8344 16.6L15.4 18.1656L16.9656 16.6L15.4 15.0344ZM15.4 16.1656L15.8344 16.6L15.4 17.0344L14.9656 16.6L15.4 16.1656Z" fill="var(--fill-0, black)"/>
</g>
</svg>
