<svg preserveAspectRatio="none" width="100%" height="100%" overflow="visible" style="display: block;" viewBox="0 0 16 16" fill="none" xmlns="http://www.w3.org/2000/svg">
<g id="Group 6">
<path id="Rectangle 5 (Stroke)" d="M1.10809 14.0712C1.15214 14.5037 1.49627 14.8479 1.92884 14.8919L2.02312 14.8964H13.9769L14.0712 14.8919C14.5347 14.8447 14.8964 14.4529 14.8964 13.9769V2.02312C14.8964 1.51529 14.4847 1.1036 13.9769 1.1036V0C15.0941 0 16 0.905882 16 2.02312V13.9769C16 15.0941 15.0941 16 13.9769 16H2.02312C0.905882 16 2.59155e-08 15.0941 0 13.9769V2.02312C0 0.905882 0.905882 2.59155e-08 2.02312 0V1.1036C1.51529 1.1036 1.1036 1.51529 1.1036 2.02312V13.9769L1.10809 14.0712ZM13.9769 0V1.1036H2.02312V0H13.9769Z" fill="var(--fill-0, black)"/>
<path id="Vector (Stroke)" d="M13.0544 5.13908C12.7859 4.93026 12.3889 4.96033 12.1598 5.20413L12.149 5.21591L9.38536 8.31114L7.31172 6.37574C7.184 6.25654 7.00844 6.19299 6.82801 6.20063C6.64758 6.20827 6.47892 6.28639 6.36329 6.41589L3.14901 10.0159C2.92172 10.2704 2.95858 10.6488 3.23133 10.8609C3.50408 11.0731 3.90943 11.0387 4.13672 10.7841L6.90033 7.68884L8.97399 9.62425C9.10171 9.74345 9.27727 9.80702 9.4577 9.79938C9.63813 9.79174 9.80679 9.71361 9.92242 9.58411L13.1367 5.98412C13.364 5.72956 13.3271 5.35121 13.0544 5.13908Z" fill="var(--fill-0, black)"/>
</g>
</svg>
