<svg preserveAspectRatio="none" width="100%" height="100%" overflow="visible" style="display: block;" viewBox="0 0 20 20" fill="none" xmlns="http://www.w3.org/2000/svg">
<g id="cycle">
<path id="Vector" d="M10 2C7.38453 2 5.06036 3.25938 3.60002 5.20391V2.8C3.60075 2.74648 3.59074 2.69337 3.57057 2.64379C3.5504 2.59421 3.52049 2.54919 3.48261 2.51138C3.44473 2.47357 3.39965 2.44375 3.35003 2.42368C3.30042 2.40361 3.24728 2.3937 3.19377 2.39453C3.08782 2.39619 2.98685 2.43981 2.91303 2.51583C2.83921 2.59185 2.79857 2.69405 2.80002 2.8V6.8H3.31877H6.80002C6.85302 6.80075 6.90565 6.79096 6.95483 6.77119C7.00402 6.75143 7.04879 6.72208 7.08654 6.68486C7.12429 6.64765 7.15426 6.6033 7.17472 6.55439C7.19518 6.50549 7.20571 6.45301 7.20571 6.4C7.20571 6.34699 7.19518 6.29451 7.17472 6.24561C7.15426 6.1967 7.12429 6.15235 7.08654 6.11514C7.04879 6.07792 7.00402 6.04857 6.95483 6.02881C6.90565 6.00904 6.85302 5.99925 6.80002 6H4.0172C5.30878 4.07198 7.50193 2.8 10 2.8C13.981 2.8 17.2 6.01899 17.2 10C17.1993 10.053 17.2091 10.1056 17.2288 10.1548C17.2486 10.204 17.2779 10.2488 17.3152 10.2865C17.3524 10.3243 17.3967 10.3542 17.4456 10.3747C17.4945 10.3952 17.547 10.4057 17.6 10.4057C17.653 10.4057 17.7055 10.3952 17.7544 10.3747C17.8033 10.3542 17.8477 10.3243 17.8849 10.2865C17.9221 10.2488 17.9514 10.204 17.9712 10.1548C17.991 10.1056 18.0008 10.053 18 10C18 5.58661 14.4134 2 10 2ZM2.39377 9.59453C2.28782 9.59619 2.18685 9.63981 2.11303 9.71583C2.03921 9.79185 1.99857 9.89405 2.00002 10C2.00002 14.4134 5.58662 18 10 18C12.6162 18 14.9401 16.7396 16.4 14.7945V17.2C16.3993 17.253 16.4091 17.3056 16.4288 17.3548C16.4486 17.404 16.4779 17.4488 16.5152 17.4865C16.5524 17.5243 16.5967 17.5542 16.6456 17.5747C16.6945 17.5952 16.747 17.6057 16.8 17.6057C16.853 17.6057 16.9055 17.5952 16.9544 17.5747C17.0033 17.5542 17.0477 17.5243 17.0849 17.4865C17.1221 17.4488 17.1514 17.404 17.1712 17.3548C17.191 17.3056 17.2008 17.253 17.2 17.2V13.2H16.775C16.7257 13.1906 16.6751 13.1906 16.6258 13.2L13.2 13.2008C13.147 13.2 13.0944 13.2098 13.0452 13.2296C12.996 13.2494 12.9512 13.2787 12.9135 13.3159C12.8757 13.3531 12.8458 13.3975 12.8253 13.4464C12.8049 13.4953 12.7943 13.5478 12.7943 13.6008C12.7943 13.6538 12.8049 13.7063 12.8253 13.7552C12.8458 13.8041 12.8757 13.8484 12.9135 13.8856C12.9512 13.9229 12.996 13.9522 13.0452 13.972C13.0944 13.9917 13.147 14.0015 13.2 14.0008L15.9828 14C14.6916 15.9279 12.4983 17.2 10 17.2C6.01901 17.2 2.80002 13.981 2.80002 10C2.80075 9.94648 2.79074 9.89337 2.77057 9.84379C2.7504 9.79421 2.72049 9.74919 2.68261 9.71138C2.64473 9.67357 2.59965 9.64375 2.55003 9.62368C2.50042 9.60361 2.44728 9.5937 2.39377 9.59453Z" fill="var(--fill-0, black)"/>
</g>
</svg>
