<svg preserveAspectRatio="none" width="100%" height="100%" overflow="visible" style="display: block;" viewBox="0 0 16 16" fill="none" xmlns="http://www.w3.org/2000/svg">
<g id="Subtract">
<mask id="path-1-inside-1_0_11" fill="white">
<path d="M8 0C12.4181 0.000211112 16 3.58185 16 8C15.9998 12.418 12.418 15.9998 8 16C3.58185 16 0.000211116 12.4181 0 8C0 3.58172 3.58172 0 8 0ZM4.80371 11.2842C4.80371 11.6792 5.12232 12 5.51465 12H10.4854C10.8775 11.9998 11.1953 11.6791 11.1953 11.2842V5.56445H4.80371V11.2842ZM7.28906 3.77734C7.2423 3.77676 7.19575 3.7852 7.15234 3.80273C7.10878 3.82038 7.06861 3.8467 7.03516 3.87988C7.00167 3.91314 6.97518 3.95338 6.95703 3.99707C6.93893 4.04069 6.9297 4.08749 6.92969 4.13477H4.80371C4.75695 4.13416 4.7104 4.14265 4.66699 4.16016C4.62343 4.17778 4.58326 4.20415 4.5498 4.2373C4.5163 4.27057 4.48984 4.31079 4.47168 4.35449C4.45356 4.39813 4.44436 4.44489 4.44434 4.49219C4.44434 4.53943 4.45362 4.58628 4.47168 4.62988C4.48984 4.67359 4.5163 4.71381 4.5498 4.74707C4.5833 4.78031 4.62335 4.80656 4.66699 4.82422C4.71044 4.84176 4.7569 4.85022 4.80371 4.84961H11.1953C11.2421 4.85024 11.2886 4.84174 11.332 4.82422C11.3756 4.80658 11.4157 4.78027 11.4492 4.74707C11.4827 4.71381 11.5092 4.67359 11.5273 4.62988C11.5454 4.58626 11.5547 4.53946 11.5547 4.49219C11.5547 4.44487 11.5455 4.39814 11.5273 4.35449C11.5092 4.31079 11.4827 4.27056 11.4492 4.2373C11.4158 4.20419 11.3756 4.17776 11.332 4.16016C11.2886 4.14267 11.2421 4.13413 11.1953 4.13477H9.06934C9.06932 4.08747 9.06011 4.04071 9.04199 3.99707C9.02384 3.95338 8.99735 3.91314 8.96387 3.87988C8.93044 3.84675 8.8902 3.82037 8.84668 3.80273C8.80326 3.78522 8.75673 3.77674 8.70996 3.77734H7.28906Z"/>
</mask>
<path d="M8 0L8.00005 -1H8V0ZM16 8L17 8.00005V8H16ZM8 16V17H8.00005L8 16ZM0 8H-1V8.00005L0 8ZM10.4854 12V13H10.4859L10.4854 12ZM11.1953 5.56445H12.1953V4.56445H11.1953V5.56445ZM4.80371 5.56445V4.56445H3.80371V5.56445H4.80371ZM7.28906 3.77734L7.27668 4.77734H7.28906V3.77734ZM7.15234 3.80273L6.77779 2.87553L6.77688 2.8759L7.15234 3.80273ZM7.03516 3.87988L6.33088 3.16996L6.33044 3.1704L7.03516 3.87988ZM6.95703 3.99707L6.03352 3.61349L6.03337 3.61386L6.95703 3.99707ZM6.92969 4.13477V5.13477H7.92936L7.92969 4.1351L6.92969 4.13477ZM4.80371 4.13477L4.79077 5.13477H4.80371V4.13477ZM4.66699 4.16016L4.29299 3.23273L4.29193 3.23316L4.66699 4.16016ZM4.5498 4.2373L3.8459 3.52701L3.84528 3.52762L4.5498 4.2373ZM4.47168 4.35449L3.54822 3.97079L3.54816 3.97094L4.47168 4.35449ZM4.44434 4.49219L3.44434 4.49168V4.49219H4.44434ZM4.47168 4.62988L3.5478 5.01258L3.54822 5.01359L4.47168 4.62988ZM4.5498 4.74707L3.84528 5.45675L3.84539 5.45686L4.5498 4.74707ZM4.66699 4.82422L4.29193 5.75122L4.29263 5.7515L4.66699 4.82422ZM4.80371 4.84961V3.84953L4.79076 3.84969L4.80371 4.84961ZM11.1953 4.84961L11.2089 3.84961H11.1953V4.84961ZM11.332 4.82422L11.7059 5.75171L11.7071 5.75122L11.332 4.82422ZM11.4492 4.74707L12.1533 5.45715L12.1537 5.45675L11.4492 4.74707ZM11.5273 4.62988L12.4508 5.01359L12.4511 5.01278L11.5273 4.62988ZM11.5547 4.49219H12.5547V4.49168L11.5547 4.49219ZM11.5273 4.35449L12.4508 3.97079L12.4508 3.97073L11.5273 4.35449ZM11.4492 4.2373L12.1537 3.52762L12.1528 3.52672L11.4492 4.2373ZM11.332 4.16016L11.7071 3.23316L11.7055 3.23253L11.332 4.16016ZM11.1953 4.13477V5.13486L11.2088 5.13467L11.1953 4.13477ZM9.06934 4.13477L8.06934 4.1351L8.06967 5.13477H9.06934V4.13477ZM9.04199 3.99707L9.96557 3.61366L9.9655 3.61349L9.04199 3.99707ZM8.96387 3.87988L9.66859 3.1704L9.66785 3.16967L8.96387 3.87988ZM8.84668 3.80273L9.22214 2.87589L9.22073 2.87532L8.84668 3.80273ZM8.70996 3.77734V4.77743L8.72293 4.77726L8.70996 3.77734ZM8 0L7.99995 1C11.8659 1.00018 15 4.13418 15 8H16H17C17 3.02952 12.9703 -0.999762 8.00005 -1L8 0ZM16 8L15 7.99995C14.9998 11.8657 11.8657 14.9998 7.99995 15L8 16L8.00005 17C12.9703 16.9998 16.9998 12.9703 17 8.00005L16 8ZM8 16V15C4.13418 15 1.00018 11.8659 1 7.99995L0 8L-1 8.00005C-0.999762 12.9703 3.02952 17 8 17V16ZM0 8H1C1 4.13401 4.13401 1 8 1V0V-1C3.02944 -1 -1 3.02944 -1 8H0ZM4.80371 11.2842H3.80371C3.80371 12.225 4.56359 13 5.51465 13V12V11C5.68105 11 5.80371 11.1334 5.80371 11.2842H4.80371ZM5.51465 12V13H10.4854V12V11H5.51465V12ZM10.4854 12L10.4859 13C11.4376 12.9995 12.1953 12.2236 12.1953 11.2842H11.1953H10.1953C10.1953 11.1345 10.3174 11.0001 10.4848 11L10.4854 12ZM11.1953 11.2842H12.1953V5.56445H11.1953H10.1953V11.2842H11.1953ZM11.1953 5.56445V4.56445H4.80371V5.56445V6.56445H11.1953V5.56445ZM4.80371 5.56445H3.80371V11.2842H4.80371H5.80371V5.56445H4.80371ZM7.28906 3.77734L7.30144 2.77742C7.12661 2.77526 6.94814 2.80671 6.77779 2.87553L7.15234 3.80273L7.52689 4.72994C7.44335 4.76369 7.35799 4.77827 7.27668 4.77727L7.28906 3.77734ZM7.15234 3.80273L6.77688 2.8759C6.61233 2.94256 6.45993 3.04194 6.33088 3.16996L7.03516 3.87988L7.73943 4.58981C7.67729 4.65146 7.60522 4.69821 7.5278 4.72957L7.15234 3.80273ZM7.03516 3.87988L6.33044 3.1704C6.19875 3.3012 6.09989 3.45371 6.03352 3.61349L6.95703 3.99707L7.88054 4.38065C7.85047 4.45304 7.80459 4.52509 7.73988 4.58937L7.03516 3.87988ZM6.95703 3.99707L6.03337 3.61386C5.96435 3.78023 5.92975 3.95726 5.92969 4.13443L6.92969 4.13477L7.92969 4.1351C7.92966 4.21773 7.91352 4.30115 7.88069 4.38028L6.95703 3.99707ZM6.92969 4.13477V3.13477H4.80371V4.13477V5.13477H6.92969V4.13477ZM4.80371 4.13477L4.81665 3.13485C4.64065 3.13257 4.4623 3.16445 4.29299 3.23273L4.66699 4.16016L5.041 5.08758C4.95851 5.12085 4.87326 5.13575 4.79077 5.13468L4.80371 4.13477ZM4.66699 4.16016L4.29193 3.23316C4.12649 3.30009 3.9743 3.39976 3.8459 3.52701L4.5498 4.2373L5.25371 4.9476C5.19223 5.00853 5.12037 5.05547 5.04206 5.08716L4.66699 4.16016ZM4.5498 4.2373L3.84528 3.52762C3.71322 3.65872 3.61447 3.81136 3.54822 3.97079L4.47168 4.35449L5.39514 4.7382C5.36521 4.81022 5.31937 4.88241 5.25432 4.94699L4.5498 4.2373ZM4.47168 4.35449L3.54816 3.97094C3.47883 4.13787 3.44443 4.31498 3.44434 4.49168L4.44434 4.49219L5.44434 4.49269C5.44429 4.57481 5.42828 4.65838 5.3952 4.73805L4.47168 4.35449ZM4.44434 4.49219H3.44434C3.44434 4.67017 3.47926 4.84711 3.5478 5.01257L4.47168 4.62988L5.39556 4.24719C5.42798 4.32546 5.44434 4.40869 5.44434 4.49219H4.44434ZM4.47168 4.62988L3.54822 5.01359C3.61447 5.17302 3.71322 5.32565 3.84528 5.45675L4.5498 4.74707L5.25432 4.03739C5.31937 4.10196 5.36521 4.17416 5.39514 4.24618L4.47168 4.62988ZM4.5498 4.74707L3.84539 5.45686C3.97445 5.58494 4.12687 5.68443 4.29193 5.75122L4.66699 4.82422L5.04206 3.89722C5.11983 3.92869 5.19215 3.97569 5.25422 4.03728L4.5498 4.74707ZM4.66699 4.82422L4.29263 5.7515C4.46243 5.82005 4.64086 5.8518 4.81667 5.84953L4.80371 4.84961L4.79076 3.84969C4.87295 3.84863 4.95845 3.86347 5.04135 3.89694L4.66699 4.82422ZM4.80371 4.84961V5.84961H11.1953V4.84961V3.84961H4.80371V4.84961ZM11.1953 4.84961L11.1818 5.84952C11.3588 5.85191 11.5371 5.81974 11.7059 5.75171L11.332 4.82422L10.9582 3.89673C11.04 3.86373 11.1255 3.84857 11.2089 3.8497L11.1953 4.84961ZM11.332 4.82422L11.7071 5.75122C11.8724 5.68434 12.0247 5.58475 12.1533 5.45715L11.4492 4.74707L10.7451 4.03699C10.8068 3.97578 10.8789 3.92881 10.957 3.89722L11.332 4.82422ZM11.4492 4.74707L12.1537 5.45675C12.2858 5.32565 12.3846 5.17302 12.4508 5.01359L11.5273 4.62988L10.6039 4.24618C10.6338 4.17416 10.6796 4.10196 10.7447 4.03739L11.4492 4.74707ZM11.5273 4.62988L12.4511 5.01278C12.5198 4.84702 12.5547 4.67005 12.5547 4.49219H11.5547H10.5547C10.5547 4.40887 10.571 4.3255 10.6036 4.24699L11.5273 4.62988ZM11.5547 4.49219L12.5547 4.49168C12.5546 4.31507 12.5202 4.13793 12.4508 3.97079L11.5273 4.35449L10.6039 4.7382C10.5707 4.65835 10.5547 4.57468 10.5547 4.49269L11.5547 4.49219ZM11.5273 4.35449L12.4508 3.97073C12.3846 3.81139 12.2858 3.65874 12.1537 3.52762L11.4492 4.2373L10.7447 4.94699C10.6796 4.88238 10.6338 4.8102 10.6039 4.73825L11.5273 4.35449ZM11.4492 4.2373L12.1528 3.52672C12.0248 3.39995 11.8728 3.30018 11.7071 3.23316L11.332 4.16016L10.957 5.08716C10.8783 5.05535 10.8068 5.00844 10.7456 4.94789L11.4492 4.2373ZM11.332 4.16016L11.7055 3.23253C11.5372 3.16476 11.359 3.13246 11.1818 3.13486L11.1953 4.13477L11.2088 5.13467C11.1252 5.13581 11.04 5.12058 10.9585 5.08779L11.332 4.16016ZM11.1953 4.13477V3.13477H9.06934V4.13477V5.13477H11.1953V4.13477ZM9.06934 4.13477L10.0693 4.13443C10.0693 3.95739 10.0348 3.78031 9.96557 3.61366L9.04199 3.99707L8.11842 4.38049C8.08546 4.30111 8.06936 4.21755 8.06934 4.1351L9.06934 4.13477ZM9.04199 3.99707L9.9655 3.61349C9.89914 3.45371 9.80027 3.3012 9.66859 3.1704L8.96387 3.87988L8.25915 4.58937C8.19443 4.52509 8.14855 4.45304 8.11848 4.38065L9.04199 3.99707ZM8.96387 3.87988L9.66785 3.16967C9.53918 3.04213 9.38691 2.94265 9.22214 2.8759L8.84668 3.80273L8.47122 4.72957C8.39349 4.69809 8.32169 4.65137 8.25988 4.5901L8.96387 3.87988ZM8.84668 3.80273L9.22073 2.87532C9.05137 2.80702 8.87301 2.77515 8.697 2.77743L8.70996 3.77734L8.72293 4.77726C8.64045 4.77833 8.55515 4.76343 8.47263 4.73014L8.84668 3.80273ZM8.70996 3.77734V2.77734H7.28906V3.77734V4.77734H8.70996V3.77734Z" fill="var(--stroke-0, black)" mask="url(#path-1-inside-1_0_11)"/>
</g>
</svg>
