<svg preserveAspectRatio="none" width="100%" height="100%" overflow="visible" style="display: block;" viewBox="0 0 20 20" fill="none" xmlns="http://www.w3.org/2000/svg">
<g id="dollar" clip-path="url(#clip0_0_9)">
<g id="Vector">
<path d="M10 0.8C4.92372 0.8 0.8 4.92372 0.8 10C0.8 15.0763 4.92372 19.2 10 19.2C15.0763 19.2 19.2 15.0763 19.2 10C19.2 4.92372 15.0763 0.8 10 0.8ZM10 1.6C14.6439 1.6 18.4 5.35607 18.4 10C18.4 14.6439 14.6439 18.4 10 18.4C5.35607 18.4 1.6 14.6439 1.6 10C1.6 5.35607 5.35607 1.6 10 1.6Z" fill="black"/>
<path d="M9.71301 4.11583C9.78683 4.03981 9.8878 3.99619 9.99375 3.99453C10.0473 3.9937 10.1004 4.00361 10.15 4.02368C10.1996 4.04375 10.2447 4.07357 10.2826 4.11138C10.3205 4.14919 10.3504 4.19421 10.3706 4.24379C10.3907 4.29337 10.4007 4.34648 10.4 4.4V5.24609C11.4561 5.35845 12.1232 5.86159 12.443 6.39453C12.8035 6.99541 12.8 7.6 12.8 7.6C12.8007 7.653 12.791 7.70563 12.7712 7.75482C12.7514 7.804 12.7221 7.84877 12.6849 7.88652C12.6476 7.92427 12.6033 7.95424 12.5544 7.9747C12.5055 7.99516 12.453 8.0057 12.4 8.0057C12.347 8.0057 12.2945 7.99516 12.2456 7.9747C12.1967 7.95424 12.1524 7.92427 12.1151 7.88652C12.0779 7.84877 12.0486 7.804 12.0288 7.75482C12.009 7.70563 11.9992 7.653 12 7.6C12 7.6 11.9965 7.20459 11.757 6.80547C11.5197 6.41 11.0889 6.01202 10.0219 6.00469C10.0076 6.00546 9.99322 6.00546 9.9789 6.00469C8.91115 6.01177 8.48032 6.40987 8.24297 6.80547C8.00348 7.20459 8 7.6 8 7.6L8 7.60757C7.99996 7.8066 7.99991 8.06629 8.22031 8.36016C8.44351 8.65776 8.9296 9.01613 10.0656 9.20547C11.6333 9.46675 12.4586 10.0131 12.8602 10.6164C13.2617 11.2197 13.2 11.8683 13.2 12C13.2 12 13.2038 12.7013 12.7953 13.4016C12.427 14.033 11.6534 14.6347 10.4 14.7523V15.6C10.4007 15.653 10.391 15.7056 10.3712 15.7548C10.3514 15.804 10.3221 15.8488 10.2849 15.8865C10.2476 15.9243 10.2033 15.9542 10.1544 15.9747C10.1055 15.9952 10.053 16.0057 10 16.0057C9.94699 16.0057 9.89451 15.9952 9.8456 15.9747C9.7967 15.9542 9.75235 15.9243 9.71513 15.8865C9.67792 15.8488 9.64857 15.804 9.62881 15.7548C9.60904 15.7056 9.59925 15.653 9.6 15.6V14.7453C8.32919 14.6078 7.55127 13.8971 7.19218 13.1789C6.79448 12.3835 6.8 11.6 6.8 11.6C6.79925 11.547 6.80904 11.4944 6.82881 11.4452C6.84857 11.396 6.87792 11.3512 6.91513 11.3135C6.95235 11.2757 6.9967 11.2458 7.0456 11.2253C7.09451 11.2048 7.14699 11.1943 7.2 11.1943C7.25301 11.1943 7.30549 11.2048 7.35439 11.2253C7.40329 11.2458 7.44764 11.2757 7.48486 11.3135C7.52208 11.3512 7.55142 11.396 7.57119 11.4452C7.59095 11.4944 7.60075 11.547 7.6 11.6C7.6 11.6 7.60551 12.2165 7.90781 12.8211C8.20708 13.4196 8.72789 13.9848 9.96718 13.9961C9.98928 13.9943 10.0115 13.9943 10.0336 13.9961H10.0352C11.2914 13.9856 11.8163 13.4929 12.1047 12.9984C12.3962 12.4987 12.4 12 12.4 12C12.4 11.7317 12.441 11.4309 12.1937 11.0594C11.9465 10.6879 11.3715 10.234 9.93437 9.99453C8.67039 9.78387 7.95648 9.34224 7.57968 8.83984C7.20288 8.33744 7.2 7.8 7.2 7.6C7.2 7.6 7.1965 6.99541 7.55703 6.39453C7.87679 5.86159 8.54393 5.35845 9.6 5.24609V4.4C9.59855 4.29405 9.63919 4.19185 9.71301 4.11583Z" fill="black"/>
</g>
</g>
<defs>
<clipPath id="clip0_0_9">
<rect width="20" height="20" fill="white"/>
</clipPath>
</defs>
</svg>
