<svg preserveAspectRatio="none" width="100%" height="100%" overflow="visible" style="display: block;" viewBox="0 0 14.4004 18.0002" fill="none" xmlns="http://www.w3.org/2000/svg">
<path id="Union" d="M6.78027 0.174981C7.01407 -0.0584534 7.38618 -0.0582006 7.62012 0.174981C7.90212 0.450954 14.4001 6.9492 14.4004 10.801C14.4003 14.7726 11.1722 18.0002 7.2002 18.0002C3.22832 18 6.02012e-05 14.7725 0 10.801C0.000323541 6.9492 6.49827 0.450954 6.78027 0.174981ZM7.2002 1.51678C6.57958 2.16348 5.41063 3.42604 4.2627 4.90643C3.45618 5.94656 2.6811 7.06606 2.11328 8.13494C1.60295 9.09567 1.3158 9.91355 1.25195 10.5431L1.2373 10.801C1.23736 14.089 3.9118 16.7636 7.2002 16.7638C10.3859 16.7638 12.9952 14.2539 13.1553 11.1076L13.1631 10.801C13.163 10.1438 12.8703 9.23276 12.2871 8.13494C11.7194 7.0662 10.9451 5.94643 10.1387 4.90643C8.9907 3.42599 7.82079 2.16346 7.2002 1.51678ZM4.12598 10.801C4.45705 10.801 4.72533 11.0692 4.72559 11.4006C4.72559 12.7241 5.80271 13.801 7.12598 13.801C7.45702 13.8011 7.72544 14.0692 7.72559 14.4006C7.72559 14.732 7.45711 15.001 7.12598 15.0012C5.14096 15.0012 3.52637 13.3856 3.52637 11.4006C3.52663 11.0692 3.79484 10.801 4.12598 10.801Z" fill="var(--fill-0, black)"/>
</svg>
