<svg preserveAspectRatio="none" width="100%" height="100%" overflow="visible" style="display: block;" viewBox="0 0 18 18" fill="none" xmlns="http://www.w3.org/2000/svg">
<path id="Vector" d="M15.4998 0C14.8596 0 14.2269 0.243804 13.7407 0.729917L11.2278 3.23078L11.168 3.17095C11.0034 3.00642 10.788 2.93163 10.5696 2.93163C10.3513 2.93163 10.1239 3.00642 9.95936 3.17095L8.96616 4.17608C8.63559 4.50664 8.63559 5.05407 8.96616 5.38463L9.36105 5.76754L2.4445 12.6838C1.93144 13.1968 1.63228 13.5782 1.45129 13.9043C1.2703 14.2304 1.21795 14.5101 1.17607 14.718C1.13419 14.9259 1.10277 15.068 0.97264 15.3043C0.842505 15.5406 0.594204 15.8622 0.111063 16.3453C-0.0370209 16.4949 -0.0370209 16.7342 0.111063 16.8838L1.11624 17.8889C1.26582 18.037 1.50514 18.037 1.65472 17.8889C2.13786 17.4058 2.46095 17.1575 2.69579 17.0274C2.93063 16.8973 3.07423 16.8659 3.28214 16.824C3.49006 16.7821 3.76977 16.7298 4.09586 16.5488C4.42194 16.3678 4.80337 16.0686 5.31642 15.5556L12.233 8.63934L12.6159 9.03421C12.9465 9.36477 13.4939 9.36477 13.8245 9.03421L14.8297 8.04105C15.1602 7.71049 15.1587 7.16306 14.8297 6.8325L14.7698 6.77267L17.2708 4.25984C18.2431 3.28762 18.2431 1.70214 17.2708 0.729917C16.7847 0.243804 16.14 0 15.4998 0ZM15.5117 0.753848C15.9545 0.753848 16.3928 0.928849 16.7323 1.26838C17.4114 1.94894 17.4114 3.04232 16.7323 3.72138L14.2194 6.22224L11.7782 3.78121L14.2792 1.26838C14.6188 0.928849 15.069 0.753848 15.5117 0.753848ZM10.5696 3.69745C10.5936 3.69745 10.6115 3.70343 10.6295 3.72138L14.2792 7.37096C14.3166 7.40836 14.3166 7.46519 14.2792 7.50259L13.286 8.49575C13.2486 8.53314 13.2037 8.53314 13.1663 8.49575L12.568 7.90943C12.5351 7.85558 12.4902 7.81071 12.4364 7.7778L10.2585 5.58805C10.2211 5.51626 10.1628 5.45792 10.091 5.42053L9.50464 4.8342C9.46725 4.79681 9.46725 4.75194 9.50464 4.71454L10.4979 3.72138C10.5158 3.70343 10.5457 3.69745 10.5696 3.69745ZM9.89953 6.31797L11.6825 8.10088L4.76597 15.0171C4.28283 15.5003 3.96123 15.7471 3.7249 15.8787C3.48856 16.0103 3.34646 16.0283 3.13855 16.0701C2.93063 16.112 2.65092 16.1763 2.32484 16.3573C2.07953 16.4934 1.75644 16.7881 1.41539 17.0992L0.900841 16.5847C1.21197 16.2436 1.50664 15.9206 1.64275 15.6753C1.82375 15.3492 1.88806 15.0695 1.92995 14.8616C1.97183 14.6537 1.99127 14.5101 2.12141 14.2753C2.25154 14.0404 2.49984 13.7173 2.98299 13.2342L9.89953 6.31797Z" fill="var(--fill-0, black)"/>
</svg>
