<svg preserveAspectRatio="none" width="100%" height="100%" overflow="visible" style="display: block;" viewBox="0 0 20 20" fill="none" xmlns="http://www.w3.org/2000/svg">
<g id="edit">
<path id="Vector" d="M17.1625 1.1625C16.7406 1.1625 16.3187 1.31875 16 1.6375L15.6625 1.9625C15.5812 1.92031 15.4891 1.90781 15.4 1.925C15.3234 1.94219 15.2547 1.98125 15.2 2.0375L2.63749 14.6C2.59843 14.6391 2.56874 14.6859 2.54999 14.7375L1.22499 18.2625C1.17186 18.4078 1.2078 18.5719 1.31874 18.6813C1.42811 18.7922 1.59218 18.8281 1.73749 18.775L5.26249 17.45C5.31405 17.4313 5.36093 17.4016 5.39999 17.3625L17.9625 4.8C18.0969 4.66094 18.1141 4.44531 18 4.2875L18.325 3.9625C18.9625 3.325 18.9625 2.275 18.325 1.6375C18.0062 1.31875 17.5844 1.1625 17.1625 1.1625ZM17.1625 1.9625C17.3812 1.9625 17.6016 2.03906 17.7625 2.2C18.0859 2.52344 18.0859 3.07656 17.7625 3.4L17.45 3.725L16.25 2.525L16.5625 2.2C16.7234 2.03906 16.9437 1.9625 17.1625 1.9625ZM15.475 2.875L17.125 4.525L16.025 5.6125L14.3875 3.975L15.475 2.875ZM13.8125 4.5375L15.4625 6.1875L5.09999 16.5375L4.79999 16.225V15.6C4.79999 15.3797 4.6203 15.2 4.39999 15.2H3.77499L3.46249 14.9L13.8125 4.5375ZM3.06249 15.6375L3.31249 15.8875C3.38905 15.9625 3.49374 16.0031 3.59999 16H3.99999V16.4C3.99686 16.5063 4.03749 16.6109 4.11249 16.6875L4.36249 16.9375L2.83749 17.5125L2.48749 17.1625L3.06249 15.6375Z" fill="var(--fill-0, black)"/>
</g>
</svg>
