<svg preserveAspectRatio="none" width="100%" height="100%" overflow="visible" style="display: block;" viewBox="0 0 18.001 14.7998" fill="none" xmlns="http://www.w3.org/2000/svg">
<path id="Union" d="M16.3721 0.0078125C17.1609 0.0821091 17.8008 0.665197 17.9619 1.42578L17.9893 1.5918L17.9922 1.62012L17.9941 1.64941L17.999 1.74219L18.001 1.77148V7C18.001 9.02905 16.4108 10.6857 14.4082 10.7939L14.3955 10.7949L14.3818 10.7959L14.2275 10.7998H6.14648L7.07422 11.7275L7.18848 11.8535C7.69088 12.46 7.73373 13.3173 7.31836 13.9678L7.22266 14.1045L7.20312 14.1289L7.18262 14.1523L7.11621 14.2275L7.0957 14.251L7.07422 14.2725C6.42492 14.9218 5.40419 14.9712 4.69727 14.4219L4.67188 14.4023L4.64844 14.3818L4.57324 14.3154L4.5498 14.2949L4.52832 14.2725L0.52832 10.2725C0.465361 10.2095 0.407679 10.1426 0.355469 10.0723L0.334961 10.0459L0.317383 10.0176L0.259766 9.92871L0.224609 9.87402L0.197266 9.81543L0.154297 9.72559L0.128906 9.67188L0.110352 9.61523L0.0820312 9.53125L0.0634766 9.47656L0.0507812 9.41992L0.03125 9.3252L0.0224609 9.28223L0.0166016 9.23828L0.0117188 9.19141L0.00683594 9.15332L0.00488281 9.11621L0.00195312 9.04395L0 9.00391L0.00195312 8.96289L0.00390625 8.90234L0.00585938 8.85254L0.0126953 8.80176L0.0263672 8.70215L0.0351562 8.6416L0.0507812 8.58301L0.0742188 8.49414L0.0888672 8.4375L0.111328 8.38281L0.146484 8.29395L0.166992 8.23926L0.236328 8.11035L0.263672 8.06152L0.294922 8.01465L0.345703 7.94141L0.379883 7.89258L0.418945 7.84766L0.485352 7.77246L0.505859 7.74902L0.52832 7.72754L4.52832 3.72754L4.66504 3.60352C5.32496 3.06539 6.27768 3.0652 6.9375 3.60352L7.07422 3.72754L7.18848 3.85352C7.72679 4.50332 7.73793 5.44181 7.22266 6.10449L7.20312 6.12891L7.18262 6.15234L7.11621 6.22754L7.0957 6.25098L6.14648 7.2002H14.2012C14.3024 7.2001 14.3861 7.12378 14.3984 7.02637L14.4014 6.9707V1.7998C14.4015 0.805782 15.2071 0 16.2012 0L16.3721 0.0078125ZM16.2012 1C15.7594 1 15.4015 1.35807 15.4014 1.7998V7L15.3955 7.11523C15.3374 7.72369 14.8248 8.2001 14.2012 8.2002H3.7334L6.36621 5.56543L6.43359 5.49023C6.67742 5.17641 6.65453 4.72288 6.36621 4.43457C6.05378 4.12225 5.54774 4.12218 5.23535 4.43457L1.23535 8.43457L1.16895 8.50977L1.11816 8.58301L1.07617 8.66113L1.04102 8.75L1.01758 8.83984L1.00293 8.93945L1.00098 9L1.00391 9.07227L1.00977 9.11914L1.0293 9.21289L1.05762 9.29688L1.10059 9.3877L1.1582 9.47656C1.18131 9.50764 1.20716 9.53723 1.23535 9.56543L5.23535 13.5654L5.31055 13.6318C5.5851 13.8453 5.96665 13.8551 6.25098 13.6611L6.36621 13.5654L6.43359 13.4902C6.64695 13.2156 6.65601 12.8341 6.46191 12.5498L6.36621 12.4346L3.7334 9.7998H14.2012L14.3545 9.7959C15.7371 9.72114 16.853 8.64329 16.9873 7.27734L17.001 7V1.7998L16.9951 1.70703C16.9489 1.30922 16.6114 1.0001 16.2012 1Z" fill="var(--fill-0, black)"/>
</svg>
