<svg preserveAspectRatio="none" width="100%" height="100%" overflow="visible" style="display: block;" viewBox="0 0 20 20" fill="none" xmlns="http://www.w3.org/2000/svg">
<g id="euro" clip-path="url(#clip0_0_9)">
<path id="Vector" d="M10 0.8C4.92372 0.8 0.8 4.92372 0.8 10C0.8 15.0763 4.92372 19.2 10 19.2C15.0763 19.2 19.2 15.0763 19.2 10C19.2 4.92372 15.0763 0.8 10 0.8ZM10 1.6C14.6439 1.6 18.4 5.35607 18.4 10C18.4 14.6439 14.6439 18.4 10 18.4C5.35607 18.4 1.6 14.6439 1.6 10C1.6 5.35607 5.35607 1.6 10 1.6ZM10.5602 5.07969C9.48016 5.07969 7.31969 5.55984 6.67969 8.83984H6L5.76016 9.43984H6.63984C6.59984 9.55984 6.6 9.88016 6.6 9.96016V10.2398H6L5.76016 10.8398H6.63984C7.11984 14.4398 9.35969 14.8797 10.4797 14.8797C11.3997 14.8797 12.1603 14.6 12.9203 14V12.9602C11.8003 14.1202 11.0402 14.1203 10.5602 14.1203C9.68016 14.1203 7.96016 13.7598 7.56016 10.8398H11.3602L11.6 10.2398H7.47969V10.0398C7.47969 9.83984 7.48031 9.67984 7.52031 9.43984H11.8398L12.0797 8.83984H7.6C8.12 6.19984 9.72016 5.87969 10.5602 5.87969C11.4002 5.87969 12.1203 6.20031 12.7203 6.92031L13.0797 6.12031C12.5197 5.44031 11.6802 5.07969 10.5602 5.07969Z" fill="var(--fill-0, black)"/>
</g>
<defs>
<clipPath id="clip0_0_9">
<rect width="20" height="20" fill="white"/>
</clipPath>
</defs>
</svg>
