<svg preserveAspectRatio="none" width="100%" height="100%" overflow="visible" style="display: block;" viewBox="0 0 20 20" fill="none" xmlns="http://www.w3.org/2000/svg">
<g id="expand">
<path id="Vector" d="M2.39608 1.9961C2.37883 1.99629 2.3616 1.99759 2.34452 2H1.99999V2.34532C1.99526 2.38057 1.99526 2.41631 1.99999 2.45157V6.8C1.99924 6.85301 2.00903 6.90563 2.0288 6.95482C2.04856 7.00401 2.07791 7.04878 2.11512 7.08652C2.15234 7.12427 2.19669 7.15425 2.24559 7.17471C2.2945 7.19516 2.34698 7.2057 2.39999 7.2057C2.453 7.2057 2.50548 7.19516 2.55438 7.17471C2.60328 7.15425 2.64763 7.12427 2.68485 7.08652C2.72207 7.04878 2.75141 7.00401 2.77118 6.95482C2.79094 6.90563 2.80074 6.85301 2.79999 6.8V3.36563L8.11717 8.68282C8.15896 8.72631 8.21003 8.7598 8.26659 8.78077C8.32314 8.80174 8.3837 8.80965 8.44374 8.80391C8.45684 8.80273 8.46988 8.8009 8.4828 8.79844C8.55467 8.78435 8.6213 8.7508 8.67542 8.70145C8.72954 8.6521 8.76907 8.58883 8.7897 8.51856C8.81033 8.44828 8.81127 8.37369 8.79242 8.30291C8.77357 8.23214 8.73565 8.16789 8.6828 8.11719L3.36561 2.8H6.79999C6.85299 2.80075 6.90562 2.79096 6.9548 2.77119C7.00399 2.75143 7.04876 2.72208 7.08651 2.68487C7.12426 2.64765 7.15423 2.6033 7.17469 2.5544C7.19515 2.50549 7.20568 2.45301 7.20568 2.4C7.20568 2.34699 7.19515 2.29451 7.17469 2.24561C7.15423 2.19671 7.12426 2.15236 7.08651 2.11514C7.04876 2.07792 7.00399 2.04858 6.9548 2.02881C6.90562 2.00905 6.85299 1.99925 6.79999 2H2.44686C2.43004 1.99762 2.41307 1.99632 2.39608 1.9961V1.9961ZM17.5922 1.9961C17.5773 1.99657 17.5624 1.99787 17.5476 2H13.2C13.147 1.99925 13.0944 2.00905 13.0452 2.02881C12.996 2.04858 12.9512 2.07792 12.9135 2.11514C12.8757 2.15236 12.8457 2.19671 12.8253 2.24561C12.8048 2.29451 12.7943 2.34699 12.7943 2.4C12.7943 2.45301 12.8048 2.50549 12.8253 2.5544C12.8457 2.6033 12.8757 2.64765 12.9135 2.68487C12.9512 2.72208 12.996 2.75143 13.0452 2.77119C13.0944 2.79096 13.147 2.80075 13.2 2.8H16.6344L11.3172 8.11719C11.2788 8.15405 11.2481 8.1982 11.227 8.24705C11.2059 8.2959 11.1948 8.34847 11.1942 8.40169C11.1937 8.45491 11.2038 8.50769 11.2239 8.55697C11.244 8.60624 11.2737 8.651 11.3114 8.68863C11.349 8.72626 11.3938 8.75601 11.443 8.77612C11.4923 8.79624 11.5451 8.80632 11.5983 8.80578C11.6515 8.80524 11.7041 8.79408 11.7529 8.77297C11.8018 8.75185 11.8459 8.7212 11.8828 8.68282L17.2 3.36563V6.8C17.1992 6.85301 17.209 6.90563 17.2288 6.95482C17.2486 7.00401 17.2779 7.04878 17.3151 7.08652C17.3523 7.12427 17.3967 7.15425 17.4456 7.17471C17.4945 7.19516 17.547 7.2057 17.6 7.2057C17.653 7.2057 17.7055 7.19516 17.7544 7.17471C17.8033 7.15425 17.8476 7.12427 17.8848 7.08652C17.9221 7.04878 17.9514 7.00401 17.9712 6.95482C17.9909 6.90563 18.0007 6.85301 18 6.8V2.45078C18.0051 2.41424 18.0051 2.37717 18 2.34063V2H17.6586C17.6366 1.99686 17.6144 1.99555 17.5922 1.9961V1.9961ZM8.39217 11.1961C8.28826 11.1992 8.18962 11.2426 8.11717 11.3172L2.79999 16.6344V13.2C2.80072 13.1465 2.79071 13.0934 2.77054 13.0438C2.75037 12.9942 2.72047 12.9492 2.68258 12.9114C2.6447 12.8736 2.59962 12.8438 2.55 12.8237C2.50039 12.8036 2.44725 12.7937 2.39374 12.7945C2.28779 12.7962 2.18682 12.8398 2.113 12.9158C2.03918 12.9918 1.99854 13.094 1.99999 13.2V17.5391C1.99259 17.583 1.99259 17.6279 1.99999 17.6719V18H2.32968C2.37313 18.0072 2.41747 18.0072 2.46093 18H6.79999C6.85299 18.0008 6.90562 17.991 6.9548 17.9712C7.00399 17.9514 7.04876 17.9221 7.08651 17.8849C7.12426 17.8476 7.15423 17.8033 7.17469 17.7544C7.19515 17.7055 7.20568 17.653 7.20568 17.6C7.20568 17.547 7.19515 17.4945 7.17469 17.4456C7.15423 17.3967 7.12426 17.3524 7.08651 17.3151C7.04876 17.2779 7.00399 17.2486 6.9548 17.2288C6.90562 17.209 6.85299 17.1993 6.79999 17.2H3.36561L8.6828 11.8828C8.7406 11.8266 8.78008 11.7543 8.79606 11.6753C8.81205 11.5963 8.80379 11.5143 8.77237 11.44C8.74096 11.3658 8.68785 11.3028 8.62 11.2593C8.55216 11.2157 8.47275 11.1937 8.39217 11.1961V11.1961ZM11.5961 11.1961C11.5189 11.1961 11.4434 11.2184 11.3786 11.2604C11.3138 11.3024 11.2626 11.3622 11.231 11.4326C11.1995 11.5031 11.189 11.5811 11.2008 11.6574C11.2126 11.7337 11.2462 11.8049 11.2976 11.8625C11.3039 11.8695 11.3104 11.8763 11.3172 11.8828L16.6344 17.2H13.2C13.147 17.1993 13.0944 17.209 13.0452 17.2288C12.996 17.2486 12.9512 17.2779 12.9135 17.3151C12.8757 17.3524 12.8457 17.3967 12.8253 17.4456C12.8048 17.4945 12.7943 17.547 12.7943 17.6C12.7943 17.653 12.8048 17.7055 12.8253 17.7544C12.8457 17.8033 12.8757 17.8476 12.9135 17.8849C12.9512 17.9221 12.996 17.9514 13.0452 17.9712C13.0944 17.991 13.147 18.0008 13.2 18H17.539C17.583 18.0074 17.6279 18.0074 17.6719 18H18V17.6703C18.0072 17.6269 18.0072 17.5825 18 17.5391V13.2C18.0007 13.1465 17.9907 13.0934 17.9705 13.0438C17.9504 12.9942 17.9205 12.9492 17.8826 12.9114C17.8447 12.8736 17.7996 12.8438 17.75 12.8237C17.7004 12.8036 17.6472 12.7937 17.5937 12.7945C17.4878 12.7962 17.3868 12.8398 17.313 12.9158C17.2392 12.9918 17.1985 13.094 17.2 13.2V16.6344L11.8828 11.3172C11.8455 11.2789 11.8009 11.2484 11.7517 11.2276C11.7025 11.2068 11.6495 11.1961 11.5961 11.1961V11.1961Z" fill="var(--fill-0, black)"/>
</g>
</svg>
