<svg preserveAspectRatio="none" width="100%" height="100%" overflow="visible" style="display: block;" viewBox="0 0 20 20" fill="none" xmlns="http://www.w3.org/2000/svg">
<g id="expand-horizontal">
<path id="Vector" d="M4.9125 5.2375C4.82187 5.25 4.7375 5.29532 4.675 5.3625L0.3125 9.7125L0.0375 10L0.3125 10.2875L4.675 14.6375C4.77187 14.7563 4.92656 14.8109 5.07656 14.7766C5.225 14.7422 5.34219 14.625 5.37656 14.4766C5.41094 14.3266 5.35625 14.1719 5.2375 14.075L1.575 10.4H18.425L14.7625 14.075C14.6437 14.1719 14.5891 14.3266 14.6234 14.4766C14.6578 14.625 14.775 14.7422 14.9234 14.7766C15.0734 14.8109 15.2281 14.7563 15.325 14.6375L19.6875 10.2875L19.9625 10L19.6875 9.7125L15.325 5.3625C15.2422 5.27344 15.1219 5.22813 15 5.2375C14.8437 5.25313 14.7109 5.35782 14.6609 5.50469C14.6094 5.65313 14.65 5.81719 14.7625 5.925L18.425 9.6H1.575L5.2375 5.925C5.3625 5.80625 5.39844 5.62032 5.325 5.46407C5.25 5.30625 5.08437 5.21563 4.9125 5.2375Z" fill="var(--fill-0, black)"/>
</g>
</svg>
