<svg preserveAspectRatio="none" width="100%" height="100%" overflow="visible" style="display: block;" viewBox="0 0 20 20" fill="none" xmlns="http://www.w3.org/2000/svg">
<g id="expand-vertical">
<path id="Vector" d="M9.99999 0.0375L9.71249 0.3125L5.36249 4.675C5.24374 4.77187 5.18905 4.92656 5.22343 5.07656C5.2578 5.225 5.37499 5.34219 5.52343 5.37656C5.67343 5.41094 5.82811 5.35625 5.92499 5.2375L9.59999 1.575V18.425L5.92499 14.7625C5.84218 14.6734 5.72186 14.6281 5.59999 14.6375C5.44374 14.6531 5.31093 14.7578 5.26093 14.9047C5.20936 15.0531 5.24999 15.2172 5.36249 15.325L9.71249 19.6875L9.99999 19.9625L10.2875 19.6875L14.6375 15.325C14.7562 15.2281 14.8109 15.0734 14.7766 14.9234C14.7422 14.775 14.625 14.6578 14.4766 14.6234C14.3266 14.5891 14.1719 14.6437 14.075 14.7625L10.4 18.425V1.575L14.075 5.2375C14.1719 5.35625 14.3266 5.41094 14.4766 5.37656C14.625 5.34219 14.7422 5.225 14.7766 5.07656C14.8109 4.92656 14.7562 4.77187 14.6375 4.675L10.2875 0.3125L9.99999 0.0375Z" fill="var(--fill-0, black)"/>
</g>
</svg>
