<svg preserveAspectRatio="none" width="100%" height="100%" overflow="visible" style="display: block;" viewBox="0 0 20 20" fill="none" xmlns="http://www.w3.org/2000/svg">
<g id="export" clip-path="url(#clip0_0_9)">
<path id="Vector" d="M0.312494 -0.0124989C0.120306 0.0312511 -0.0156309 0.203126 -0.0125059 0.400001V19.6C-0.0109435 19.8266 0.173432 20.0109 0.399994 20.0125H12.4C12.6266 20.0109 12.8109 19.8266 12.8125 19.6V15.6H11.9875V19.1875H0.812494V0.812501H11.9875V4.4H12.8125V0.400001C12.8109 0.173439 12.6266 -0.0109364 12.4 -0.0124989H0.399994C0.370306 -0.0156239 0.342182 -0.0156239 0.312494 -0.0124989ZM15.5625 6.0375C15.4125 6.06406 15.2922 6.17344 15.25 6.31875C15.2078 6.46563 15.2516 6.62188 15.3625 6.725L18.225 9.6H6.39999C6.38749 9.6 6.37499 9.6 6.36249 9.6C6.14218 9.61094 5.97031 9.79844 5.98124 10.0188C5.99218 10.2391 6.17968 10.4109 6.39999 10.4H18.225L15.3625 13.275C15.2437 13.3719 15.1891 13.5266 15.2234 13.6766C15.2578 13.825 15.375 13.9422 15.5234 13.9766C15.6734 14.0109 15.8281 13.9563 15.925 13.8375L19.4875 10.2875L19.7625 10L19.4875 9.7125L15.925 6.1625C15.8422 6.07344 15.7219 6.02813 15.6 6.0375C15.5875 6.0375 15.575 6.0375 15.5625 6.0375Z" fill="var(--fill-0, black)"/>
</g>
<defs>
<clipPath id="clip0_0_9">
<rect width="20" height="20" fill="white"/>
</clipPath>
</defs>
</svg>
