<svg preserveAspectRatio="none" width="100%" height="100%" overflow="visible" style="display: block;" viewBox="0 0 20 20" fill="none" xmlns="http://www.w3.org/2000/svg">
<g id="eye">
<path id="Vector" d="M10 4.8C4.66719 4.8 0.5 9.7375 0.5 9.7375C0.36875 9.8875 0.36875 10.1125 0.5 10.2625C0.5 10.2625 4.66719 15.2 10 15.2C15.3328 15.2 19.5 10.2625 19.5 10.2625C19.6313 10.1125 19.6313 9.8875 19.5 9.7375C19.5 9.7375 15.3328 4.8 10 4.8ZM10 5.6C11.0516 5.6 12.0563 5.81719 12.9875 6.15C13.6125 6.85625 14 7.77969 14 8.8C14 11.0141 12.2141 12.8 10 12.8C7.78594 12.8 6 11.0141 6 8.8C6 7.77969 6.375 6.85625 7 6.15C7.93438 5.81562 8.94531 5.6 10 5.6ZM5.675 6.7375C5.375 7.3625 5.2 8.0625 5.2 8.8C5.2 11.4469 7.35313 13.6 10 13.6C12.6469 13.6 14.8 11.4469 14.8 8.8C14.8 8.06562 14.6328 7.3625 14.3375 6.7375C16.5969 7.88594 18.2219 9.55156 18.6375 10C17.9875 10.7031 14.3891 14.4 10 14.4C5.61094 14.4 2.0125 10.7031 1.3625 10C1.77813 9.55 3.41094 7.88594 5.675 6.7375ZM10 6.8C8.89531 6.8 8 7.69531 8 8.8C8 9.90469 8.89531 10.8 10 10.8C11.1047 10.8 12 9.90469 12 8.8C12 7.69531 11.1047 6.8 10 6.8Z" fill="var(--fill-0, black)"/>
</g>
</svg>
