<svg preserveAspectRatio="none" width="100%" height="100%" overflow="visible" style="display: block;" viewBox="0 0 20 20" fill="none" xmlns="http://www.w3.org/2000/svg">
<g id="eye-disabled">
<path id="Vector" d="M2.3625 1.9875C2.34531 1.99063 2.32813 1.99532 2.3125 2C2.1625 2.02657 2.04219 2.13594 2 2.28125C1.95781 2.42813 2.00156 2.58438 2.1125 2.6875L17.3125 17.8875C17.4719 18.0469 17.7281 18.0469 17.8875 17.8875C18.0469 17.7281 18.0469 17.4719 17.8875 17.3125L14.5 13.925C17.1297 12.5063 18.9859 10.3953 19.1 10.2625C19.2281 10.1125 19.2281 9.8875 19.1 9.7375C18.9266 9.53594 14.8031 4.8 10 4.8C8.67656 4.8 7.41406 5.1625 6.2625 5.6875L2.6875 2.1125C2.60469 2.02344 2.48438 1.97813 2.3625 1.9875ZM10 5.6C12.4266 5.6 14.4 7.57344 14.4 10C14.4 11.0672 14.0219 12.05 13.3875 12.8125L11.375 10.8C11.5141 10.5641 11.6 10.2938 11.6 10C11.6 9.11563 10.8844 8.4 10 8.4C9.70625 8.4 9.43594 8.48594 9.2 8.625L7.1875 6.6125C7.82656 6.07969 8.62031 5.72657 9.4875 5.625C9.65625 5.6125 9.82969 5.6 10 5.6ZM4.8 6.4625C2.53906 7.85 1.00469 9.61563 0.9 9.7375C0.771876 9.8875 0.771876 10.1125 0.9 10.2625C1.06719 10.4563 4.9 14.8531 9.475 15.175C9.64844 15.1875 9.82344 15.2 10 15.2C10.125 15.2 10.2516 15.1938 10.375 15.1875C10.3797 15.1875 10.3828 15.1875 10.3875 15.1875C11.2859 15.1406 12.1531 14.9406 12.975 14.6375L12.1625 13.825C11.5219 14.1891 10.7891 14.4 10 14.4C9.85 14.4 9.7 14.3859 9.55 14.375C7.33438 14.15 5.6 12.275 5.6 10C5.6 9.21094 5.81094 8.47813 6.175 7.8375L5.6 7.25C5.1 8.04844 4.8 8.99063 4.8 10C4.8 11.2359 5.22813 12.3688 5.95 13.2625C3.90781 12.175 2.31875 10.6141 1.7375 10C2.26406 9.44375 3.61719 8.10625 5.3875 7.05L4.8 6.4625ZM14.05 6.7375C16.0922 7.825 17.6813 9.38594 18.2625 10C17.6797 10.6156 16.0766 12.175 14.025 13.2625C14.7531 12.3688 15.2 11.2406 15.2 10C15.2 8.76406 14.7719 7.63125 14.05 6.7375ZM8.4125 10.0625C8.44531 10.8938 9.10469 11.5547 9.9375 11.5875L8.4125 10.0625Z" fill="var(--fill-0, black)"/>
</g>
</svg>
