<svg preserveAspectRatio="none" width="100%" height="100%" overflow="visible" style="display: block;" viewBox="0 0 20 20" fill="none" xmlns="http://www.w3.org/2000/svg">
<g id="filter">
<path id="Vector" d="M1.525 0.8C1.33437 0.835938 1.19687 1.00469 1.2 1.2V2.4C1.20156 2.50313 1.24062 2.60156 1.3125 2.675L7.6 9.35V16.4C7.60312 16.5391 7.67968 16.6672 7.8 16.7375L11.8 19.1375C11.9219 19.2078 12.0734 19.2094 12.1969 19.1391C12.3187 19.0703 12.3969 18.9406 12.4 18.8V9.35L18.625 2.7375C18.6297 2.73281 18.6328 2.72969 18.6375 2.725L18.6875 2.675C18.7062 2.65625 18.7234 2.63438 18.7375 2.6125C18.7469 2.60469 18.7547 2.59688 18.7625 2.5875C18.7859 2.53594 18.7984 2.48125 18.8 2.425C18.8 2.41719 18.8 2.40781 18.8 2.4C18.8016 2.37969 18.8016 2.35781 18.8 2.3375V1.2C18.8 0.979688 18.6203 0.8 18.4 0.8H1.6C1.5875 0.8 1.575 0.8 1.5625 0.8C1.55 0.8 1.5375 0.8 1.525 0.8ZM2 1.6H18V2.25L11.825 8.8H8.175L2 2.25V1.6ZM8.4 9.6H11.6V18.1L8.4 16.1875V9.6Z" fill="var(--fill-0, black)"/>
</g>
</svg>
