<svg preserveAspectRatio="none" width="100%" height="100%" overflow="visible" style="display: block;" viewBox="0 0 20 20" fill="none" xmlns="http://www.w3.org/2000/svg">
<g id="folder">
<path id="Vector" d="M2 1.6C1.34201 1.6 0.8 2.14201 0.8 2.8V6.4V7.2V17.2C0.8 17.858 1.34201 18.4 2 18.4H18C18.658 18.4 19.2 17.858 19.2 17.2V7.6V6.4V4.4C19.2 3.74201 18.658 3.2 18 3.2H7.2C7.23463 3.2 7.1876 3.20015 7.08984 3.0875C6.99209 2.97485 6.87177 2.78798 6.74609 2.5875C6.62042 2.38702 6.48871 2.17312 6.32266 1.98516C6.1566 1.7972 5.9275 1.6 5.6 1.6H2ZM2 2.4H5.6C5.5757 2.4 5.62446 2.4028 5.72344 2.51484C5.82242 2.62688 5.94289 2.81298 6.06797 3.0125C6.19305 3.21202 6.32257 3.42515 6.48516 3.6125C6.64774 3.79985 6.87157 4 7.2 4H18C18.226 4 18.4 4.17399 18.4 4.4V5.275C18.274 5.22958 18.1407 5.2 18 5.2H2C1.85926 5.2 1.72596 5.22958 1.6 5.275V2.8C1.6 2.57399 1.77399 2.4 2 2.4ZM2 6H18C18.226 6 18.4 6.17399 18.4 6.4V7.6V17.2C18.4 17.426 18.226 17.6 18 17.6H2C1.77399 17.6 1.6 17.426 1.6 17.2V7.2V6.4C1.6 6.17399 1.77399 6 2 6Z" fill="var(--fill-0, black)"/>
</g>
</svg>
