<svg preserveAspectRatio="none" width="100%" height="100%" overflow="visible" style="display: block;" viewBox="0 0 20 20" fill="none" xmlns="http://www.w3.org/2000/svg">
<g id="gauge">
<path id="Vector" d="M9.99375 2.79375C9.96875 2.79531 9.94531 2.79688 9.92031 2.80313C8.24219 2.81719 6.67031 3.28125 5.31875 4.08125C5.28594 4.09531 5.25469 4.11406 5.225 4.13594C3.85156 4.97188 2.71563 6.16094 1.9375 7.57344C1.91719 7.60156 1.9 7.63125 1.8875 7.66406C1.20625 8.93438 0.815625 10.3828 0.803125 11.9187C0.792188 11.9719 0.792188 12.025 0.803125 12.0766C0.815625 13.7672 1.2375 15.2516 2.05781 16.6125C2.15313 16.7703 2.34531 16.8422 2.52188 16.7859C2.69844 16.7297 2.81406 16.5594 2.8 16.375L2.81875 16.6203L4.32031 15.75C4.44844 15.6812 4.52813 15.5484 4.52813 15.4031C4.52969 15.2578 4.45156 15.1234 4.325 15.0516C4.19844 14.9797 4.04375 14.9828 3.91875 15.0578L2.58438 15.8312C2.01563 14.7781 1.67188 13.6734 1.6125 12.4H3.2C3.34375 12.4016 3.47813 12.3266 3.55156 12.2016C3.62344 12.0766 3.62344 11.9234 3.55156 11.7984C3.47813 11.6734 3.34375 11.5984 3.2 11.6H1.6125C1.66719 10.4406 1.96094 9.34688 2.4375 8.35781C2.6625 8.47969 3.02188 8.67344 3.82969 9.1125C3.95625 9.18438 4.11094 9.18281 4.23594 9.10781C4.35938 9.03281 4.43438 8.89531 4.42813 8.75156C4.42344 8.60625 4.34063 8.475 4.21094 8.40781C3.40313 7.97031 3.04531 7.77656 2.81875 7.65469C3.45938 6.6 4.31563 5.69375 5.33906 5.01094L6.1625 6.38125C6.23438 6.50469 6.36875 6.58125 6.5125 6.57969C6.65781 6.57656 6.78906 6.49844 6.85938 6.37188C6.92813 6.24531 6.92344 6.09063 6.84844 5.96875L6.025 4.59844C7.09844 4.02188 8.31094 3.67344 9.6 3.6125V5.2C9.59844 5.34375 9.67344 5.47813 9.79844 5.55156C9.92344 5.62344 10.0766 5.62344 10.2016 5.55156C10.3266 5.47813 10.4016 5.34375 10.4 5.2V3.6125C11.5594 3.66719 12.6563 3.95469 13.6453 4.43125L12.8875 5.82969C12.8156 5.95625 12.8172 6.11094 12.8922 6.23594C12.9672 6.35938 13.1047 6.43438 13.2484 6.42813C13.3938 6.42344 13.525 6.34063 13.5922 6.21094L14.3484 4.81406C15.4031 5.45313 16.3063 6.31563 16.9891 7.33906L15.6188 8.1625C15.4953 8.23438 15.4188 8.36875 15.4203 8.5125C15.4234 8.65781 15.5016 8.78906 15.6281 8.85937C15.7547 8.92812 15.9094 8.92344 16.0313 8.84844L17.4016 8.025C17.9781 9.09844 18.3266 10.3109 18.3875 11.6H16.8C16.6563 11.5984 16.5219 11.6734 16.4484 11.7984C16.3766 11.9234 16.3766 12.0766 16.4484 12.2016C16.5219 12.3266 16.6563 12.4016 16.8 12.4H18.3875C18.3281 13.6734 17.9844 14.7781 17.4172 15.8312L16.0813 15.0578C15.9563 14.9828 15.8016 14.9797 15.675 15.0516C15.5484 15.1234 15.4703 15.2578 15.4719 15.4031C15.4719 15.5484 15.5516 15.6812 15.6797 15.75L17.1813 16.6203L17.2 16.375C17.1859 16.5594 17.3016 16.7297 17.4781 16.7859C17.6547 16.8422 17.8469 16.7703 17.9422 16.6125C18.7625 15.2531 19.1844 13.7687 19.1984 12.0812C19.2078 12.0281 19.2078 11.9734 19.1984 11.9219C19.1828 10.2406 18.7172 8.66563 17.9141 7.31406C17.9031 7.28438 17.8875 7.25781 17.8688 7.23125C17.8672 7.23125 17.8672 7.23125 17.8672 7.23125C17.8672 7.22969 17.8656 7.22969 17.8641 7.22813C17.0297 5.85625 15.8438 4.72188 14.4344 3.94375C14.4 3.91719 14.3625 3.89844 14.3234 3.88438C13.0547 3.20625 11.6109 2.81563 10.0766 2.80313C10.05 2.79688 10.0219 2.79375 9.99375 2.79375ZM14.6234 8.87187C14.5469 8.87031 14.4719 8.89063 14.4063 8.93125L10.7625 11.0844C10.5547 10.9094 10.2906 10.8 10 10.8C9.34219 10.8 8.8 11.3422 8.8 12C8.8 12.6578 9.34219 13.2 10 13.2C10.6578 13.2 11.2 12.6578 11.2 12C11.2 11.9219 11.1906 11.8437 11.1766 11.7687L14.8125 9.61875C14.9688 9.52969 15.0453 9.34687 15.0016 9.17344C14.9578 9 14.8031 8.87656 14.6234 8.87187ZM10 11.6C10.1266 11.6 10.2328 11.6578 10.3047 11.7453C10.3203 11.7875 10.3438 11.825 10.3734 11.8594C10.3891 11.9031 10.4 11.95 10.4 12C10.4 12.225 10.225 12.4 10 12.4C9.775 12.4 9.6 12.225 9.6 12C9.6 11.775 9.775 11.6 10 11.6ZM7.6 15.2C7.45625 15.1984 7.32188 15.2734 7.24844 15.3984C7.17656 15.5234 7.17656 15.6766 7.24844 15.8016C7.32188 15.9266 7.45625 16.0016 7.6 16H12.4C12.5438 16.0016 12.6781 15.9266 12.7516 15.8016C12.8234 15.6766 12.8234 15.5234 12.7516 15.3984C12.6781 15.2734 12.5438 15.1984 12.4 15.2H7.6Z" fill="var(--fill-0, black)"/>
</g>
</svg>
