<svg preserveAspectRatio="none" width="100%" height="100%" overflow="visible" style="display: block;" viewBox="0 0 20 20" fill="none" xmlns="http://www.w3.org/2000/svg">
<g id="gear" clip-path="url(#clip0_0_9)">
<path id="Vector" d="M8.88203 0.800004C8.78722 0.800054 8.6955 0.833778 8.62325 0.895163C8.55099 0.956548 8.50288 1.0416 8.4875 1.13516L8.09844 3.51719C7.6306 3.65328 7.1845 3.83691 6.76406 4.06563L4.79844 2.66172C4.72148 2.60677 4.62754 2.58085 4.53329 2.58858C4.43904 2.5963 4.35058 2.63716 4.28359 2.70391L2.72734 4.2586C2.66084 4.32515 2.61992 4.41301 2.61177 4.50674C2.60363 4.60047 2.62878 4.69407 2.68281 4.7711L4.06562 6.74922C3.83338 7.17211 3.64568 7.62073 3.50625 8.09297L1.13437 8.4875C1.0411 8.50321 0.956415 8.55147 0.895343 8.62369C0.834272 8.69592 0.800769 8.78745 0.80078 8.88204V11.082C0.80061 11.1761 0.833561 11.2671 0.893849 11.3393C0.954138 11.4114 1.03791 11.46 1.13047 11.4766L3.50391 11.8969C3.64258 12.3683 3.82909 12.8172 4.06172 13.2406L2.66172 15.1992C2.60676 15.2762 2.58085 15.3701 2.58857 15.4644C2.5963 15.5586 2.63716 15.6471 2.70391 15.7141L4.25937 17.2703C4.32578 17.3367 4.41344 17.3777 4.507 17.386C4.60056 17.3943 4.69405 17.3694 4.77109 17.3156L6.75312 15.9281C7.1748 16.1582 7.622 16.3432 8.09141 16.4805L8.4875 18.8656C8.50304 18.959 8.55122 19.0439 8.62347 19.1051C8.69571 19.1664 8.78733 19.2 8.88203 19.2H11.082C11.1762 19.2001 11.2673 19.1671 11.3395 19.1066C11.4117 19.0462 11.4602 18.9622 11.4766 18.8695L11.9008 16.475C12.3683 16.3356 12.8133 16.1479 13.2328 15.9164L15.2281 17.3164C15.3051 17.3704 15.3988 17.3956 15.4925 17.3874C15.5862 17.3793 15.6741 17.3384 15.7406 17.2719L17.2961 15.7148C17.3631 15.6477 17.4041 15.5589 17.4117 15.4643C17.4193 15.3697 17.393 15.2754 17.3375 15.1984L15.9148 13.2234C16.1423 12.806 16.3256 12.3636 16.4617 11.8992L18.8687 11.4773C18.9614 11.461 19.0454 11.4124 19.1059 11.3403C19.1663 11.2681 19.1994 11.1769 19.1992 11.0828V8.88282C19.1992 8.788 19.1654 8.69629 19.1041 8.62403C19.0427 8.55177 18.9576 8.50366 18.8641 8.48829L16.4609 8.09532C16.3239 7.63153 16.1401 7.18989 15.9125 6.77266L17.3156 4.77344C17.3697 4.69642 17.3948 4.60282 17.3867 4.50908C17.3785 4.41535 17.3376 4.32749 17.2711 4.26094L15.7148 2.70547C15.6477 2.63844 15.5588 2.59747 15.4642 2.58989C15.3697 2.5823 15.2754 2.60859 15.1984 2.66407L13.2289 4.08047C12.8093 3.84993 12.3639 3.6632 11.8953 3.525L11.4766 1.13125C11.4604 1.03841 11.4119 0.954273 11.3397 0.893671C11.2675 0.83307 11.1763 0.799898 11.082 0.800004H8.88203ZM9.22266 1.6H10.7461L11.1445 3.87422C11.1578 3.9505 11.1929 4.02129 11.2456 4.07801C11.2983 4.13472 11.3663 4.17493 11.4414 4.19375C12.0264 4.33954 12.5758 4.57062 13.0773 4.87422C13.1444 4.91485 13.2219 4.93488 13.3002 4.93182C13.3786 4.92877 13.4543 4.90276 13.518 4.85704L15.3898 3.51172L16.4672 4.58907L15.1344 6.48829C15.0899 6.55164 15.0647 6.62656 15.0619 6.70394C15.0591 6.78132 15.0789 6.85784 15.1187 6.92422C15.4193 7.42459 15.6473 7.97056 15.793 8.55235C15.8119 8.62812 15.8527 8.69668 15.9101 8.74958C15.9676 8.80247 16.0393 8.83738 16.1164 8.85L18.3992 9.22344V10.7469L16.1117 11.1484C16.0354 11.162 15.9646 11.1974 15.908 11.2503C15.8514 11.3033 15.8115 11.3716 15.793 11.4469C15.649 12.0279 15.4209 12.5739 15.1203 13.0742C15.08 13.1413 15.0602 13.2187 15.0634 13.2968C15.0665 13.375 15.0926 13.4505 15.1383 13.5141L16.4898 15.3898L15.4125 16.468L13.5164 15.1375C13.4527 15.0929 13.3774 15.0678 13.2997 15.0653C13.2221 15.0628 13.1453 15.083 13.0789 15.1234C12.5799 15.427 12.0299 15.6592 11.4469 15.807C11.3721 15.8259 11.3044 15.8659 11.2519 15.9223C11.1994 15.9787 11.1643 16.0491 11.1508 16.125L10.7469 18.4H9.22109L8.84453 16.1352C8.83171 16.0581 8.79663 15.9865 8.74359 15.9292C8.69056 15.8718 8.6219 15.8313 8.54609 15.8125C7.96074 15.6682 7.40884 15.4375 6.90391 15.1344C6.83761 15.0947 6.76124 15.075 6.68402 15.0778C6.60679 15.0806 6.53203 15.1056 6.46875 15.15L4.5875 16.468L3.50937 15.3883L4.83906 13.5297C4.8845 13.466 4.91028 13.3904 4.91319 13.3122C4.91611 13.2341 4.89604 13.1567 4.85547 13.0898C4.54906 12.5835 4.31733 12.0317 4.17109 11.4438C4.15238 11.3689 4.11241 11.301 4.05599 11.2483C3.99957 11.1956 3.92912 11.1604 3.85312 11.1469L1.60078 10.7469V9.2211L3.85156 8.84688C3.9285 8.83412 4.00004 8.79915 4.05737 8.74626C4.11469 8.69338 4.15531 8.62489 4.17422 8.54922C4.32171 7.95926 4.55333 7.4075 4.85859 6.90235C4.89885 6.83603 4.91895 6.75944 4.91645 6.6819C4.91396 6.60436 4.88897 6.52922 4.84453 6.46563L3.53047 4.5875L4.60937 3.50938L6.47422 4.84219C6.53766 4.88743 6.61293 4.91315 6.69079 4.91621C6.76865 4.91926 6.84571 4.89951 6.9125 4.85938C7.41476 4.55772 7.96795 4.32884 8.55391 4.18516C8.63008 4.16641 8.69905 4.12568 8.75225 4.06803C8.80545 4.01038 8.84053 3.93837 8.85312 3.86094L9.22266 1.6ZM10 6.8C8.23743 6.8 6.8 8.23743 6.8 10C6.8 11.7626 8.23743 13.2 10 13.2C11.7626 13.2 13.2 11.7626 13.2 10C13.2 8.23743 11.7626 6.8 10 6.8ZM10 7.6C11.3302 7.6 12.4 8.66978 12.4 10C12.4 11.3302 11.3302 12.4 10 12.4C8.66978 12.4 7.6 11.3302 7.6 10C7.6 8.66978 8.66978 7.6 10 7.6Z" fill="var(--fill-0, black)"/>
</g>
<defs>
<clipPath id="clip0_0_9">
<rect width="20" height="20" fill="white"/>
</clipPath>
</defs>
</svg>
