<svg preserveAspectRatio="none" width="100%" height="100%" overflow="visible" style="display: block;" viewBox="0 0 20 20" fill="none" xmlns="http://www.w3.org/2000/svg">
<g id="globe" clip-path="url(#clip0_0_9)">
<path id="Vector" d="M10 0.8C4.92372 0.8 0.8 4.92372 0.8 10C0.8 15.0763 4.92372 19.2 10 19.2C15.0763 19.2 19.2 15.0763 19.2 10C19.2 4.92372 15.0763 0.8 10 0.8ZM9.6 1.64687V5.19141H6.7375C6.8886 4.74571 7.05931 4.33139 7.24688 3.95625C7.90515 2.63971 8.73926 1.83826 9.6 1.64687ZM10.4 1.64687C11.2607 1.83826 12.0949 2.63971 12.7531 3.95625C12.9407 4.33139 13.1114 4.74571 13.2625 5.19141H10.4V1.64687ZM7.67266 1.92812C7.24153 2.38081 6.8571 2.94674 6.53125 3.59844C6.28979 4.08137 6.08049 4.61842 5.89922 5.19141H3.11562C4.20355 3.6357 5.80182 2.46546 7.67266 1.92812ZM12.3273 1.92812C14.1982 2.46546 15.7964 3.6357 16.8844 5.19141H14.1008C13.9195 4.61842 13.7102 4.08137 13.4688 3.59844C13.1429 2.94674 12.7585 2.38081 12.3273 1.92812ZM2.60547 6.00859H5.66953C5.39809 7.10395 5.24046 8.31806 5.21172 9.6H1.6125C1.67328 8.3043 2.02389 7.08508 2.60547 6.00859ZM6.49531 6.00859H9.6V9.6H6.0125C6.04316 8.30519 6.21217 7.08413 6.49531 6.00859ZM10.4 6.00859H13.5047C13.7878 7.08413 13.9568 8.30519 13.9875 9.6H10.4V6.00859ZM14.3305 6.00859H17.3945C17.9761 7.08508 18.3267 8.3043 18.3875 9.6H14.7883C14.7595 8.31806 14.6019 7.10395 14.3305 6.00859ZM1.61641 10.4H5.21016C5.23819 11.6831 5.39801 12.8957 5.66953 13.9914H2.60625C2.02447 12.9153 1.67727 11.6956 1.61641 10.4ZM6.01016 10.4H9.6V13.9914H6.49531C6.21206 12.9154 6.04032 11.6958 6.01016 10.4ZM10.4 10.4H13.9898C13.9597 11.6958 13.7879 12.9154 13.5047 13.9914H10.4V10.4ZM14.7898 10.4H18.3836C18.3227 11.6956 17.9755 12.9153 17.3938 13.9914H14.3305C14.602 12.8957 14.7618 11.6831 14.7898 10.4ZM3.11797 14.8086H5.89922C6.08049 15.3816 6.28979 15.9186 6.53125 16.4016C6.8571 17.0533 7.24153 17.6192 7.67266 18.0719C5.80247 17.5347 4.20608 16.3629 3.11797 14.8086ZM6.7375 14.8086H9.6V18.3531C8.73926 18.1617 7.90515 17.3603 7.24688 16.0438C7.05931 15.6686 6.8886 15.2543 6.7375 14.8086ZM10.4 14.8086H13.2625C13.1114 15.2543 12.9407 15.6686 12.7531 16.0438C12.0949 17.3603 11.2607 18.1617 10.4 18.3531V14.8086ZM14.1008 14.8086H16.882C15.7939 16.3629 14.1975 17.5347 12.3273 18.0719C12.7585 17.6192 13.1429 17.0533 13.4688 16.4016C13.7102 15.9186 13.9195 15.3816 14.1008 14.8086Z" fill="var(--fill-0, black)"/>
</g>
<defs>
<clipPath id="clip0_0_9">
<rect width="20" height="20" fill="white"/>
</clipPath>
</defs>
</svg>
