<svg preserveAspectRatio="none" width="100%" height="100%" overflow="visible" style="display: block;" viewBox="0 0 20 20" fill="none" xmlns="http://www.w3.org/2000/svg">
<g id="group" clip-path="url(#clip0_0_9)">
<path id="Vector" d="M10.725 2C8.9422 2 7.63908 2.70469 6.95001 3.75C6.80783 3.96406 6.70158 4.18906 6.61251 4.425L6.51251 4.225C6.44689 4.09063 6.31251 4.00313 6.16251 4C4.77814 4 3.74376 4.5625 3.20001 5.4C2.70314 6.16406 2.67345 7.125 2.98751 8.025C2.96251 8.06563 2.90939 8.0875 2.88751 8.1375C2.81251 8.30469 2.77189 8.51563 2.80001 8.7625C2.80001 8.76719 2.80001 8.77031 2.80001 8.775C2.84533 9.13906 2.93751 9.4 3.08751 9.6C3.15158 9.68438 3.25314 9.68438 3.33751 9.7375C3.39689 10.0344 3.48126 10.3297 3.60001 10.575C3.67033 10.7219 3.74533 10.8484 3.82501 10.9625C3.85158 11.0016 3.89689 11.0281 3.92501 11.0625C3.92501 11.3688 3.91408 11.6438 3.88751 12C3.81564 12.1828 3.64064 12.3438 3.31251 12.5125C2.97658 12.6844 2.52658 12.8438 2.06251 13.05C1.59845 13.2563 1.10314 13.5063 0.712514 13.9125C0.321889 14.3188 0.0453267 14.8875 1.42796e-05 15.6125C-0.00623572 15.7234 0.0328268 15.8313 0.107827 15.9109C0.184389 15.9922 0.289077 16.0375 0.400014 16.0375H2.88751C2.82658 16.2656 2.77814 16.5109 2.76251 16.775C2.75626 16.8859 2.79533 16.9938 2.87033 17.0734C2.94689 17.1547 3.05158 17.2 3.16251 17.2H16.8375C16.9485 17.2 17.0531 17.1547 17.1297 17.0734C17.2047 16.9938 17.2438 16.8859 17.2375 16.775C17.2203 16.4953 17.1672 16.2406 17.1 16H19.6C19.711 16 19.8156 15.9547 19.8922 15.8734C19.9672 15.7938 20.0063 15.6859 20 15.575C19.9547 14.8516 19.675 14.2813 19.2875 13.875C18.9 13.4688 18.4219 13.2188 17.9625 13.0125C17.5031 12.8063 17.0578 12.6469 16.725 12.475C16.4078 12.3109 16.2391 12.1422 16.1625 11.9625C16.136 11.6391 16.125 11.3516 16.125 11.025C16.1516 10.9906 16.1985 10.9625 16.225 10.925C16.3047 10.8125 16.3688 10.6828 16.4375 10.5375C16.5485 10.3016 16.6297 10.0203 16.675 9.7375C16.7563 9.68594 16.8516 9.68125 16.9125 9.6C17.0625 9.4 17.1547 9.13906 17.2 8.775C17.2281 8.55469 17.2031 8.34844 17.1375 8.175C17.1188 8.12656 17.05 8.09688 17.025 8.05C17.1125 7.84531 17.2125 7.65156 17.2375 7.4C17.2735 7.02656 17.2438 6.60781 17.1375 6.2C17.0313 5.79219 16.8469 5.3875 16.525 5.075C16.2656 4.82188 15.9 4.67344 15.4875 4.6125L15.325 4.2375C15.261 4.09375 15.1188 4.00156 14.9625 4C14.4094 4 13.8203 4.05469 13.275 4.225C13.1328 3.90938 12.9453 3.60938 12.6875 3.3625C12.3453 3.03281 11.8641 2.83594 11.3125 2.775L11.0875 2.2375C11.0235 2.09375 10.8813 2.00156 10.725 2ZM10.4625 2.825L10.675 3.2875C10.7391 3.43125 10.8813 3.52344 11.0375 3.525C11.5344 3.525 11.8719 3.68281 12.1375 3.9375C12.4031 4.19219 12.5922 4.55469 12.7 4.9625C12.8078 5.37031 12.8375 5.81563 12.8 6.1875C12.7625 6.55938 12.636 6.85938 12.5625 6.95C12.486 7.04688 12.4594 7.17344 12.4875 7.29219C12.5172 7.4125 12.6 7.5125 12.7125 7.5625C12.7063 7.55938 12.7125 7.55938 12.725 7.5875C12.7469 7.63906 12.7703 7.75469 12.7625 7.9C12.761 7.9125 12.7641 7.9125 12.7625 7.925C12.7078 8.25625 12.6141 8.45313 12.55 8.5375C12.5172 8.58125 12.4938 8.59531 12.4875 8.6C12.2985 8.61563 12.1485 8.7625 12.125 8.95C12.0922 9.24844 11.9766 9.6375 11.8375 9.9375C11.7688 10.0875 11.686 10.2141 11.625 10.3C11.5781 10.3641 11.5313 10.4 11.5375 10.4C11.4031 10.4703 11.3219 10.6109 11.325 10.7625C11.325 11.2828 11.3219 11.7 11.3625 12.3125C11.3656 12.3516 11.3735 12.3891 11.3875 12.425C11.6016 12.9875 12.0844 13.3266 12.6125 13.5875C13.1406 13.8484 13.7375 14.0438 14.3 14.2875C14.8625 14.5313 15.386 14.825 15.7625 15.2125C16.0547 15.5125 16.2328 15.9094 16.3375 16.4H3.66251C3.7672 15.9094 3.94533 15.5125 4.23751 15.2125C4.61408 14.825 5.13751 14.5313 5.70001 14.2875C6.26251 14.0438 6.85939 13.8484 7.38751 13.5875C7.91564 13.3266 8.39845 12.9875 8.61251 12.425C8.62658 12.3891 8.63439 12.3516 8.63751 12.3125C8.67814 11.7375 8.67501 11.2828 8.67501 10.7625C8.67814 10.6109 8.59689 10.4703 8.46251 10.4C8.46251 10.4 8.45939 10.3953 8.45001 10.3875C8.44689 10.3859 8.4422 10.3891 8.43751 10.3875C8.41876 10.3719 8.3922 10.3391 8.36251 10.3C8.29845 10.2156 8.21095 10.0844 8.13751 9.9375C7.99064 9.64531 7.87033 9.275 7.83751 8.9625C7.81876 8.7875 7.68595 8.64531 7.51251 8.6125C7.47345 8.60469 7.26876 8.61406 7.20001 7.925C7.17189 7.61719 7.3172 7.52656 7.30001 7.5375C7.4672 7.43125 7.53126 7.21875 7.45001 7.0375C7.19376 6.44844 7.11251 5.84063 7.20001 5.275C7.29064 5.17344 7.32501 5.03125 7.28751 4.9C7.36251 4.65156 7.46876 4.41875 7.61251 4.2C8.11095 3.44531 9.04845 2.89219 10.4625 2.825ZM14.7125 4.8375L14.8375 5.1125C14.8969 5.26094 15.0406 5.35938 15.2 5.3625C15.5563 5.3625 15.7781 5.47031 15.9625 5.65C16.1469 5.82969 16.2828 6.09688 16.3625 6.4C16.4422 6.70313 16.4641 7.03281 16.4375 7.3125C16.411 7.59219 16.3156 7.82031 16.275 7.875C16.2047 7.96563 16.1781 8.08125 16.2 8.19375C16.2203 8.30625 16.2891 8.40469 16.3875 8.4625C16.4016 8.49844 16.4125 8.57656 16.4 8.675C16.3656 8.95 16.3047 9.08438 16.275 9.125C16.0875 9.14844 15.9406 9.29844 15.925 9.4875C15.911 9.69375 15.8156 9.98125 15.7125 10.2C15.661 10.3094 15.6078 10.3969 15.5625 10.4625C15.5281 10.5109 15.4969 10.5484 15.5 10.55C15.3922 10.6234 15.3266 10.7453 15.325 10.875C15.325 11.3156 15.3203 11.6547 15.3625 12.1125C15.3672 12.1469 15.375 12.1797 15.3875 12.2125C15.5578 12.6828 15.9422 12.9766 16.35 13.1875C16.7578 13.3984 17.2172 13.5484 17.6375 13.7375C18.0578 13.9266 18.4391 14.15 18.7125 14.4375C18.9031 14.6375 19.0297 14.8906 19.1125 15.2H16.8C16.7875 15.2 16.775 15.2 16.7625 15.2C16.6375 14.9953 16.4969 14.8141 16.3375 14.65C15.8438 14.1422 15.2281 13.8234 14.625 13.5625C14.0219 13.3016 13.4281 13.1 12.975 12.875C12.5375 12.6578 12.2766 12.4266 12.1625 12.1625C12.1328 11.6828 12.125 11.3234 12.125 10.9C12.1672 10.8516 12.236 10.8156 12.275 10.7625C12.3766 10.6203 12.4766 10.4609 12.5625 10.275C12.7125 9.95 12.8016 9.57188 12.8625 9.2C12.9719 9.13438 13.1031 9.1375 13.1875 9.025C13.3625 8.79219 13.4828 8.47031 13.55 8.025C13.5547 8.01719 13.5594 8.00781 13.5625 8C13.5875 7.725 13.5485 7.47969 13.4625 7.275C13.4406 7.22344 13.3672 7.21094 13.3375 7.1625C13.4672 6.9 13.5531 6.60469 13.5875 6.2625C13.6281 5.8625 13.6141 5.42656 13.525 4.9875C13.8844 4.88906 14.3063 4.85313 14.7125 4.8375ZM5.93751 4.85L6.08751 5.1375C6.14376 5.25781 6.25626 5.34219 6.38751 5.3625C6.33439 5.94375 6.42501 6.54688 6.63751 7.125C6.48595 7.33281 6.36408 7.61094 6.40001 8C6.47033 8.69844 6.78283 9.02969 7.08751 9.2125C7.15158 9.59531 7.2672 9.98281 7.42501 10.3C7.5172 10.4844 7.61876 10.6484 7.72501 10.7875C7.76408 10.8391 7.83283 10.8672 7.87501 10.9125C7.87501 11.3359 7.8672 11.7156 7.83751 12.1625C7.72345 12.4266 7.46251 12.6578 7.02501 12.875C6.57189 13.1 5.97814 13.3016 5.37501 13.5625C4.77189 13.8234 4.15626 14.1422 3.66251 14.65C3.49376 14.8234 3.3422 15.0172 3.21251 15.2375C3.20783 15.2375 3.2047 15.2375 3.20001 15.2375H0.900014C0.984389 14.9281 1.10783 14.675 1.30001 14.475C1.57658 14.1875 1.96251 13.9641 2.38751 13.775C2.81251 13.5859 3.26408 13.4359 3.67501 13.225C4.08595 13.0141 4.47814 12.7344 4.65001 12.2625C4.66408 12.2266 4.67189 12.1891 4.67501 12.15C4.71564 11.6547 4.72501 11.325 4.72501 10.925C4.72814 10.7828 4.65783 10.65 4.53751 10.575C4.52501 10.5609 4.49845 10.5328 4.47501 10.5C4.42814 10.4328 4.3672 10.3391 4.31251 10.225C4.20314 9.99844 4.10783 9.70469 4.07501 9.4625C4.04845 9.28438 3.9047 9.14531 3.72501 9.125C3.69533 9.08438 3.63439 8.95 3.60001 8.675C3.58751 8.56094 3.60939 8.49531 3.62501 8.4625C3.78751 8.35156 3.84533 8.14063 3.76251 7.9625C3.43126 7.2125 3.48908 6.43125 3.87501 5.8375C4.2297 5.29063 4.91876 4.9125 5.93751 4.85Z" fill="var(--fill-0, black)"/>
</g>
<defs>
<clipPath id="clip0_0_9">
<rect width="20" height="20" fill="white"/>
</clipPath>
</defs>
</svg>
