<svg preserveAspectRatio="none" width="100%" height="100%" overflow="visible" style="display: block;" viewBox="0 0 18.8 16.4641" fill="none" xmlns="http://www.w3.org/2000/svg">
<path id="Vector (Stroke)" fill-rule="evenodd" clip-rule="evenodd" d="M0 5.30945C0 2.37616 2.37616 0 5.30945 0C6.95808 0 8.42766 0.752284 9.4 1.92728C10.3723 0.752284 11.8419 0 13.4905 0C16.4238 0 18.8 2.37616 18.8 5.30945C18.8 8.34386 17.0612 10.5918 15.082 12.3096C14.0906 13.17 13.025 13.9097 12.0643 14.5563C11.9073 14.662 11.7537 14.7648 11.6039 14.8651C10.8262 15.3856 10.1531 15.8361 9.65617 16.2505L9.4 16.4641L9.14383 16.2505C8.64691 15.8361 7.97375 15.3856 7.19611 14.8651C7.04633 14.7648 6.89268 14.662 6.73566 14.5563C5.77499 13.9097 4.70939 13.17 3.71804 12.3096C1.73879 10.5918 0 8.34386 0 5.30945ZM5.30945 0.8C2.81798 0.8 0.8 2.81798 0.8 5.30945C0.8 8.00341 2.33485 10.0498 4.24242 11.7054C5.19447 12.5318 6.22557 13.2486 7.18235 13.8926C7.33344 13.9943 7.48325 14.0945 7.63091 14.1933C8.28855 14.6333 8.90361 15.0448 9.4 15.4303C9.8964 15.0448 10.5115 14.6333 11.1691 14.1933C11.3168 14.0945 11.4666 13.9943 11.6177 13.8926C12.5744 13.2486 13.6055 12.5318 14.5576 11.7054C16.4652 10.0498 18 8.00341 18 5.30945C18 2.81798 15.982 0.8 13.4905 0.8C11.9209 0.8 10.5413 1.60261 9.73313 2.81849L9.4 3.31969L9.06687 2.81849C8.25873 1.60261 6.87912 0.8 5.30945 0.8Z" fill="var(--fill-0, black)"/>
</svg>
