<svg preserveAspectRatio="none" width="100%" height="100%" overflow="visible" style="display: block;" viewBox="0 0 20 20" fill="none" xmlns="http://www.w3.org/2000/svg">
<g id="help" clip-path="url(#clip0_0_9)">
<path id="Vector" d="M9.99999 0.799998C4.92371 0.799998 0.79999 4.92372 0.79999 10C0.79999 15.0763 4.92371 19.2 9.99999 19.2C15.0763 19.2 19.2 15.0763 19.2 10C19.2 4.92372 15.0763 0.799998 9.99999 0.799998ZM9.99999 1.6C14.6439 1.6 18.4 5.35607 18.4 10C18.4 14.6439 14.6439 18.4 9.99999 18.4C5.35606 18.4 1.59999 14.6439 1.59999 10C1.59999 5.35607 5.35606 1.6 9.99999 1.6ZM10.1156 5.00312C8.62361 5.00312 7.63434 5.90717 7.41874 7.28437C7.40474 7.37077 7.44718 7.42778 7.53358 7.44218L8.43749 7.60078C8.52389 7.61518 8.5809 7.57193 8.5953 7.48593C8.7673 6.61074 9.28351 6.12265 10.0867 6.12265C10.9047 6.12265 11.4781 6.63943 11.4781 7.45703C11.4781 7.94503 11.3063 8.27488 10.8047 8.96328L9.84296 10.2828C9.54176 10.6992 9.41327 11.0006 9.41327 11.575V12.1625C9.41327 12.2485 9.47024 12.3063 9.55624 12.3047H10.5031C10.5891 12.3047 10.6461 12.2477 10.6461 12.1617V11.7031C10.6461 11.2155 10.7327 11.0145 11.0195 10.6273L11.9805 9.30703C12.4685 8.63263 12.7117 8.13098 12.7117 7.44218C12.7117 6.02179 11.6644 5.00312 10.1156 5.00312ZM9.48515 13.3969C9.39875 13.3969 9.3414 13.4546 9.3414 13.5406V14.7742C9.3414 14.8602 9.39835 14.9172 9.48515 14.9172H10.5758C10.6614 14.9172 10.7187 14.8606 10.7187 14.7742V13.5406C10.7187 13.455 10.6618 13.3969 10.5758 13.3969H9.48515Z" fill="var(--fill-0, black)"/>
</g>
<defs>
<clipPath id="clip0_0_9">
<rect width="20" height="20" fill="white"/>
</clipPath>
</defs>
</svg>
