<svg preserveAspectRatio="none" width="100%" height="100%" overflow="visible" style="display: block;" viewBox="0 0 20 20" fill="none" xmlns="http://www.w3.org/2000/svg">
<g id="hierarchy">
<path id="Vector" d="M8.4 2.8C7.74219 2.8 7.2 3.34219 7.2 4V6C7.2 6.65781 7.74219 7.2 8.4 7.2H9.6V8.8H4.4C3.30156 8.8 2.4 9.70156 2.4 10.8V12.8H1.2C0.542188 12.8 0 13.3422 0 14V16C0 16.6578 0.542188 17.2 1.2 17.2H4.4C5.05781 17.2 5.6 16.6578 5.6 16V14C5.6 13.3422 5.05781 12.8 4.4 12.8H3.2V10.8C3.2 10.1375 3.7375 9.6 4.4 9.6H9.6V12.8H8.4C7.74219 12.8 7.2 13.3422 7.2 14V16C7.2 16.6578 7.74219 17.2 8.4 17.2H11.6C12.2578 17.2 12.8 16.6578 12.8 16V14C12.8 13.3422 12.2578 12.8 11.6 12.8H10.4V9.6H15.6C16.2625 9.6 16.8 10.1375 16.8 10.8V12.8H15.6C14.9422 12.8 14.4 13.3422 14.4 14V16C14.4 16.6578 14.9422 17.2 15.6 17.2H18.8C19.4578 17.2 20 16.6578 20 16V14C20 13.3422 19.4578 12.8 18.8 12.8H17.6V10.8C17.6 9.70156 16.6984 8.8 15.6 8.8H10.4V7.2H11.6C12.2578 7.2 12.8 6.65781 12.8 6V4C12.8 3.34219 12.2578 2.8 11.6 2.8H8.4ZM8.4 3.6H11.6C11.8219 3.6 12 3.77813 12 4V6C12 6.22188 11.8219 6.4 11.6 6.4H8.4C8.17813 6.4 8 6.22188 8 6V4C8 3.77813 8.17813 3.6 8.4 3.6ZM1.2 13.6H4.4C4.62188 13.6 4.8 13.7781 4.8 14V16C4.8 16.2219 4.62188 16.4 4.4 16.4H1.2C0.978125 16.4 0.8 16.2219 0.8 16V14C0.8 13.7781 0.978125 13.6 1.2 13.6ZM8.4 13.6H11.6C11.8219 13.6 12 13.7781 12 14V16C12 16.2219 11.8219 16.4 11.6 16.4H8.4C8.17813 16.4 8 16.2219 8 16V14C8 13.7781 8.17813 13.6 8.4 13.6ZM15.6 13.6H18.8C19.0219 13.6 19.2 13.7781 19.2 14V16C19.2 16.2219 19.0219 16.4 18.8 16.4H15.6C15.3781 16.4 15.2 16.2219 15.2 16V14C15.2 13.7781 15.3781 13.6 15.6 13.6Z" fill="var(--fill-0, black)"/>
</g>
</svg>
