<svg preserveAspectRatio="none" width="100%" height="100%" overflow="visible" style="display: block;" viewBox="0 0 16.7499 16.75" fill="none" xmlns="http://www.w3.org/2000/svg">
<path id="Vector (Stroke)" d="M8.50293 0.000950172C8.83944 0.00598643 9.18027 0.0310926 9.52441 0.077122L9.87012 0.129856L10.1846 0.19138C13.4161 0.888907 15.9973 3.51644 16.6025 6.78415L16.6797 7.28025C17.3317 12.3826 13.3536 16.75 8.375 16.75C4.20889 16.7498 0.743644 13.6916 0.105469 9.70212L0.0527344 9.31345C-0.0257153 8.61561 0.519961 8.00023 1.22461 7.99997C1.80642 7.99997 2.32084 8.42898 2.38574 9.02634L2.42285 9.30759C2.87265 12.1876 5.37068 14.4002 8.375 14.4004C11.9804 14.4004 14.8562 11.2184 14.3398 7.51169L14.2793 7.15232C13.8363 4.90772 12.0797 3.0775 9.86816 2.53122L9.65234 2.4824C7.57205 2.05317 5.6381 2.71015 4.2793 3.9824L5.32324 5.02634C5.62562 5.32871 5.62545 5.81957 5.32324 6.12204L5.32227 6.124C5.17244 6.27229 4.97475 6.34954 4.77539 6.34958H1.1748C0.863258 6.34952 0.564056 6.22613 0.34375 6.00583C0.123448 5.78553 6.95612e-05 5.48632 0 5.17478V1.57419C4.43647e-05 1.37817 0.0746134 1.1783 0.227539 1.02634C0.529993 0.72389 1.02079 0.72389 1.32324 1.02634L2.61328 2.31638C4.14203 0.857909 6.21749 -0.0332482 8.50293 0.000950172ZM8.80078 4.374C8.80052 4.13971 8.60936 3.94919 8.375 3.94919C8.14083 3.94942 7.95046 4.13985 7.9502 4.374V8.37497C7.95028 8.48805 7.99535 8.59633 8.07422 8.67478L9.90918 10.5097C10.0747 10.6753 10.3452 10.6753 10.5107 10.5097C10.6762 10.3442 10.6763 10.0737 10.5107 9.90818L8.80078 8.19919V4.374ZM9.55078 7.88767L11.041 9.3779C11.4994 9.83633 11.4994 10.5815 11.041 11.04C10.5826 11.4985 9.83737 11.4985 9.37891 11.04L7.54492 9.20505C7.3233 8.98447 7.20028 8.68555 7.2002 8.37497V4.374C7.20046 3.72563 7.72663 3.19942 8.375 3.19919C9.02356 3.19919 9.55052 3.72549 9.55078 4.374V7.88767ZM0.75 5.17478C0.750069 5.28719 0.794669 5.39498 0.874023 5.47458C0.953678 5.55424 1.06216 5.59952 1.1748 5.59958H4.77539C4.77823 5.59956 4.78124 5.59883 4.78418 5.59763C4.78682 5.59654 4.78942 5.59415 4.79297 5.59079C4.80177 5.58115 4.80227 5.56592 4.79297 5.55661L3.22559 3.98923L3.47656 3.72458C5.00902 2.10981 7.31776 1.23473 9.80469 1.74802L10.0479 1.80271C12.5417 2.41856 14.5162 4.4758 15.0156 7.00681L15.084 7.41111C15.6629 11.5722 12.4287 15.1504 8.375 15.1504C4.99498 15.1502 2.18722 12.6622 1.68164 9.42282L1.63965 9.1074C1.61815 8.90952 1.44284 8.74997 1.22461 8.74997C0.969683 8.75023 0.76924 8.97403 0.797852 9.22947L0.845703 9.58396C1.42682 13.2154 4.58338 15.9998 8.375 16C12.9078 16 16.5302 12.0238 15.9355 7.37302L15.8652 6.92087C15.2978 3.85712 12.8107 1.40549 9.74023 0.869114C9.31819 0.79551 8.90072 0.757078 8.49121 0.75095C6.28716 0.718105 4.29694 1.63014 2.88379 3.10544L2.61816 3.38279L2.34766 3.1113L0.792969 1.55661C0.7835 1.54715 0.767408 1.54733 0.757812 1.55661L0.755859 1.55759C0.753862 1.55957 0.75288 1.56214 0.751953 1.56443C0.750938 1.56697 0.750022 1.57029 0.75 1.57419V5.17478Z" fill="var(--fill-0, black)"/>
</svg>
