<svg preserveAspectRatio="none" width="100%" height="100%" overflow="visible" style="display: block;" viewBox="0 0 20 20" fill="none" xmlns="http://www.w3.org/2000/svg">
<g id="home">
<path id="Vector" d="M9.98514 0.421873C9.9012 0.424769 9.82029 0.454015 9.75389 0.505467L0.553894 7.68437C0.470185 7.74964 0.415832 7.84549 0.402793 7.95083C0.389753 8.05617 0.419095 8.16238 0.484363 8.24609C0.549631 8.3298 0.645479 8.38415 0.750822 8.39719C0.856165 8.41023 0.962373 8.38089 1.04608 8.31562L1.59999 7.88359V18.4C1.6 18.5061 1.64214 18.6078 1.71716 18.6828C1.79217 18.7578 1.8939 18.8 1.99999 18.8H7.5328C7.576 18.8071 7.62007 18.8071 7.66327 18.8H12.3328C12.376 18.8071 12.4201 18.8071 12.4633 18.8H18C18.1061 18.8 18.2078 18.7578 18.2828 18.6828C18.3578 18.6078 18.4 18.5061 18.4 18.4V7.88359L18.9539 8.31562C18.9953 8.34794 19.0428 8.37179 19.0934 8.38578C19.1441 8.39978 19.197 8.40367 19.2492 8.39721C19.3013 8.39076 19.3517 8.37409 19.3974 8.34816C19.4431 8.32224 19.4833 8.28756 19.5156 8.24611C19.548 8.20466 19.5718 8.15725 19.5858 8.10658C19.5998 8.05592 19.6037 8.003 19.5972 7.95084C19.5907 7.89867 19.5741 7.84829 19.5481 7.80257C19.5222 7.75685 19.4875 7.71669 19.4461 7.68437L16.4 5.30781V2.4H14V3.43437L10.2461 0.505467C10.1717 0.447755 10.0793 0.418153 9.98514 0.421873V0.421873ZM9.99999 1.3289L17.6 7.25937V18H12.8V10.4H7.19999V18H2.39999V7.25937L9.99999 1.3289ZM14.8 3.2H15.6V4.68359L14.8 4.05859V3.2ZM7.99999 11.2H12V18H7.99999V11.2Z" fill="var(--fill-0, black)"/>
</g>
</svg>
