<svg preserveAspectRatio="none" width="100%" height="100%" overflow="visible" style="display: block;" viewBox="0 0 16 16" fill="none" xmlns="http://www.w3.org/2000/svg">
<path id="Vector" d="M8 0.5C12.1419 0.5 15.5 3.85814 15.5 8C15.5 12.1419 12.1419 15.5 8 15.5C3.85814 15.5 0.5 12.1419 0.5 8C0.5 3.85814 3.85814 0.5 8 0.5ZM8.00195 10.707C7.64119 10.707 7.28815 10.804 7.01953 11.0459C6.7438 11.2943 6.62012 11.6394 6.62012 12.0049C6.62017 12.3686 6.74603 12.7111 7.02148 12.957C7.2895 13.1961 7.64143 13.293 8.00195 13.293C8.36141 13.293 8.71233 13.1955 8.97949 12.9561C9.25374 12.7101 9.37886 12.3682 9.37891 12.0049C9.37891 11.6396 9.25585 11.2951 8.98145 11.0469C8.7137 10.8047 8.36148 10.707 8.00195 10.707ZM6.69238 3.34473L6.8252 9.34473L6.83594 9.83301H9.16406L9.1748 9.34473L9.30762 3.34473L9.31934 2.83301H6.68066L6.69238 3.34473Z" stroke="var(--stroke-0, black)"/>
</svg>
