<svg preserveAspectRatio="none" width="100%" height="100%" overflow="visible" style="display: block;" viewBox="0 0 20 20" fill="none" xmlns="http://www.w3.org/2000/svg">
<g id="import" clip-path="url(#clip0_0_9)">
<path id="Vector" d="M0.712494 -0.0125C0.520306 0.03125 0.384369 0.203125 0.387494 0.4V19.6C0.389056 19.8266 0.573432 20.0109 0.799994 20.0125H12.8C13.0266 20.0109 13.2109 19.8266 13.2125 19.6V15.6H12.3875V19.1875H1.21249V0.8125H12.3875V4.4H13.2125V0.4C13.2109 0.173438 13.0266 -0.0109375 12.8 -0.0125H0.799994C0.770306 -0.015625 0.742182 -0.015625 0.712494 -0.0125ZM9.91249 6.0375C9.82187 6.05 9.73749 6.09531 9.67499 6.1625L6.11249 9.7125L5.83749 10L6.11249 10.2875L9.67499 13.8375C9.77187 13.9563 9.92656 14.0109 10.0766 13.9766C10.225 13.9422 10.3422 13.825 10.3766 13.6766C10.4109 13.5266 10.3562 13.3719 10.2375 13.275L7.37499 10.4H19.2C19.3437 10.4016 19.4781 10.3266 19.5516 10.2016C19.6234 10.0766 19.6234 9.92344 19.5516 9.79844C19.4781 9.67344 19.3437 9.59844 19.2 9.6H7.37499L10.2375 6.725C10.3625 6.60625 10.3984 6.42031 10.325 6.26406C10.25 6.10625 10.0844 6.01563 9.91249 6.0375Z" fill="var(--fill-0, black)"/>
</g>
<defs>
<clipPath id="clip0_0_9">
<rect width="20" height="20" fill="white"/>
</clipPath>
</defs>
</svg>
