<svg preserveAspectRatio="none" width="100%" height="100%" overflow="visible" style="display: block;" viewBox="0 0 20 20" fill="none" xmlns="http://www.w3.org/2000/svg">
<g id="info">
<path id="Vector" d="M10 0.8C4.92372 0.8 0.8 4.92372 0.8 10C0.8 15.0763 4.92372 19.2 10 19.2C15.0763 19.2 19.2 15.0763 19.2 10C19.2 4.92372 15.0763 0.8 10 0.8ZM10 1.6C14.6439 1.6 18.4 5.35607 18.4 10C18.4 14.6439 14.6439 18.4 10 18.4C5.35607 18.4 1.6 14.6439 1.6 10C1.6 5.35607 5.35607 1.6 10 1.6ZM10 4.4C9.68174 4.4 9.37652 4.52643 9.15147 4.75147C8.92643 4.97652 8.8 5.28174 8.8 5.6C8.8 5.91826 8.92643 6.22348 9.15147 6.44853C9.37652 6.67357 9.68174 6.8 10 6.8C10.3183 6.8 10.6235 6.67357 10.8485 6.44853C11.0736 6.22348 11.2 5.91826 11.2 5.6C11.2 5.28174 11.0736 4.97652 10.8485 4.75147C10.6235 4.52643 10.3183 4.4 10 4.4V4.4ZM8.4 8.4V9.2H8.8H9.2V14.4H8.8H8.4V15.2H8.8H9.2H10.8H11.2H11.6V14.4H11.2H10.8V8.4H10.4H8.8H8.4Z" fill="var(--fill-0, black)"/>
</g>
</svg>
