<svg preserveAspectRatio="none" width="100%" height="100%" overflow="visible" style="display: block;" viewBox="0 0 18.8721 19.8877" fill="none" xmlns="http://www.w3.org/2000/svg">
<path id="Union" d="M11.2422 19.5127L10.7783 19.7002L10.3154 19.8877L3.41992 2.8584L4.34766 2.4834L11.2422 19.5127ZM3.44336 5.08203H1V17.8721H8.92285V18.8721H0V4.08203H3.44336V5.08203ZM14.7979 18.8721H11.4912V17.8721H13.7979V5.08203H5.93164V4.08203H14.7979V18.8721ZM13.9062 1.83984C15.6322 1.84004 17.041 3.23916 17.041 4.97461H16.291C16.291 3.65479 15.2194 2.59004 13.9062 2.58984V1.83984ZM13.9141 0C16.6482 6.8501e-05 18.8719 2.21504 18.8721 4.95801H18.1221C18.1219 2.63011 16.2348 0.750068 13.9141 0.75V0Z" fill="var(--fill-0, black)"/>
</svg>
