<svg preserveAspectRatio="none" width="100%" height="100%" overflow="visible" style="display: block;" viewBox="0 0 20 20" fill="none" xmlns="http://www.w3.org/2000/svg">
<path id="Union" d="M17.751 17.5713C18.4547 17.6373 19.3126 17.6787 19.8447 18.2236C20.248 18.7274 19.5365 19.2564 19.1416 19.4053C16.9185 20.1983 14.4632 20.1983 12.2314 19.4053C10.1799 18.3892 12.3175 17.5548 13.5879 17.5713C7.65656 19.2978 18.4805 19.9997 19.5449 18.6201C19.656 18.5209 19.5274 18.3307 19.2959 18.1904C18.8582 17.8931 18.3002 17.7365 17.751 17.5713ZM15.6826 9.0459C18.0688 9.04604 20 10.8718 20 13.127C19.9998 15.3717 15.7312 18.3696 15.6914 18.3975C15.6914 18.3975 11.3654 15.3822 11.3652 13.127C11.3652 10.8717 13.2964 9.0459 15.6826 9.0459ZM15.6826 9.87207C13.777 9.87207 12.2227 11.3343 12.2227 13.127C12.2228 14.3166 14.1807 16.2082 15.6914 17.3564C17.1935 16.2082 19.1415 14.3165 19.1416 13.127C19.1416 11.3344 17.5881 9.87221 15.6826 9.87207ZM15.7598 7.92188C15.5023 7.88883 15.2358 7.87305 14.9697 7.87305C11.236 7.87317 8.21495 10.7806 8.21484 14.374C8.21484 14.6384 8.23129 14.9031 8.26562 15.1592H0V0H15.7598V7.92188ZM0.858398 14.333H7.34766C7.36482 10.3347 10.7381 7.07999 14.8926 7.04688V0.826172H0.858398V14.333ZM15.6914 11.21C16.4895 11.21 17.1413 11.8213 17.1416 12.5811C17.1416 13.3411 16.4897 13.9531 15.6914 13.9531C14.8931 13.9531 14.2412 13.3411 14.2412 12.5811C14.2415 11.8212 14.8933 11.21 15.6914 11.21ZM15.6914 12.0361C15.3654 12.0361 15.0989 12.2756 15.0986 12.5811C15.0986 12.8867 15.3652 13.127 15.6914 13.127C16.0176 13.1269 16.2832 12.8867 16.2832 12.5811C16.2829 12.2756 16.0174 12.0362 15.6914 12.0361Z" fill="var(--fill-0, black)"/>
</svg>
