<svg preserveAspectRatio="none" width="100%" height="100%" overflow="visible" style="display: block;" viewBox="0 0 20 20" fill="none" xmlns="http://www.w3.org/2000/svg">
<g id="key" clip-path="url(#clip0_0_9)">
<path id="Vector" d="M13.6 0C10.0719 0 7.2 2.87031 7.2 6.4C7.2 7.18438 7.35313 7.92969 7.6125 8.625L0.1125 16.1125L0 16.2375V18.9625L0.1125 19.0875L0.9125 19.8875L1.0375 20H3.7625L3.8875 19.8875L5.0875 18.6875L5.2 18.5625V17.6H6.1625L6.2875 17.4875L7.4875 16.2875L7.6 16.1625V15.6H8.1625L8.2875 15.4875L9.0875 14.6875L9.2 14.5625V14H9.7625L9.8875 13.8875L11.375 12.3875C12.0703 12.6469 12.8156 12.8 13.6 12.8C17.1281 12.8 20 9.92813 20 6.4C20 2.87031 17.1281 0 13.6 0ZM13.6 0.8C16.6953 0.8 19.2 3.30313 19.2 6.4C19.2 9.49531 16.6953 12 13.6 12C12.8313 12 12.1031 11.8547 11.4375 11.575C11.4328 11.5703 11.4297 11.5672 11.425 11.5625C9.41406 10.7125 8 8.72188 8 6.4C8 3.30313 10.5047 0.8 13.6 0.8ZM13.6 2C12.4734 2 11.3453 2.42969 10.4875 3.2875L10.2 3.575L10.4875 3.85L16.15 9.5125L16.425 9.8L16.7125 9.5125C18.4281 7.79844 18.4281 5.00156 16.7125 3.2875C15.8547 2.42969 14.7266 2 13.6 2ZM13.6 2.8C14.5203 2.8 15.4453 3.14531 16.15 3.85C17.4594 5.15938 17.5 7.19844 16.375 8.6125L11.3875 3.625C12.0406 3.10625 12.8094 2.8 13.6 2.8ZM7.95 9.4125C8.54844 10.5313 9.46875 11.4516 10.5875 12.05L9.425 13.2H8.4V14.225L7.825 14.8H6.8V15.825L5.825 16.8H4.4V18.225L3.425 19.2H1.375L0.975 18.8L7.6 12.175C7.74375 12.0516 7.78281 11.8453 7.69219 11.6797C7.60156 11.5125 7.40625 11.4328 7.225 11.4875C7.14844 11.5047 7.07969 11.5438 7.025 11.6L0.8 17.8375V16.575L7.95 9.4125Z" fill="var(--fill-0, black)"/>
</g>
<defs>
<clipPath id="clip0_0_9">
<rect width="20" height="20" fill="white"/>
</clipPath>
</defs>
</svg>
