<svg preserveAspectRatio="none" width="100%" height="100%" overflow="visible" style="display: block;" viewBox="0 0 20 20" fill="none" xmlns="http://www.w3.org/2000/svg">
<g id="layers" clip-path="url(#clip0_0_9)">
<path id="Vector" d="M9.25 6.98492e-10C9.18281 0.00781252 9.11719 0.034375 9.0625 0.075L0.1625 6.9C0.0437502 6.99219 -0.0124998 7.14375 0.0171877 7.29219C0.0453126 7.44063 0.154688 7.55938 0.3 7.6L4.1875 8.6L0.1625 11.7C0.0437502 11.7922 -0.0124998 11.9438 0.0171877 12.0922C0.0453126 12.2406 0.154688 12.3594 0.3 12.4L4.2 13.4125L0.1625 16.4875C0.0359378 16.5781 -0.0249998 16.7344 0.00312522 16.8875C0.0328127 17.0406 0.148438 17.1625 0.3 17.2L11.1 19.9875C11.2344 20.0219 11.375 19.9828 11.475 19.8875L19.875 12.0375C19.9875 11.9328 20.0297 11.7734 19.9844 11.6266C19.9391 11.4813 19.8141 11.3734 19.6625 11.35L16.1125 10.75L19.875 7.2375C19.9875 7.13281 20.0297 6.97344 19.9844 6.82656C19.9391 6.68125 19.8141 6.57344 19.6625 6.55L16.125 5.95L19.875 2.4375C19.9875 2.33281 20.0297 2.17344 19.9844 2.02656C19.9391 1.88125 19.8141 1.77344 19.6625 1.75L9.375 6.98492e-10C9.33281 -0.00625 9.29219 -0.00625 9.25 6.98492e-10ZM9.4125 0.8125L10.8375 1.05C10.8172 1.09844 10.8 1.14531 10.8 1.2C10.8 1.42031 10.9797 1.6 11.2 1.6C11.4203 1.6 11.6 1.42031 11.6 1.2C11.6 1.19531 11.6 1.19219 11.6 1.1875L13.3 1.475C13.3734 1.55469 13.4828 1.6 13.6 1.6C13.6609 1.6 13.7109 1.575 13.7625 1.55L16.95 2.1C16.8609 2.17344 16.8 2.27656 16.8 2.4C16.8 2.62031 16.9797 2.8 17.2 2.8C17.4203 2.8 17.6 2.62031 17.6 2.4C17.6 2.325 17.5734 2.25938 17.5375 2.2L18.7375 2.4L15.05 5.85C15.0281 5.86406 15.0063 5.88125 14.9875 5.9C14.9641 5.91875 14.9438 5.93906 14.925 5.9625C14.9203 5.97031 14.9156 5.97969 14.9125 5.9875L11.0875 9.5625L10.3125 9.3625C10.2391 9.26563 10.1297 9.2 10 9.2C9.94531 9.2 9.89844 9.21719 9.85 9.2375L6.7875 8.45C6.79063 8.43281 6.8 8.41875 6.8 8.4C6.8 8.17969 6.62031 8 6.4 8C6.23438 8 6.09844 8.10625 6.0375 8.25L5.2875 8.0625C5.27969 8.05781 5.27031 8.05313 5.2625 8.05L5.125 8.025C5.1125 8.02031 5.1 8.01563 5.0875 8.0125L3.0875 7.4875C3.15938 7.41563 3.2 7.31094 3.2 7.2C3.2 6.97969 3.02031 6.8 2.8 6.8C2.57969 6.8 2.4 6.97969 2.4 7.2C2.4 7.24531 2.41094 7.28438 2.425 7.325L1.2875 7.025L6.0875 3.35C6.03281 3.41875 6 3.50469 6 3.6C6 3.82031 6.17969 4 6.4 4C6.62031 4 6.8 3.82031 6.8 3.6C6.8 3.37969 6.62031 3.2 6.4 3.2C6.34531 3.2 6.29844 3.21719 6.25 3.2375L7.225 2.4875C7.26719 2.6625 7.41094 2.8 7.6 2.8C7.82031 2.8 8 2.62031 8 2.4C8 2.25 7.90938 2.13125 7.7875 2.0625L8.525 1.4875C8.59688 1.55469 8.69375 1.6 8.8 1.6C9.02031 1.6 9.2 1.42031 9.2 1.2C9.2 1.13125 9.18125 1.06875 9.15 1.0125L9.4125 0.8125ZM10 2C9.77969 2 9.6 2.17969 9.6 2.4C9.6 2.62031 9.77969 2.8 10 2.8C10.2203 2.8 10.4 2.62031 10.4 2.4C10.4 2.17969 10.2203 2 10 2ZM12.4 2C12.1797 2 12 2.17969 12 2.4C12 2.62031 12.1797 2.8 12.4 2.8C12.6203 2.8 12.8 2.62031 12.8 2.4C12.8 2.17969 12.6203 2 12.4 2ZM14.8 2C14.5797 2 14.4 2.17969 14.4 2.4C14.4 2.62031 14.5797 2.8 14.8 2.8C15.0203 2.8 15.2 2.62031 15.2 2.4C15.2 2.17969 15.0203 2 14.8 2ZM8.8 3.2C8.57969 3.2 8.4 3.37969 8.4 3.6C8.4 3.82031 8.57969 4 8.8 4C9.02031 4 9.2 3.82031 9.2 3.6C9.2 3.37969 9.02031 3.2 8.8 3.2ZM11.2 3.2C10.9797 3.2 10.8 3.37969 10.8 3.6C10.8 3.82031 10.9797 4 11.2 4C11.4203 4 11.6 3.82031 11.6 3.6C11.6 3.37969 11.4203 3.2 11.2 3.2ZM13.6 3.2C13.3797 3.2 13.2 3.37969 13.2 3.6C13.2 3.82031 13.3797 4 13.6 4C13.8203 4 14 3.82031 14 3.6C14 3.37969 13.8203 3.2 13.6 3.2ZM16 3.2C15.7797 3.2 15.6 3.37969 15.6 3.6C15.6 3.82031 15.7797 4 16 4C16.2203 4 16.4 3.82031 16.4 3.6C16.4 3.37969 16.2203 3.2 16 3.2ZM5.2 4.4C4.97969 4.4 4.8 4.57969 4.8 4.8C4.8 5.02031 4.97969 5.2 5.2 5.2C5.42031 5.2 5.6 5.02031 5.6 4.8C5.6 4.57969 5.42031 4.4 5.2 4.4ZM7.6 4.4C7.37969 4.4 7.2 4.57969 7.2 4.8C7.2 5.02031 7.37969 5.2 7.6 5.2C7.82031 5.2 8 5.02031 8 4.8C8 4.57969 7.82031 4.4 7.6 4.4ZM10 4.4C9.77969 4.4 9.6 4.57969 9.6 4.8C9.6 5.02031 9.77969 5.2 10 5.2C10.2203 5.2 10.4 5.02031 10.4 4.8C10.4 4.57969 10.2203 4.4 10 4.4ZM12.4 4.4C12.1797 4.4 12 4.57969 12 4.8C12 5.02031 12.1797 5.2 12.4 5.2C12.6203 5.2 12.8 5.02031 12.8 4.8C12.8 4.57969 12.6203 4.4 12.4 4.4ZM14.8 4.4C14.5797 4.4 14.4 4.57969 14.4 4.8C14.4 5.02031 14.5797 5.2 14.8 5.2C15.0203 5.2 15.2 5.02031 15.2 4.8C15.2 4.57969 15.0203 4.4 14.8 4.4ZM4 5.6C3.77969 5.6 3.6 5.77969 3.6 6C3.6 6.22031 3.77969 6.4 4 6.4C4.22031 6.4 4.4 6.22031 4.4 6C4.4 5.77969 4.22031 5.6 4 5.6ZM6.4 5.6C6.17969 5.6 6 5.77969 6 6C6 6.22031 6.17969 6.4 6.4 6.4C6.62031 6.4 6.8 6.22031 6.8 6C6.8 5.77969 6.62031 5.6 6.4 5.6ZM8.8 5.6C8.57969 5.6 8.4 5.77969 8.4 6C8.4 6.22031 8.57969 6.4 8.8 6.4C9.02031 6.4 9.2 6.22031 9.2 6C9.2 5.77969 9.02031 5.6 8.8 5.6ZM11.2 5.6C10.9797 5.6 10.8 5.77969 10.8 6C10.8 6.22031 10.9797 6.4 11.2 6.4C11.4203 6.4 11.6 6.22031 11.6 6C11.6 5.77969 11.4203 5.6 11.2 5.6ZM13.6 5.6C13.3797 5.6 13.2 5.77969 13.2 6C13.2 6.22031 13.3797 6.4 13.6 6.4C13.8203 6.4 14 6.22031 14 6C14 5.77969 13.8203 5.6 13.6 5.6ZM15.3875 6.6375L18.7375 7.2L15.075 10.6375C15.0656 10.6453 15.0578 10.6531 15.05 10.6625H15.0375C14.9688 10.7 14.9125 10.7563 14.875 10.825L11.0875 14.3625L1.2875 11.825L5.175 8.8625L11.1 10.3875C11.2344 10.4219 11.375 10.3828 11.475 10.2875L15.3875 6.6375ZM5.2 6.8C4.97969 6.8 4.8 6.97969 4.8 7.2C4.8 7.42031 4.97969 7.6 5.2 7.6C5.42031 7.6 5.6 7.42031 5.6 7.2C5.6 6.97969 5.42031 6.8 5.2 6.8ZM7.6 6.8C7.37969 6.8 7.2 6.97969 7.2 7.2C7.2 7.42031 7.37969 7.6 7.6 7.6C7.82031 7.6 8 7.42031 8 7.2C8 6.97969 7.82031 6.8 7.6 6.8ZM10 6.8C9.77969 6.8 9.6 6.97969 9.6 7.2C9.6 7.42031 9.77969 7.6 10 7.6C10.2203 7.6 10.4 7.42031 10.4 7.2C10.4 6.97969 10.2203 6.8 10 6.8ZM12.4 6.8C12.1797 6.8 12 6.97969 12 7.2C12 7.42031 12.1797 7.6 12.4 7.6C12.6203 7.6 12.8 7.42031 12.8 7.2C12.8 6.97969 12.6203 6.8 12.4 6.8ZM8.8 8C8.57969 8 8.4 8.17969 8.4 8.4C8.4 8.62031 8.57969 8.8 8.8 8.8C9.02031 8.8 9.2 8.62031 9.2 8.4C9.2 8.17969 9.02031 8 8.8 8ZM11.2 8C10.9797 8 10.8 8.17969 10.8 8.4C10.8 8.62031 10.9797 8.8 11.2 8.8C11.4203 8.8 11.6 8.62031 11.6 8.4C11.6 8.17969 11.4203 8 11.2 8ZM15.375 11.4375L18.7375 12L11.075 19.15L1.2875 16.625L5.0875 13.725C5.11563 13.7078 5.14063 13.6859 5.1625 13.6625L11.1 15.1875C11.2344 15.2219 11.375 15.1828 11.475 15.0875L15.375 11.4375Z" fill="var(--fill-0, black)"/>
</g>
<defs>
<clipPath id="clip0_0_9">
<rect width="20" height="20" fill="white"/>
</clipPath>
</defs>
</svg>
