<svg preserveAspectRatio="none" width="100%" height="100%" overflow="visible" style="display: block;" viewBox="0 0 18 17" fill="none" xmlns="http://www.w3.org/2000/svg">
<path id="Vector" d="M15.4137 0.00347633C15.2952 0.019557 15.1899 0.0780318 15.124 0.167206C14.6336 0.782653 13.8963 1.15982 12.9516 1.45365C12.0069 1.74749 10.8745 1.94338 9.67309 2.21382C7.2702 2.75325 4.56941 3.60991 2.68166 6.2018C0.993046 8.51156 1.64644 10.6459 2.97132 12.0727C3.63458 12.7861 4.44927 13.3401 5.23597 13.71C5.65071 13.9044 6.03583 14.0316 6.40779 14.1076C5.57665 14.7333 4.74387 15.2595 3.93248 15.6279C2.68988 16.1922 1.52465 16.3881 0.535508 16.1425C0.310031 16.087 0.0779709 16.2054 0.0154295 16.4057C-0.0471113 16.6059 0.0861998 16.8121 0.311677 16.8676C1.57731 17.1834 2.95486 16.9115 4.31431 16.2946C5.2623 15.8648 6.21029 15.2669 7.13195 14.552C7.2883 14.9774 7.53682 15.4174 7.98777 15.8151C8.66585 16.4115 9.73399 16.8442 11.2926 16.8442C15.0615 16.8442 21.314 11.8168 15.8614 0.237375C15.7906 0.07657 15.6063 -0.0199136 15.4137 0.00347633ZM15.2689 1.04433C20.1356 11.947 14.1316 16.0957 11.2926 16.0957C9.90186 16.0957 9.09376 15.7405 8.58027 15.2888C8.13919 14.9014 7.91865 14.4204 7.80344 13.9906C7.97461 13.8459 8.14907 13.7085 8.31694 13.5579C10.8894 11.2496 13.1491 8.19287 14.2946 5.64045C14.3522 5.51619 14.3308 5.37439 14.2386 5.26767C14.1464 5.16095 13.9967 5.10686 13.8469 5.12587C13.6955 5.1478 13.5687 5.24282 13.5177 5.37146C12.4298 7.7967 10.208 10.8023 7.72444 13.0317C7.55163 13.1866 7.37224 13.3284 7.19778 13.4761C6.86862 13.4805 6.26789 13.3547 5.63096 13.055C4.93807 12.7305 4.19745 12.2291 3.61648 11.6049C2.45618 10.355 1.8785 8.68113 3.39265 6.61113C5.12899 4.22536 7.52365 3.46518 9.87059 2.93891C11.0441 2.67577 12.1994 2.4755 13.2281 2.15535C14.0131 1.91122 14.6928 1.53259 15.2689 1.04433Z" fill="var(--fill-0, black)"/>
</svg>
