<svg preserveAspectRatio="none" width="100%" height="100%" overflow="visible" style="display: block;" viewBox="0 0 20 20" fill="none" xmlns="http://www.w3.org/2000/svg">
<g id="list">
<path id="Vector" d="M1.12499 2.8C0.93437 2.83594 0.79687 3.00469 0.799995 3.2V4.8C0.799995 5.02031 0.979683 5.2 1.19999 5.2H2.8C3.02031 5.2 3.2 5.02031 3.2 4.8V3.2C3.2 2.97969 3.02031 2.8 2.8 2.8H1.19999C1.18749 2.8 1.17499 2.8 1.16249 2.8C1.14999 2.8 1.13749 2.8 1.12499 2.8ZM1.59999 3.6H2.4V4.4H1.59999V3.6ZM4.2875 3.6C4.06718 3.63125 3.9125 3.83594 3.94375 4.05625C3.975 4.27656 4.17968 4.43125 4.4 4.4H18.8C18.9437 4.40156 19.0781 4.32656 19.1516 4.20156C19.2234 4.07656 19.2234 3.92344 19.1516 3.79844C19.0781 3.67344 18.9437 3.59844 18.8 3.6H4.4C4.3875 3.6 4.375 3.6 4.3625 3.6C4.35 3.6 4.3375 3.6 4.325 3.6C4.3125 3.6 4.3 3.6 4.2875 3.6ZM1.12499 6.8C0.93437 6.83594 0.79687 7.00469 0.799995 7.2V8.8C0.799995 9.02031 0.979683 9.2 1.19999 9.2H2.8C3.02031 9.2 3.2 9.02031 3.2 8.8V7.2C3.2 6.97969 3.02031 6.8 2.8 6.8H1.19999C1.18749 6.8 1.17499 6.8 1.16249 6.8C1.14999 6.8 1.13749 6.8 1.12499 6.8ZM1.59999 7.6H2.4V8.4H1.59999V7.6ZM4.2875 7.6C4.06718 7.63125 3.9125 7.83594 3.94375 8.05625C3.975 8.27656 4.17968 8.43125 4.4 8.4H18.8C18.9437 8.40156 19.0781 8.32656 19.1516 8.20156C19.2234 8.07656 19.2234 7.92344 19.1516 7.79844C19.0781 7.67344 18.9437 7.59844 18.8 7.6H4.4C4.3875 7.6 4.375 7.6 4.3625 7.6C4.35 7.6 4.3375 7.6 4.325 7.6C4.3125 7.6 4.3 7.6 4.2875 7.6ZM1.12499 10.8C0.93437 10.8359 0.79687 11.0047 0.799995 11.2V12.8C0.799995 13.0203 0.979683 13.2 1.19999 13.2H2.8C3.02031 13.2 3.2 13.0203 3.2 12.8V11.2C3.2 10.9797 3.02031 10.8 2.8 10.8H1.19999C1.18749 10.8 1.17499 10.8 1.16249 10.8C1.14999 10.8 1.13749 10.8 1.12499 10.8ZM1.59999 11.6H2.4V12.4H1.59999V11.6ZM4.2875 11.6C4.06718 11.6313 3.9125 11.8359 3.94375 12.0563C3.975 12.2766 4.17968 12.4313 4.4 12.4H18.8C18.9437 12.4016 19.0781 12.3266 19.1516 12.2016C19.2234 12.0766 19.2234 11.9234 19.1516 11.7984C19.0781 11.6734 18.9437 11.5984 18.8 11.6H4.4C4.3875 11.6 4.375 11.6 4.3625 11.6C4.35 11.6 4.3375 11.6 4.325 11.6C4.3125 11.6 4.3 11.6 4.2875 11.6ZM1.12499 14.8C0.93437 14.8359 0.79687 15.0047 0.799995 15.2V16.8C0.799995 17.0203 0.979683 17.2 1.19999 17.2H2.8C3.02031 17.2 3.2 17.0203 3.2 16.8V15.2C3.2 14.9797 3.02031 14.8 2.8 14.8H1.19999C1.18749 14.8 1.17499 14.8 1.16249 14.8C1.14999 14.8 1.13749 14.8 1.12499 14.8ZM1.59999 15.6H2.4V16.4H1.59999V15.6ZM4.2875 15.6C4.06718 15.6313 3.9125 15.8359 3.94375 16.0563C3.975 16.2766 4.17968 16.4313 4.4 16.4H18.8C18.9437 16.4016 19.0781 16.3266 19.1516 16.2016C19.2234 16.0766 19.2234 15.9234 19.1516 15.7984C19.0781 15.6734 18.9437 15.5984 18.8 15.6H4.4C4.3875 15.6 4.375 15.6 4.3625 15.6C4.35 15.6 4.3375 15.6 4.325 15.6C4.3125 15.6 4.3 15.6 4.2875 15.6Z" fill="var(--fill-0, black)"/>
</g>
</svg>
