<svg preserveAspectRatio="none" width="100%" height="100%" overflow="visible" style="display: block;" viewBox="0 0 20 20" fill="none" xmlns="http://www.w3.org/2000/svg">
<g id="login" clip-path="url(#clip0_0_9)">
<path id="Vector" d="M10 0.8C6.1032 0.8 2.76943 3.22767 1.43049 6.65469C1.40855 6.70411 1.39685 6.75747 1.3961 6.81153C1.39536 6.8656 1.40559 6.91926 1.42616 6.96927C1.44674 7.01927 1.47724 7.06459 1.51582 7.10248C1.55441 7.14036 1.60027 7.17003 1.65064 7.1897C1.70101 7.20936 1.75485 7.2186 1.8089 7.21688C1.86294 7.21515 1.91608 7.20248 1.96509 7.17964C2.0141 7.15679 2.05798 7.12425 2.09406 7.08398C2.13014 7.0437 2.15769 6.99653 2.17502 6.94531C3.39689 3.81793 6.43525 1.6 10 1.6C14.6438 1.6 18.4 5.35619 18.4 10C18.4 14.6438 14.6438 18.4 10 18.4C6.43525 18.4 3.39689 16.1821 2.17502 13.0547C2.15769 13.0035 2.13014 12.9563 2.09406 12.916C2.05798 12.8757 2.0141 12.8432 1.96509 12.8204C1.91608 12.7975 1.86294 12.7849 1.8089 12.7831C1.75485 12.7814 1.70101 12.7906 1.65064 12.8103C1.60027 12.83 1.55441 12.8596 1.51582 12.8975C1.47724 12.9354 1.44674 12.9807 1.42616 13.0307C1.40559 13.0807 1.39536 13.1344 1.3961 13.1885C1.39685 13.2425 1.40855 13.2959 1.43049 13.3453C2.76943 16.7723 6.1032 19.2 10 19.2C15.0762 19.2 19.2 15.0762 19.2 10C19.2 4.92381 15.0762 0.8 10 0.8ZM10.3961 6.39609C10.3165 6.39611 10.2388 6.41987 10.1728 6.46431C10.1068 6.50876 10.0555 6.57188 10.0256 6.6456C9.99564 6.71933 9.98837 6.80031 10.0047 6.87819C10.021 6.95607 10.0602 7.02731 10.1172 7.08281L12.6344 9.6H1.20002C1.14702 9.59925 1.09439 9.60904 1.04521 9.62881C0.996019 9.64857 0.951251 9.67792 0.913503 9.71514C0.875755 9.75235 0.845781 9.7967 0.825322 9.84561C0.804862 9.89451 0.794327 9.94699 0.794327 10C0.794327 10.053 0.804862 10.1055 0.825322 10.1544C0.845781 10.2033 0.875755 10.2476 0.913503 10.2849C0.951251 10.3221 0.996019 10.3514 1.04521 10.3712C1.09439 10.391 1.14702 10.4007 1.20002 10.4H12.6344L10.1172 12.9172C10.0788 12.954 10.0482 12.9982 10.0271 13.047C10.0059 13.0959 9.99479 13.1485 9.99425 13.2017C9.99371 13.2549 10.0038 13.3077 10.0239 13.357C10.044 13.4062 10.0738 13.451 10.1114 13.4886C10.149 13.5263 10.1938 13.556 10.2431 13.5761C10.2923 13.5962 10.3451 13.6063 10.3983 13.6058C10.4516 13.6052 10.5041 13.5941 10.553 13.573C10.6018 13.5519 10.646 13.5212 10.6828 13.4828L13.8828 10.2828C13.9578 10.2078 13.9999 10.1061 13.9999 10C13.9999 9.89393 13.9578 9.7922 13.8828 9.71719L10.6828 6.51719C10.6456 6.47887 10.601 6.44841 10.5517 6.42761C10.5025 6.40681 10.4496 6.3961 10.3961 6.39609Z" fill="var(--fill-0, black)"/>
</g>
<defs>
<clipPath id="clip0_0_9">
<rect width="20" height="20" fill="white"/>
</clipPath>
</defs>
</svg>
