<svg preserveAspectRatio="none" width="100%" height="100%" overflow="visible" style="display: block;" viewBox="0 0 20 20" fill="none" xmlns="http://www.w3.org/2000/svg">
<g id="logout" clip-path="url(#clip0_0_9)">
<path id="Vector" d="M10 0.8C4.92381 0.8 0.8 4.92381 0.8 10C0.8 15.0762 4.92381 19.2 10 19.2C13.0441 19.2 15.7466 17.7179 17.4203 15.4367C17.4533 15.3945 17.4774 15.3462 17.4914 15.2945C17.5053 15.2428 17.5087 15.1888 17.5014 15.1358C17.4941 15.0828 17.4762 15.0317 17.4488 14.9857C17.4214 14.9397 17.385 14.8997 17.3419 14.868C17.2988 14.8363 17.2497 14.8136 17.1976 14.8012C17.1455 14.7889 17.0915 14.7871 17.0387 14.7959C16.9859 14.8048 16.9354 14.8242 16.8903 14.853C16.8451 14.8817 16.8062 14.9192 16.7758 14.9633C15.2471 17.0469 12.7847 18.4 10 18.4C5.35619 18.4 1.6 14.6438 1.6 10C1.6 5.35619 5.35619 1.6 10 1.6C12.7847 1.6 15.2471 2.95309 16.7758 5.03672C16.8062 5.08079 16.8451 5.1183 16.8903 5.14705C16.9354 5.1758 16.9859 5.19518 17.0387 5.20407C17.0915 5.21295 17.1455 5.21115 17.1976 5.19877C17.2497 5.18638 17.2988 5.16367 17.3419 5.13198C17.385 5.10029 17.4214 5.06026 17.4488 5.01426C17.4762 4.96827 17.4941 4.91724 17.5014 4.86421C17.5087 4.81118 17.5053 4.75722 17.4914 4.70553C17.4774 4.65384 17.4533 4.60547 17.4203 4.56328C15.7466 2.28211 13.0441 0.8 10 0.8ZM15.5961 6.39609C15.5165 6.39611 15.4388 6.41987 15.3728 6.46431C15.3068 6.50876 15.2555 6.57188 15.2256 6.6456C15.1956 6.71933 15.1883 6.80031 15.2047 6.87819C15.221 6.95607 15.2602 7.02731 15.3172 7.08281L17.8344 9.6H9.2C9.147 9.59925 9.09437 9.60904 9.04518 9.62881C8.996 9.64857 8.95123 9.67792 8.91348 9.71514C8.87573 9.75235 8.84576 9.7967 8.8253 9.84561C8.80484 9.89451 8.7943 9.94699 8.7943 10C8.7943 10.053 8.80484 10.1055 8.8253 10.1544C8.84576 10.2033 8.87573 10.2476 8.91348 10.2849C8.95123 10.3221 8.996 10.3514 9.04518 10.3712C9.09437 10.391 9.147 10.4007 9.2 10.4H17.8344L15.3172 12.9172C15.2788 12.954 15.2481 12.9982 15.227 13.047C15.2059 13.0959 15.1948 13.1485 15.1942 13.2017C15.1937 13.2549 15.2038 13.3077 15.2239 13.357C15.244 13.4062 15.2737 13.451 15.3114 13.4886C15.349 13.5263 15.3938 13.556 15.443 13.5761C15.4923 13.5962 15.5451 13.6063 15.5983 13.6058C15.6515 13.6052 15.7041 13.5941 15.753 13.573C15.8018 13.5519 15.846 13.5212 15.8828 13.4828L19.0477 10.318C19.0967 10.2806 19.1364 10.2324 19.1637 10.1771C19.191 10.1219 19.2051 10.0611 19.2051 9.99942C19.205 9.93778 19.1907 9.877 19.1632 9.82181C19.1358 9.76662 19.096 9.71851 19.0469 9.68125L15.8828 6.51719C15.8455 6.47887 15.801 6.44841 15.7517 6.42761C15.7025 6.40681 15.6496 6.3961 15.5961 6.39609Z" fill="var(--fill-0, black)"/>
</g>
<defs>
<clipPath id="clip0_0_9">
<rect width="20" height="20" fill="white"/>
</clipPath>
</defs>
</svg>
