<svg preserveAspectRatio="none" width="100%" height="100%" overflow="visible" style="display: block;" viewBox="0 0 20 20" fill="none" xmlns="http://www.w3.org/2000/svg">
<g id="menu-grid">
<path id="Vector" d="M4 1.6C2.67925 1.6 1.6 2.67925 1.6 4C1.6 5.32075 2.67925 6.4 4 6.4C5.32075 6.4 6.4 5.32075 6.4 4C6.4 2.67925 5.32075 1.6 4 1.6ZM10 1.6C8.67925 1.6 7.6 2.67925 7.6 4C7.6 5.32075 8.67925 6.4 10 6.4C11.3207 6.4 12.4 5.32075 12.4 4C12.4 2.67925 11.3207 1.6 10 1.6ZM16 1.6C14.6793 1.6 13.6 2.67925 13.6 4C13.6 5.32075 14.6793 6.4 16 6.4C17.3207 6.4 18.4 5.32075 18.4 4C18.4 2.67925 17.3207 1.6 16 1.6ZM4 2.4C4.88839 2.4 5.6 3.11161 5.6 4C5.6 4.88839 4.88839 5.6 4 5.6C3.11161 5.6 2.4 4.88839 2.4 4C2.4 3.11161 3.11161 2.4 4 2.4ZM10 2.4C10.8884 2.4 11.6 3.11161 11.6 4C11.6 4.88839 10.8884 5.6 10 5.6C9.11161 5.6 8.4 4.88839 8.4 4C8.4 3.11161 9.11161 2.4 10 2.4ZM16 2.4C16.8884 2.4 17.6 3.11161 17.6 4C17.6 4.88839 16.8884 5.6 16 5.6C15.1116 5.6 14.4 4.88839 14.4 4C14.4 3.11161 15.1116 2.4 16 2.4ZM4 7.6C2.67925 7.6 1.6 8.67925 1.6 10C1.6 11.3207 2.67925 12.4 4 12.4C5.32075 12.4 6.4 11.3207 6.4 10C6.4 8.67925 5.32075 7.6 4 7.6ZM10 7.6C8.67925 7.6 7.6 8.67925 7.6 10C7.6 11.3207 8.67925 12.4 10 12.4C11.3207 12.4 12.4 11.3207 12.4 10C12.4 8.67925 11.3207 7.6 10 7.6ZM16 7.6C14.6793 7.6 13.6 8.67925 13.6 10C13.6 11.3207 14.6793 12.4 16 12.4C17.3207 12.4 18.4 11.3207 18.4 10C18.4 8.67925 17.3207 7.6 16 7.6ZM4 8.4C4.88839 8.4 5.6 9.11161 5.6 10C5.6 10.8884 4.88839 11.6 4 11.6C3.11161 11.6 2.4 10.8884 2.4 10C2.4 9.11161 3.11161 8.4 4 8.4ZM10 8.4C10.8884 8.4 11.6 9.11161 11.6 10C11.6 10.8884 10.8884 11.6 10 11.6C9.11161 11.6 8.4 10.8884 8.4 10C8.4 9.11161 9.11161 8.4 10 8.4ZM16 8.4C16.8884 8.4 17.6 9.11161 17.6 10C17.6 10.8884 16.8884 11.6 16 11.6C15.1116 11.6 14.4 10.8884 14.4 10C14.4 9.11161 15.1116 8.4 16 8.4ZM4 13.6C2.67925 13.6 1.6 14.6793 1.6 16C1.6 17.3207 2.67925 18.4 4 18.4C5.32075 18.4 6.4 17.3207 6.4 16C6.4 14.6793 5.32075 13.6 4 13.6ZM10 13.6C8.67925 13.6 7.6 14.6793 7.6 16C7.6 17.3207 8.67925 18.4 10 18.4C11.3207 18.4 12.4 17.3207 12.4 16C12.4 14.6793 11.3207 13.6 10 13.6ZM16 13.6C14.6793 13.6 13.6 14.6793 13.6 16C13.6 17.3207 14.6793 18.4 16 18.4C17.3207 18.4 18.4 17.3207 18.4 16C18.4 14.6793 17.3207 13.6 16 13.6ZM4 14.4C4.88839 14.4 5.6 15.1116 5.6 16C5.6 16.8884 4.88839 17.6 4 17.6C3.11161 17.6 2.4 16.8884 2.4 16C2.4 15.1116 3.11161 14.4 4 14.4ZM10 14.4C10.8884 14.4 11.6 15.1116 11.6 16C11.6 16.8884 10.8884 17.6 10 17.6C9.11161 17.6 8.4 16.8884 8.4 16C8.4 15.1116 9.11161 14.4 10 14.4ZM16 14.4C16.8884 14.4 17.6 15.1116 17.6 16C17.6 16.8884 16.8884 17.6 16 17.6C15.1116 17.6 14.4 16.8884 14.4 16C14.4 15.1116 15.1116 14.4 16 14.4Z" fill="var(--fill-0, black)"/>
</g>
</svg>
