<svg preserveAspectRatio="none" width="100%" height="100%" overflow="visible" style="display: block;" viewBox="0 0 20 20" fill="none" xmlns="http://www.w3.org/2000/svg">
<g id="message">
<path id="Vector" d="M2.8 1.6C1.70156 1.6 0.8 2.50156 0.8 3.6V13.2C0.8 14.2984 1.70156 15.2 2.8 15.2H4.4375C4.49219 15.6812 4.48594 16.1266 4.3625 16.5C4.21094 16.9594 3.92813 17.3453 3.4 17.6625C3.25156 17.7562 3.18281 17.9359 3.22813 18.1047C3.27344 18.2734 3.425 18.3937 3.6 18.4C5.29688 18.4 7.24219 17.5141 8.225 15.2H17.2C18.2984 15.2 19.2 14.2984 19.2 13.2V3.6C19.2 2.50156 18.2984 1.6 17.2 1.6H2.8ZM2.8 2.4H17.2C17.8625 2.4 18.4 2.9375 18.4 3.6V13.2C18.4 13.8625 17.8625 14.4 17.2 14.4H8C7.83281 14.4 7.68281 14.5047 7.625 14.6625C7.00313 16.3594 5.89219 17.1672 4.7375 17.4625C4.89375 17.2391 5.04219 17.0031 5.125 16.75C5.33281 16.1187 5.31563 15.4281 5.1875 14.725C5.15156 14.5391 4.99063 14.4031 4.8 14.4H2.8C2.1375 14.4 1.6 13.8625 1.6 13.2V3.6C1.6 2.9375 2.1375 2.4 2.8 2.4Z" fill="var(--fill-0, black)"/>
</g>
</svg>
