<svg preserveAspectRatio="none" width="100%" height="100%" overflow="visible" style="display: block;" viewBox="0 0 20 20" fill="none" xmlns="http://www.w3.org/2000/svg">
<g id="message-text">
<path id="Vector" d="M2.8 1.6C1.70156 1.6 0.8 2.50156 0.8 3.6V13.2C0.8 14.2984 1.70156 15.2 2.8 15.2H4.43438C4.48906 15.6797 4.48281 16.1266 4.36094 16.5C4.20781 16.9578 3.92344 17.3391 3.39375 17.6562C3.24063 17.75 3.16719 17.9328 3.21563 18.1062C3.2625 18.2797 3.42031 18.4 3.6 18.4C5.29844 18.4 7.25 17.5172 8.23125 15.2H17.2C18.2984 15.2 19.2 14.2984 19.2 13.2V3.6C19.2 2.50156 18.2984 1.6 17.2 1.6H2.8ZM2.8 2.4H17.2C17.8625 2.4 18.4 2.9375 18.4 3.6V13.2C18.4 13.8625 17.8625 14.4 17.2 14.4H8C7.83281 14.4 7.68125 14.5047 7.625 14.6625C7.00156 16.3625 5.8875 17.1656 4.73125 17.4609C4.88906 17.2344 5.03594 17.0047 5.11875 16.75C5.32813 16.1203 5.32188 15.4312 5.19375 14.7281C5.15938 14.5375 4.99375 14.4 4.8 14.4H2.8C2.1375 14.4 1.6 13.8625 1.6 13.2V3.6C1.6 2.9375 2.1375 2.4 2.8 2.4ZM4 4.4C3.77969 4.4 3.6 4.57969 3.6 4.8C3.6 5.02031 3.77969 5.2 4 5.2C4.22031 5.2 4.4 5.02031 4.4 4.8C4.4 4.57969 4.22031 4.4 4 4.4ZM6.4 4.4C6.25625 4.39844 6.12188 4.47344 6.04844 4.59844C5.97656 4.72344 5.97656 4.87656 6.04844 5.00156C6.12188 5.12656 6.25625 5.20156 6.4 5.2H16C16.1438 5.20156 16.2781 5.12656 16.3516 5.00156C16.4234 4.87656 16.4234 4.72344 16.3516 4.59844C16.2781 4.47344 16.1438 4.39844 16 4.4H6.4ZM4 6.8C3.77969 6.8 3.6 6.97969 3.6 7.2C3.6 7.42031 3.77969 7.6 4 7.6C4.22031 7.6 4.4 7.42031 4.4 7.2C4.4 6.97969 4.22031 6.8 4 6.8ZM6.4 6.8C6.25625 6.79844 6.12188 6.87344 6.04844 6.99844C5.97656 7.12344 5.97656 7.27656 6.04844 7.40156C6.12188 7.52656 6.25625 7.60156 6.4 7.6H16C16.1438 7.60156 16.2781 7.52656 16.3516 7.40156C16.4234 7.27656 16.4234 7.12344 16.3516 6.99844C16.2781 6.87344 16.1438 6.79844 16 6.8H6.4ZM4 9.2C3.77969 9.2 3.6 9.37969 3.6 9.6C3.6 9.82031 3.77969 10 4 10C4.22031 10 4.4 9.82031 4.4 9.6C4.4 9.37969 4.22031 9.2 4 9.2ZM6.4 9.2C6.25625 9.19844 6.12188 9.27344 6.04844 9.39844C5.97656 9.52344 5.97656 9.67656 6.04844 9.80156C6.12188 9.92656 6.25625 10.0016 6.4 10H16C16.1438 10.0016 16.2781 9.92656 16.3516 9.80156C16.4234 9.67656 16.4234 9.52344 16.3516 9.39844C16.2781 9.27344 16.1438 9.19844 16 9.2H6.4ZM4 11.6C3.77969 11.6 3.6 11.7797 3.6 12C3.6 12.2203 3.77969 12.4 4 12.4C4.22031 12.4 4.4 12.2203 4.4 12C4.4 11.7797 4.22031 11.6 4 11.6ZM6.4 11.6C6.25625 11.5984 6.12188 11.6734 6.04844 11.7984C5.97656 11.9234 5.97656 12.0766 6.04844 12.2016C6.12188 12.3266 6.25625 12.4016 6.4 12.4H13.2C13.3438 12.4016 13.4781 12.3266 13.5516 12.2016C13.6234 12.0766 13.6234 11.9234 13.5516 11.7984C13.4781 11.6734 13.3438 11.5984 13.2 11.6H6.4Z" fill="var(--fill-0, black)"/>
</g>
</svg>
