<svg preserveAspectRatio="none" width="100%" height="100%" overflow="visible" style="display: block;" viewBox="0 0 20 20" fill="none" xmlns="http://www.w3.org/2000/svg">
<g id="mobile">
<path id="Vector" d="M7.125 1.2C5.85781 1.2 4.8 2.35469 4.8 3.6V16.4C4.8 17.1484 5.16719 17.7578 5.6375 18.1625C6.10781 18.5672 6.67344 18.8 7.2 18.8H12.9625C14.1859 18.8 15.2 17.7859 15.2 16.5625V3.4375C15.2 2.21406 14.1859 1.2 12.9625 1.2H7.125ZM7.125 2H12.9625C13.7391 2 14.4 2.66094 14.4 3.4375V16.5625C14.4 17.3391 13.7391 18 12.9625 18H7.2C6.92656 18 6.49219 17.8469 6.1625 17.5625C5.83281 17.2781 5.6 16.8906 5.6 16.4V3.6C5.6 2.84531 6.39219 2 7.125 2ZM6.725 3.2C6.53437 3.23594 6.39687 3.40469 6.4 3.6V16C6.4 16.2203 6.57969 16.4 6.8 16.4H13.2C13.4203 16.4 13.6 16.2203 13.6 16V3.6C13.6 3.37969 13.4203 3.2 13.2 3.2H6.8C6.7875 3.2 6.775 3.2 6.7625 3.2C6.75 3.2 6.7375 3.2 6.725 3.2ZM7.2 4H12.8V15.6H7.2V4ZM10 16.6C9.66875 16.6 9.4 16.8687 9.4 17.2C9.4 17.5312 9.66875 17.8 10 17.8C10.3312 17.8 10.6 17.5312 10.6 17.2C10.6 16.8687 10.3312 16.6 10 16.6Z" fill="var(--fill-0, black)"/>
</g>
</svg>
