<svg preserveAspectRatio="none" width="100%" height="100%" overflow="visible" style="display: block;" viewBox="0 0 20 20" fill="none" xmlns="http://www.w3.org/2000/svg">
<g id="more">
<path id="Vector" d="M3.6 7.6C2.27969 7.6 1.2 8.67969 1.2 10C1.2 11.3203 2.27969 12.4 3.6 12.4C4.92031 12.4 6 11.3203 6 10C6 8.67969 4.92031 7.6 3.6 7.6ZM10 7.6C8.67969 7.6 7.6 8.67969 7.6 10C7.6 11.3203 8.67969 12.4 10 12.4C11.3203 12.4 12.4 11.3203 12.4 10C12.4 8.67969 11.3203 7.6 10 7.6ZM16.4 7.6C15.0797 7.6 14 8.67969 14 10C14 11.3203 15.0797 12.4 16.4 12.4C17.7203 12.4 18.8 11.3203 18.8 10C18.8 8.67969 17.7203 7.6 16.4 7.6ZM3.6 8.4C4.48906 8.4 5.2 9.11094 5.2 10C5.2 10.8891 4.48906 11.6 3.6 11.6C2.71094 11.6 2 10.8891 2 10C2 9.11094 2.71094 8.4 3.6 8.4ZM10 8.4C10.8891 8.4 11.6 9.11094 11.6 10C11.6 10.8891 10.8891 11.6 10 11.6C9.11094 11.6 8.4 10.8891 8.4 10C8.4 9.11094 9.11094 8.4 10 8.4ZM16.4 8.4C17.2891 8.4 18 9.11094 18 10C18 10.8891 17.2891 11.6 16.4 11.6C15.5109 11.6 14.8 10.8891 14.8 10C14.8 9.11094 15.5109 8.4 16.4 8.4Z" fill="var(--fill-0, black)"/>
</g>
</svg>
