<svg preserveAspectRatio="none" width="100%" height="100%" overflow="visible" style="display: block;" viewBox="0 0 20 20" fill="none" xmlns="http://www.w3.org/2000/svg">
<g id="move">
<path id="Vector" d="M10 1.45938L7.71875 3.71563C7.61406 3.81563 7.57031 3.96406 7.60625 4.10469C7.64219 4.24531 7.75156 4.35469 7.89063 4.39219C8.03125 4.42969 8.17969 4.3875 8.28125 4.28438L9.6 2.98125V7.2C9.59844 7.34375 9.67344 7.47813 9.79844 7.55156C9.92344 7.62344 10.0766 7.62344 10.2016 7.55156C10.3266 7.47813 10.4016 7.34375 10.4 7.2V2.98125L11.7188 4.28438C11.8203 4.3875 11.9687 4.42969 12.1094 4.39219C12.2484 4.35469 12.3578 4.24531 12.3938 4.10469C12.4297 3.96406 12.3859 3.81563 12.2813 3.71563L10 1.45938ZM3.97813 7.60625C3.875 7.61094 3.77656 7.65469 3.70469 7.72969L1.45 10.0109L3.70469 12.2922C3.80469 12.3969 3.95313 12.4406 4.09375 12.4047C4.23438 12.3688 4.34375 12.2594 4.38125 12.1203C4.41875 11.9797 4.37656 11.8313 4.27344 11.7297L2.96875 10.4109H7.18906C7.33281 10.4125 7.46719 10.3375 7.54063 10.2125C7.6125 10.0875 7.6125 9.93438 7.54063 9.80938C7.46719 9.68438 7.33281 9.60938 7.18906 9.61094H2.96875L4.27344 8.29219C4.39063 8.17656 4.42656 8 4.36094 7.84844C4.29531 7.69688 4.14375 7.60156 3.97813 7.60625ZM16.0094 7.60625C15.8469 7.60625 15.7 7.70469 15.6375 7.85469C15.575 8.00469 15.6109 8.17813 15.7266 8.29219L17.0313 9.61094H12.8109C12.6672 9.60938 12.5328 9.68438 12.4594 9.80938C12.3875 9.93438 12.3875 10.0875 12.4594 10.2125C12.5328 10.3375 12.6672 10.4125 12.8109 10.4109H17.0313L15.7266 11.7297C15.6234 11.8313 15.5813 11.9797 15.6188 12.1203C15.6563 12.2594 15.7656 12.3688 15.9063 12.4047C16.0469 12.4406 16.1953 12.3969 16.2953 12.2922L18.5516 10.0109L16.2953 7.72969C16.2203 7.65156 16.1172 7.60781 16.0094 7.60625ZM9.99375 12.4172C9.77344 12.4203 9.59688 12.6016 9.6 12.8234V17.0422L8.28125 15.7375C8.20625 15.6609 8.10156 15.6188 7.99375 15.6188C7.83125 15.6203 7.68438 15.7188 7.625 15.8703C7.56406 16.0219 7.60156 16.1938 7.71875 16.3063L10 18.5625L12.2813 16.3063C12.3859 16.2078 12.4297 16.0578 12.3938 15.9188C12.3578 15.7781 12.2484 15.6688 12.1094 15.6313C11.9687 15.5938 11.8203 15.6344 11.7188 15.7375L10.4 17.0422V12.8234C10.4016 12.7141 10.3594 12.6109 10.2828 12.5344C10.2063 12.4578 10.1016 12.4156 9.99375 12.4172Z" fill="var(--fill-0, black)"/>
</g>
</svg>
