<svg preserveAspectRatio="none" width="100%" height="100%" overflow="visible" style="display: block;" viewBox="0 0 18 18" fill="none" xmlns="http://www.w3.org/2000/svg">
<g id="Group 2">
<g id="Group 3">
<path id="Subtract" d="M9 0C13.9708 0 17.9998 4.0293 18 9C18 13.9709 13.9709 18 9 18C4.02993 17.9998 0 13.9708 0 9C0.000235136 4.02941 4.03008 0.000155306 9 0ZM3.09277 4.67188C2.20178 5.8846 1.66904 7.37875 1.66895 9C1.66895 13.0484 4.95091 16.3319 9 16.332C10.6213 16.332 12.1158 15.7985 13.3291 14.9092L13.5469 14.75L13.3564 14.5605L3.44141 4.64551L3.25098 4.45605L3.09277 4.67188ZM8.63477 16.0918L8.28613 16.0654L8.28418 16.0645C8.40027 16.0761 8.51709 16.0858 8.63477 16.0918ZM9 16.1016C9.19623 16.1016 9.3909 16.0939 9.58301 16.0781C9.39089 16.094 9.19625 16.1016 9 16.1016ZM7.99414 16.0283C7.97594 16.0257 7.95761 16.0242 7.93945 16.0215C7.95761 16.0242 7.97594 16.0257 7.99414 16.0283ZM7.62891 15.9678C7.61882 15.9658 7.60871 15.9639 7.59863 15.9619C7.60871 15.9639 7.61881 15.9658 7.62891 15.9678ZM7.00977 15.8164C6.98214 15.8084 6.95424 15.8013 6.92676 15.793C6.95424 15.8013 6.98214 15.8084 7.00977 15.8164ZM6.74707 15.7334C6.69262 15.7152 6.63784 15.6982 6.58398 15.6787C6.63784 15.6982 6.69262 15.7152 6.74707 15.7334ZM6.45508 15.6289C6.39359 15.6053 6.33213 15.5819 6.27148 15.5566C6.33213 15.5819 6.39359 15.6053 6.45508 15.6289ZM6.08789 15.4756C6.05146 15.4592 6.01462 15.4438 5.97852 15.4268C6.01462 15.4438 6.05146 15.4592 6.08789 15.4756ZM5.75391 15.3154C5.72917 15.3027 5.70425 15.2904 5.67969 15.2773C5.70425 15.2904 5.72917 15.3027 5.75391 15.3154ZM5.48633 15.1699C5.44654 15.1472 5.40649 15.125 5.36719 15.1016C5.40649 15.125 5.44654 15.1472 5.48633 15.1699ZM5.21582 15.0078C5.17219 14.9803 5.12892 14.9523 5.08594 14.9238C5.12891 14.9523 5.17219 14.9803 5.21582 15.0078ZM4.93555 14.8213C4.89059 14.7898 4.84595 14.758 4.80176 14.7256C4.84594 14.758 4.89059 14.7898 4.93555 14.8213ZM4.6748 14.6299C4.62756 14.5935 4.58048 14.557 4.53418 14.5195C4.58047 14.557 4.62756 14.5935 4.6748 14.6299ZM4.41895 14.4238C4.36977 14.3823 4.32146 14.3397 4.27344 14.2969C4.32145 14.3398 4.36977 14.3822 4.41895 14.4238ZM4.15039 14.1846C4.11356 14.1501 4.0771 14.1153 4.04102 14.0801C4.0771 14.1153 4.11357 14.1501 4.15039 14.1846ZM3.91992 13.959C3.87793 13.916 3.8368 13.8722 3.7959 13.8281C3.83679 13.8722 3.87793 13.916 3.91992 13.959ZM3.7002 13.7246C3.65701 13.6762 3.6151 13.6267 3.57324 13.5771C3.6151 13.6267 3.65702 13.6762 3.7002 13.7246ZM9 1.66895C7.36617 1.66901 5.86144 2.2088 4.64355 3.1123L4.42969 3.27246L4.61816 3.46191L14.7275 13.5723L14.8877 13.3564C15.7902 12.138 16.3311 10.6346 16.3311 9C16.3308 4.95099 13.0491 1.66895 9 1.66895ZM3.47559 13.46C3.43608 13.4111 3.3976 13.3614 3.35938 13.3115C3.39759 13.3614 3.43609 13.4111 3.47559 13.46ZM3.2793 13.2061C3.23817 13.1502 3.19869 13.0932 3.15918 13.0361C3.19869 13.0932 3.23818 13.1502 3.2793 13.2061ZM3.08105 12.9219C3.0464 12.8697 3.01279 12.8168 2.97949 12.7637C3.01278 12.8168 3.04641 12.8697 3.08105 12.9219ZM15.1377 12.5566C15.1223 12.5831 15.1066 12.6095 15.0908 12.6357C15.1066 12.6095 15.1223 12.5831 15.1377 12.5566ZM2.90039 12.6348C2.86742 12.5796 2.83521 12.5239 2.80371 12.4678C2.8352 12.5239 2.86743 12.5796 2.90039 12.6348ZM2.73438 12.3418C2.70454 12.286 2.67584 12.2295 2.64746 12.1729C2.67583 12.2295 2.70455 12.286 2.73438 12.3418ZM15.3838 12.0957C15.3755 12.1127 15.3668 12.1295 15.3584 12.1465C15.3668 12.1295 15.3755 12.1127 15.3838 12.0957ZM2.58203 12.041C2.55157 11.9769 2.52272 11.9119 2.49414 11.8467C2.52271 11.9119 2.55158 11.9769 2.58203 12.041ZM15.5078 11.8281C15.4894 11.8701 15.4703 11.9116 15.4512 11.9531C15.4703 11.9116 15.4894 11.8701 15.5078 11.8281ZM2.44434 11.7324C2.4142 11.6602 2.38619 11.5871 2.3584 11.5137C2.38619 11.5871 2.41421 11.6602 2.44434 11.7324ZM15.6084 11.5879C15.5925 11.6281 15.5762 11.6681 15.5596 11.708C15.5762 11.6681 15.5925 11.6281 15.6084 11.5879ZM15.7051 11.3252C15.6915 11.3639 15.6792 11.403 15.665 11.4414C15.6792 11.403 15.6915 11.3639 15.7051 11.3252ZM2.32324 11.4219C2.29387 11.3409 2.26672 11.259 2.24023 11.1768C2.26671 11.259 2.29388 11.3409 2.32324 11.4219ZM15.7939 11.0576C15.7814 11.0988 15.7682 11.1398 15.7549 11.1807C15.7682 11.1398 15.7814 11.0988 15.7939 11.0576ZM2.21289 11.0918C2.18469 11.0002 2.15932 10.9076 2.13477 10.8145C2.15931 10.9076 2.1847 11.0002 2.21289 11.0918ZM15.8877 10.7217C15.8686 10.7974 15.8477 10.8725 15.8262 10.9473C15.8477 10.8725 15.8686 10.7974 15.8877 10.7217ZM2.05078 10.4648C1.97509 10.104 1.92583 9.73321 1.90723 9.35449L1.89941 9C1.89941 9.502 1.95168 9.99227 2.05078 10.4648ZM15.9297 10.5391C15.9183 10.59 15.907 10.6409 15.8945 10.6914C15.907 10.6409 15.9183 10.59 15.9297 10.5391ZM15.9756 10.3213C15.9713 10.3438 15.9674 10.3663 15.9629 10.3887C15.9674 10.3663 15.9713 10.3438 15.9756 10.3213ZM16.0918 8.63477C16.0979 8.75575 16.1016 8.8775 16.1016 9L16.0947 9.2959C16.0988 9.19793 16.1006 9.099 16.1006 9C16.1006 8.87751 16.0979 8.75574 16.0918 8.63477ZM3.27832 4.80859C2.52277 5.83691 2.03428 7.07322 1.92383 8.41797L1.90527 8.70801C1.92121 8.31939 1.96842 7.93905 2.04492 7.56934C2.21694 6.73775 2.53542 5.95962 2.9707 5.26172C3.06747 5.10658 3.17036 4.95554 3.27832 4.80859ZM15.0732 5.31836C15.2512 5.61123 15.4092 5.91769 15.5439 6.23633C15.4542 6.02401 15.3534 5.81738 15.2441 5.61621L15.0732 5.31836ZM12.9707 3.1123C13.2541 3.30377 13.5231 3.51485 13.7754 3.74414L14.0215 3.97949C13.7806 3.73858 13.5224 3.51499 13.249 3.31055L12.9707 3.1123ZM11.7646 2.45801C11.9767 2.54772 12.1838 2.64672 12.3848 2.75586C12.1838 2.64673 11.9767 2.54771 11.7646 2.45801ZM10.4316 2.04297C10.2005 1.99568 9.96524 1.95979 9.72656 1.93555C9.96526 1.9598 10.2005 1.99567 10.4316 2.04297ZM2.11816 10.7559C2.09368 10.6596 2.07129 10.5626 2.05078 10.4648C2.07128 10.5626 2.09369 10.6596 2.11816 10.7559Z" fill="var(--fill-0, black)"/>
</g>
<path id="Subtract_2" d="M11.5147 13.5833C10.7785 14.124 9.87071 14.4446 8.88875 14.4446C6.43699 14.4445 4.44449 12.452 4.44441 10.0003C4.44453 9.25534 4.83771 8.34965 5.38387 7.45246L11.5147 13.5833ZM8.62996 3.44171C8.77441 3.29727 9.00407 3.29727 9.14852 3.44171C9.32731 3.61681 13.3337 7.62402 13.3341 10.0003C13.334 11.2402 12.8231 12.3616 12.002 13.1683L5.73738 6.90265C6.92618 5.14125 8.52112 3.54824 8.62996 3.44171Z" fill="var(--fill-0, black)"/>
</g>
</svg>
