<svg preserveAspectRatio="none" width="100%" height="100%" overflow="visible" style="display: block;" viewBox="0 0 20 20" fill="none" xmlns="http://www.w3.org/2000/svg">
<g id="palette">
<path id="Vector" d="M10.525 0C8.10313 0 5.76875 0.751562 4.0375 2.325C2.30625 3.89844 1.2 6.28438 1.2 9.475C1.2 14.6813 5.23281 20 10.9625 20H11.0375C11.0422 20 11.0453 20 11.05 20C12.2344 19.9781 13.3672 19.575 14.2125 18.8125C15.0578 18.05 15.6 16.925 15.6 15.525C15.6 14.7516 15.2328 14.1391 15.05 13.6625C15.05 13.6578 15.05 13.6547 15.05 13.65C14.775 12.9563 14.8609 12.6375 15.125 12.2875C15.3891 11.9375 15.9172 11.5906 16.525 11.15C17.7391 10.2672 19.2203 8.90938 19.2 5.9625C19.2 4.92813 18.6297 3.46563 17.2625 2.225C15.8953 0.984375 13.7266 0 10.525 0ZM10.525 0.8C13.5641 0.8 15.525 1.7125 16.7375 2.8125C17.95 3.9125 18.4 5.2375 18.4 5.9625C18.4188 8.65469 17.2156 9.65313 16.05 10.5C15.4672 10.9234 14.8859 11.2813 14.4875 11.8125C14.0906 12.3406 13.975 13.0766 14.3125 13.9375C14.3141 13.9406 14.3109 13.9469 14.3125 13.95C14.5281 14.5094 14.8 15.0219 14.8 15.525C14.8 16.725 14.3594 17.6078 13.675 18.225C12.9906 18.8422 12.0531 19.1813 11.0375 19.2H10.9625C5.73125 19.2 2 14.2688 2 9.475C2 6.46563 3.01563 4.32969 4.575 2.9125C6.13438 1.49531 8.26719 0.8 10.525 0.8ZM10.6 2C10.075 2 9.61406 2.28438 9.3 2.6875C8.98594 3.09063 8.8 3.61875 8.8 4.2C8.8 4.78125 8.98594 5.30938 9.3 5.7125C9.61406 6.11563 10.075 6.4 10.6 6.4C11.125 6.4 11.5859 6.11563 11.9 5.7125C12.2141 5.30938 12.4 4.78125 12.4 4.2C12.4 3.61875 12.2141 3.09063 11.9 2.6875C11.5859 2.28438 11.125 2 10.6 2ZM10.6 2.8C10.8469 2.8 11.0828 2.92656 11.275 3.175C11.4672 3.42344 11.6 3.7875 11.6 4.2C11.6 4.6125 11.4672 4.97656 11.275 5.225C11.0828 5.47344 10.8469 5.6 10.6 5.6C10.3531 5.6 10.1172 5.47344 9.925 5.225C9.73281 4.97656 9.6 4.6125 9.6 4.2C9.6 3.7875 9.73281 3.42344 9.925 3.175C10.1172 2.92656 10.3531 2.8 10.6 2.8ZM6.2 4C5.675 4 5.21406 4.28438 4.9 4.6875C4.58594 5.09063 4.4 5.61875 4.4 6.2C4.4 6.78125 4.58594 7.30938 4.9 7.7125C5.21406 8.11563 5.675 8.4 6.2 8.4C6.725 8.4 7.18594 8.11563 7.5 7.7125C7.81406 7.30938 8 6.78125 8 6.2C8 5.61875 7.81406 5.09063 7.5 4.6875C7.18594 4.28438 6.725 4 6.2 4ZM15 4C14.475 4 14.0141 4.28438 13.7 4.6875C13.3859 5.09063 13.2 5.61875 13.2 6.2C13.2 6.78125 13.3859 7.30938 13.7 7.7125C14.0141 8.11563 14.475 8.4 15 8.4C15.525 8.4 15.9859 8.11563 16.3 7.7125C16.6141 7.30938 16.8 6.78125 16.8 6.2C16.8 5.61875 16.6141 5.09063 16.3 4.6875C15.9859 4.28438 15.525 4 15 4ZM6.2 4.8C6.44688 4.8 6.68281 4.92656 6.875 5.175C7.06719 5.42344 7.2 5.7875 7.2 6.2C7.2 6.6125 7.06719 6.97656 6.875 7.225C6.68281 7.47344 6.44688 7.6 6.2 7.6C5.95313 7.6 5.71719 7.47344 5.525 7.225C5.33281 6.97656 5.2 6.6125 5.2 6.2C5.2 5.7875 5.33281 5.42344 5.525 5.175C5.71719 4.92656 5.95313 4.8 6.2 4.8ZM15 4.8C15.2469 4.8 15.4828 4.92656 15.675 5.175C15.8672 5.42344 16 5.7875 16 6.2C16 6.6125 15.8672 6.97656 15.675 7.225C15.4828 7.47344 15.2469 7.6 15 7.6C14.7531 7.6 14.5172 7.47344 14.325 7.225C14.1328 6.97656 14 6.6125 14 6.2C14 5.7875 14.1328 5.42344 14.325 5.175C14.5172 4.92656 14.7531 4.8 15 4.8ZM5.8 9.2C5.275 9.2 4.81406 9.48438 4.5 9.8875C4.18594 10.2906 4 10.8188 4 11.4C4 11.9813 4.18594 12.5094 4.5 12.9125C4.81406 13.3156 5.275 13.6 5.8 13.6C6.325 13.6 6.78594 13.3156 7.1 12.9125C7.41406 12.5094 7.6 11.9813 7.6 11.4C7.6 10.8188 7.41406 10.2906 7.1 9.8875C6.78594 9.48438 6.325 9.2 5.8 9.2ZM5.8 10C6.04688 10 6.28281 10.1266 6.475 10.375C6.66719 10.6234 6.8 10.9875 6.8 11.4C6.8 11.8125 6.66719 12.1766 6.475 12.425C6.28281 12.6734 6.04688 12.8 5.8 12.8C5.55313 12.8 5.31719 12.6734 5.125 12.425C4.93281 12.1766 4.8 11.8125 4.8 11.4C4.8 10.9875 4.93281 10.6234 5.125 10.375C5.31719 10.1266 5.55313 10 5.8 10ZM10.8 13.2C9.47031 13.2 8.4 14.2703 8.4 15.6C8.4 16.9297 9.47031 18 10.8 18C12.1297 18 13.2 16.9297 13.2 15.6C13.2 14.2703 12.1297 13.2 10.8 13.2ZM10.8 14C11.7109 14 12.4 14.6891 12.4 15.6C12.4 16.5109 11.7109 17.2 10.8 17.2C9.88906 17.2 9.2 16.5109 9.2 15.6C9.2 14.6891 9.88906 14 10.8 14Z" fill="var(--fill-0, black)"/>
</g>
</svg>
