<svg preserveAspectRatio="none" width="100%" height="100%" overflow="visible" style="display: block;" viewBox="0 0 20 20" fill="none" xmlns="http://www.w3.org/2000/svg">
<g id="people" clip-path="url(#clip0_0_9)">
<path id="Vector" d="M7.95 1.7625C6.08125 1.79688 4.8875 2.55156 4.375 3.725C3.88594 4.84219 3.99531 6.25312 4.35 7.7125C4.15938 7.93594 4.00781 8.23594 4.0625 8.6875C4.12188 9.17969 4.25781 9.52969 4.45 9.775C4.55625 9.90937 4.69531 9.92187 4.825 9.9875C4.89531 10.4062 5.0125 10.825 5.1875 11.175C5.2875 11.3766 5.40156 11.5625 5.5125 11.7125C5.5625 11.7797 5.63438 11.8187 5.6875 11.875C5.69063 12.3687 5.69219 12.7797 5.65 13.3C5.52031 13.6141 5.21719 13.8672 4.725 14.1125C4.21719 14.3656 3.55625 14.6 2.8875 14.8875C2.21875 15.175 1.53125 15.525 0.9875 16.075C0.44375 16.625 0.0593752 17.3797 3.72529e-09 18.375L-0.025 18.8H16.025L16 18.375C15.9578 17.6828 15.7625 17.1094 15.4625 16.6375H20.025L20 16.2125C19.9484 15.3609 19.6156 14.6984 19.15 14.225C18.6844 13.7516 18.1016 13.4562 17.5375 13.2125C16.9734 12.9687 16.4203 12.7859 16 12.575C15.5938 12.3719 15.3641 12.1672 15.2625 11.925C15.2297 11.5047 15.2219 11.1625 15.225 10.7625C15.2641 10.7187 15.3266 10.6875 15.3625 10.6375C15.4578 10.5062 15.5531 10.3469 15.6375 10.175C15.7797 9.88281 15.8766 9.5375 15.9375 9.1875C16.0422 9.12969 16.1531 9.12031 16.2375 9.0125C16.4094 8.79375 16.5234 8.49687 16.575 8.075V8.0625C16.6188 7.69687 16.5 7.45156 16.35 7.25C16.5156 6.70781 16.7188 5.85312 16.65 4.9625C16.6109 4.47187 16.4875 3.97656 16.1875 3.5625C15.9031 3.16875 15.4375 2.87969 14.85 2.775C14.4688 2.35156 13.8672 2.1625 13.1625 2.1625C12.1922 2.17969 11.4391 2.42031 10.8875 2.85C10.6359 2.69375 10.3422 2.57969 10.0125 2.5125C9.59219 1.96719 8.83594 1.7625 7.9625 1.7625H7.95ZM7.9625 2.5625C7.96719 2.5625 7.97031 2.5625 7.975 2.5625C8.77969 2.56563 9.30156 2.80156 9.45 3.0625L9.55 3.225L9.7375 3.25C10.2938 3.32656 10.6125 3.55156 10.8375 3.8625C11.0625 4.17344 11.1875 4.60781 11.225 5.0875C11.3 6.04687 11.0234 7.16406 10.85 7.6875L10.75 8L11.025 8.1625C11.0078 8.15156 11.1781 8.26719 11.1375 8.6C11.0906 8.99219 10.9969 9.19531 10.925 9.2875C10.8531 9.37969 10.8156 9.375 10.8125 9.375L10.475 9.4L10.4375 9.725C10.4 10.0719 10.2609 10.4937 10.1 10.825C10.0188 10.9906 9.93594 11.1359 9.8625 11.2375C9.78906 11.3391 9.71094 11.3953 9.75 11.375L9.5375 11.4875V11.725C9.5375 12.3047 9.51406 12.7797 9.575 13.45V13.5L9.6 13.55C9.82813 14.1641 10.3563 14.5469 10.9375 14.8375C11.5188 15.1281 12.1859 15.3422 12.8125 15.6125C13.3484 15.8437 13.8391 16.1187 14.2375 16.4625C14.2391 16.4641 14.2359 16.4734 14.2375 16.475C14.2563 16.4937 14.2781 16.5109 14.3 16.525C14.325 16.5547 14.3547 16.5797 14.3875 16.6C14.3891 16.6016 14.3984 16.5984 14.4 16.6C14.4125 16.6125 14.425 16.625 14.4375 16.6375C14.775 16.9797 14.9875 17.4328 15.1 18H0.9C1.0125 17.4344 1.22344 16.9797 1.5625 16.6375C1.98906 16.2062 2.57031 15.8828 3.2 15.6125C3.82969 15.3422 4.49219 15.1281 5.075 14.8375C5.65781 14.5469 6.19688 14.1641 6.425 13.55L6.45 13.45C6.51094 12.7797 6.4875 12.3047 6.4875 11.725V11.4875L6.275 11.375C6.31094 11.3937 6.225 11.3391 6.15 11.2375C6.075 11.1359 5.98281 10.9906 5.9 10.825C5.73438 10.4937 5.59844 10.0672 5.5625 9.725L5.525 9.4L5.1875 9.375C5.18438 9.375 5.14688 9.37969 5.075 9.2875C5.00313 9.19531 4.90938 8.99219 4.8625 8.6C4.82344 8.26719 4.99219 8.15156 4.975 8.1625L5.2375 8L5.1625 7.7125C4.78594 6.2625 4.72031 4.94531 5.1125 4.05C5.50313 3.15781 6.3 2.59688 7.9625 2.5625ZM13.1625 2.9625C13.1672 2.9625 13.1703 2.9625 13.175 2.9625C13.8406 2.96563 14.2563 3.1625 14.3625 3.35L14.4625 3.5125L14.65 3.55C15.1047 3.6125 15.3578 3.77656 15.5375 4.025C15.7172 4.27344 15.8188 4.62812 15.85 5.025C15.9125 5.81875 15.6813 6.76406 15.5375 7.2L15.4375 7.5L15.7125 7.6625C15.6766 7.64062 15.8188 7.71719 15.7875 7.975C15.7484 8.29844 15.6641 8.45937 15.6125 8.525C15.5609 8.59062 15.5484 8.57656 15.5625 8.575L15.225 8.6L15.2 8.925C15.1703 9.20625 15.0453 9.55156 14.9125 9.825C14.8453 9.96094 14.7844 10.0812 14.725 10.1625C14.6891 10.2109 14.6641 10.2469 14.65 10.2625H14.6375C14.6359 10.2641 14.6375 10.275 14.6375 10.275L14.425 10.375V10.6125C14.425 11.0984 14.4109 11.5062 14.4625 12.075V12.125L14.4875 12.175C14.6891 12.7141 15.1547 13.0391 15.65 13.2875C16.1453 13.5359 16.7 13.7234 17.225 13.95C17.75 14.1766 18.2266 14.4344 18.575 14.7875C18.8375 15.0547 19.0016 15.4094 19.1 15.8375H14.75C14.2578 15.4203 13.6891 15.1312 13.125 14.8875C12.4594 14.6 11.8063 14.3656 11.3 14.1125C10.8141 13.8687 10.5078 13.6219 10.375 13.3125C10.3313 12.7859 10.3344 12.3734 10.3375 11.875C10.3891 11.8187 10.4641 11.7797 10.5125 11.7125C10.6219 11.5609 10.7266 11.3766 10.825 11.175C10.9953 10.825 11.1188 10.4047 11.1875 9.9875C11.3125 9.92187 11.4469 9.90625 11.55 9.775C11.7422 9.52969 11.8781 9.17969 11.9375 8.6875C11.9906 8.25 11.8438 7.96094 11.6625 7.7375C11.8578 7.10312 12.1078 6.07812 12.025 5.025C11.9797 4.45 11.8328 3.87656 11.4875 3.4C11.4859 3.39688 11.4891 3.39063 11.4875 3.3875C11.8641 3.1375 12.4 2.97813 13.1625 2.9625Z" fill="var(--fill-0, black)"/>
</g>
<defs>
<clipPath id="clip0_0_9">
<rect width="20" height="20" fill="white"/>
</clipPath>
</defs>
</svg>
