<svg preserveAspectRatio="none" width="100%" height="100%" overflow="visible" style="display: block;" viewBox="0 0 20 20" fill="none" xmlns="http://www.w3.org/2000/svg">
<g id="pound" clip-path="url(#clip0_0_9)">
<path id="Vector" d="M10 0.8C4.92372 0.8 0.8 4.92372 0.8 10C0.8 15.0763 4.92372 19.2 10 19.2C15.0763 19.2 19.2 15.0763 19.2 10C19.2 4.92372 15.0763 0.8 10 0.8ZM10 1.6C14.6439 1.6 18.4 5.35607 18.4 10C18.4 14.6439 14.6439 18.4 10 18.4C5.35607 18.4 1.6 14.6439 1.6 10C1.6 5.35607 5.35607 1.6 10 1.6ZM9.83984 5.03984C9.47984 5.03984 9.08031 5.08 8.72031 5.2C8.36031 5.32 8.04016 5.48031 7.76016 5.72031C7.48016 5.92031 7.23969 6.20016 7.07969 6.56016C6.87969 6.92016 6.8 7.32 6.8 7.8C6.8 8.2 6.84 8.56031 7 8.92031C7.12 9.28031 7.32031 9.64016 7.52031 9.96016H6.72031V10.4H7.8C7.92 10.56 7.99969 10.7997 8.07969 11.0797C8.15969 11.3597 8.2 11.6 8.2 11.8C8.2 12.08 8.15969 12.3202 8.07969 12.5602C7.99969 12.8002 7.88016 13 7.76016 13.2C7.64016 13.4 7.47969 13.5602 7.27969 13.7602C7.11969 13.9602 6.92031 14.1197 6.72031 14.2797L7.2 15L7.56016 14.7602C7.68016 14.7202 7.75969 14.64 7.87969 14.6L8.23984 14.4797C8.35984 14.4397 8.51969 14.4398 8.67969 14.4398C8.95969 14.4398 9.2 14.4803 9.4 14.5203C9.64 14.6003 9.83984 14.6403 10.0398 14.7203C10.2398 14.8003 10.4397 14.8803 10.6797 14.9203C10.8797 14.9603 11.1598 15 11.4398 15C11.8798 15 12.2003 14.92 12.5203 14.8C12.8003 14.64 13.12 14.44 13.4 14.2L12.9602 13.5602C12.8002 13.7602 12.5597 13.9197 12.2797 14.0797C11.9997 14.2397 11.7198 14.3203 11.4398 14.3203C11.2398 14.3203 10.9998 14.2798 10.8398 14.2398C10.6398 14.1598 10.4797 14.1198 10.2797 14.0398C10.0797 13.9598 9.87969 13.8798 9.67969 13.8398C9.47969 13.7998 9.20031 13.7602 8.92031 13.7602C8.68031 13.7602 8.43984 13.7997 8.23984 13.8797C7.99984 13.9597 7.8 14.0802 7.6 14.1602L7.56016 14.1203C7.76016 14.0003 7.96031 13.7998 8.12031 13.6398C8.32031 13.4798 8.48 13.2797 8.6 13.0797C8.72 12.8797 8.84031 12.6798 8.92031 12.4398C9.00031 12.1998 9.03984 11.9603 9.03984 11.7203C9.03984 11.5203 9.00016 11.2798 8.96016 11.0398C8.88016 10.7598 8.80031 10.56 8.72031 10.4H10.6398V9.96016H8.47969C8.39969 9.76016 8.28 9.59984 8.2 9.43984L7.96016 8.96016C7.88016 8.84016 7.80016 8.63969 7.76016 8.47969C7.72016 8.31969 7.67969 8.11969 7.67969 7.87969C7.67969 7.51969 7.75969 7.24016 7.87969 6.96016C7.99969 6.72016 8.16016 6.48031 8.36016 6.32031C8.56016 6.12031 8.79969 6.00031 9.07969 5.92031C9.31969 5.84031 9.59969 5.8 9.87969 5.8C10.5997 5.8 11.1602 5.99969 11.5602 6.47969C11.9202 6.91969 12.1203 7.51984 12.1203 8.23984H12.9602C12.9602 7.23984 12.7202 6.43969 12.1602 5.87969C11.6002 5.31969 10.8398 5.03984 9.83984 5.03984Z" fill="var(--fill-0, black)"/>
</g>
<defs>
<clipPath id="clip0_0_9">
<rect width="20" height="20" fill="white"/>
</clipPath>
</defs>
</svg>
