<svg preserveAspectRatio="none" width="100%" height="100%" overflow="visible" style="display: block;" viewBox="0 0 18 16.2002" fill="none" xmlns="http://www.w3.org/2000/svg">
<path id="Union" d="M14.3184 0.000976562V4.47266H18V11.9727C17.9999 12.4153 17.8266 12.8411 17.5195 13.1543C17.2123 13.4673 16.7948 13.6443 16.3604 13.6445H14.3184V16.2002H3.68164V13.6445H1.63965C0.734086 13.6445 0.000177961 12.8953 0 11.9727V4.47266H3.68164V0L14.3184 0.000976562ZM4.7998 14.8945H13.0908V9.47461H4.90918L4.7998 14.8945ZM1.22754 11.9727C1.22772 12.2047 1.41187 12.3935 1.63965 12.3936H3.62305L3.68164 9.44922L3.70703 8.22461H14.3184V12.3936H16.3604L16.4404 12.3848C16.5194 12.3686 16.5935 12.3293 16.6514 12.2705C16.7283 12.1918 16.7724 12.0837 16.7725 11.9727V5.72363H1.22754V11.9727ZM15.4346 6.2998C15.7576 6.2998 16.0194 6.56179 16.0195 6.88477C16.0195 7.20785 15.7577 7.46973 15.4346 7.46973C15.1117 7.46949 14.8496 7.20771 14.8496 6.88477C14.8497 6.56193 15.1118 6.30004 15.4346 6.2998ZM4.90918 4.47266H13.0908V1.13965H4.90918V4.47266Z" fill="var(--fill-0, black)"/>
</svg>
