<svg preserveAspectRatio="none" width="100%" height="100%" overflow="visible" style="display: block;" viewBox="0 0 16 16" fill="none" xmlns="http://www.w3.org/2000/svg">
<g id="Subtract">
<mask id="path-1-inside-1_0_11" fill="white">
<path d="M8 0C12.4183 0 16 3.58172 16 8C16 12.4183 12.4183 16 8 16C3.58172 16 0 12.4183 0 8C0 3.58172 3.58172 0 8 0ZM7.54883 10.9785C7.25977 10.9785 7.0293 11.0625 6.85742 11.2305C6.68555 11.3945 6.59961 11.6016 6.59961 11.8516C6.59961 12.0938 6.68555 12.2988 6.85742 12.4668C7.0293 12.6348 7.25977 12.7188 7.54883 12.7188C7.83398 12.7188 8.0625 12.6348 8.23438 12.4668C8.41016 12.2988 8.49805 12.0938 8.49805 11.8516C8.49805 11.6016 8.41016 11.3945 8.23438 11.2305C8.0625 11.0625 7.83398 10.9785 7.54883 10.9785ZM7.66602 4C7.16992 4 6.72266 4.08594 6.32422 4.25781C5.92578 4.42578 5.60742 4.68555 5.36914 5.03711C5.13477 5.38477 5.01172 5.82617 5 6.36133H6.69922C6.70312 6.11914 6.75 5.92383 6.83984 5.77539C6.93359 5.62695 7.05273 5.51758 7.19727 5.44727C7.3418 5.37305 7.49805 5.33594 7.66602 5.33594C7.86914 5.33594 8.03711 5.375 8.16992 5.45312C8.30664 5.53125 8.4082 5.64648 8.47461 5.79883C8.54492 5.94727 8.58008 6.13477 8.58008 6.36133C8.58008 6.55664 8.54102 6.73438 8.46289 6.89453C8.38477 7.05078 8.27734 7.20312 8.14062 7.35156C8.00391 7.5 7.84375 7.65625 7.66016 7.82031C7.44141 8.02344 7.26562 8.22852 7.13281 8.43555C7.00391 8.64258 6.91211 8.875 6.85742 9.13281C6.80664 9.38672 6.7793 9.68945 6.77539 10.041H8.26953C8.27344 9.74023 8.31445 9.48047 8.39258 9.26172C8.47461 9.04297 8.62695 8.83398 8.84961 8.63477C9.10742 8.39258 9.34375 8.1582 9.55859 7.93164C9.77344 7.70508 9.94727 7.46094 10.0801 7.19922C10.2129 6.93359 10.2793 6.63086 10.2793 6.29102C10.2793 5.80273 10.1758 5.38867 9.96875 5.04883C9.76172 4.70508 9.46289 4.44531 9.07227 4.26953C8.68164 4.08984 8.21289 4 7.66602 4Z"/>
</mask>
<path d="M6.85742 11.2305L7.54795 11.9539L7.55635 11.9457L6.85742 11.2305ZM8.23438 12.4668L7.54347 11.7438L7.53544 11.7516L8.23438 12.4668ZM8.23438 11.2305L7.53544 11.9457L7.54366 11.9537L7.55206 11.9615L8.23438 11.2305ZM6.32422 4.25781L6.71269 5.17931L6.72031 5.17602L6.32422 4.25781ZM5.36914 5.03711L4.54136 4.47606L4.53997 4.47812L5.36914 5.03711ZM5 6.36133L4.00024 6.33944L3.97786 7.36133H5V6.36133ZM6.69922 6.36133V7.36133H7.68322L7.69909 6.37746L6.69922 6.36133ZM6.83984 5.77539L5.99435 5.2414L5.98927 5.24944L5.98434 5.25759L6.83984 5.77539ZM7.19727 5.44727L7.63473 6.3465L7.64445 6.34177L7.65407 6.33683L7.19727 5.44727ZM8.16992 5.45312L7.66286 6.31513L7.67378 6.32137L8.16992 5.45312ZM8.47461 5.79883L7.55791 6.19841L7.56417 6.21277L7.57087 6.22691L8.47461 5.79883ZM8.46289 6.89453L9.35736 7.34177L9.36166 7.33295L8.46289 6.89453ZM7.66016 7.82031L6.99383 7.07466L6.9867 7.08102L6.97971 7.08752L7.66016 7.82031ZM7.13281 8.43555L6.29104 7.89554L6.28392 7.90699L7.13281 8.43555ZM6.85742 9.13281L5.87912 8.92529L5.87684 8.9367L6.85742 9.13281ZM6.77539 10.041L5.77545 10.0299L5.76422 11.041H6.77539V10.041ZM8.26953 10.041V11.041H9.25663L9.26945 10.054L8.26953 10.041ZM8.39258 9.26172L7.45625 8.91059L7.45348 8.91797L7.45084 8.92538L8.39258 9.26172ZM8.84961 8.63477L9.5164 9.38001L9.52544 9.37192L9.53428 9.36361L8.84961 8.63477ZM10.0801 7.19922L10.9718 7.65176L10.9745 7.64643L10.0801 7.19922ZM9.96875 5.04883L9.11211 5.56476L9.11474 5.56909L9.96875 5.04883ZM9.07227 4.26953L8.65435 5.17805L8.6619 5.18145L9.07227 4.26953ZM8 0V1C11.866 1 15 4.13401 15 8H16H17C17 3.02944 12.9706 -1 8 -1V0ZM16 8H15C15 11.866 11.866 15 8 15V16V17C12.9706 17 17 12.9706 17 8H16ZM8 16V15C4.13401 15 1 11.866 1 8H0H-1C-1 12.9706 3.02944 17 8 17V16ZM0 8H1C1 4.13401 4.13401 1 8 1V0V-1C3.02944 -1 -1 3.02944 -1 8H0ZM7.54883 10.9785V9.97852C7.05499 9.97852 6.55403 10.1287 6.15849 10.5153L6.85742 11.2305L7.55635 11.9457C7.5488 11.953 7.53915 11.9608 7.52805 11.9678C7.51701 11.9747 7.50758 11.9789 7.50156 11.9811C7.48944 11.9855 7.5007 11.9785 7.54883 11.9785V10.9785ZM6.85742 11.2305L6.16695 10.5071C5.78613 10.8706 5.59961 11.3442 5.59961 11.8516H6.59961H7.59961C7.59961 11.843 7.60064 11.8609 7.58765 11.8922C7.57421 11.9245 7.5563 11.9458 7.5479 11.9538L6.85742 11.2305ZM6.59961 11.8516H5.59961C5.59961 12.3606 5.7924 12.8242 6.15849 13.182L6.85742 12.4668L7.55635 11.7516C7.55635 11.7516 7.55664 11.7519 7.55719 11.7525C7.55773 11.7531 7.55852 11.7539 7.55951 11.7551C7.5615 11.7574 7.56419 11.7608 7.56729 11.7653C7.57372 11.7746 7.58051 11.7866 7.58636 11.8005C7.59909 11.8309 7.59961 11.8519 7.59961 11.8516H6.59961ZM6.85742 12.4668L6.15849 13.182C6.55403 13.5685 7.05499 13.7188 7.54883 13.7188V12.7188V11.7188C7.5007 11.7188 7.48944 11.7118 7.50156 11.7162C7.50758 11.7184 7.51701 11.7226 7.52805 11.7295C7.53915 11.7364 7.5488 11.7442 7.55635 11.7516L6.85742 12.4668ZM7.54883 12.7188V13.7188C8.04306 13.7188 8.54035 13.566 8.93331 13.182L8.23438 12.4668L7.53544 11.7516C7.5423 11.7449 7.55141 11.7375 7.56225 11.7307C7.57306 11.7239 7.58258 11.7196 7.58912 11.7171C7.60248 11.7122 7.59346 11.7188 7.54883 11.7188V12.7188ZM8.23438 12.4668L8.92523 13.1898C9.29759 12.834 9.49805 12.3681 9.49805 11.8516H8.49805H7.49805C7.49805 11.8516 7.49805 11.8499 7.49835 11.8467C7.49865 11.8435 7.49923 11.839 7.50033 11.8334C7.50262 11.8218 7.50665 11.8079 7.51298 11.7931C7.51931 11.7783 7.52653 11.766 7.53312 11.7567C7.53959 11.7475 7.54392 11.7434 7.54352 11.7438L8.23438 12.4668ZM8.49805 11.8516H9.49805C9.49805 11.3368 9.30402 10.8609 8.91669 10.4994L8.23438 11.2305L7.55206 11.9615C7.5448 11.9547 7.52611 11.9336 7.51164 11.8996C7.49755 11.8664 7.49805 11.8458 7.49805 11.8516H8.49805ZM8.23438 11.2305L8.93331 10.5153C8.54035 10.1313 8.04306 9.97852 7.54883 9.97852V10.9785V11.9785C7.59346 11.9785 7.60248 11.985 7.58912 11.9801C7.58258 11.9777 7.57306 11.9734 7.56225 11.9666C7.55141 11.9598 7.5423 11.9524 7.53544 11.9457L8.23438 11.2305ZM7.66602 4V3C7.05312 3 6.46832 3.10658 5.92813 3.3396L6.32422 4.25781L6.72031 5.17602C6.97699 5.0653 7.28673 5 7.66602 5V4ZM6.32422 4.25781L5.93576 3.33635C5.36253 3.578 4.89021 3.96136 4.54136 4.47606L5.36914 5.03711L6.19692 5.59816C6.32463 5.40974 6.48903 5.27356 6.71268 5.17928L6.32422 4.25781ZM5.36914 5.03711L4.53997 4.47812C4.1724 5.02335 4.01501 5.66515 4.00024 6.33944L5 6.36133L5.99976 6.38322C6.00843 5.98719 6.09714 5.74618 6.19831 5.5961L5.36914 5.03711ZM5 6.36133V7.36133H6.69922V6.36133V5.36133H5V6.36133ZM6.69922 6.36133L7.69909 6.37746C7.70009 6.31513 7.70641 6.28026 7.70969 6.26658C7.71278 6.25373 7.71147 6.26655 7.69534 6.29319L6.83984 5.77539L5.98434 5.25759C5.77351 5.60591 5.70503 5.9927 5.69935 6.3452L6.69922 6.36133ZM6.83984 5.77539L7.68533 6.30938C7.68901 6.30356 7.68663 6.30873 7.67578 6.31868C7.66449 6.32905 7.65007 6.33904 7.63473 6.3465L7.19727 5.44727L6.7598 4.54803C6.43261 4.7072 6.17798 4.95066 5.99435 5.2414L6.83984 5.77539ZM7.19727 5.44727L7.65407 6.33683C7.65511 6.3363 7.65536 6.33624 7.65498 6.33638C7.65458 6.33653 7.65416 6.33665 7.65392 6.33671C7.65295 6.33694 7.65628 6.33594 7.66602 6.33594V5.33594V4.33594C7.34473 4.33594 7.03119 4.40841 6.74046 4.5577L7.19727 5.44727ZM7.66602 5.33594V6.33594C7.70442 6.33594 7.71985 6.33972 7.71782 6.33924C7.71477 6.33853 7.69349 6.33305 7.6629 6.31506L8.16992 5.45312L8.67694 4.59119C8.34901 4.39829 7.99227 4.33594 7.66602 4.33594V5.33594ZM8.16992 5.45312L7.67378 6.32137C7.64908 6.30725 7.6222 6.28632 7.59842 6.25935C7.57504 6.23281 7.56287 6.20978 7.55791 6.19841L8.47461 5.79883L9.3913 5.39924C9.24392 5.06113 9.00053 4.77601 8.66606 4.58488L8.16992 5.45312ZM8.47461 5.79883L7.57087 6.22691C7.56395 6.21231 7.56659 6.21241 7.57084 6.23507C7.57514 6.25801 7.58008 6.29874 7.58008 6.36133H8.58008H9.58008C9.58008 6.03957 9.53133 5.69372 9.37835 5.37074L8.47461 5.79883ZM8.58008 6.36133H7.58008C7.58008 6.41952 7.56943 6.44522 7.56412 6.45611L8.46289 6.89453L9.36166 7.33295C9.5126 7.02353 9.58008 6.69376 9.58008 6.36133H8.58008ZM8.46289 6.89453L7.56846 6.44732C7.53815 6.50794 7.48792 6.58414 7.40508 6.67409L8.14062 7.35156L8.87617 8.02904C9.06676 7.82211 9.23138 7.59363 9.35732 7.34174L8.46289 6.89453ZM8.14062 7.35156L7.40508 6.67409C7.29446 6.79419 7.15829 6.92769 6.99383 7.07466L7.66016 7.82031L8.32649 8.56597C8.52921 8.38482 8.71335 8.20581 8.87617 8.02904L8.14062 7.35156ZM7.66016 7.82031L6.97971 7.08752C6.71193 7.33617 6.4778 7.60459 6.29112 7.89559L7.13281 8.43555L7.97451 8.9755C8.05345 8.85244 8.17088 8.71071 8.34061 8.55311L7.66016 7.82031ZM7.13281 8.43555L6.28392 7.90699C6.08878 8.22038 5.95605 8.56297 5.87919 8.92531L6.85742 9.13281L7.83566 9.34032C7.86817 9.18703 7.91903 9.06478 7.98171 8.96411L7.13281 8.43555ZM6.85742 9.13281L5.87684 8.9367C5.81043 9.26874 5.77982 9.63663 5.77545 10.0299L6.77539 10.041L7.77533 10.0521C7.77877 9.74228 7.80285 9.5047 7.838 9.32893L6.85742 9.13281ZM6.77539 10.041V11.041H8.26953V10.041V9.04102H6.77539V10.041ZM8.26953 10.041L9.26945 10.054C9.27232 9.83269 9.30239 9.68747 9.33432 9.59805L8.39258 9.26172L7.45084 8.92538C7.32652 9.27346 7.27455 9.64778 7.26962 10.028L8.26953 10.041ZM8.39258 9.26172L9.32891 9.61284C9.34063 9.58159 9.38145 9.50076 9.5164 9.38001L8.84961 8.63477L8.18281 7.88952C7.87246 8.16721 7.60859 8.50434 7.45625 8.91059L8.39258 9.26172ZM8.84961 8.63477L9.53428 9.36361C9.80433 9.10993 10.0545 8.86196 10.2842 8.61973L9.55859 7.93164L8.83297 7.24355C8.63298 7.45445 8.41051 7.67522 8.16493 7.90592L8.84961 8.63477ZM9.55859 7.93164L10.2842 8.61973C10.5613 8.32756 10.7926 8.00493 10.9718 7.65175L10.0801 7.19922L9.18833 6.74669C9.10193 6.91695 8.9856 7.0826 8.83297 7.24355L9.55859 7.93164ZM10.0801 7.19922L10.9745 7.64643C11.1862 7.22314 11.2793 6.76361 11.2793 6.29102H10.2793H9.2793C9.2793 6.49811 9.23963 6.64405 9.18565 6.75201L10.0801 7.19922ZM10.2793 6.29102H11.2793C11.2793 5.66082 11.1448 5.05724 10.8228 4.52857L9.96875 5.04883L9.11474 5.56909C9.20674 5.7201 9.2793 5.94465 9.2793 6.29102H10.2793ZM9.96875 5.04883L10.8254 4.5329C10.5061 4.00281 10.0456 3.61096 9.48263 3.35761L9.07227 4.26953L8.6619 5.18145C8.88015 5.27966 9.01731 5.40734 9.11212 5.56475L9.96875 5.04883ZM9.07227 4.26953L9.49017 3.36104C8.93794 3.10701 8.31927 3 7.66602 3V4V5C8.10651 5 8.42535 5.07267 8.65436 5.17802L9.07227 4.26953Z" fill="var(--stroke-0, black)" mask="url(#path-1-inside-1_0_11)"/>
</g>
</svg>
