<svg preserveAspectRatio="none" width="100%" height="100%" overflow="visible" style="display: block;" viewBox="0 0 20 20" fill="none" xmlns="http://www.w3.org/2000/svg">
<g id="reorder" clip-path="url(#clip0_0_9)">
<path id="Vector" d="M9.95 4.19958e-06C9.86094 0.0093792 9.77656 0.0500042 9.7125 0.112504L6.9125 2.9125C6.79375 3.02657 6.75781 3.20313 6.82188 3.35469C6.88438 3.50625 7.03594 3.60313 7.2 3.6H12.8C12.9641 3.60313 13.1156 3.50625 13.1781 3.35469C13.2422 3.20313 13.2063 3.02657 13.0875 2.9125L10.2875 0.112504C10.1984 0.0250042 10.0734 -0.0171833 9.95 4.19958e-06ZM10 0.975004L11.825 2.8H8.175L10 0.975004ZM0.8 5.6V6.4H19.2V5.6H0.8ZM0.8 9.6V10.4H19.2V9.6H0.8ZM0.8 13.6V14.4H19.2V13.6H0.8ZM7.125 16.4C6.97344 16.4234 6.84844 16.5313 6.80313 16.6766C6.75781 16.8234 6.8 16.9828 6.9125 17.0875L9.7125 19.8875C9.7875 19.9656 9.89219 20.0094 10 20.0094C10.1078 20.0094 10.2125 19.9656 10.2875 19.8875L13.0875 17.0875C13.2063 16.9734 13.2422 16.7969 13.1781 16.6453C13.1156 16.4938 12.9641 16.3969 12.8 16.4H7.2C7.1875 16.4 7.175 16.4 7.1625 16.4C7.15 16.4 7.1375 16.4 7.125 16.4ZM8.175 17.2H11.825L10 19.025L8.175 17.2Z" fill="var(--fill-0, black)"/>
</g>
<defs>
<clipPath id="clip0_0_9">
<rect width="20" height="20" fill="white"/>
</clipPath>
</defs>
</svg>
