<svg preserveAspectRatio="none" width="100%" height="100%" overflow="visible" style="display: block;" viewBox="0 0 20 20" fill="none" xmlns="http://www.w3.org/2000/svg">
<g id="reset-zoom">
<path id="vector" d="M2.85162 3.92244V1.72001C2.85162 1.49909 2.67253 1.32001 2.45162 1.32001C2.23071 1.32001 2.05162 1.49909 2.05162 1.72001V5.21264H5.54425C5.76517 5.21264 5.94425 5.03355 5.94425 4.81264C5.94425 4.59173 5.76517 4.41264 5.54425 4.41264H3.48388C4.58121 2.96662 6.31737 2.0339 8.27126 2.0339C11.5882 2.0339 14.2772 4.72285 14.2772 8.03984C14.2772 11.3568 11.5882 14.0458 8.27126 14.0458C4.95427 14.0458 2.26532 11.3568 2.26532 8.03984C2.26532 7.81893 2.08623 7.63984 1.86532 7.63984C1.6444 7.63984 1.46532 7.81893 1.46532 8.03984C1.46532 11.7987 4.51244 14.8458 8.27126 14.8458C9.75381 14.8458 11.1256 14.3718 12.2435 13.567L17.4776 18.8012L18.6319 17.6469L13.4459 12.4609C14.463 11.2716 15.0772 9.72745 15.0772 8.03984C15.0772 4.28103 12.0301 1.2339 8.27126 1.2339C6.05942 1.2339 4.09422 2.2893 2.85162 3.92244Z" fill="var(--fill-0, black)"/>
</g>
</svg>
