<svg preserveAspectRatio="none" width="100%" height="100%" overflow="visible" style="display: block;" viewBox="0 0 20 20" fill="none" xmlns="http://www.w3.org/2000/svg">
<g id="reset" clip-path="url(#clip0_0_9)">
<path id="Vector" d="M10 0.8C4.92381 0.8 0.8 4.92381 0.8 10C0.8 15.0762 4.92381 19.2 10 19.2C15.0762 19.2 19.2 15.0762 19.2 10C19.2008 9.947 19.191 9.89437 19.1712 9.84518C19.1514 9.796 19.1221 9.75123 19.0849 9.71348C19.0476 9.67573 19.0033 9.64576 18.9544 9.6253C18.9055 9.60484 18.853 9.5943 18.8 9.5943C18.747 9.5943 18.6945 9.60484 18.6456 9.6253C18.5967 9.64576 18.5524 9.67573 18.5151 9.71348C18.4779 9.75123 18.4486 9.796 18.4288 9.84518C18.409 9.89437 18.3993 9.947 18.4 10C18.4 14.6438 14.6438 18.4 10 18.4C5.35619 18.4 1.6 14.6438 1.6 10C1.6 5.35619 5.35619 1.6 10 1.6C12.6771 1.6 15.0541 2.85228 16.5922 4.8H14C13.947 4.79925 13.8944 4.80904 13.8452 4.82881C13.796 4.84857 13.7512 4.87792 13.7135 4.91514C13.6757 4.95235 13.6458 4.9967 13.6253 5.04561C13.6048 5.09451 13.5943 5.14699 13.5943 5.2C13.5943 5.25301 13.6048 5.30549 13.6253 5.35439C13.6458 5.4033 13.6757 5.44765 13.7135 5.48486C13.7512 5.52208 13.796 5.55143 13.8452 5.57119C13.8944 5.59096 13.947 5.60075 14 5.6H17.3797H18V1.6C18.0007 1.54648 17.9907 1.49337 17.9706 1.44379C17.9504 1.39421 17.9205 1.34919 17.8826 1.31138C17.8447 1.27357 17.7996 1.24375 17.75 1.22368C17.7004 1.20361 17.6473 1.1937 17.5938 1.19453C17.4878 1.19619 17.3868 1.23981 17.313 1.31583C17.2392 1.39185 17.1986 1.49405 17.2 1.6V4.27969C15.5141 2.16083 12.9151 0.8 10 0.8Z" fill="var(--fill-0, black)"/>
</g>
<defs>
<clipPath id="clip0_0_9">
<rect width="20" height="20" fill="white"/>
</clipPath>
</defs>
</svg>
