<svg preserveAspectRatio="none" width="100%" height="100%" overflow="visible" style="display: block;" viewBox="0 0 15.4167 15.4167" fill="none" xmlns="http://www.w3.org/2000/svg">
<path id="Vector (Stroke)" fill-rule="evenodd" clip-rule="evenodd" d="M0 1.70833C0 0.76456 0.76456 0 1.70833 0H4.08333V4.375C4.08333 4.53589 4.21411 4.66667 4.375 4.66667H10.375C10.5359 4.66667 10.6667 4.53589 10.6667 4.375V0H12.5303L15.4167 2.88634V13.7083C15.4167 14.6521 14.6521 15.4167 13.7083 15.4167H1.70833C0.76456 15.4167 0 14.6521 0 13.7083V1.70833ZM1.70833 0.75C1.17877 0.75 0.75 1.17877 0.75 1.70833V13.7083C0.75 14.2379 1.17877 14.6667 1.70833 14.6667H13.7083C14.2379 14.6667 14.6667 14.2379 14.6667 13.7083V3.197L12.2197 0.75H11.4167V4.375C11.4167 4.95011 10.9501 5.41667 10.375 5.41667H4.375C3.79989 5.41667 3.33333 4.95011 3.33333 4.375V0.75H1.70833ZM8 0H10.0833V4.08333H8V0ZM8.75 0.75V3.33333H9.33333V0.75H8.75ZM4.375 8.75C3.84544 8.75 3.41667 9.17877 3.41667 9.70833V13.3333H12V9.70833C12 9.17877 11.5712 8.75 11.0417 8.75H4.375ZM2.66667 9.70833C2.66667 8.76456 3.43123 8 4.375 8H11.0417C11.9854 8 12.75 8.76456 12.75 9.70833V14.0833H2.66667V9.70833Z" fill="var(--fill-0, black)"/>
</svg>
