<svg preserveAspectRatio="none" width="100%" height="100%" overflow="visible" style="display: block;" viewBox="0 0 18.6667 18.6667" fill="none" xmlns="http://www.w3.org/2000/svg">
<path id="Vector (Stroke)" fill-rule="evenodd" clip-rule="evenodd" d="M0 1.70296C0 0.762143 0.762143 0 1.70296 0H4.09959V4.47764C4.09959 4.68623 4.26905 4.85569 4.47764 4.85569H10.7207C10.9293 4.85569 11.0987 4.68623 11.0987 4.47764V0H12.9324L15.892 2.95957V8.06207L15.471 7.91292C14.8503 7.69303 14.188 7.56794 13.4954 7.56794C12.0854 7.56794 10.7922 8.06221 9.77427 8.88511L9.68747 8.95528H4.47764C3.88545 8.95528 3.40592 9.43481 3.40592 10.027V13.8734H7.57555L7.60667 14.1543C7.65717 14.6101 7.76346 15.0491 7.91292 15.471L8.06206 15.892H1.70296C0.762143 15.892 0 15.1298 0 14.189V1.70296ZM1.70296 0.63124C1.11077 0.63124 0.63124 1.11077 0.63124 1.70296V14.189C0.63124 14.7812 1.11077 15.2607 1.70296 15.2607H7.18364C7.11387 15.0147 7.05756 14.7626 7.01693 14.5046H2.77468V10.027C2.77468 9.08618 3.53682 8.32404 4.47764 8.32404H9.46575C10.5774 7.45625 11.9755 6.9367 13.4954 6.9367C14.1092 6.9367 14.7 7.0252 15.2607 7.18386V3.22103L12.6709 0.63124H11.73V4.47764C11.73 5.03486 11.2779 5.48693 10.7207 5.48693H4.47764C3.92042 5.48693 3.46835 5.03486 3.46835 4.47764V0.63124H1.70296ZM8.32404 0H10.3426V4.09959H8.32404V0ZM8.95528 0.63124V3.46835H9.71138V0.63124H8.95528ZM13.3913 8.74718C10.8264 8.74718 8.74718 10.8264 8.74718 13.3913C8.74718 15.9562 10.8264 18.0354 13.3913 18.0354C15.9562 18.0354 18.0354 15.9562 18.0354 13.3913C18.0354 10.8264 15.9562 8.74718 13.3913 8.74718ZM8.11594 13.3913C8.11594 10.4778 10.4778 8.11594 13.3913 8.11594C16.3048 8.11594 18.6667 10.4778 18.6667 13.3913C18.6667 16.3048 16.3048 18.6667 13.3913 18.6667C10.4778 18.6667 8.11594 16.3048 8.11594 13.3913Z" fill="var(--fill-0, black)"/>
</svg>
