<svg preserveAspectRatio="none" width="100%" height="100%" overflow="visible" style="display: block;" viewBox="0 0 17.4167 17.4167" fill="none" xmlns="http://www.w3.org/2000/svg">
<g id="Vector (Stroke)">
<path fill-rule="evenodd" clip-rule="evenodd" d="M0 1.65705C0 0.741611 0.741611 0 1.65705 0H3.95513V4.22115C3.95513 4.36789 4.07441 4.48718 4.22115 4.48718H9.99038C10.1371 4.48718 10.2564 4.36789 10.2564 4.22115V0H12.0688L14.8526 2.78377V7.65147L14.3523 7.47427C13.787 7.274 13.1844 7.16026 12.5545 7.16026C11.2714 7.16026 10.0947 7.60996 9.16819 8.35893L9.06506 8.44231H4.22115C3.71993 8.44231 3.3141 8.84813 3.3141 9.34936V12.8205H7.15856L7.19554 13.1542C7.24143 13.5685 7.33808 13.9679 7.47427 14.3523L7.65146 14.8526H1.65705C0.741611 14.8526 0 14.111 0 13.1955V1.65705ZM1.65705 0.75C1.15582 0.75 0.75 1.15582 0.75 1.65705V13.1955C0.75 13.6967 1.15582 14.1026 1.65705 14.1026H6.61254C6.56645 13.9284 6.52762 13.7511 6.49693 13.5705H2.5641V9.34936C2.5641 8.43392 3.30571 7.69231 4.22115 7.69231H8.80214C9.83979 6.89002 11.141 6.41026 12.5545 6.41026C13.0913 6.41026 13.6091 6.48247 14.1026 6.61281V3.09443L11.7581 0.75H11.0064V4.22115C11.0064 4.78211 10.5513 5.23718 9.99038 5.23718H4.22115C3.6602 5.23718 3.20513 4.78211 3.20513 4.22115V0.75H1.65705ZM7.69231 0H9.72436V3.95513H7.69231V0ZM8.44231 0.75V3.20513H8.97436V0.75H8.44231ZM7.69231 12.5545C7.69231 9.86917 9.86917 7.69231 12.5545 7.69231C15.2398 7.69231 17.4167 9.86917 17.4167 12.5545C17.4167 15.2398 15.2398 17.4167 12.5545 17.4167C9.86917 17.4167 7.69231 15.2398 7.69231 12.5545ZM12.5545 8.44231C10.2834 8.44231 8.44231 10.2834 8.44231 12.5545C8.44231 14.8256 10.2834 16.6667 12.5545 16.6667C14.8256 16.6667 16.6667 14.8256 16.6667 12.5545C16.6667 10.2834 14.8256 8.44231 12.5545 8.44231Z" fill="var(--fill-0, black)"/>
<path fill-rule="evenodd" clip-rule="evenodd" d="M13.9904 10.775C14.1939 10.5715 14.461 10.4698 14.7269 10.4698C14.9928 10.4698 15.2599 10.5715 15.4634 10.775C15.8705 11.1821 15.8705 11.8409 15.4634 12.248L12.7968 14.9147C12.5937 15.1177 12.3265 15.2198 12.0602 15.2198C11.794 15.2198 11.5267 15.1177 11.3237 14.9147L9.99038 13.5814C9.58327 13.1742 9.58327 12.5154 9.99038 12.1083C10.3975 11.7012 11.0563 11.7012 11.4634 12.1083L12.0602 12.7051L13.9904 10.775ZM14.7269 11.2198C14.6518 11.2198 14.5779 11.2481 14.5207 11.3053L12.0602 13.7658L10.9331 12.6386C10.8189 12.5244 10.6349 12.5244 10.5207 12.6386C10.4065 12.7529 10.4065 12.9368 10.5207 13.051L11.854 14.3844C11.911 14.4413 11.9852 14.4698 12.0602 14.4698C12.1353 14.4698 12.2094 14.4413 12.2664 14.3844L14.9331 11.7177C15.0473 11.6035 15.0473 11.4195 14.9331 11.3053C14.8759 11.2481 14.802 11.2198 14.7269 11.2198Z" fill="var(--fill-0, black)"/>
</g>
</svg>
