<svg preserveAspectRatio="none" width="100%" height="100%" overflow="visible" style="display: block;" viewBox="0 0 18.3333 17.9227" fill="none" xmlns="http://www.w3.org/2000/svg">
<path id="Vector" d="M1.25 0C0.564394 0 0 0.564394 0 1.25V13.3333C0 14.479 0.937702 15.4167 2.08333 15.4167H10C10.0552 15.4174 10.11 15.4072 10.1613 15.3867C10.2125 15.3661 10.2591 15.3355 10.2985 15.2967C10.3378 15.258 10.369 15.2118 10.3903 15.1608C10.4116 15.1099 10.4226 15.0552 10.4226 15C10.4226 14.9448 10.4116 14.8901 10.3903 14.8392C10.369 14.7882 10.3378 14.742 10.2985 14.7033C10.2591 14.6645 10.2125 14.6339 10.1613 14.6133C10.11 14.5928 10.0552 14.5826 10 14.5833H2.08333C1.38813 14.5833 0.833333 14.0285 0.833333 13.3333V1.25C0.833333 1.01894 1.01894 0.833333 1.25 0.833333H5.05941C5.37545 0.833333 5.66262 1.01057 5.80404 1.29313L6.28581 2.25505C6.33523 2.3539 6.4219 2.42907 6.52675 2.46402C6.6316 2.49896 6.74604 2.49083 6.84489 2.44141C6.94374 2.39198 7.01891 2.30531 7.05386 2.20046C7.08881 2.09561 7.08068 1.98118 7.03125 1.88232L6.54867 0.92041C6.26675 0.357134 5.6892 0 5.05941 0H1.25ZM2.5 2.91667C2.44479 2.91589 2.38997 2.92609 2.33873 2.94668C2.2875 2.96726 2.24086 2.99783 2.20154 3.0366C2.16222 3.07537 2.131 3.12157 2.10969 3.17251C2.08837 3.22345 2.0774 3.27811 2.0774 3.33333C2.0774 3.38855 2.08837 3.44322 2.10969 3.49416C2.131 3.5451 2.16222 3.5913 2.20154 3.63007C2.24086 3.66884 2.2875 3.6994 2.33873 3.71999C2.38997 3.74058 2.44479 3.75078 2.5 3.75H14.5833C15.2785 3.75 15.8333 4.3048 15.8333 5V9.6932C15.5664 9.62396 15.288 9.58333 15 9.58333C13.164 9.58333 11.6667 11.0807 11.6667 12.9167C11.6667 13.6823 11.9705 14.3564 12.4072 14.9202L10.1221 17.2054C10.0821 17.2438 10.0502 17.2898 10.0282 17.3407C10.0062 17.3916 9.99455 17.4463 9.99398 17.5018C9.99342 17.5572 10.0039 17.6122 10.0249 17.6635C10.0458 17.7148 10.0768 17.7615 10.116 17.8007C10.1552 17.8399 10.2018 17.8708 10.2532 17.8918C10.3045 17.9127 10.3595 17.9232 10.4149 17.9227C10.4703 17.9221 10.5251 17.9105 10.576 17.8885C10.6269 17.8665 10.6729 17.8346 10.7113 17.7946L12.9964 15.5094C13.5602 15.9462 14.2343 16.25 15 16.25C16.836 16.25 18.3333 14.7527 18.3333 12.9167C18.3333 11.6878 17.6608 10.6138 16.6667 10.0358V5C16.6667 3.85437 15.729 2.91667 14.5833 2.91667H2.5ZM15 10.4167C16.3856 10.4167 17.5 11.531 17.5 12.9167C17.5 14.3023 16.3856 15.4167 15 15.4167C13.6144 15.4167 12.5 14.3023 12.5 12.9167C12.5 11.531 13.6144 10.4167 15 10.4167Z" fill="var(--fill-0, black)"/>
</svg>
