<svg preserveAspectRatio="none" width="100%" height="100%" overflow="visible" style="display: block;" viewBox="0 0 20 20" fill="none" xmlns="http://www.w3.org/2000/svg">
<g id="seat">
<path id="Vector" d="M7.20001 0.4C6.56668 0.4 6.04077 0.651902 5.7008 1.03437C5.36082 1.41685 5.20001 1.91111 5.20001 2.4C5.20001 2.88889 5.36082 3.38315 5.7008 3.76563C6.04077 4.1481 6.56668 4.4 7.20001 4.4C7.83335 4.4 8.35926 4.1481 8.69923 3.76563C9.03921 3.38315 9.20001 2.88889 9.20001 2.4C9.20001 1.91111 9.03921 1.41685 8.69923 1.03437C8.35926 0.651902 7.83335 0.4 7.20001 0.4ZM7.20001 1.2C7.63335 1.2 7.90744 1.3481 8.1008 1.56562C8.29415 1.78315 8.40001 2.08889 8.40001 2.4C8.40001 2.71111 8.29415 3.01685 8.1008 3.23438C7.90744 3.4519 7.63335 3.6 7.20001 3.6C6.76668 3.6 6.49259 3.4519 6.29923 3.23438C6.10588 3.01685 6.00001 2.71111 6.00001 2.4C6.00001 2.08889 6.10588 1.78315 6.29923 1.56562C6.49259 1.3481 6.76668 1.2 7.20001 1.2ZM7.44845 5.20625C7.30274 5.20459 7.15451 5.21815 7.00626 5.24844C5.82515 5.45026 5.00127 6.61509 5.24845 7.80156L5.24611 7.79141L6.04611 12.1914C6.24028 13.2593 7.16954 14 8.20001 14H12.7383L14.0539 18.5852C14.222 19.2013 14.7903 19.6 15.4 19.6C15.4758 19.6 15.6298 19.6139 15.8344 19.5219C16.5366 19.2821 16.9657 18.5287 16.7422 17.8023L15.1461 12.2148V12.2141C14.9778 11.5983 14.4095 11.2 13.8 11.2H10.3328L9.5547 7.01406L9.55392 7.0125C9.38063 5.97815 8.46841 5.21785 7.44845 5.20625ZM3.68126 5.59453C3.62209 5.59425 3.56358 5.60711 3.50997 5.63217C3.45636 5.65723 3.40898 5.69388 3.37124 5.73946C3.3335 5.78505 3.30635 5.83844 3.29173 5.89579C3.27712 5.95313 3.27541 6.01301 3.28673 6.07109L4.44689 12.4742L4.44767 12.4766C4.64835 13.5051 5.23645 14.3677 6.03986 14.9242L5.20783 19.1219C5.19597 19.174 5.19468 19.228 5.20402 19.2806C5.21337 19.3332 5.23316 19.3834 5.26224 19.4283C5.29131 19.4731 5.32908 19.5117 5.37331 19.5417C5.41754 19.5717 5.46733 19.5925 5.51974 19.603C5.57216 19.6134 5.62614 19.6132 5.67849 19.6025C5.73084 19.5917 5.7805 19.5705 5.82454 19.5403C5.86858 19.51 5.90611 19.4712 5.9349 19.4262C5.9637 19.3811 5.98318 19.3308 5.9922 19.2781L6.77736 15.3203C7.21945 15.4995 7.69937 15.6 8.20001 15.6H10.8719L11.6078 19.2781C11.6168 19.3308 11.6363 19.3811 11.6651 19.4262C11.6939 19.4712 11.7314 19.51 11.7755 19.5403C11.8195 19.5705 11.8692 19.5917 11.9215 19.6025C11.9739 19.6132 12.0279 19.6134 12.0803 19.603C12.1327 19.5925 12.1825 19.5717 12.2267 19.5417C12.271 19.5117 12.3087 19.4731 12.3378 19.4283C12.3669 19.3834 12.3867 19.3332 12.396 19.2806C12.4054 19.228 12.4041 19.174 12.3922 19.1219L11.6875 15.6H11.9602C12.0132 15.6007 12.0658 15.591 12.115 15.5712C12.1642 15.5514 12.2089 15.5221 12.2467 15.4849C12.2844 15.4476 12.3144 15.4033 12.3349 15.3544C12.3553 15.3055 12.3659 15.253 12.3659 15.2C12.3659 15.147 12.3553 15.0945 12.3349 15.0456C12.3144 14.9967 12.2844 14.9524 12.2467 14.9151C12.2089 14.8779 12.1642 14.8486 12.115 14.8288C12.0658 14.809 12.0132 14.7993 11.9602 14.8H11.2625C11.2398 14.7962 11.2168 14.7944 11.1938 14.7945C11.1744 14.795 11.1551 14.7968 11.136 14.8H8.20001C6.74863 14.8 5.51762 13.783 5.23283 12.3234L4.07345 5.92891C4.05798 5.83589 4.01014 5.75133 3.93838 5.69015C3.86662 5.62897 3.77556 5.5951 3.68126 5.59453V5.59453ZM7.43517 6.00547C8.07004 6.01551 8.65856 6.5036 8.76564 7.14609C8.76588 7.14844 8.76614 7.15078 8.76642 7.15313L9.60705 11.6734C9.62418 11.7652 9.67284 11.848 9.7446 11.9076C9.81636 11.9673 9.90671 11.9999 10 12H13.8C14.0703 12 14.3023 12.1611 14.3742 12.425C14.3745 12.4266 14.3747 12.4281 14.375 12.4297L15.975 18.0297C15.9758 18.0323 15.9766 18.0349 15.9774 18.0375C16.0695 18.3371 15.8759 18.6809 15.5625 18.7773C15.5413 18.7839 15.5206 18.7923 15.5008 18.8023C15.5639 18.7708 15.48 18.8 15.4 18.8C15.1297 18.8 14.8978 18.6389 14.8258 18.375C14.8253 18.3732 14.8248 18.3714 14.8242 18.3695L13.4242 13.4898C13.4003 13.4064 13.3499 13.3329 13.2805 13.2806C13.2112 13.2283 13.1267 13.2 13.0399 13.2H8.20001C7.55049 13.2 6.95945 12.7406 6.83361 12.0484L6.03361 7.64844C6.03287 7.64504 6.03209 7.64166 6.03126 7.63828C5.87905 6.90763 6.41182 6.15676 7.14611 6.03438C7.15134 6.03344 7.15655 6.0324 7.16173 6.03125C7.25306 6.01222 7.34447 6.00403 7.43517 6.00547Z" fill="var(--fill-0, black)"/>
</g>
</svg>
