<svg preserveAspectRatio="none" width="100%" height="100%" overflow="visible" style="display: block;" viewBox="0 0 20 20" fill="none" xmlns="http://www.w3.org/2000/svg">
<g id="selection">
<path id="Vector" d="M2.00001 1.6C1.7797 1.6 1.60001 1.77969 1.60001 2V4.4C1.59845 4.54375 1.67345 4.67813 1.79845 4.75156C1.92345 4.82344 2.07657 4.82344 2.20157 4.75156C2.32657 4.67813 2.40157 4.54375 2.40001 4.4V2.4H4.40001C4.54376 2.40156 4.67814 2.32656 4.75157 2.20156C4.82345 2.07656 4.82345 1.92344 4.75157 1.79844C4.67814 1.67344 4.54376 1.59844 4.40001 1.6H2.00001ZM6.00001 1.6C5.85626 1.59844 5.72189 1.67344 5.64845 1.79844C5.57657 1.92344 5.57657 2.07656 5.64845 2.20156C5.72189 2.32656 5.85626 2.40156 6.00001 2.4H9.20001C9.34376 2.40156 9.47814 2.32656 9.55157 2.20156C9.62345 2.07656 9.62345 1.92344 9.55157 1.79844C9.47814 1.67344 9.34376 1.59844 9.20001 1.6H6.00001ZM10.8 1.6C10.6563 1.59844 10.5219 1.67344 10.4484 1.79844C10.3766 1.92344 10.3766 2.07656 10.4484 2.20156C10.5219 2.32656 10.6563 2.40156 10.8 2.4H14C14.1438 2.40156 14.2781 2.32656 14.3516 2.20156C14.4235 2.07656 14.4235 1.92344 14.3516 1.79844C14.2781 1.67344 14.1438 1.59844 14 1.6H10.8ZM15.6 1.6C15.4563 1.59844 15.3219 1.67344 15.2484 1.79844C15.1766 1.92344 15.1766 2.07656 15.2484 2.20156C15.3219 2.32656 15.4563 2.40156 15.6 2.4H17.6V4.4C17.5985 4.54375 17.6734 4.67813 17.7984 4.75156C17.9234 4.82344 18.0766 4.82344 18.2016 4.75156C18.3266 4.67813 18.4016 4.54375 18.4 4.4V2C18.4 1.77969 18.2203 1.6 18 1.6H15.6ZM1.99376 5.59375C1.77345 5.59844 1.59689 5.77969 1.60001 6V9.2C1.59845 9.34375 1.67345 9.47813 1.79845 9.55156C1.92345 9.62344 2.07657 9.62344 2.20157 9.55156C2.32657 9.47813 2.40157 9.34375 2.40001 9.2V6C2.40157 5.89219 2.35939 5.7875 2.28282 5.71094C2.20626 5.63438 2.10157 5.59219 1.99376 5.59375ZM17.9938 5.59375C17.7735 5.59844 17.5969 5.77969 17.6 6V9.2C17.5985 9.34375 17.6734 9.47813 17.7984 9.55156C17.9234 9.62344 18.0766 9.62344 18.2016 9.55156C18.3266 9.47813 18.4016 9.34375 18.4 9.2V6C18.4016 5.89219 18.3594 5.7875 18.2828 5.71094C18.2063 5.63438 18.1016 5.59219 17.9938 5.59375ZM1.99376 10.3938C1.77345 10.3984 1.59689 10.5797 1.60001 10.8V14C1.59845 14.1437 1.67345 14.2781 1.79845 14.3516C1.92345 14.4234 2.07657 14.4234 2.20157 14.3516C2.32657 14.2781 2.40157 14.1437 2.40001 14V10.8C2.40157 10.6922 2.35939 10.5875 2.28282 10.5109C2.20626 10.4344 2.10157 10.3922 1.99376 10.3938ZM17.9938 10.3938C17.7735 10.3984 17.5969 10.5797 17.6 10.8V14C17.5985 14.1437 17.6734 14.2781 17.7984 14.3516C17.9234 14.4234 18.0766 14.4234 18.2016 14.3516C18.3266 14.2781 18.4016 14.1437 18.4 14V10.8C18.4016 10.6922 18.3594 10.5875 18.2828 10.5109C18.2063 10.4344 18.1016 10.3922 17.9938 10.3938ZM1.99376 15.1938C1.77345 15.1984 1.59689 15.3797 1.60001 15.6V18C1.60001 18.2203 1.7797 18.4 2.00001 18.4H4.40001C4.54376 18.4016 4.67814 18.3266 4.75157 18.2016C4.82345 18.0766 4.82345 17.9234 4.75157 17.7984C4.67814 17.6734 4.54376 17.5984 4.40001 17.6H2.40001V15.6C2.40157 15.4922 2.35939 15.3875 2.28282 15.3109C2.20626 15.2344 2.10157 15.1922 1.99376 15.1938ZM17.9938 15.1938C17.7735 15.1984 17.5969 15.3797 17.6 15.6V17.6H15.6C15.4563 17.5984 15.3219 17.6734 15.2484 17.7984C15.1766 17.9234 15.1766 18.0766 15.2484 18.2016C15.3219 18.3266 15.4563 18.4016 15.6 18.4H18C18.2203 18.4 18.4 18.2203 18.4 18V15.6C18.4016 15.4922 18.3594 15.3875 18.2828 15.3109C18.2063 15.2344 18.1016 15.1922 17.9938 15.1938ZM6.00001 17.6C5.85626 17.5984 5.72189 17.6734 5.64845 17.7984C5.57657 17.9234 5.57657 18.0766 5.64845 18.2016C5.72189 18.3266 5.85626 18.4016 6.00001 18.4H9.20001C9.34376 18.4016 9.47814 18.3266 9.55157 18.2016C9.62345 18.0766 9.62345 17.9234 9.55157 17.7984C9.47814 17.6734 9.34376 17.5984 9.20001 17.6H6.00001ZM10.8 17.6C10.6563 17.5984 10.5219 17.6734 10.4484 17.7984C10.3766 17.9234 10.3766 18.0766 10.4484 18.2016C10.5219 18.3266 10.6563 18.4016 10.8 18.4H14C14.1438 18.4016 14.2781 18.3266 14.3516 18.2016C14.4235 18.0766 14.4235 17.9234 14.3516 17.7984C14.2781 17.6734 14.1438 17.5984 14 17.6H10.8Z" fill="var(--fill-0, black)"/>
</g>
</svg>
