<svg preserveAspectRatio="none" width="100%" height="100%" overflow="visible" style="display: block;" viewBox="0 0 20 20" fill="none" xmlns="http://www.w3.org/2000/svg">
<g id="send" clip-path="url(#clip0_0_9)">
<path id="Vector" d="M19.5625 -1.15837e-07C19.5094 0.00624988 19.4594 0.0234374 19.4125 0.0499999L0.212504 10.45C0.0734415 10.525 -0.00780864 10.675 0.0046914 10.8328C0.0187539 10.9906 0.125004 11.125 0.275004 11.175L5.725 12.9625L5.2 18.3625C5.17813 18.5375 5.275 18.7062 5.4375 18.7766C5.6 18.8469 5.78907 18.8 5.9 18.6625L9.3375 14.775L14.525 19.8875C14.6266 19.9875 14.7734 20.025 14.9109 19.9859C15.0484 19.9469 15.1531 19.8391 15.1875 19.7L19.9875 0.5C20.0234 0.373437 19.9922 0.2375 19.9078 0.1375C19.8219 0.0374999 19.6938 -0.0140626 19.5625 -1.15837e-07ZM18.9875 1.175L14.575 18.825L9.8375 14.15L16.725 4.6375C16.8766 4.47812 16.8719 4.22656 16.7125 4.075C16.5531 3.92344 16.3016 3.92812 16.15 4.0875L6.0875 12.2375L1.4 10.7125L18.9875 1.175ZM14.3125 6.6L9.0625 13.8875C9.04844 13.9031 9.03594 13.9203 9.025 13.9375L9 13.9625C8.99063 13.975 8.98282 13.9875 8.975 14L6.1125 17.2125L6.5375 12.8875L14.3125 6.6Z" fill="var(--fill-0, black)"/>
</g>
<defs>
<clipPath id="clip0_0_9">
<rect width="20" height="20" fill="white"/>
</clipPath>
</defs>
</svg>
