<svg preserveAspectRatio="none" width="100%" height="100%" overflow="visible" style="display: block;" viewBox="0 0 20 20" fill="none" xmlns="http://www.w3.org/2000/svg">
<g id="shield">
<path id="Vector" d="M10 0C9.01875 0 8.19062 0.542188 6.9625 1.175C5.73437 1.80781 4.08594 2.57188 1.5125 3.1375L1.2 3.2125V3.525C1.2 9.65312 3.34844 13.7484 5.5 16.2875C7.65156 18.8266 9.8375 19.8375 9.8375 19.8375L10.0125 19.925L10.1875 19.8375C10.1875 19.8375 18.8 15.3875 18.8 3.525V3.2125L18.4875 3.1375C15.9141 2.57188 14.2656 1.80781 13.0375 1.175C11.8094 0.542188 10.9812 0 10 0ZM10 0.8C10.6578 0.8 11.4203 1.24219 12.675 1.8875C13.8672 2.5 15.5437 3.25156 17.975 3.825C17.8281 14.6719 10.5016 18.7406 9.9875 19.0125C9.73906 18.8922 8.00781 18.0266 6.1 15.775C4.08906 13.4016 2.09844 9.58437 2.025 3.825C4.45625 3.25156 6.13281 2.5 7.325 1.8875C8.57969 1.24219 9.34219 0.8 10 0.8Z" fill="var(--fill-0, black)"/>
</g>
</svg>
