<svg preserveAspectRatio="none" width="100%" height="100%" overflow="visible" style="display: block;" viewBox="0 0 20 20" fill="none" xmlns="http://www.w3.org/2000/svg">
<g id="shrink">
<path id="Vector" d="M1.99608 1.59609C1.91651 1.59611 1.83875 1.61986 1.77274 1.66431C1.70674 1.70875 1.65549 1.77187 1.62555 1.8456C1.5956 1.91932 1.58833 2.0003 1.60465 2.07818C1.62097 2.15606 1.66015 2.22731 1.71717 2.28281L7.43436 8H3.59999C3.54698 7.99925 3.49436 8.00904 3.44517 8.0288C3.39598 8.04857 3.35121 8.07791 3.31347 8.11513C3.27572 8.15235 3.24574 8.1967 3.22528 8.2456C3.20483 8.2945 3.19429 8.34699 3.19429 8.4C3.19429 8.45301 3.20483 8.50549 3.22528 8.55439C3.24574 8.60329 3.27572 8.64764 3.31347 8.68486C3.35121 8.72208 3.39598 8.75142 3.44517 8.77119C3.49436 8.79095 3.54698 8.80075 3.59999 8.8H8.79999V3.6C8.80072 3.54648 8.79071 3.49336 8.77054 3.44378C8.75037 3.39421 8.72046 3.34918 8.68258 3.31137C8.6447 3.27357 8.59962 3.24374 8.55 3.22367C8.50039 3.2036 8.44725 3.19369 8.39374 3.19453C8.28779 3.19618 8.18682 3.23981 8.113 3.31582C8.03918 3.39184 7.99854 3.49404 7.99999 3.6V7.43437L2.2828 1.71718C2.24552 1.67887 2.20094 1.64841 2.1517 1.62761C2.10245 1.60681 2.04954 1.59609 1.99608 1.59609ZM17.9922 1.59609C17.8883 1.59919 17.7896 1.64262 17.7172 1.71718L12 7.43437V3.6C12.0007 3.54648 11.9907 3.49336 11.9705 3.44378C11.9504 3.39421 11.9205 3.34918 11.8826 3.31137C11.8447 3.27357 11.7996 3.24374 11.75 3.22367C11.7004 3.2036 11.6473 3.19369 11.5937 3.19453C11.4878 3.19618 11.3868 3.23981 11.313 3.31582C11.2392 3.39184 11.1985 3.49404 11.2 3.6V8.8H16.4C16.453 8.80075 16.5056 8.79095 16.5548 8.77119C16.604 8.75142 16.6488 8.72208 16.6865 8.68486C16.7243 8.64764 16.7542 8.60329 16.7747 8.55439C16.7951 8.50549 16.8057 8.45301 16.8057 8.4C16.8057 8.34699 16.7951 8.2945 16.7747 8.2456C16.7542 8.1967 16.7243 8.15235 16.6865 8.11513C16.6488 8.07791 16.604 8.04857 16.5548 8.0288C16.5056 8.00904 16.453 7.99925 16.4 8H12.5656L18.2828 2.28281C18.3406 2.22662 18.3801 2.15429 18.3961 2.07528C18.412 1.99627 18.4038 1.91428 18.3724 1.84004C18.341 1.76581 18.2878 1.7028 18.22 1.65927C18.1522 1.61573 18.0727 1.59371 17.9922 1.59609V1.59609ZM3.59999 11.2C3.54698 11.1992 3.49436 11.209 3.44517 11.2288C3.39598 11.2486 3.35121 11.2779 3.31347 11.3151C3.27572 11.3523 3.24574 11.3967 3.22528 11.4456C3.20483 11.4945 3.19429 11.547 3.19429 11.6C3.19429 11.653 3.20483 11.7055 3.22528 11.7544C3.24574 11.8033 3.27572 11.8476 3.31347 11.8849C3.35121 11.9221 3.39598 11.9514 3.44517 11.9712C3.49436 11.991 3.54698 12.0007 3.59999 12H7.43436L1.71717 17.7172C1.67878 17.754 1.64814 17.7982 1.62702 17.847C1.60591 17.8959 1.59475 17.9485 1.59421 18.0017C1.59367 18.0549 1.60375 18.1077 1.62387 18.157C1.64398 18.2062 1.67373 18.251 1.71136 18.2886C1.74899 18.3263 1.79375 18.356 1.84302 18.3761C1.89229 18.3962 1.94508 18.4063 1.9983 18.4058C2.05152 18.4052 2.10409 18.3941 2.15294 18.373C2.20179 18.3518 2.24594 18.3212 2.2828 18.2828L7.99999 12.5656V16.4C7.99924 16.453 8.00903 16.5056 8.02879 16.5548C8.04856 16.604 8.0779 16.6488 8.11512 16.6865C8.15234 16.7243 8.19669 16.7542 8.24559 16.7747C8.29449 16.7952 8.34698 16.8057 8.39999 16.8057C8.453 16.8057 8.50548 16.7952 8.55438 16.7747C8.60328 16.7542 8.64763 16.7243 8.68485 16.6865C8.72207 16.6488 8.75141 16.604 8.77118 16.5548C8.79094 16.5056 8.80074 16.453 8.79999 16.4V11.2H3.59999ZM11.2 11.2V16.4C11.1992 16.453 11.209 16.5056 11.2288 16.5548C11.2486 16.604 11.2779 16.6488 11.3151 16.6865C11.3523 16.7243 11.3967 16.7542 11.4456 16.7747C11.4945 16.7952 11.547 16.8057 11.6 16.8057C11.653 16.8057 11.7055 16.7952 11.7544 16.7747C11.8033 16.7542 11.8476 16.7243 11.8849 16.6865C11.9221 16.6488 11.9514 16.604 11.9712 16.5548C11.9909 16.5056 12.0007 16.453 12 16.4V12.5656L16.9172 17.4828L17.7172 18.2828C17.759 18.3263 17.81 18.3598 17.8666 18.3808C17.9231 18.4017 17.9837 18.4096 18.0437 18.4039C18.0568 18.4027 18.0699 18.4009 18.0828 18.3984C18.1547 18.3843 18.2213 18.3508 18.2754 18.3014C18.3295 18.2521 18.3691 18.1888 18.3897 18.1185C18.4103 18.0483 18.4113 17.9737 18.3924 17.9029C18.3736 17.8321 18.3357 17.7679 18.2828 17.7172L17.5055 16.9406C17.4982 16.9325 17.4907 16.9247 17.4828 16.9172L12.5656 12H16.4C16.453 12.0007 16.5056 11.991 16.5548 11.9712C16.604 11.9514 16.6488 11.9221 16.6865 11.8849C16.7243 11.8476 16.7542 11.8033 16.7747 11.7544C16.7951 11.7055 16.8057 11.653 16.8057 11.6C16.8057 11.547 16.7951 11.4945 16.7747 11.4456C16.7542 11.3967 16.7243 11.3523 16.6865 11.3151C16.6488 11.2779 16.604 11.2486 16.5548 11.2288C16.5056 11.209 16.453 11.1992 16.4 11.2H11.2Z" fill="var(--fill-0, black)"/>
</g>
</svg>
