<svg preserveAspectRatio="none" width="100%" height="100%" overflow="visible" style="display: block;" viewBox="0 0 20 20" fill="none" xmlns="http://www.w3.org/2000/svg">
<g id="sliders" clip-path="url(#clip0_0_9)">
<path id="Vector" d="M6.39999 0.8C5.74218 0.8 5.19999 1.34219 5.19999 2V2.8H1.19999C1.18749 2.8 1.17499 2.8 1.16249 2.8C0.942179 2.81094 0.770304 2.99844 0.781241 3.21875C0.792179 3.43906 0.979679 3.61094 1.19999 3.6H5.19999V4.4C5.19999 5.05781 5.74218 5.6 6.39999 5.6H7.19999C7.8578 5.6 8.39999 5.05781 8.39999 4.4V2C8.39999 1.34219 7.8578 0.8 7.19999 0.8H6.39999ZM6.39999 1.6H7.19999C7.42655 1.6 7.59999 1.77344 7.59999 2V4.4C7.59999 4.62656 7.42655 4.8 7.19999 4.8H6.39999C6.17343 4.8 5.99999 4.62656 5.99999 4.4V3.275C6.01093 3.22188 6.01093 3.16563 5.99999 3.1125V2C5.99999 1.77344 6.17343 1.6 6.39999 1.6ZM8.79999 2.8V3.6H18.8C18.9437 3.60156 19.0781 3.52656 19.1516 3.40156C19.2234 3.27656 19.2234 3.12344 19.1516 2.99844C19.0781 2.87344 18.9437 2.79844 18.8 2.8H8.79999ZM13.6 7.6C12.9422 7.6 12.4 8.14219 12.4 8.8V9.6H1.19999C1.18749 9.6 1.17499 9.6 1.16249 9.6C0.942179 9.61094 0.770304 9.79844 0.781241 10.0188C0.792179 10.2391 0.979679 10.4109 1.19999 10.4H12.4V11.2C12.4 11.8578 12.9422 12.4 13.6 12.4H14.4C15.0578 12.4 15.6 11.8578 15.6 11.2V8.8C15.6 8.14219 15.0578 7.6 14.4 7.6H13.6ZM13.6 8.4H14.4C14.6266 8.4 14.8 8.57344 14.8 8.8V11.2C14.8 11.4266 14.6266 11.6 14.4 11.6H13.6C13.3734 11.6 13.2 11.4266 13.2 11.2V10.075C13.2109 10.0219 13.2109 9.96563 13.2 9.9125V8.8C13.2 8.57344 13.3734 8.4 13.6 8.4ZM16 9.6V10.4H18.8C18.9437 10.4016 19.0781 10.3266 19.1516 10.2016C19.2234 10.0766 19.2234 9.92344 19.1516 9.79844C19.0781 9.67344 18.9437 9.59844 18.8 9.6H16ZM5.19999 14.4C4.54218 14.4 3.99999 14.9422 3.99999 15.6V16.4H1.19999C1.18749 16.4 1.17499 16.4 1.16249 16.4C1.14999 16.4 1.13749 16.4 1.12499 16.4C0.904679 16.4203 0.742179 16.6172 0.762491 16.8375C0.782804 17.0578 0.979679 17.2203 1.19999 17.2H3.99999V18C3.99999 18.6578 4.54218 19.2 5.19999 19.2H5.99999C6.6578 19.2 7.19999 18.6578 7.19999 18V15.6C7.19999 14.9422 6.6578 14.4 5.99999 14.4H5.19999ZM5.19999 15.2H5.99999C6.22655 15.2 6.39999 15.3734 6.39999 15.6V18C6.39999 18.2266 6.22655 18.4 5.99999 18.4H5.19999C4.97343 18.4 4.79999 18.2266 4.79999 18V16.875C4.81093 16.8219 4.81093 16.7656 4.79999 16.7125V15.6C4.79999 15.3734 4.97343 15.2 5.19999 15.2ZM7.59999 16.4V17.2H18.8C18.9437 17.2016 19.0781 17.1266 19.1516 17.0016C19.2234 16.8766 19.2234 16.7234 19.1516 16.5984C19.0781 16.4734 18.9437 16.3984 18.8 16.4H7.59999Z" fill="var(--fill-0, black)"/>
</g>
<defs>
<clipPath id="clip0_0_9">
<rect width="20" height="20" fill="white"/>
</clipPath>
</defs>
</svg>
