<svg preserveAspectRatio="none" width="100%" height="100%" overflow="visible" style="display: block;" viewBox="0 0 15 20" fill="none" xmlns="http://www.w3.org/2000/svg">
<path id="Vector" d="M5.92802 0.00158342C5.3298 0.0184554 4.75181 0.312687 4.4225 0.826812L4.30616 1.00911C4.14001 1.26815 3.84726 1.4277 3.52711 1.43393H3.52625L3.30047 1.43882C2.3316 1.45787 1.54234 2.20268 1.52263 3.11776L1.51746 3.33098C1.51085 3.63333 1.3414 3.91036 1.06761 4.06669L0.874572 4.17737C0.0455361 4.65129 -0.243933 5.66951 0.223071 6.47157H0.223933L0.332516 6.65875C0.487011 6.92364 0.487011 7.2435 0.332516 7.50839L0.223933 7.69476C-0.242997 8.4967 0.0458579 9.51507 0.875434 9.98896L1.06847 10.0988C1.34277 10.2557 1.51172 10.5322 1.51832 10.8345V10.8353L1.52349 11.0486C1.53981 11.7887 2.06236 12.4106 2.77306 12.6339L0.480741 17.3249C0.449636 17.3884 0.435968 17.4583 0.440997 17.5281C0.446025 17.5979 0.469589 17.6654 0.509515 17.7243C0.549441 17.7833 0.604443 17.8318 0.669448 17.8654C0.734453 17.899 0.807368 17.9166 0.881466 17.9165H3.75807L5.39027 19.8437C5.43775 19.8997 5.49973 19.9432 5.57023 19.9699C5.64073 19.9967 5.71735 20.0058 5.79267 19.9964C5.86799 19.987 5.93946 19.9594 6.00016 19.9162C6.06086 19.8731 6.10874 19.8158 6.13915 19.7501L7.51368 16.7837L8.88821 19.7501C8.91862 19.8158 8.9665 19.8731 9.0272 19.9162C9.0879 19.9594 9.15937 19.987 9.23469 19.9964C9.31001 20.0058 9.38663 19.9967 9.45713 19.9699C9.52763 19.9432 9.58961 19.8997 9.63709 19.8437L11.2693 17.9165H14.1459C14.22 17.9166 14.2929 17.899 14.3579 17.8654C14.4229 17.8318 14.4779 17.7833 14.5178 17.7243C14.5578 17.6654 14.5813 17.5979 14.5864 17.5281C14.5914 17.4583 14.5777 17.3884 14.5466 17.3249L12.2509 12.6266C12.9496 12.397 13.461 11.7806 13.4772 11.0486V11.0478L13.4823 10.8353V10.8345C13.4889 10.5322 13.6584 10.2552 13.9322 10.0988L14.1261 9.98815C14.9551 9.51422 15.2437 8.49682 14.7767 7.69476L14.7759 7.69395L14.6655 7.50595C14.512 7.24138 14.5122 6.92229 14.6664 6.65794L14.7759 6.47157V6.47075C15.2426 5.66917 14.954 4.65153 14.1252 4.17737L14.1244 4.17655L13.9313 4.06669C13.657 3.90986 13.4881 3.63332 13.4815 3.33098V3.33017L13.4763 3.11776V3.11694C13.4561 2.20197 12.6674 1.45662 11.6985 1.438L11.4727 1.43312C11.1525 1.42688 10.8592 1.26685 10.6936 1.0083L10.5764 0.825998C10.0746 0.0425703 8.99626 -0.230216 8.14708 0.210739V0.211553L7.94888 0.314096C7.66838 0.459997 7.32968 0.459997 7.04918 0.314096L6.85184 0.211553C6.63954 0.101314 6.41316 0.0355778 6.18482 0.0113494C6.0992 0.00226378 6.01347 -0.000826887 5.92802 0.00158342ZM5.90561 0.832508C6.08012 0.820483 6.26095 0.855348 6.42698 0.941562L6.62347 1.04411C7.16807 1.32739 7.83085 1.32739 8.37545 1.04411L8.5728 0.940748V0.941562C9.01554 0.711657 9.55999 0.849043 9.82151 1.25733L9.93871 1.43963C10.2602 1.94141 10.8328 2.25412 11.4537 2.26648L11.6804 2.27137C12.1857 2.28108 12.5844 2.65683 12.5947 3.13403V3.13485L12.599 3.34807C12.6118 3.93493 12.9432 4.47565 13.4746 4.77961L13.6676 4.89029C14.0997 5.13711 14.2457 5.65074 14.0028 6.06872L13.8934 6.2559C13.5934 6.77021 13.5934 7.3953 13.8934 7.90961L13.8943 7.91043V7.91124L14.0037 8.09598C14.2471 8.51397 14.1004 9.02829 13.6685 9.27523L13.4754 9.38591C12.9435 9.6896 12.6127 10.2306 12.5999 10.8174L12.5956 11.0307V11.0315C12.5853 11.5087 12.1865 11.8844 11.6812 11.8941L11.4546 11.899C10.8335 11.9114 10.2613 12.2235 9.93957 12.7251V12.7259L9.82237 12.9082C9.56085 13.3165 9.01641 13.4539 8.57366 13.224V13.2248L8.37632 13.1214C7.83171 12.8381 7.16893 12.8381 6.62433 13.1214L6.42698 13.2248V13.224C5.98438 13.4538 5.43975 13.3161 5.17827 12.9082L5.06107 12.7259C4.73957 12.2241 4.16696 11.9114 3.54607 11.899H3.54521L3.31943 11.8941C2.81411 11.8844 2.41536 11.5087 2.40508 11.0315V11.0307L2.40077 10.8174C2.38796 10.2306 2.05659 9.68986 1.52521 9.38591L1.33217 9.27523C0.899852 9.0282 0.753496 8.51409 0.996944 8.09598L1.10553 7.91043V7.90961C1.40508 7.39544 1.40536 6.76997 1.10553 6.2559L0.996082 6.06953H0.996944C0.75357 5.65155 0.899339 5.13722 1.33131 4.89029L1.52435 4.77961C2.05568 4.47599 2.38682 3.93523 2.39991 3.34888V3.34807L2.40508 3.13485C2.41536 2.65764 2.81325 2.28108 3.31856 2.27137H3.31943L3.54521 2.2673C4.16664 2.2552 4.73921 1.94226 5.06107 1.44044L5.17827 1.25814C5.30903 1.054 5.50992 0.916875 5.73412 0.860179C5.79017 0.846005 5.84744 0.836517 5.90561 0.832508ZM11.3391 12.7511L13.4556 17.0832H11.0573C10.9911 17.0831 10.9258 17.0971 10.8661 17.1242C10.8064 17.1512 10.754 17.1906 10.7126 17.2394L9.40355 18.7841L7.99541 15.7428L8.73826 14.1395C9.4474 14.2441 10.1868 13.9492 10.5773 13.3395L10.6945 13.1572C10.8367 12.9355 11.0735 12.7933 11.3391 12.7511ZM3.68654 12.7544C3.94205 12.8017 4.16887 12.9428 4.30616 13.1572L4.42336 13.3395C4.9252 14.1225 6.00339 14.3958 6.8527 13.9548V13.954L7.05091 13.8514C7.32015 13.7114 7.64172 13.7096 7.91527 13.8384L5.62381 18.7841L4.31477 17.2394C4.2734 17.1906 4.22094 17.1512 4.16127 17.1242C4.1016 17.0971 4.03625 17.0831 3.97006 17.0832H1.57175L3.68654 12.7544Z" fill="var(--fill-0, black)"/>
</svg>
