<svg preserveAspectRatio="none" width="100%" height="100%" overflow="visible" style="display: block;" viewBox="0 0 18.7916 17.8871" fill="none" xmlns="http://www.w3.org/2000/svg">
<path id="Vector (Stroke)" fill-rule="evenodd" clip-rule="evenodd" d="M9.39579 0C9.55915 0 9.70572 0.100367 9.76478 0.252672L12.0704 6.19802L18.4162 6.52534C18.5796 6.53377 18.7209 6.64186 18.7719 6.79733C18.8228 6.9528 18.7729 7.1236 18.6462 7.2271L13.7065 11.2619L15.3292 17.3901C15.371 17.5479 15.3116 17.7152 15.1797 17.8113C15.0477 17.9074 14.8703 17.9126 14.7329 17.8244L9.39579 14.399L4.0587 17.8244C3.92132 17.9126 3.74388 17.9074 3.61192 17.8113C3.47996 17.7152 3.42056 17.5479 3.46235 17.3901L5.08504 11.2619L0.145423 7.2271C0.0187144 7.1236 -0.0312497 6.9528 0.0197009 6.79733C0.0706515 6.64186 0.212013 6.53377 0.375402 6.52534L6.72117 6.19802L9.0268 0.252672C9.08586 0.100367 9.23243 0 9.39579 0ZM9.39579 1.49036L7.36649 6.72316C7.31011 6.86855 7.17361 6.96728 7.01788 6.97531L1.4406 7.26299L5.78326 10.8102C5.90352 10.9084 5.95522 11.0679 5.91548 11.218L4.48818 16.6083L9.18202 13.5957C9.31227 13.5121 9.47931 13.5121 9.60956 13.5957L14.3034 16.6083L12.8761 11.218C12.8364 11.0679 12.8881 10.9084 13.0083 10.8102L17.351 7.26299L11.7737 6.97531C11.618 6.96728 11.4815 6.86855 11.4251 6.72316L9.39579 1.49036Z" fill="var(--fill-0, black)"/>
</svg>
