<svg preserveAspectRatio="none" width="100%" height="100%" overflow="visible" style="display: block;" viewBox="0 0 20 20" fill="none" xmlns="http://www.w3.org/2000/svg">
<g id="swatches">
<path id="Vector" d="M1.6 1.2C1.37969 1.2 1.2 1.37969 1.2 1.6V18.4C1.2 18.6203 1.37969 18.8 1.6 18.8H6C6.22031 18.8 6.4 18.6203 6.4 18.4V1.6C6.4 1.37969 6.22031 1.2 6 1.2H1.6ZM2 2H5.6V18H2V2ZM9.63281 2.17969C9.47969 2.15938 9.32187 2.23125 9.2375 2.37344L7.2 5.83281V7.41094L7.49219 6.91406L10.5937 8.74219L8.76719 11.8437L7.2 10.9219V11.85L8.3625 12.5328L7.2 14.5062V16.0828L9.25312 12.5953L9.25469 12.5937L11.4859 8.80469V8.80312V8.80156L13.7172 5.01094C13.7719 4.91875 13.7875 4.81094 13.7609 4.70781C13.7344 4.60469 13.6672 4.51719 13.575 4.4625L9.78437 2.23125C9.73594 2.20313 9.68437 2.18594 9.63281 2.17969ZM9.72344 3.12344L12.825 4.95L11 8.05156L7.89687 6.225L9.72344 3.12344ZM15.1953 6.40469C15.1437 6.4125 15.0937 6.43125 15.0484 6.45781L13.0937 7.65L12.2328 9.11094L15.1234 7.35L16.9953 10.425L13.9219 12.2969L12.1078 9.32031L11.6484 10.1031L13.2391 12.7125L10.1641 14.5859L9.57656 13.6219L9.11719 14.4047L9.48125 15.0016L7.2 16.3922V17.3297L13.9953 13.1875H13.9969L17.7547 10.8984C17.9437 10.7844 18.0031 10.5375 17.8875 10.35L15.5984 6.59219C15.5422 6.50156 15.4547 6.43594 15.3516 6.41094C15.3 6.39844 15.2469 6.39687 15.1953 6.40469ZM14.8594 13.6L14.4125 13.8719L13.5453 14.4H13.6V18H10V16.5609L9.2 17.0484V18H7.2V18.8H18.4C18.6219 18.8 18.8 18.6203 18.8 18.4V14C18.8 13.7797 18.6219 13.6 18.4 13.6H14.8594ZM14.4 14.4H18V18H14.4V14.4ZM3.8 15.6C3.46875 15.6 3.2 15.8687 3.2 16.2C3.2 16.5312 3.46875 16.8 3.8 16.8C4.13125 16.8 4.4 16.5312 4.4 16.2C4.4 15.8687 4.13125 15.6 3.8 15.6Z" fill="var(--fill-0, black)"/>
</g>
</svg>
