<svg preserveAspectRatio="none" width="100%" height="100%" overflow="visible" style="display: block;" viewBox="0 0 20 20" fill="none" xmlns="http://www.w3.org/2000/svg">
<g id="thumbs-up">
<path id="Vector" d="M9.6 1.6C9.12969 1.6 8.67656 1.89063 8.375 2.3625C8.36406 2.37813 8.34688 2.38438 8.3375 2.4L3.875 8.525C3.42813 9.15156 3.2 9.87969 3.2 10.6375V14.4C3.2 16.3781 4.82188 18 6.8 18H14.4C15.0063 18 15.5078 17.7547 15.85 17.425C16.1922 17.0953 16.4 16.6891 16.4 16.275C16.4 15.9328 16.3203 15.6516 16.2375 15.4375C16.6266 15.2281 17.2 14.8312 17.2 13.925C17.2 13.3547 16.9234 12.9812 16.65 12.7375C16.9234 12.4687 17.2 12.0734 17.2 11.475C17.2 10.5781 16.6313 10.2109 16.3 10.0375C16.3344 9.83125 16.4 9.52812 16.4 9.1625C16.4 8.37969 15.6609 7.64375 14.575 7.6375C14.5719 7.6375 14.5656 7.6375 14.5625 7.6375C13.3203 7.60156 10.3203 7.6 9.575 7.6C9.70781 7.30156 9.80469 7.09375 10.05 6.5375C10.4234 5.69062 10.8156 4.80312 10.9375 4.4625C10.9375 4.46094 10.9375 4.45156 10.9375 4.45C11.0453 4.16406 11.2 3.88125 11.2 3.4375C11.2 2.82031 10.9594 2.33906 10.6375 2.0375C10.3156 1.73594 9.94063 1.6 9.6 1.6ZM9.6 2.4C9.69844 2.4 9.91875 2.46719 10.0875 2.625C10.2563 2.78281 10.4 3.01563 10.4 3.4375C10.4 3.70937 10.3188 3.82344 10.1875 4.175C10.1875 4.17969 10.1875 4.18281 10.1875 4.1875C10.1078 4.41094 9.7 5.36406 9.325 6.2125C8.95 7.06094 8.6 7.8375 8.6 7.8375C8.54531 7.96094 8.55625 8.10312 8.62969 8.21719C8.70313 8.32969 8.82813 8.39844 8.9625 8.4C8.9625 8.4 13.2141 8.39844 14.55 8.4375C14.5547 8.4375 14.5578 8.4375 14.5625 8.4375C15.3078 8.4375 15.6 8.90937 15.6 9.1625C15.6 9.48281 15.4875 10.175 15.4875 10.175C15.4578 10.3656 15.5688 10.5484 15.75 10.6125C15.75 10.6125 16.4 10.8219 16.4 11.475C16.4 12.0609 15.8125 12.4125 15.8125 12.4125C15.675 12.4859 15.5922 12.6312 15.6 12.7875C15.6078 12.9422 15.7047 13.0797 15.85 13.1375C15.85 13.1375 16.4 13.3391 16.4 13.925C16.4 14.5844 15.575 14.9 15.575 14.9C15.4563 14.9422 15.3641 15.0391 15.3281 15.1594C15.2906 15.2797 15.3125 15.4109 15.3875 15.5125C15.3875 15.5125 15.6 15.8 15.6 16.275C15.6 16.3812 15.5078 16.65 15.3 16.85C15.0922 17.05 14.7938 17.2 14.4 17.2H6.8C5.25781 17.2 4 15.9422 4 14.4V10.6375C4 10.0391 4.17656 9.49219 4.525 9C4.52656 8.99687 4.52344 8.99062 4.525 8.9875L9 2.8375C9.00938 2.825 9.01719 2.8125 9.025 2.8C9.20469 2.50156 9.44688 2.4 9.6 2.4Z" fill="var(--fill-0, black)"/>
</g>
</svg>
