<svg preserveAspectRatio="none" width="100%" height="100%" overflow="visible" style="display: block;" viewBox="0 0 20 20" fill="none" xmlns="http://www.w3.org/2000/svg">
<g id="thumbs-down">
<path id="Vector" d="M6.8 2C4.82188 2 3.2 3.62188 3.2 5.6V9.3625C3.2 10.1203 3.42813 10.8484 3.875 11.475L8.3375 17.6C8.34688 17.6156 8.36406 17.6219 8.375 17.6375C8.67656 18.1094 9.12969 18.4 9.6 18.4C9.94063 18.4 10.3156 18.2641 10.6375 17.9625C10.9594 17.6609 11.2 17.1797 11.2 16.5625C11.2 16.1141 11.0438 15.8672 10.9375 15.55C10.8172 15.2125 10.425 14.3141 10.05 13.4625C9.80469 12.9062 9.70781 12.6984 9.575 12.4C10.3203 12.4 13.3203 12.3984 14.5625 12.3625C14.5672 12.3625 14.5703 12.3625 14.575 12.3625C15.6609 12.3562 16.4 11.6203 16.4 10.8375C16.4 10.4719 16.3344 10.1687 16.3 9.9625C16.6313 9.78906 17.2 9.42187 17.2 8.525C17.2 7.92656 16.9234 7.53125 16.65 7.2625C16.9234 7.01875 17.2 6.64531 17.2 6.075C17.2 5.16875 16.6266 4.77188 16.2375 4.5625C16.3203 4.34844 16.4 4.06719 16.4 3.725C16.4 3.31094 16.1922 2.90469 15.85 2.575C15.5078 2.24531 15.0063 2 14.4 2H6.8ZM6.8 2.8H14.4C14.7938 2.8 15.0922 2.95 15.3 3.15C15.5078 3.35 15.6 3.61875 15.6 3.725C15.6 4.2 15.3875 4.4875 15.3875 4.4875C15.3125 4.58906 15.2906 4.72031 15.3281 4.84063C15.3641 4.96094 15.4563 5.05781 15.575 5.1C15.575 5.1 16.4 5.41562 16.4 6.075C16.4 6.66094 15.85 6.8625 15.85 6.8625C15.7047 6.92031 15.6078 7.05781 15.6 7.2125C15.5922 7.36875 15.675 7.51406 15.8125 7.5875C15.8125 7.5875 16.4 7.93906 16.4 8.525C16.4 9.17812 15.75 9.3875 15.75 9.3875C15.5688 9.45156 15.4578 9.63437 15.4875 9.825C15.4875 9.825 15.6 10.5172 15.6 10.8375C15.6 11.0906 15.3078 11.5625 14.5625 11.5625C14.5578 11.5625 14.5547 11.5625 14.55 11.5625C13.2141 11.6016 8.9625 11.6 8.9625 11.6C8.82813 11.6016 8.70313 11.6703 8.62969 11.7828C8.55625 11.8969 8.54531 12.0391 8.6 12.1625C8.6 12.1625 8.95 12.9391 9.325 13.7875C9.7 14.6359 10.1078 15.5891 10.1875 15.8125H10.175C10.3094 16.2141 10.4 16.2906 10.4 16.5625C10.4 16.9844 10.2563 17.2172 10.0875 17.375C9.91875 17.5328 9.69844 17.6 9.6 17.6C9.44688 17.6 9.20469 17.4984 9.025 17.2C9.01719 17.1875 9.00938 17.175 9 17.1625L4.525 11.0125C4.52344 11.0094 4.52656 11.0031 4.525 11C4.17656 10.5078 4 9.96094 4 9.3625V5.6C4 4.05781 5.25781 2.8 6.8 2.8Z" fill="var(--fill-0, black)"/>
</g>
</svg>
