<svg preserveAspectRatio="none" width="100%" height="100%" overflow="visible" style="display: block;" viewBox="0 0 20 20" fill="none" xmlns="http://www.w3.org/2000/svg">
<g id="tools" clip-path="url(#clip0_0_9)">
<path id="Vector" d="M15.4 -0.0375C15.2812 -0.034375 15.1578 -0.0265625 15.0375 -0.0125C14.5578 0.0421876 14.0625 0.173438 13.5875 0.35C12.6375 0.703125 11.7625 1.2375 11.2 1.8C10.5922 2.40781 10.2937 3.15 10.3 3.9125C10.3047 4.57188 10.5516 5.2375 10.9125 5.875L10 6.8C9.88125 6.89688 9.82656 7.05156 9.86094 7.20156C9.89531 7.35 10.0125 7.46719 10.1609 7.50156C10.3109 7.53594 10.4656 7.48125 10.5625 7.3625L11.6875 6.2375C11.8203 6.10313 11.8406 5.89531 11.7375 5.7375C11.3281 5.10469 11.1047 4.47969 11.1 3.9125C11.0953 3.34531 11.2906 2.83438 11.7625 2.3625C12.2 1.925 13.025 1.41719 13.875 1.1C14.4094 0.901562 14.9187 0.826562 15.3875 0.8125L13.875 2.3125C13.8703 2.32031 13.8656 2.32969 13.8625 2.3375C13.4516 2.80625 13.4328 3.52031 13.875 3.9625L16 6.0875C16.0047 6.09219 16.0078 6.09531 16.0125 6.1C16.4812 6.51094 17.1953 6.52969 17.6375 6.0875L19.15 4.575C19.1375 5.05156 19.0625 5.56563 18.8625 6.1C18.5469 6.94531 18.0391 7.76094 17.6 8.2C17.1281 8.67188 16.6266 8.84531 16.0625 8.8375C15.4984 8.82969 14.8594 8.60781 14.2 8.2125C14.0422 8.11875 13.8422 8.14531 13.7125 8.275L13.075 8.9125C12.9156 9.06719 12.9141 9.32188 13.0687 9.48125C13.2234 9.64063 13.4781 9.64219 13.6375 9.4875L14.0875 9.0375C14.7375 9.38594 15.3906 9.62813 16.05 9.6375C16.8062 9.64844 17.5547 9.37031 18.1625 8.7625C18.7234 8.20156 19.2594 7.33281 19.6125 6.3875C19.9656 5.44219 20.1516 4.41719 19.8625 3.55C19.8172 3.41875 19.7078 3.32188 19.5734 3.29063C19.4375 3.26094 19.2969 3.30156 19.2 3.4L17.075 5.5125C16.9625 5.625 16.7312 5.64063 16.5625 5.5125C16.5547 5.50625 16.5453 5.50625 16.5375 5.5L14.4375 3.4C14.3187 3.28125 14.3125 3.03281 14.4625 2.8625L16.5625 0.7625C16.6609 0.665625 16.7016 0.525 16.6719 0.389062C16.6406 0.254688 16.5437 0.145312 16.4125 0.1C16.0922 -0.00937501 15.7547 -0.0484376 15.4 -0.0375ZM1.3375 -1.3571e-08C1.25312 0.0125 1.17344 0.0515624 1.1125 0.1125L0.1125 1.1125C-0.0171878 1.24219 -0.0437503 1.44219 0.0499997 1.6L1.7375 4.525C1.82187 4.6625 1.97812 4.73594 2.1375 4.7125L3.0125 4.575L8.4375 10L8.2375 10.2C7.79531 10.6422 7.79531 11.3578 8.2375 11.8L8.5125 12.0875C8.83125 12.4062 9.27031 12.4047 9.6625 12.275L10.3375 12.9375C10.2922 13.4766 10.45 14.0125 10.8375 14.4L15.7125 19.2875C16.7 20.275 18.3 20.275 19.2875 19.2875C19.2875 19.2828 19.2875 19.2797 19.2875 19.275C20.2359 18.2781 20.2484 16.6734 19.2875 15.7125L14.4 10.8375C13.9969 10.4344 13.4609 10.3094 12.9375 10.3375L12.275 9.6625C12.4047 9.27031 12.4062 8.83125 12.0875 8.5125L11.8 8.2375C11.5797 8.01719 11.2906 7.9 11 7.9C10.7094 7.9 10.4203 8.01719 10.2 8.2375L10 8.4375L4.575 3.0125L4.7125 2.1375C4.73594 1.97813 4.6625 1.82188 4.525 1.7375L1.6 0.05C1.53125 0.0109375 1.45312 -0.00625001 1.375 -1.3571e-08C1.3625 -1.3571e-08 1.35 -1.3571e-08 1.3375 -1.3571e-08ZM1.475 0.9L3.8875 2.2875L3.7625 3.1C3.74531 3.22344 3.7875 3.34844 3.875 3.4375L9.4375 9L9 9.4375L3.4375 3.875C3.34844 3.7875 3.22344 3.74531 3.1 3.7625L2.2875 3.8875L0.9 1.475L1.475 0.9ZM11 8.7125C11.0891 8.7125 11.1781 8.74063 11.2375 8.8L11.5125 9.0875C11.6437 9.21875 11.6422 9.41406 11.5375 9.5375C11.3984 9.69844 11.4094 9.94063 11.5625 10.0875L12.475 11C12.5672 11.0922 12.6969 11.1344 12.825 11.1125C13.1953 11.0516 13.5828 11.1453 13.8375 11.4L18.7125 16.2875C19.35 16.925 19.3562 18.0281 18.7125 18.7125C18.0203 19.4047 16.9797 19.4047 16.2875 18.7125L11.4 13.8375C11.1344 13.5719 11.0297 13.1953 11.1125 12.8625C11.1484 12.7219 11.1047 12.575 11 12.475L10.0875 11.5625C9.94062 11.4094 9.69844 11.3984 9.5375 11.5375C9.41406 11.6422 9.21875 11.6437 9.0875 11.5125L8.8 11.2375C8.68125 11.1187 8.68125 10.8812 8.8 10.7625L10.7625 8.8C10.8219 8.74063 10.9109 8.7125 11 8.7125ZM7.075 9.9125C6.98437 9.925 6.9 9.97031 6.8375 10.0375L4.9375 11.9375C4.66563 11.8844 4.39844 11.8375 4.125 11.8375C1.87031 11.8375 0.0374997 13.6703 0.0374997 15.925C0.0374997 18.1797 1.87031 20 4.125 20C6.37969 20 8.2 18.1797 8.2 15.925C8.2 15.6328 8.13437 15.3437 8.0625 15.0625L9.4375 13.6875C9.59687 13.5328 9.59844 13.2781 9.44375 13.1187C9.28906 12.9594 9.03437 12.9578 8.875 13.1125L7.3625 14.6375C7.24844 14.7469 7.20937 14.9141 7.2625 15.0625C7.3625 15.3281 7.4 15.5953 7.4 15.925C7.4 17.75 5.95 19.2 4.125 19.2C2.3 19.2 0.8375 17.75 0.8375 15.925C0.8375 14.1 2.3 12.6375 4.125 12.6375C4.41094 12.6375 4.69844 12.6781 4.9875 12.75C5.12344 12.7797 5.26563 12.7375 5.3625 12.6375L7.4 10.6C7.51875 10.4859 7.55469 10.3094 7.49062 10.1578C7.42812 10.0062 7.27656 9.90938 7.1125 9.9125C7.1 9.9125 7.0875 9.9125 7.075 9.9125ZM12.6875 12.1125L12.1125 12.6875L16.9125 17.4875L17.4875 16.9125L12.6875 12.1125ZM4.55 13.6C4.52813 13.6031 4.50781 13.6062 4.4875 13.6125L2.6125 14.1375C2.47969 14.175 2.375 14.2797 2.3375 14.4125L1.8125 16.2875C1.76875 16.4297 1.80781 16.5828 1.9125 16.6875L3.3125 18.0875C3.41406 18.1875 3.5625 18.2266 3.7 18.1875L5.625 17.6625C5.76563 17.6266 5.87656 17.5156 5.9125 17.375L6.3875 15.5C6.42656 15.3625 6.3875 15.2141 6.2875 15.1125L4.8875 13.7125C4.79844 13.625 4.67344 13.5828 4.55 13.6ZM4.475 14.45L5.55 15.525L5.1875 16.9625L3.725 17.35L2.65 16.275L3.0375 14.8375L4.475 14.45Z" fill="var(--fill-0, black)"/>
</g>
<defs>
<clipPath id="clip0_0_9">
<rect width="20" height="20" fill="white"/>
</clipPath>
</defs>
</svg>
