<svg preserveAspectRatio="none" width="100%" height="100%" overflow="visible" style="display: block;" viewBox="0 0 20 20" fill="none" xmlns="http://www.w3.org/2000/svg">
<g id="trash">
<path id="Vector" d="M8.39999 0.8C7.7418 0.8 7.19999 1.34182 7.19999 2V2.8H4.06171C4.03925 2.79625 4.01651 2.79442 3.99374 2.79453C3.97436 2.79495 3.95504 2.79678 3.93592 2.8H3.19999C3.14698 2.79925 3.09436 2.80904 3.04517 2.82881C2.99598 2.84857 2.95121 2.87792 2.91347 2.91514C2.87572 2.95235 2.84574 2.9967 2.82528 3.04561C2.80483 3.09451 2.79429 3.14699 2.79429 3.2C2.79429 3.25301 2.80483 3.30549 2.82528 3.35439C2.84574 3.4033 2.87572 3.44765 2.91347 3.48486C2.95121 3.52208 2.99598 3.55143 3.04517 3.57119C3.09436 3.59096 3.14698 3.60075 3.19999 3.6H3.59999V18C3.59999 18.6582 4.1418 19.2 4.79999 19.2H15.2C15.8582 19.2 16.4 18.6582 16.4 18V3.6H16.8C16.853 3.60075 16.9056 3.59096 16.9548 3.57119C17.004 3.55143 17.0488 3.52208 17.0865 3.48486C17.1243 3.44765 17.1542 3.4033 17.1747 3.35439C17.1952 3.30549 17.2057 3.25301 17.2057 3.2C17.2057 3.14699 17.1952 3.09451 17.1747 3.04561C17.1542 2.9967 17.1243 2.95235 17.0865 2.91514C17.0488 2.87792 17.004 2.84857 16.9548 2.82881C16.9056 2.80904 16.853 2.79925 16.8 2.8H16.0672C16.024 2.79286 15.9799 2.79286 15.9367 2.8H12.8V2C12.8 1.34182 12.2582 0.8 11.6 0.8H8.39999ZM8.39999 1.6H11.6C11.8218 1.6 12 1.77818 12 2V2.8H7.99999V2C7.99999 1.77818 8.17817 1.6 8.39999 1.6ZM4.39999 3.6H7.5328C7.576 3.60714 7.62007 3.60714 7.66327 3.6H12.3328C12.376 3.60714 12.4201 3.60714 12.4633 3.6H15.6V18C15.6 18.2218 15.4218 18.4 15.2 18.4H4.79999C4.57817 18.4 4.39999 18.2218 4.39999 18V3.6ZM7.59374 5.59453C7.48779 5.59619 7.38682 5.63981 7.313 5.71583C7.23918 5.79185 7.19854 5.89405 7.19999 6V16C7.19924 16.053 7.20903 16.1056 7.2288 16.1548C7.24856 16.204 7.27791 16.2488 7.31512 16.2865C7.35234 16.3243 7.39669 16.3542 7.44559 16.3747C7.4945 16.3952 7.54698 16.4057 7.59999 16.4057C7.653 16.4057 7.70548 16.3952 7.75438 16.3747C7.80328 16.3542 7.84763 16.3243 7.88485 16.2865C7.92207 16.2488 7.95141 16.204 7.97118 16.1548C7.99094 16.1056 8.00074 16.053 7.99999 16V6C8.00072 5.94648 7.99071 5.89337 7.97054 5.84379C7.95037 5.79421 7.92046 5.74919 7.88258 5.71138C7.8447 5.67357 7.79962 5.64375 7.75 5.62368C7.70039 5.60361 7.64725 5.5937 7.59374 5.59453V5.59453ZM9.99374 5.59453C9.88779 5.59619 9.78682 5.63981 9.713 5.71583C9.63918 5.79185 9.59854 5.89405 9.59999 6V16C9.59924 16.053 9.60903 16.1056 9.6288 16.1548C9.64856 16.204 9.67791 16.2488 9.71512 16.2865C9.75234 16.3243 9.79669 16.3542 9.84559 16.3747C9.8945 16.3952 9.94698 16.4057 9.99999 16.4057C10.053 16.4057 10.1055 16.3952 10.1544 16.3747C10.2033 16.3542 10.2476 16.3243 10.2849 16.2865C10.3221 16.2488 10.3514 16.204 10.3712 16.1548C10.3909 16.1056 10.4007 16.053 10.4 16V6C10.4007 5.94648 10.3907 5.89337 10.3705 5.84379C10.3504 5.79421 10.3205 5.74919 10.2826 5.71138C10.2447 5.67357 10.1996 5.64375 10.15 5.62368C10.1004 5.60361 10.0473 5.5937 9.99374 5.59453V5.59453ZM12.3937 5.59453C12.2878 5.59619 12.1868 5.63981 12.113 5.71583C12.0392 5.79185 11.9985 5.89405 12 6V16C11.9992 16.053 12.009 16.1056 12.0288 16.1548C12.0486 16.204 12.0779 16.2488 12.1151 16.2865C12.1523 16.3243 12.1967 16.3542 12.2456 16.3747C12.2945 16.3952 12.347 16.4057 12.4 16.4057C12.453 16.4057 12.5055 16.3952 12.5544 16.3747C12.6033 16.3542 12.6476 16.3243 12.6849 16.2865C12.7221 16.2488 12.7514 16.204 12.7712 16.1548C12.7909 16.1056 12.8007 16.053 12.8 16V6C12.8007 5.94648 12.7907 5.89337 12.7705 5.84379C12.7504 5.79421 12.7205 5.74919 12.6826 5.71138C12.6447 5.67357 12.5996 5.64375 12.55 5.62368C12.5004 5.60361 12.4473 5.5937 12.3937 5.59453V5.59453Z" fill="var(--fill-0, black)"/>
</g>
</svg>
