<svg preserveAspectRatio="none" width="100%" height="100%" overflow="visible" style="display: block;" viewBox="0 0 20 20" fill="none" xmlns="http://www.w3.org/2000/svg">
<g id="tray">
<path id="Vector" d="M3.5625 3.2C3.40625 3.21719 3.27344 3.325 3.225 3.475L0.8625 10.575C0.857813 10.5875 0.853125 10.6 0.85 10.6125L0.8375 10.625C0.832813 10.6328 0.828125 10.6422 0.825 10.65V10.675C0.820313 10.6797 0.817188 10.6828 0.8125 10.6875C0.8125 10.6953 0.8125 10.7047 0.8125 10.7125C0.807813 10.7172 0.804688 10.7203 0.8 10.725C0.8 10.7328 0.8 10.7422 0.8 10.75C0.8 10.7547 0.8 10.7578 0.8 10.7625C0.778125 10.8359 0.778125 10.9141 0.8 10.9875V16.8C0.8 17.0203 0.979688 17.2 1.2 17.2H18.8C19.0203 17.2 19.2 17.0203 19.2 16.8V10.9625C19.2281 10.8719 19.2234 10.775 19.1875 10.6875C19.1828 10.6828 19.1797 10.6797 19.175 10.675V10.6625C19.1672 10.6453 19.1594 10.6281 19.15 10.6125L16.775 3.475C16.7219 3.3125 16.5703 3.20156 16.4 3.2H3.6C3.5875 3.2 3.575 3.2 3.5625 3.2ZM3.8875 4H16.1125L18.25 10.4H12.8C12.5797 10.4 12.4 10.5797 12.4 10.8C12.4 12.1297 11.3297 13.2 10 13.2C8.67031 13.2 7.6 12.1297 7.6 10.8C7.6 10.5797 7.42031 10.4 7.2 10.4H1.75L3.8875 4ZM1.6 11.2H6.875C7.08125 12.7656 8.37969 14 10 14C11.6203 14 12.9187 12.7656 13.125 11.2H18.4V16.4H1.6V11.2Z" fill="var(--fill-0, black)"/>
</g>
</svg>
