<svg preserveAspectRatio="none" width="100%" height="100%" overflow="visible" style="display: block;" viewBox="0 0 17.4167 17.4167" fill="none" xmlns="http://www.w3.org/2000/svg">
<path id="Vector (Stroke)" fill-rule="evenodd" clip-rule="evenodd" d="M0 1.65705C0 0.741611 0.741611 0 1.65705 0H3.95513V4.22115C3.95513 4.36789 4.07441 4.48718 4.22115 4.48718H9.99038C10.1371 4.48718 10.2564 4.36789 10.2564 4.22115V0H12.0688L14.8526 2.78377V7.65147L14.3523 7.47427C13.787 7.274 13.1844 7.16026 12.5545 7.16026C11.2714 7.16026 10.0947 7.60996 9.16819 8.35893L9.06506 8.44231H4.22115C3.71993 8.44231 3.3141 8.84813 3.3141 9.34936V12.8205H7.15856L7.19554 13.1542C7.24143 13.5685 7.33809 13.9679 7.47427 14.3524L7.65146 14.8526H1.65705C0.741611 14.8526 0 14.111 0 13.1955V1.65705ZM1.65705 0.75C1.15582 0.75 0.75 1.15582 0.75 1.65705V13.1955C0.75 13.6967 1.15582 14.1026 1.65705 14.1026H6.61254C6.56645 13.9284 6.52762 13.7511 6.49693 13.5705H2.5641V9.34936C2.5641 8.43392 3.30571 7.69231 4.22115 7.69231H8.80214C9.83979 6.89002 11.141 6.41026 12.5545 6.41026C13.0913 6.41026 13.6091 6.48247 14.1026 6.61281V3.09443L11.7581 0.75H11.0064V4.22115C11.0064 4.78211 10.5513 5.23718 9.99038 5.23718H4.22115C3.6602 5.23718 3.20513 4.78211 3.20513 4.22115V0.75H1.65705ZM7.69231 0H9.72436V3.95513H7.69231V0ZM8.44231 0.75V3.20513H8.97436V0.75H8.44231ZM7.69231 12.5545C7.69231 9.86917 9.86917 7.69231 12.5545 7.69231C15.2398 7.69231 17.4167 9.86917 17.4167 12.5545C17.4167 15.2398 15.2398 17.4167 12.5545 17.4167C9.86917 17.4167 7.69231 15.2398 7.69231 12.5545ZM12.5545 8.44231C10.2834 8.44231 8.44231 10.2834 8.44231 12.5545C8.44231 14.8256 10.2834 16.6667 12.5545 16.6667C14.8256 16.6667 16.6667 14.8256 16.6667 12.5545C16.6667 10.2834 14.8256 8.44231 12.5545 8.44231ZM14.0246 11.0844C13.9204 10.9802 13.7527 10.9802 13.6485 11.0844L12.5545 12.1784L11.4605 11.0844C11.4083 11.0322 11.341 11.0064 11.2724 11.0064C11.2039 11.0064 11.1365 11.0322 11.0844 11.0844C10.9802 11.1886 10.9802 11.3563 11.0844 11.4605L12.1784 12.5545L11.0844 13.6485C10.9802 13.7527 10.9802 13.9204 11.0844 14.0246C11.1364 14.0766 11.2039 14.1026 11.2724 14.1026C11.341 14.1026 11.4085 14.0766 11.4605 14.0246L12.5545 12.9306L13.6485 14.0246C13.7005 14.0766 13.768 14.1026 13.8365 14.1026C13.9051 14.1026 13.9726 14.0766 14.0246 14.0246C14.1288 13.9204 14.1288 13.7527 14.0246 13.6485L12.9306 12.5545L14.0246 11.4605C14.1288 11.3563 14.1288 11.1886 14.0246 11.0844ZM13.1181 10.554C13.5152 10.157 14.1578 10.157 14.5549 10.554C14.952 10.9511 14.952 11.5937 14.5549 11.9908L13.9913 12.5545L14.5549 13.1181C14.952 13.5152 14.952 14.1578 14.5549 14.5549C14.3569 14.7529 14.0962 14.8526 13.8365 14.8526C13.5768 14.8526 13.3162 14.7529 13.1181 14.5549L12.5545 13.9913L11.9908 14.5549C11.7928 14.7529 11.5321 14.8526 11.2724 14.8526C11.0127 14.8526 10.7521 14.7529 10.554 14.5549C10.157 14.1578 10.157 13.5152 10.554 13.1181L11.1177 12.5545L10.554 11.9908C10.157 11.5937 10.157 10.9511 10.554 10.554C10.7525 10.3556 11.0131 10.2564 11.2724 10.2564C11.5318 10.2564 11.7924 10.3556 11.9908 10.554L12.5545 11.1177L13.1181 10.554Z" fill="var(--fill-0, black)"/>
</svg>
