<svg preserveAspectRatio="none" width="100%" height="100%" overflow="visible" style="display: block;" viewBox="0 0 20 20" fill="none" xmlns="http://www.w3.org/2000/svg">
<g id="upload">
<path id="Vector" d="M11.6 1.8125C9.51406 1.8125 7.74844 3.06094 6.9 4.825C6.44844 4.51406 5.925 4.2875 5.3375 4.2875C3.84688 4.2875 2.65781 5.46719 2.575 6.9375C1.08438 7.475 0 8.86563 0 10.5375C0 12.6688 1.73125 14.4 3.8625 14.4H7.2C7.34375 14.4016 7.47813 14.3266 7.55156 14.2016C7.62344 14.0766 7.62344 13.9234 7.55156 13.7984C7.47813 13.6734 7.34375 13.5984 7.2 13.6H3.8625C2.1625 13.6 0.8 12.2359 0.8 10.5375C0.8 9.12344 1.75313 7.93281 3.05 7.575C3.22656 7.52344 3.34531 7.35781 3.3375 7.175C3.33594 7.11875 3.3375 7.09063 3.3375 7.0875C3.3375 5.97656 4.22656 5.0875 5.3375 5.0875C5.89375 5.0875 6.4 5.31094 6.7625 5.675C6.85781 5.76719 6.99375 5.80781 7.12344 5.77969C7.25469 5.75156 7.3625 5.66094 7.4125 5.5375C8.04219 3.8375 9.67656 2.6125 11.6 2.6125C14.0688 2.6125 16.0625 4.60781 16.0625 7.075C16.0625 7.25781 16.0484 7.4375 16.025 7.625C16.0109 7.7375 16.0453 7.85 16.1188 7.93594C16.1922 8.02188 16.3 8.07188 16.4125 8.075H16.4375C17.9672 8.075 19.2 9.30781 19.2 10.8375C19.2 12.3672 17.9672 13.6 16.4375 13.6H12.8C12.6563 13.5984 12.5219 13.6734 12.4484 13.7984C12.3766 13.9234 12.3766 14.0766 12.4484 14.2016C12.5219 14.3266 12.6563 14.4016 12.8 14.4H16.4375C18.4 14.4 20 12.8 20 10.8375C20 9.01719 18.6031 7.57031 16.8375 7.3625C16.8438 7.26563 16.8625 7.175 16.8625 7.075C16.8625 4.175 14.5 1.8125 11.6 1.8125ZM10 8.6375L9.7125 8.9125L7.7125 10.9125C7.55313 11.0719 7.55313 11.3281 7.7125 11.4875C7.87188 11.6469 8.12813 11.6469 8.2875 11.4875L9.6 10.175V17.2C9.59844 17.3438 9.67344 17.4781 9.79844 17.5516C9.92344 17.6234 10.0766 17.6234 10.2016 17.5516C10.3266 17.4781 10.4016 17.3438 10.4 17.2V10.175L11.7125 11.4875C11.8719 11.6469 12.1281 11.6469 12.2875 11.4875C12.4469 11.3281 12.4469 11.0719 12.2875 10.9125L10.2875 8.9125L10 8.6375Z" fill="var(--fill-0, black)"/>
</g>
</svg>
