<svg preserveAspectRatio="none" width="100%" height="100%" overflow="visible" style="display: block;" viewBox="0 0 20 20" fill="none" xmlns="http://www.w3.org/2000/svg">
<g id="yen" clip-path="url(#clip0_0_9)">
<path id="Vector" d="M10 0.8C4.92372 0.8 0.8 4.92372 0.8 10C0.8 15.0763 4.92372 19.2 10 19.2C15.0763 19.2 19.2 15.0763 19.2 10C19.2 4.92372 15.0763 0.8 10 0.8ZM10 1.6C14.6439 1.6 18.4 5.35607 18.4 10C18.4 14.6439 14.6439 18.4 10 18.4C5.35607 18.4 1.6 14.6439 1.6 10C1.6 5.35607 5.35607 1.6 10 1.6ZM6.36016 5.2L9.2 10.1203H7.8V10.7203H9.52031L9.6 10.8398V11.8398H7.8V12.4398H9.6V14.8H10.4398V12.4398H12.2797V11.8398H10.4398V10.8398L10.5203 10.7203H12.2797V10.1203H10.8L13.6398 5.2H12.7203L10 10.1203L7.32031 5.2H6.36016Z" fill="var(--fill-0, black)"/>
</g>
<defs>
<clipPath id="clip0_0_9">
<rect width="20" height="20" fill="white"/>
</clipPath>
</defs>
</svg>
