<svg preserveAspectRatio="none" width="100%" height="100%" overflow="visible" style="display: block;" viewBox="0 0 20 20" fill="none" xmlns="http://www.w3.org/2000/svg">
<g id="zoom-out">
<path id="Vector" d="M8.4 1.2C4.64844 1.2 1.6 4.24844 1.6 8C1.6 11.7516 4.64844 14.8 8.4 14.8C9.88438 14.8 11.2563 14.3219 12.375 13.5125L17.6375 18.7625L18.7625 17.6375L13.5625 12.425C14.5844 11.2344 15.2 9.68906 15.2 8C15.2 4.24844 12.1516 1.2 8.4 1.2ZM8.4 2C11.7188 2 14.4 4.68125 14.4 8C14.4 11.3188 11.7188 14 8.4 14C5.08125 14 2.4 11.3188 2.4 8C2.4 4.68125 5.08125 2 8.4 2ZM5.2 7.6V8.4H11.6V7.6H5.2Z" fill="var(--fill-0, black)"/>
</g>
</svg>
